<svg width="141" height="25" viewBox="0 0 141 25" fill="none" xmlns="http://www.w3.org/2000/svg">
<g opacity="0.87">
<path d="M16.4167 24.098C18.9278 24.098 20.9633 21.9952 20.9633 19.3986C20.9633 16.8021 18.9278 14.6992 16.4167 14.6992C13.9056 14.6992 11.8701 16.8021 11.8701 19.3986C11.8701 21.9952 13.9056 24.098 16.4167 24.098Z" fill="white"/>
<path d="M28.3024 24.098C30.8135 24.098 32.849 21.9952 32.849 19.3986C32.849 16.8021 30.8135 14.6992 28.3024 14.6992C25.7913 14.6992 23.7559 16.8021 23.7559 19.3986C23.7559 21.9952 25.7913 24.098 28.3024 24.098Z" fill="white"/>
<path d="M128.623 19.1728C125.614 19.1728 122.942 16.9216 122.255 13.8109H140.111C140.111 13.8109 140.207 12.6853 140.207 12.2862C140.207 5.68605 135.012 0.316406 128.625 0.316406C122.238 0.316406 117.043 5.68605 117.043 12.2862C117.043 18.8863 122.208 24.1306 128.625 24.1306C135.042 24.1306 138.785 19.247 139.722 15.7116H134.278C134.278 15.7116 132.548 19.1728 128.623 19.1728ZM128.625 5.27162C131.508 5.27162 134.012 7.23887 134.869 10.1731H122.381C123.236 7.23887 125.739 5.27162 128.625 5.27162Z" fill="white"/>
<path d="M60.4807 24.1332C54.0958 24.1332 49.0859 18.8198 49.0859 12.2887C49.0859 5.75768 54.2831 0.316406 60.668 0.316406C67.0529 0.316406 72.2501 5.89838 72.2501 12.2222V23.5371H67.7528V19.7612L67.425 19.6717C66.634 21.6773 63.7656 24.1306 60.4807 24.1306V24.1332ZM60.668 5.27418C57.0603 5.27418 54.1254 8.40285 54.1254 12.2504C54.1254 16.0979 57.0603 19.1754 60.668 19.1754C64.2757 19.1754 67.2106 16.0698 67.2106 12.2504C67.2106 8.43099 64.2757 5.27418 60.668 5.27418Z" fill="white"/>
<path d="M85.0784 24.1332C78.6934 24.1332 73.6836 18.8198 73.6836 12.2887C73.6836 5.75768 78.8807 0.316406 85.2657 0.316406C91.6506 0.316406 96.8477 5.89838 96.8477 12.2222V23.5371H92.3504V19.7612L92.0227 19.6717C91.2316 21.6773 88.3632 24.1306 85.0784 24.1306V24.1332ZM85.2657 5.27418C81.658 5.27418 78.723 8.40285 78.723 12.2504C78.723 16.0979 81.658 19.1754 85.2657 19.1754C88.8733 19.1754 91.8083 16.0698 91.8083 12.2504C91.8083 8.43099 88.8733 5.27418 85.2657 5.27418Z" fill="white"/>
<path d="M104.397 23.5387L95.168 0.914062H100.217L106.982 17.5807L113.746 0.914062H118.793L109.564 23.5387H104.394H104.397Z" fill="white"/>
<path d="M22.3534 0C10.0074 0 -0.00246381 10.5423 4.549e-07 23.5405H5.70971C5.70971 13.7989 13.1025 5.89919 22.3509 5.89919C31.5993 5.89919 38.9921 13.7989 38.9921 23.5405H44.7018C44.7018 10.5398 34.6944 0 22.3484 0H22.3534Z" fill="white"/>
</g>
</svg>
