<svg width="165" height="43" viewBox="0 0 165 43" fill="none" xmlns="http://www.w3.org/2000/svg">
<path d="M58.7157 27.392C58.5269 26.9389 58.2878 26.3977 58.0235 25.7559C57.7466 25.114 57.4572 24.4092 57.1299 23.6541C56.8027 22.8864 56.4755 22.1187 56.1357 21.3258C55.7959 20.5329 55.4687 19.7652 55.1414 18.9849C54.8142 18.2172 54.5248 17.5124 54.2605 16.8831L53.5808 15.247C53.3921 14.7939 53.2536 14.4793 53.1781 14.3031L52.9516 13.7871L46.6211 28.6631H49.1382L50.724 24.8245H55.1289C55.2799 25.2021 55.4309 25.5671 55.5819 25.9195C55.7455 26.3222 55.8966 26.6872 56.0476 27.027C56.186 27.3668 56.3119 27.6688 56.4252 27.9206C56.5384 28.1849 56.6265 28.3862 56.6895 28.5121L56.7524 28.6505H59.2695L59.131 28.3107C59.0429 28.1471 58.9171 27.845 58.7157 27.392ZM54.2479 22.6347H51.6301L52.939 19.4631C52.9893 19.589 53.0523 19.7526 53.1278 19.9414C53.2285 20.1805 53.3417 20.4448 53.4676 20.7594L53.8955 21.7914C54.0088 22.0683 54.122 22.3452 54.2479 22.6347Z" fill="white"/>
<path d="M66.3423 14.793H63.8252V28.6621H72.9874V26.2583H66.3423V14.793Z" fill="white"/>
<path d="M86.8699 25.1503L86.6307 25.4775C86.6307 25.4775 86.5804 25.5279 86.3665 25.6412C86.1903 25.7293 85.9511 25.8299 85.6743 25.918C85.3974 26.0187 85.0827 26.0942 84.7303 26.1697C84.3905 26.2453 84.0381 26.2704 83.6732 26.2704C82.9936 26.2704 82.3643 26.1446 81.8105 25.8803C81.2442 25.6286 80.7533 25.2762 80.3506 24.8483C79.9479 24.4204 79.6332 23.917 79.3941 23.3632C79.1676 22.822 79.0543 22.2431 79.0543 21.6516C79.0543 21.0475 79.1802 20.456 79.4193 19.9022C79.6584 19.3484 79.9982 18.845 80.4135 18.4171C80.8289 17.9892 81.3323 17.6494 81.9112 17.3977C82.4901 17.146 83.1194 17.0201 83.799 17.0201C83.9878 17.0201 84.2018 17.0327 84.4283 17.0579C84.6548 17.0831 84.894 17.1208 85.1079 17.1586C85.3344 17.2089 85.5484 17.2593 85.7498 17.3348C85.9385 17.3977 86.1147 17.4858 86.2532 17.5865L86.4671 17.7375L86.593 17.4984C86.7188 17.2718 86.8195 17.0956 86.895 16.9572C86.9706 16.8188 87.0335 16.7055 87.0964 16.6048C87.1593 16.5041 87.2223 16.3909 87.2726 16.2902C87.3229 16.1895 87.3985 16.0762 87.4991 15.9378L87.6124 15.7616L87.4614 15.6231C87.3104 15.4847 87.0964 15.3463 86.8195 15.2204C86.5552 15.0946 86.2532 14.9939 85.9134 14.9058C85.5736 14.8177 85.2212 14.7422 84.8436 14.6918C83.4592 14.503 82.1377 14.6667 80.9421 15.1449C80.0737 15.4973 79.306 16.0007 78.6516 16.6426C78.0097 17.2718 77.4811 18.0396 77.1161 18.9205C76.7386 19.8015 76.5498 20.7706 76.5498 21.8026C76.5498 22.7339 76.7134 23.6401 77.0281 24.4707C77.3427 25.3139 77.8083 26.0565 78.4124 26.6983C79.0166 27.3402 79.7465 27.8436 80.6023 28.2212C81.4581 28.5987 82.4398 28.7875 83.5096 28.7875C84.013 28.7875 84.4912 28.7498 84.9443 28.6743C85.3848 28.5987 85.8001 28.4981 86.1651 28.3848C86.5301 28.2715 86.8573 28.1457 87.1342 28.0072C87.411 27.8688 87.625 27.7429 87.7886 27.6171L87.9396 27.5038L87.0083 25.5027L86.8699 25.1503Z" fill="white"/>
<path d="M101.493 20.4805H95.2761V14.7919H92.7842V28.661H95.2761V22.8843H101.493V28.661H103.985V23.9541C103.985 23.2115 103.985 22.4564 103.998 21.7265C103.998 20.9587 104.01 20.2036 104.01 19.4863V14.7793H101.493V20.4805Z" fill="white"/>
<path d="M112.833 22.8854H118.849V20.5319H112.833V17.0961H119.592V14.793H110.316V28.6621H119.844V26.3086H112.833V22.8854Z" fill="white"/>
<path d="M138.18 14.9814C137.953 15.3086 137.676 15.6862 137.362 16.1267C137.047 16.5546 136.707 17.0328 136.317 17.574C135.94 18.1152 135.549 18.6438 135.172 19.1724L134.039 20.7455C133.674 21.2615 133.334 21.7146 133.045 22.1174C132.755 22.5201 132.516 22.8599 132.315 23.1368C132.252 23.2249 132.202 23.3004 132.151 23.3633C132.026 23.1997 131.875 22.9857 131.686 22.7089C131.346 22.2432 130.956 21.6894 130.49 21.0602L129.03 19.0339C128.514 18.3165 128.023 17.6369 127.558 16.9951L126.337 15.3086C125.985 14.8304 125.758 14.5032 125.657 14.327L125.217 13.6348V28.6744H127.709V21.249C127.923 21.551 128.174 21.9034 128.451 22.2935C128.766 22.7466 129.118 23.2375 129.496 23.766C129.873 24.3072 130.238 24.8106 130.566 25.2637C130.905 25.7294 131.195 26.1447 131.447 26.4971C131.698 26.8495 131.874 27.076 131.963 27.2019L132.177 27.4787L132.365 27.1893C132.453 27.0634 132.604 26.8243 132.844 26.4845C133.083 26.1447 133.347 25.7545 133.662 25.3141C133.964 24.8736 134.291 24.3953 134.643 23.9045C134.983 23.4011 135.323 22.9354 135.625 22.4823C135.94 22.0293 136.216 21.6265 136.456 21.2741C136.468 21.2615 136.481 21.249 136.481 21.2364V28.6869H139.111V13.748L138.683 14.2892C138.57 14.4151 138.406 14.6416 138.18 14.9814Z" fill="white"/>
<path d="M147.909 14.793H145.417V28.6621H147.909V14.793Z" fill="white"/>
<path d="M160.268 21.6761C160.344 21.5503 160.457 21.3741 160.608 21.1349L161.363 19.9393C161.653 19.4988 161.955 18.9954 162.282 18.4794C162.609 17.9634 162.911 17.4726 163.201 17.0195C163.49 16.5664 163.742 16.1637 163.956 15.8239C164.157 15.4967 164.308 15.2701 164.371 15.1569L164.623 14.7793H161.565L161.489 14.8926C161.426 14.9932 161.325 15.1569 161.187 15.396C161.049 15.6351 160.885 15.8994 160.709 16.2015C160.533 16.5035 160.344 16.8181 160.142 17.1579C159.941 17.4978 159.752 17.8124 159.576 18.1144C159.4 18.4165 159.236 18.6808 159.098 18.9199C158.959 19.1464 158.859 19.3226 158.796 19.4107L158.783 19.4359C158.771 19.4485 158.745 19.5114 158.708 19.5869C158.67 19.4988 158.632 19.4485 158.632 19.4359L158.62 19.4107C158.557 19.3101 158.456 19.1464 158.318 18.9199C158.179 18.6808 158.015 18.4165 157.827 18.1144C157.638 17.8124 157.449 17.4978 157.235 17.1579C157.021 16.8181 156.832 16.5035 156.644 16.2015C156.455 15.8994 156.291 15.6351 156.14 15.396C155.989 15.1569 155.889 14.9932 155.826 14.9052L155.75 14.7919H152.704L157.046 21.5754L152.516 28.6736H155.599L156.228 27.6416C156.505 27.2011 156.795 26.7103 157.097 26.1817C157.399 25.6657 157.688 25.1875 157.965 24.7344L158.519 23.8282C158.544 23.8031 158.557 23.7653 158.607 23.6772C158.62 23.6898 158.62 23.7024 158.632 23.715C158.682 23.8156 158.733 23.9037 158.796 23.9793L161.703 28.6485H164.799L160.268 21.6761Z" fill="white"/>
<path d="M21.7271 40.4543C32.0699 40.4543 40.4543 32.0698 40.4543 21.7271C40.4543 11.3844 32.0699 3 21.7271 3C11.3844 3 3 11.3844 3 21.7271C3 32.0698 11.3844 40.4543 21.7271 40.4543Z" stroke="white" stroke-width="5.11274" stroke-miterlimit="10" stroke-linecap="round" stroke-linejoin="round"/>
<path d="M21.7275 27.1387V40.4541" stroke="white" stroke-width="5.11274" stroke-miterlimit="10" stroke-linecap="round" stroke-linejoin="round"/>
<path d="M21.7275 3V6.93924" stroke="white" stroke-width="5.11274" stroke-miterlimit="10" stroke-linecap="round" stroke-linejoin="round"/>
<path d="M21.7265 27.1391L8.96484 17.0456L21.7265 6.93945L34.4881 17.0456L28.7869 21.5511" stroke="white" stroke-width="5.11274" stroke-miterlimit="10" stroke-linecap="round" stroke-linejoin="round"/>
<path d="M32.5244 28.034L34.4877 26.4734V17.0469" stroke="white" stroke-width="5.11274" stroke-miterlimit="10" stroke-linecap="round" stroke-linejoin="round"/>
<path d="M8.96484 17.0469V26.4734L21.7265 36.5795L27.4906 32.0235" stroke="white" stroke-width="5.11274" stroke-miterlimit="10" stroke-linecap="round" stroke-linejoin="round"/>
<path d="M11.2066 28.2461L9.0293 32.0217H15.9765" stroke="white" stroke-width="5.11274" stroke-miterlimit="10" stroke-linecap="round" stroke-linejoin="round"/>
<path d="M21.7282 32.0228H34.427L21.7282 10.0234L15.0957 21.5265" stroke="white" stroke-width="5.11274" stroke-miterlimit="10" stroke-linecap="round" stroke-linejoin="round"/>
</svg>
