<svg width="222" height="57" viewBox="0 0 222 57" fill="none" xmlns="http://www.w3.org/2000/svg">
<g clip-path="url(#clip0_25090_526)">
<path d="M1.50293 13.6172V31.1833C1.50293 32.3011 2.09848 33.3362 3.06983 33.8956L18.2813 42.6739C19.2527 43.2334 20.4438 43.2334 21.4151 42.6739L36.6266 33.8956C37.5979 33.3362 38.1935 32.3011 38.1935 31.1833V13.6172C38.1935 12.4994 37.5979 11.4643 36.6266 10.9049L21.4151 2.12662C20.4438 1.56717 19.2527 1.56717 18.2813 2.12662L3.06983 10.9049C2.10803 11.4643 1.50293 12.4994 1.50293 13.6172Z" fill="#0A0A0A"/>
<path d="M29.1301 32.4343L26.3999 39.9095C26.3198 40.1164 26.3198 40.3472 26.3999 40.5541L31.0876 53.4203L36.5132 50.2871L30.0054 32.4343C29.856 32.0193 29.2795 32.0193 29.1301 32.4343Z" fill="white"/>
<path d="M34.5884 19.8562C34.439 19.4412 33.8625 19.4412 33.7131 19.8562L30.9829 27.3314C30.9028 27.5383 30.9028 27.7691 30.9829 27.9759L38.665 49.0433L44.0906 45.9102L34.5884 19.8562Z" fill="white"/>
<path d="M19.8485 2.77605C19.9589 2.77605 20.0597 2.80365 20.1595 2.85885L36.6173 12.3611C36.8094 12.4715 36.9283 12.6722 36.9283 12.893V31.8975C36.9283 32.1172 36.8094 32.3189 36.6173 32.4293L20.1595 41.9411C20.0682 41.9963 19.9578 42.0239 19.8485 42.0239C19.7391 42.0239 19.6372 41.9963 19.5374 41.9411L3.08815 32.4389C2.89601 32.3285 2.77711 32.1278 2.77711 31.907V12.893C2.77711 12.6732 2.89601 12.4715 3.08815 12.3611L19.5459 2.85885C19.6372 2.80365 19.7476 2.77605 19.8485 2.77605ZM19.8485 0C19.2625 0 18.6754 0.156053 18.1531 0.458605L1.69535 9.96086C0.650752 10.5649 0 11.6838 0 12.893V31.8975C0 33.1066 0.650752 34.234 1.69535 34.8391L18.1531 44.3414C18.6754 44.6439 19.2614 44.8 19.8485 44.8C20.4355 44.8 21.0215 44.6439 21.5438 44.3414L38.0016 34.8391C39.0558 34.234 39.697 33.1162 39.697 31.8975V12.893C39.697 11.6838 39.0462 10.5564 38.0016 9.95131L21.5523 0.458605C21.0205 0.156053 20.4345 0 19.8474 0H19.8485Z" fill="white"/>
<path d="M8.97168 39.0368L10.4834 34.8945L13.5259 37.4232L10.6851 40.0262L8.97168 39.0368Z" fill="black"/>
<path d="M23.2093 14.502H17.9692C17.5782 14.502 17.2206 14.7435 17.0938 15.1118L5.85156 45.9349L11.2772 49.068L23.659 15.1238C23.7631 14.8249 23.5442 14.502 23.2093 14.502Z" fill="white"/>
<path d="M32.3903 14.502H27.1502C26.7592 14.502 26.4016 14.7435 26.2748 15.1118L13.4326 50.3117L18.8583 53.4448L32.828 15.1358C32.9427 14.8249 32.7132 14.502 32.3903 14.502Z" fill="white"/>
<path d="M72.2307 20.916C72.7485 20.916 73.1981 21.0201 73.5558 21.2389C73.9134 21.4578 74.2697 21.8728 74.6153 22.4946L81.4567 34.9111C81.5261 35.0499 81.5368 35.1646 81.5034 35.2567C81.4687 35.3488 81.3646 35.3955 81.2045 35.3955H78.5784C78.3476 35.3955 78.1874 35.3034 78.106 35.1299L76.6435 32.4692H66.9332L65.5054 35.1299C65.4133 35.3141 65.2518 35.3955 65.033 35.3955H62.3496C62.1654 35.3955 62.0613 35.3488 62.0266 35.2567C61.9919 35.1646 62.0039 35.0499 62.0733 34.9111L68.8574 22.4946C69.203 21.8728 69.5366 21.4578 69.8715 21.2389C70.2051 21.0201 70.5854 20.916 71.0231 20.916H72.232H72.2307ZM68.2102 30.0499H75.3278L72.0452 23.9918C71.9879 23.8997 71.9185 23.8423 71.8144 23.8423H71.6876C71.5955 23.8423 71.5155 23.889 71.4568 23.9918L68.2089 30.0499H68.2102Z" fill="white"/>
<path d="M96.489 20.916C98.0782 20.916 99.2071 21.2736 99.8983 21.9875C100.59 22.7014 100.935 23.7609 100.935 25.1661V26.3403C100.935 27.5266 100.694 28.4593 100.209 29.1505C99.7249 29.8418 98.9416 30.2794 97.8474 30.4756L101.384 34.8524C101.453 34.9218 101.476 35.0245 101.441 35.1633C101.418 35.3021 101.302 35.3701 101.107 35.3701H98.4465C98.2624 35.3701 98.1476 35.3475 98.0782 35.3128C98.0088 35.2661 97.9394 35.198 97.8714 35.1059L94.6008 30.8092H87.9208V34.9218C87.9208 35.2207 87.7714 35.3715 87.4712 35.3715H85.2361C84.9131 35.3715 84.7637 35.222 84.7637 34.9218V21.5378C84.7637 21.1228 84.9705 20.916 85.3855 20.916H96.489ZM87.9315 28.2992H95.8445C96.5477 28.2992 97.0427 28.1497 97.331 27.8495C97.6192 27.5506 97.7686 27.0889 97.7686 26.4671V25.6037C97.7686 24.9819 97.6192 24.5215 97.331 24.2213C97.0427 23.9224 96.5477 23.7716 95.8445 23.7716H88.1957C88.0116 23.7716 87.9302 23.8517 87.9302 24.0251V28.2979L87.9315 28.2992Z" fill="white"/>
<path d="M118.223 20.916C119.64 20.916 120.653 21.2042 121.252 21.7687C121.851 22.3331 122.15 23.1858 122.15 24.3254V25.3155C122.15 26.4671 121.712 27.3424 120.825 27.9416C121.77 28.494 122.253 29.3814 122.253 30.6024V31.8006C122.253 32.3531 122.196 32.8481 122.069 33.2872C121.942 33.7248 121.746 34.1051 121.459 34.416C121.171 34.727 120.802 34.9685 120.33 35.1299C119.858 35.2914 119.283 35.3835 118.591 35.3835H106.312C105.897 35.3835 105.69 35.1766 105.69 34.7617V21.5392C105.69 21.1242 105.897 20.9173 106.312 20.9173H118.222L118.223 20.916ZM108.858 26.9288H117.336C118.027 26.9288 118.487 26.8247 118.741 26.6179C118.994 26.411 119.109 26.1108 119.109 25.7078V25.0046C119.109 24.5789 118.994 24.268 118.751 24.0598C118.51 23.8637 118.118 23.7609 117.588 23.7609H109.133C108.949 23.7609 108.868 23.853 108.868 24.0265V26.9288H108.856H108.858ZM108.858 29.1866V32.2623C108.858 32.4465 108.95 32.5279 109.124 32.5279H117.601C118.154 32.5279 118.546 32.4238 118.775 32.229C119.005 32.0342 119.133 31.7112 119.133 31.2736V30.4903C119.133 30.0646 119.006 29.7417 118.753 29.5228C118.499 29.304 118.027 29.1892 117.336 29.1892H108.858V29.1866Z" fill="white"/>
<path d="M129.96 20.916C130.259 20.916 130.41 21.0655 130.41 21.3657V34.9231C130.41 35.222 130.261 35.3728 129.96 35.3728H127.725C127.402 35.3728 127.253 35.2234 127.253 34.9231V21.3777C127.253 21.0788 127.414 20.928 127.725 20.928L129.96 20.916Z" fill="white"/>
<path d="M151.615 20.916C151.938 20.916 152.088 21.0655 152.088 21.3657V23.3926C152.088 23.7156 151.926 23.865 151.615 23.865H145.13V34.9231C145.13 35.222 144.981 35.3728 144.681 35.3728H142.423C142.124 35.3728 141.973 35.2234 141.973 34.9231V23.865H135.488C135.165 23.865 135.016 23.7036 135.016 23.3926V21.3657C135.016 21.0668 135.177 20.916 135.488 20.916H151.614H151.615Z" fill="white"/>
<path d="M167.959 20.916C169.548 20.916 170.677 21.2736 171.368 21.9875C172.059 22.7014 172.405 23.7609 172.405 25.1661V26.3403C172.405 27.5266 172.163 28.4593 171.679 29.1505C171.195 29.8418 170.411 30.2794 169.317 30.4756L172.853 34.8524C172.923 34.9218 172.945 35.0245 172.911 35.1633C172.888 35.3021 172.772 35.3701 172.577 35.3701H169.916C169.732 35.3701 169.617 35.3475 169.548 35.3128C169.479 35.2661 169.409 35.198 169.341 35.1059L166.071 30.8092H159.391V34.9218C159.391 35.2207 159.241 35.3715 158.941 35.3715H156.706C156.383 35.3715 156.233 35.222 156.233 34.9218V21.5378C156.233 21.1228 156.44 20.916 156.855 20.916H167.959ZM159.412 28.2992H167.325C168.028 28.2992 168.523 28.1497 168.811 27.8495C169.1 27.5506 169.249 27.0889 169.249 26.4671V25.6037C169.249 24.9819 169.1 24.5215 168.811 24.2213C168.523 23.9224 168.028 23.7716 167.325 23.7716H159.676C159.492 23.7716 159.411 23.8517 159.411 24.0251V28.2979L159.412 28.2992Z" fill="white"/>
<path d="M179.581 20.916C179.88 20.916 180.031 21.0655 180.031 21.3657V29.6122C180.031 30.1647 180.078 30.6264 180.17 30.9827C180.262 31.351 180.411 31.6392 180.619 31.846C180.826 32.0648 181.104 32.2143 181.46 32.2957C181.818 32.3878 182.255 32.4345 182.796 32.4345H188.52C189.062 32.4345 189.5 32.3878 189.856 32.2957C190.214 32.2036 190.49 32.0542 190.697 31.846C190.904 31.6272 191.054 31.3389 191.134 30.9827C191.214 30.6144 191.261 30.1647 191.261 29.6122V21.3657C191.261 21.0668 191.411 20.916 191.711 20.916H193.969C194.268 20.916 194.418 21.0655 194.418 21.3657V29.9232C194.418 30.9133 194.314 31.7539 194.107 32.4572C193.901 33.1484 193.566 33.7128 193.105 34.1505C192.645 34.5882 192.046 34.8991 191.308 35.0953C190.571 35.2914 189.684 35.3835 188.635 35.3835H182.68C181.632 35.3835 180.745 35.2914 180.019 35.0953C179.293 34.8991 178.694 34.5882 178.234 34.1505C177.773 33.7128 177.438 33.1484 177.219 32.4572C177.001 31.7659 176.896 30.9133 176.896 29.9232V21.3657C176.896 21.0668 177.058 20.916 177.369 20.916H179.58H179.581Z" fill="white"/>
<path d="M203.297 20.916C203.596 20.916 203.861 20.9387 204.08 20.9734C204.299 21.0201 204.495 21.0882 204.657 21.2149C204.818 21.3297 204.967 21.4911 205.106 21.6873C205.233 21.8834 205.372 22.1477 205.509 22.4826L209.806 32.3998C209.863 32.5266 209.955 32.5839 210.094 32.5839H210.348C210.487 32.5839 210.579 32.5266 210.636 32.3998L214.933 22.4826C215.071 22.149 215.209 21.8834 215.336 21.6873C215.462 21.4911 215.612 21.3297 215.785 21.2149C215.947 21.1002 216.143 21.0188 216.35 20.9734C216.569 20.9267 216.822 20.916 217.121 20.916H219.332C220.046 20.916 220.53 21.0775 220.784 21.4004C221.038 21.7233 221.152 22.2758 221.152 23.059V34.9231C221.152 35.222 220.991 35.3728 220.68 35.3728H218.572C218.273 35.3728 218.122 35.2234 218.122 34.9231V24.1306C218.122 23.9918 218.065 23.9237 217.96 23.9237H217.776C217.638 23.9237 217.545 23.9811 217.511 24.0852L213.341 33.3459C213.179 33.7142 213.007 34.0371 212.834 34.2906C212.662 34.5442 212.476 34.751 212.281 34.9245C212.085 35.0859 211.856 35.2127 211.602 35.2821C211.349 35.3515 211.05 35.3862 210.704 35.3862H209.714C209.368 35.3862 209.069 35.3515 208.816 35.2821C208.562 35.2127 208.331 35.0979 208.137 34.9245C207.94 34.763 207.746 34.5442 207.584 34.2906C207.412 34.0371 207.239 33.7262 207.077 33.3459L202.907 24.0852C202.86 23.9704 202.78 23.9237 202.642 23.9237H202.457C202.343 23.9237 202.296 23.9931 202.296 24.1306V34.9231C202.296 35.222 202.147 35.3728 201.846 35.3728H199.738C199.415 35.3728 199.266 35.2234 199.266 34.9231V23.059C199.266 22.2758 199.392 21.7233 199.634 21.4004C199.887 21.0775 200.37 20.916 201.096 20.916H203.297Z" fill="white"/>
</g>
<defs>
<clipPath id="clip0_25090_526">
<rect width="221.15" height="56.3126" fill="white"/>
</clipPath>
</defs>
</svg>
