<svg width="132" height="40" viewBox="0 0 132 40" fill="none" xmlns="http://www.w3.org/2000/svg">
<path d="M29.5236 32.9698L33.0152 34.7458C34.0412 35.2676 35.2836 34.804 35.6807 33.6908C36.7006 30.8314 37.4981 27.4446 37.7727 23.9602C38.0942 19.8832 37.6969 15.7145 36.1417 12.1072L36.1395 12.1082C36.0704 11.9528 36.0002 11.7978 35.9288 11.6433C35.3936 10.5748 34.3914 9.26435 32.9153 8.39727C31.2517 7.41994 28.9404 6.97762 25.9075 8.16012C25.2641 8.41099 24.6091 8.73517 23.9521 9.12188C24.7772 10.583 25.3684 12.5536 25.4153 15.152C25.4578 17.5004 25.0917 19.7243 24.5309 21.7057L29.8448 23.7593C31.1015 24.2449 31.9265 25.5372 31.6756 26.906C31.374 28.5514 30.8684 30.1531 30.1743 31.6751C29.9775 32.1066 29.7611 32.5398 29.5236 32.9698Z" fill="white"/>
<path d="M11.5039 31.4126C11.9578 31.2703 12.4372 31.0646 12.9402 30.7785C15.0708 29.5669 16.682 27.5885 17.8274 25.6477C18.57 24.3895 19.1284 23.1273 19.5124 22.0612C19.6855 21.5804 20.197 21.3191 20.6599 21.4979L29.2625 24.8225C30.1289 25.1573 30.6752 26.0634 30.4801 27.0024C30.223 28.2399 29.7903 29.6951 29.1227 31.1588C28.0286 33.558 26.3236 35.9383 23.7724 37.4428C21.6644 38.6859 19.5083 39.3272 17.4929 39.4236C15.2971 39.0368 13.8564 38.0448 12.9386 36.7199C11.9669 35.3171 11.5349 33.4737 11.5039 31.4126Z" fill="white"/>
<path d="M16.8349 0.176503C22.2606 -0.484369 26.292 0.76507 29.352 3.01409C30.9779 4.20907 32.3434 5.6965 33.5015 7.35505L33.489 7.34772C31.5138 6.18744 28.8417 5.7276 25.4987 7.03103C21.0107 8.78084 16.1726 13.7117 13.5968 18.7401C11.9261 22.0016 10.2785 27.0028 10.3408 31.4169C10.372 33.6294 10.8338 35.7501 11.9943 37.4254C12.3983 38.0086 12.8814 38.5299 13.4494 38.9782C9.31651 37.9081 4.11635 34.9284 1.31386 28.0602C-1.13181 22.0667 0.0310438 15.432 3.19971 10.0994C6.37322 4.75874 11.4981 0.826561 16.8349 0.176503Z" fill="white"/>
<path d="M63.3254 11.828C63.3808 11.6324 63.5535 11.4981 63.7496 11.4981H66.8206C67.0649 11.4981 67.2629 11.7039 67.2629 11.9578V30.7986C67.2629 31.0525 67.0649 31.2584 66.8206 31.2584H63.5826C63.3821 31.2584 63.2066 31.1182 63.1551 30.9168L62.784 29.4653C61.1618 30.9656 59.0457 31.8439 56.6123 31.8439C50.8991 31.8439 46.6318 27.343 46.6318 21.3782C46.6318 15.4136 50.8991 10.9492 56.6123 10.9492C59.081 10.9492 61.2323 11.8641 62.8898 13.3644L63.3254 11.828ZM57.0355 26.7941C60.0332 26.7941 62.2197 24.4887 62.2197 21.3782C62.2197 18.2679 60.0332 15.9625 57.0355 15.9625C54.0378 15.9625 51.8513 18.2679 51.8513 21.3782C51.8513 24.4521 54.0378 26.7941 57.0355 26.7941Z" fill="white"/>
<path d="M83.9247 11.8022C83.9879 11.6197 84.1544 11.498 84.3409 11.498H88.7038C89.0162 11.498 89.2302 11.8256 89.1149 12.1274L81.919 30.9682C81.852 31.1433 81.6891 31.2583 81.5079 31.2583H77.3444C77.1646 31.2583 77.0027 31.1453 76.9348 30.9723L69.5372 12.1314C69.4184 11.8291 69.6324 11.498 69.9467 11.498H74.4807C74.6665 11.498 74.8324 11.6187 74.8962 11.8001L79.4453 24.7448L83.9247 11.8022Z" fill="white"/>
<path d="M106.264 11.4981H109.665C109.91 11.4981 110.108 11.7039 110.108 11.9578V30.7986C110.108 31.0525 109.91 31.2584 109.665 31.2584H106.427C106.227 31.2584 106.051 31.1182 105.999 30.9168L105.628 29.4653C104.007 30.9656 101.89 31.8439 99.4574 31.8439C93.7438 31.8439 89.4766 27.343 89.4766 21.3782C89.4766 15.4136 93.7438 10.9492 99.4574 10.9492C101.926 10.9492 104.077 11.8641 105.734 13.3644L106.264 11.4981ZM99.8803 26.7941C102.878 26.7941 105.065 24.4887 105.065 21.3782C105.065 18.2679 102.878 15.9625 99.8803 15.9625C96.883 15.9625 94.6957 18.2679 94.6957 21.3782C94.6957 24.4521 96.883 26.7941 99.8803 26.7941Z" fill="white"/>
<path d="M116.909 9.56168C115.538 9.56168 114.426 8.40585 114.426 6.98006C114.426 5.55427 115.538 4.39844 116.909 4.39844H117.055C118.426 4.39844 119.539 5.55427 119.539 6.98006C119.539 8.40585 118.426 9.56168 117.055 9.56168H116.909ZM114.832 31.2576C114.588 31.2576 114.39 31.0518 114.39 30.7979V11.9571C114.39 11.7032 114.588 11.4974 114.832 11.4974H119.097C119.341 11.4974 119.539 11.7032 119.539 11.9571V30.7979C119.539 31.0518 119.341 31.2576 119.097 31.2576H114.832Z" fill="white"/>
<path d="M128.925 24.7686C128.925 25.2343 129.018 25.5629 129.203 25.7547C129.413 25.9191 129.743 26.0013 130.192 26.0013C130.416 26.0013 130.624 26.0013 130.928 26.0013C131.233 26.0013 131.42 26.2843 131.42 26.5435V30.6449V30.6636C131.42 30.9625 131.199 31.2279 130.849 31.2279C130.182 31.2279 129.629 31.2577 128.925 31.2577L127.973 31.2576C126.627 31.2576 125.584 30.8878 124.845 30.1482C124.132 29.4086 123.776 28.0938 123.776 26.2037V4.85817C123.776 4.60429 123.974 4.39848 124.218 4.39848L128.482 4.39844C128.727 4.39844 128.925 4.60425 128.925 4.85813V24.7686Z" fill="white"/>
</svg>
