<svg width="282" height="39" viewBox="0 0 282 39" fill="none" xmlns="http://www.w3.org/2000/svg">
<g clip-path="url(#clip0_25090_627)">
<path d="M56.0759 22.5405H60.5248C60.835 26.3218 63.0605 28.8817 68.2902 28.8817C72.7781 28.8817 74.1446 26.9119 74.1446 24.352C74.1446 20.7702 71.4137 20.2561 66.3402 18.9587C61.9694 17.7764 57.1692 16.3597 57.1692 11.0034C57.1692 6.12216 60.9152 3.32358 66.9258 3.32358C73.2879 3.32358 77.4243 6.59292 77.8538 12.2638H73.405C72.9365 8.87517 71.0233 7.02464 66.9649 7.02464C63.4531 7.02464 61.6571 8.32414 61.6571 10.7669C61.6571 13.9169 64.5832 14.5851 68.1752 15.492C73.5612 16.8696 78.6347 18.1691 78.6347 24.1155C78.6347 28.9577 75.3962 32.5828 68.4095 32.5828C61.4228 32.5828 56.3883 28.8817 56.0759 22.5405ZM94.2046 11.9493H98.0288V32.0318H94.2046V29.5109H94.1265C93.0745 31.0468 91.0052 32.5828 87.5693 32.5828C83.9013 32.5828 80.9361 30.4568 80.9361 25.8489V11.9493H84.7603V24.7858C84.7603 27.5041 85.9294 29.3156 88.8187 29.3156C92.0984 29.3156 94.2046 27.3067 94.2046 24.2739V11.9493ZM120.509 21.9894C120.509 28.6062 116.646 32.5828 111.571 32.5828C108.449 32.5828 106.536 31.164 105.443 29.5499H105.367V39H101.543V11.9493H105.367V14.3118H105.443C106.536 12.893 108.449 11.3592 111.571 11.3592C116.646 11.3592 120.509 15.377 120.509 21.9916V21.9894ZM116.488 21.9894C116.488 18.0519 114.692 14.5873 110.946 14.5873C107.512 14.5873 105.406 17.4228 105.406 21.9894C105.406 26.5561 107.512 29.3916 110.946 29.3916C114.692 29.3916 116.488 25.927 116.488 21.9894ZM141.231 23.0156H125.932C126.01 26.363 127.96 29.4718 131.904 29.4718C135.416 29.4718 136.782 27.1874 137.134 25.8489H141.036C139.984 29.7083 137.055 32.624 131.828 32.624C125.505 32.624 121.991 28.0942 121.991 21.9526C121.991 15.8087 125.739 11.3201 131.828 11.3201C137.914 11.3201 141.272 15.3358 141.272 21.5577C141.272 22.1109 141.27 22.701 141.231 23.0156ZM137.29 19.9827C137.29 16.8327 135.103 14.4702 131.709 14.4702C128.507 14.4702 126.167 16.6765 125.932 19.9827H137.29ZM147.554 15.2967V32.0318H143.73V15.8087C143.73 14.6589 144.248 13.5525 145.129 12.8236C145.565 12.4634 146.077 12.2031 146.623 12.0642C147.32 11.8885 148.051 11.9493 148.762 11.9471H154.814V15.2967H147.554ZM175.496 21.9894C175.496 28.6062 171.633 32.5828 166.56 32.5828C163.438 32.5828 161.525 31.164 160.432 29.5499H160.354V39H156.53V11.9493H160.354V14.3118H160.432C161.525 12.893 163.438 11.3592 166.56 11.3592C171.633 11.3592 175.496 15.377 175.496 21.9916V21.9894ZM171.477 21.9894C171.477 18.0519 169.681 14.5873 165.935 14.5873C162.499 14.5873 160.393 17.4228 160.393 21.9894C160.393 26.5561 162.499 29.3916 165.935 29.3916C169.681 29.3916 171.477 25.927 171.477 21.9894ZM176.939 21.9894C176.939 15.7284 180.687 11.318 186.93 11.318C193.173 11.318 196.843 15.6894 196.843 21.9504C196.843 28.2114 193.097 32.6219 186.891 32.6219C180.685 32.6219 176.939 28.2895 176.939 21.9894ZM192.862 21.9894C192.862 17.7764 190.99 14.5483 186.93 14.5483C182.869 14.5483 180.919 17.7764 180.919 21.9894C180.919 26.2025 182.793 29.4328 186.93 29.4328C191.066 29.4328 192.862 26.1634 192.862 21.9894ZM197.977 25.3369H201.84C201.994 27.6603 203.4 29.4718 207.109 29.4718C210.465 29.4718 211.363 27.9749 211.363 26.5192C211.363 23.9983 208.708 23.7228 206.133 23.1718C202.658 22.3452 198.678 21.3212 198.678 17.1472C198.678 13.6805 201.448 11.3592 206.25 11.3592C211.714 11.3592 214.328 14.3118 214.601 17.7764H210.738C210.467 16.2404 209.647 14.468 206.328 14.468C203.754 14.468 202.66 15.492 202.66 16.9889C202.66 19.0759 204.886 19.2733 207.695 19.9024C211.365 20.7702 215.345 21.8332 215.345 26.3218C215.345 30.2181 212.38 32.5828 207.15 32.5828C201.101 32.5828 198.094 29.4306 197.977 25.3369ZM217.332 8.36536V4.19136H221.664V8.36536H217.332ZM217.566 32.0318V11.9493H221.391V32.0318H217.566ZM233.88 28.9208V32.0318C232.904 32.2292 232.28 32.2682 231.46 32.2682C228.18 32.2682 226.191 31.0078 226.191 26.3609V15.1362H223.304V11.9471H226.191V8.59315L230.015 5.48868V11.9471H233.839V15.1362H230.015V26.478C230.015 28.6041 230.601 29.077 232.241 29.077C232.904 29.077 233.217 29.0379 233.88 28.9208ZM236.026 8.36536V4.19136H240.357V8.36536H236.026ZM236.26 32.0318V11.9493H240.084V32.0318H236.26ZM242.542 21.9894C242.542 15.7284 246.288 11.318 252.533 11.318C258.777 11.318 262.445 15.6894 262.445 21.9504C262.445 28.2114 258.699 32.6219 252.494 32.6219C246.288 32.6219 242.542 28.2895 242.542 21.9894ZM258.465 21.9894C258.465 17.7764 256.593 14.5483 252.533 14.5483C248.472 14.5483 246.522 17.7764 246.522 21.9894C246.522 26.2025 248.396 29.4328 252.533 29.4328C256.669 29.4328 258.465 26.1634 258.465 21.9894ZM282 18.0909V32.0318H278.176V19.154C278.176 16.4769 277.005 14.6654 274.115 14.6654C270.838 14.6654 268.732 16.6743 268.732 19.7072V32.0318H264.907V11.9493H268.732V14.468H268.807C269.862 12.932 271.931 11.3592 275.367 11.3592C279.035 11.3592 282 13.4852 282 18.0931V18.0909ZM41.1828 0H0V37.9804H7.51598L13.57 30.025C14.6735 28.5718 15.2708 26.7972 15.2706 24.9724V13.1772C15.2706 12.7303 15.815 12.5068 16.1317 12.8257L19.7454 17.1299H26.4155L30.3958 12.7498C30.467 12.683 30.5562 12.6385 30.6524 12.6217C30.7486 12.6049 30.8475 12.6166 30.9372 12.6553C31.0268 12.694 31.1032 12.7581 31.1569 12.8396C31.2106 12.9212 31.2394 13.0166 31.2396 13.1143V24.6166L31.3762 37.9782H41.1828V0Z" fill="white"/>
</g>
<defs>
<clipPath id="clip0_25090_627">
<rect width="282" height="39" fill="white"/>
</clipPath>
</defs>
</svg>
