<svg width="154" height="35" viewBox="0 0 154 35" fill="none" xmlns="http://www.w3.org/2000/svg">
<path d="M45.207 2.21484H51.6414V32.1435H45.207V2.21484Z" fill="white"/>
<path d="M68.909 9.91154C71.4828 9.91154 73.5989 10.7091 75.2574 12.3056C76.9159 13.902 77.7452 16.5383 77.7452 20.2145V32.1431H71.6963V20.5565C71.6963 16.7654 70.2098 14.8699 67.2353 14.8699C65.6627 14.8699 64.4466 15.3974 63.5896 16.4511C62.7312 17.5062 62.3027 18.9877 62.3027 20.8971V32.1417H56.2539V10.1677H61.5303L62.0878 12.9037C62.8602 11.9636 63.7893 11.2366 64.8765 10.7229C65.9637 10.1815 67.3074 9.91016 68.909 9.91016V9.91154Z" fill="white"/>
<path d="M103.606 2.21484V32.1435H98.3295L97.729 29.1084C96.0414 31.303 93.7533 32.401 90.8662 32.401C88.922 32.401 87.1775 31.9455 85.6327 31.033C84.0879 30.0928 82.8732 28.7664 81.9871 27.0564C81.1287 25.3464 80.7002 23.365 80.7002 21.1136C80.7002 18.8622 81.1287 16.9375 81.9871 15.2566C82.8732 13.5466 84.0893 12.2354 85.6327 11.3229C87.2053 10.3827 88.9636 9.91196 90.9092 9.91196C93.7686 9.91196 95.9859 10.9089 97.5585 12.9041V2.21484H103.607H103.606ZM92.282 27.4828C93.9114 27.4828 95.2135 26.9124 96.1856 25.7728C97.1577 24.6042 97.6444 23.0797 97.6444 21.198C97.6444 19.3163 97.1577 17.7489 96.1856 16.5803C95.2135 15.4117 93.9114 14.8274 92.282 14.8274C90.6526 14.8274 89.3366 15.4117 88.3354 16.5803C87.3633 17.7489 86.8766 19.2734 86.8766 21.1551C86.8766 23.0368 87.3633 24.5613 88.3354 25.7299C89.3366 26.8985 90.6512 27.4828 92.282 27.4828Z" fill="white"/>
<path d="M106.964 21.1976C106.964 18.9171 107.421 16.9357 108.337 15.2548C109.28 13.5448 110.582 12.2336 112.24 11.3211C113.928 10.3809 115.872 9.91016 118.074 9.91016C120.276 9.91016 122.263 10.3519 123.951 11.2352C125.666 12.0909 126.996 13.3163 127.941 14.9128C128.913 16.4802 129.413 18.3328 129.442 20.4707C129.442 21.2405 129.386 21.9245 129.271 22.5227H113.271V22.6944C113.413 24.2909 113.928 25.5453 114.815 26.4564C115.702 27.3689 116.918 27.8244 118.461 27.8244C119.691 27.8244 120.706 27.5683 121.506 27.0546C122.336 26.5132 122.879 25.7295 123.137 24.7035H129.1C128.871 26.1573 128.314 27.4686 127.428 28.6372C126.541 29.8058 125.368 30.7321 123.909 31.4161C122.451 32.0724 120.778 32.3992 118.891 32.3992C116.431 32.3992 114.301 31.9437 112.5 31.0312C110.726 30.1187 109.355 28.8227 108.381 27.1404C107.437 25.4304 106.965 23.449 106.965 21.1976H106.964ZM123.392 18.589C123.193 17.2487 122.634 16.224 121.72 15.511C120.834 14.7702 119.704 14.3991 118.331 14.3991C116.958 14.3991 115.9 14.784 114.985 15.5539C114.099 16.2947 113.569 17.3068 113.397 18.589H123.392Z" fill="white"/>
<path d="M137.961 20.9437L130.153 10.1699H137.059L141.649 16.668L146.325 10.1699H152.803L145.038 20.9437L153.231 32.1453H146.325L141.264 25.2623L136.244 32.1453H129.767L137.959 20.9437H137.961Z" fill="white"/>
<path fill-rule="evenodd" clip-rule="evenodd" d="M17.3339 34.4771C26.9078 34.4771 34.6678 26.7592 34.6678 17.2386C34.6678 7.71789 26.9078 0 17.3339 0C7.76004 0 0 7.71789 0 17.2386C0 26.7592 7.76004 34.4771 17.3339 34.4771ZM17.3339 28.5592C24.3354 28.5592 30.0112 22.9294 30.0112 15.9841C30.0112 9.03882 24.3354 6.17542 17.3339 6.17542C10.3324 6.17542 4.65658 9.03882 4.65658 15.9841C4.65658 22.9294 10.3324 28.5592 17.3339 28.5592Z" fill="white"/>
<path fill-rule="evenodd" clip-rule="evenodd" d="M9.8313 18.0099C10.5746 18.0099 11.2513 17.7261 11.7574 17.2623C12.0334 17.7524 12.3329 18.273 12.6449 18.7936C13.3078 19.9 14.0414 21.0381 14.7319 21.9104C15.0745 22.3438 15.4322 22.7454 15.7872 23.0472C16.0951 23.3089 16.5957 23.6703 17.2044 23.6703C17.8132 23.6703 18.311 23.3144 18.6231 23.0555C18.9836 22.7564 19.3511 22.3577 19.7061 21.9257C20.4202 21.0547 21.1871 19.918 21.8818 18.813C22.2243 18.2675 22.5544 17.7233 22.8553 17.2124C23.367 17.7067 24.0659 18.0099 24.8355 18.0099C26.4067 18.0099 27.6811 16.743 27.6811 15.1798C27.6811 13.6165 26.4067 12.3496 24.8355 12.3496C23.5542 12.3496 22.4712 13.1915 22.1148 14.349C22.0441 14.475 21.9678 14.6121 21.886 14.7575C21.4284 15.5689 20.8016 16.6475 20.1262 17.7233C19.4468 18.8047 18.734 19.8557 18.1016 20.6255C17.7841 21.0132 17.5109 21.2984 17.296 21.477C17.2627 21.5047 17.2336 21.5269 17.2072 21.5463C17.185 21.5297 17.1601 21.5089 17.1323 21.4854C16.9257 21.3095 16.6636 21.027 16.3572 20.6407C15.7498 19.8737 15.0689 18.8241 14.4213 17.7427C13.7779 16.6682 13.1844 15.591 12.7503 14.7796C12.6921 14.6702 12.6352 14.565 12.5839 14.4653C12.265 13.2496 11.1528 12.3524 9.82991 12.3524C8.25876 12.3524 6.98438 13.6193 6.98438 15.1825C6.98438 16.7458 8.25876 18.0127 9.82991 18.0127L9.8313 18.0099Z" fill="white"/>
</svg>
