<svg width="95" height="28" viewBox="0 0 95 28" fill="none" xmlns="http://www.w3.org/2000/svg">
<g clip-path="url(#clip0_25090_622)">
<path d="M43.3025 9.72742H47.2695V11.4194C47.6656 10.8182 48.2129 10.3319 48.8565 10.0094C49.5219 9.65076 50.3069 9.47142 51.2115 9.47142C52.6615 9.47142 53.8475 9.94976 54.7695 10.9064C55.7082 11.8464 56.1775 13.2821 56.1775 15.2134V23.0564H52.2095V15.9054C52.2095 15.0334 51.9962 14.3328 51.5695 13.8034C51.1435 13.2734 50.5292 13.0084 49.7265 13.0084C48.9419 13.0084 48.3362 13.2818 47.9095 13.8284C47.4829 14.3584 47.2695 15.0508 47.2695 15.9054V23.0564H43.3025V9.72742ZM58.5755 9.72742H62.5425V23.0574H58.5745L58.5755 9.72742ZM58.5755 4.85742H62.5425V8.31742H58.5745L58.5755 4.85742ZM70.5295 23.2104C69.2322 23.2104 68.1999 22.8688 67.4325 22.1854C66.6645 21.4854 66.2805 20.4088 66.2805 18.9554V12.8804H64.3095V9.72742H66.2795V6.31842H70.2475V9.72842H73.0375V12.8804H70.2475V18.3144C70.2475 18.7078 70.3755 19.0411 70.6315 19.3144C70.8875 19.5704 71.2885 19.6984 71.8345 19.6984C72.2445 19.6984 72.6625 19.6301 73.0885 19.4934V22.5184C72.8499 22.7584 72.4915 22.9378 72.0135 23.0564C71.5535 23.1591 71.0589 23.2104 70.5295 23.2104ZM74.9225 9.72742H78.8905V23.0574H74.9225V9.72742ZM74.9225 4.85742H78.8905V8.31742H74.9225V4.85742ZM87.0045 23.3134C85.9383 23.3105 84.8902 23.0369 83.9585 22.5184C82.9859 21.9884 82.1925 21.2024 81.5785 20.1604C80.9645 19.1184 80.6575 17.8624 80.6575 16.3924C80.6575 14.9224 80.9645 13.6664 81.5785 12.6244C82.1925 11.5824 82.9859 10.7961 83.9585 10.2654C84.8903 9.74728 85.9384 9.47408 87.0045 9.47142C87.7212 9.47142 88.3612 9.58242 88.9245 9.80442C89.5045 10.0091 89.9652 10.2484 90.3065 10.5224C90.6485 10.7958 90.8619 11.0348 90.9465 11.2394H91.0235V9.72842H94.9915V23.0584H91.0235V21.5454H90.9465C90.8619 21.7501 90.6485 21.9894 90.3065 22.2634C89.9659 22.5361 89.5052 22.7838 88.9245 23.0064C88.3612 23.2118 87.7212 23.3134 87.0045 23.3134ZM84.5735 16.3934C84.5735 17.4181 84.8892 18.2381 85.5205 18.8534C85.825 19.151 86.185 19.3857 86.5802 19.5441C86.9754 19.7025 87.3978 19.7814 87.8235 19.7764C88.7455 19.7764 89.5222 19.4774 90.1535 18.8794C90.8015 18.2641 91.1255 17.4354 91.1255 16.3934C91.1255 15.3514 90.8015 14.5311 90.1535 13.9324C89.5215 13.3171 88.7449 13.0094 87.8235 13.0094C86.9369 13.0094 86.1692 13.3171 85.5205 13.9324C84.8885 14.5478 84.5729 15.3688 84.5735 16.3934ZM36.8535 9.72742H40.8205V23.0574H36.8525L36.8535 9.72742ZM36.8535 4.85742H40.8205V8.31742H36.8525L36.8535 4.85742Z" fill="white"/>
<path d="M14.19 27.974C22.0269 27.974 28.38 21.7118 28.38 13.987C28.38 6.26219 22.0269 0 14.19 0C6.35308 0 0 6.26219 0 13.987C0 21.7118 6.35308 27.974 14.19 27.974Z" fill="white"/>
<path d="M15.2768 11.0478C15.2867 10.4626 15.4977 9.89853 15.8742 9.45041C16.2508 9.00228 16.77 8.69735 17.3448 8.5868V6.2168C16.1325 6.34155 15.0083 6.9074 14.1858 7.8068L14.0938 7.9128L13.9998 7.8078C13.1801 6.90436 12.0539 6.3377 10.8398 6.2178V8.5868C11.4138 8.69669 11.9327 9.00042 12.3095 9.44715C12.6863 9.89387 12.8983 10.4565 12.9098 11.0408V17.1218C12.9001 17.7075 12.689 18.272 12.312 18.7203C11.935 19.1687 11.4152 19.4736 10.8398 19.5838V21.9538C12.0527 21.829 13.1773 21.2628 13.9998 20.3628L14.0928 20.2578L14.1848 20.3628C15.0046 21.2662 16.1308 21.8329 17.3448 21.9528V19.5828C16.7708 19.4729 16.252 19.1692 15.8752 18.7224C15.4984 18.2757 15.2864 17.7131 15.2748 17.1288L15.2768 11.0478Z" fill="black"/>
</g>
<defs>
<clipPath id="clip0_25090_622">
<rect width="94.992" height="27.975" fill="white"/>
</clipPath>
</defs>
</svg>
