<svg width="235" height="92" viewBox="0 0 235 92" fill="none" xmlns="http://www.w3.org/2000/svg">
<mask id="mask0_25090_550" style="mask-type:luminance" maskUnits="userSpaceOnUse" x="24" y="15" width="187" height="62">
<path d="M210.54 15.4434H24.625V76.4313H210.54V15.4434Z" fill="white"/>
</mask>
<g mask="url(#mask0_25090_550)">
<path d="M65.7816 28.5514C67.3036 28.5514 68.5373 27.3235 68.5373 25.8089C68.5373 24.2943 67.3036 23.0664 65.7816 23.0664C64.26 23.0664 63.0264 24.2943 63.0264 25.8089C63.0264 27.3235 64.26 28.5514 65.7816 28.5514Z" fill="white"/>
<path d="M68.8826 67.2893C70.4042 67.2893 71.6383 66.0617 71.6383 64.5468C71.6383 63.0323 70.4042 61.8047 68.8826 61.8047C67.3606 61.8047 66.127 63.0323 66.127 64.5468C66.127 66.0617 67.3606 67.2893 68.8826 67.2893Z" fill="white"/>
<path d="M66.5695 35.4081C67.8466 35.4081 68.8821 34.3776 68.8821 33.1064C68.8821 31.8352 67.8466 30.8047 66.5695 30.8047C65.2924 30.8047 64.2568 31.8352 64.2568 33.1064C64.2568 34.3776 65.2924 35.4081 66.5695 35.4081Z" fill="white"/>
<path d="M72.7208 36.289C73.998 36.289 75.0335 35.2585 75.0335 33.9872C75.0335 32.716 73.998 31.6855 72.7208 31.6855C71.4432 31.6855 70.4082 32.716 70.4082 33.9872C70.4082 35.2585 71.4432 36.289 72.7208 36.289Z" fill="white"/>
<path d="M65.7819 41.2362C66.8689 41.2362 67.7503 40.3592 67.7503 39.2773C67.7503 38.1954 66.8689 37.3184 65.7819 37.3184C64.6948 37.3184 63.8135 38.1954 63.8135 39.2773C63.8135 40.3592 64.6948 41.2362 65.7819 41.2362Z" fill="white"/>
<path d="M71.9333 42.0683C73.0203 42.0683 73.9017 41.1912 73.9017 40.1093C73.9017 39.0275 73.0203 38.1504 71.9333 38.1504C70.8462 38.1504 69.9648 39.0275 69.9648 40.1093C69.9648 41.1912 70.8462 42.0683 71.9333 42.0683Z" fill="white"/>
<path d="M76.8537 43.9784C77.9407 43.9784 78.8221 43.1014 78.8221 42.0195C78.8221 40.9376 77.9407 40.0605 76.8537 40.0605C75.7666 40.0605 74.8857 40.9376 74.8857 42.0195C74.8857 43.1014 75.7666 43.9784 76.8537 43.9784Z" fill="white"/>
<path d="M70.1122 46.7699C71.0631 46.7699 71.8343 46.0025 71.8343 45.0559C71.8343 44.1092 71.0631 43.3418 70.1122 43.3418C69.1608 43.3418 68.3896 44.1092 68.3896 45.0559C68.3896 46.0025 69.1608 46.7699 70.1122 46.7699Z" fill="white"/>
<path d="M63.9618 45.9359C64.9127 45.9359 65.6839 45.1685 65.6839 44.2219C65.6839 43.2752 64.9127 42.5078 63.9618 42.5078C63.0105 42.5078 62.2393 43.2752 62.2393 44.2219C62.2393 45.1685 63.0105 45.9359 63.9618 45.9359Z" fill="white"/>
<path d="M75.0829 48.6803C76.0338 48.6803 76.805 47.9127 76.805 46.966C76.805 46.0194 76.0338 45.252 75.0829 45.252C74.1316 45.252 73.3604 46.0194 73.3604 46.966C73.3604 47.9127 74.1316 48.6803 75.0829 48.6803Z" fill="white"/>
<path d="M67.652 50.3451C68.4671 50.3451 69.1282 49.6869 69.1282 48.8754C69.1282 48.0644 68.4671 47.4062 67.652 47.4062C66.8368 47.4062 66.1758 48.0644 66.1758 48.8754C66.1758 49.6869 66.8368 50.3451 67.652 50.3451Z" fill="white"/>
<path d="M72.6227 52.2059C73.4378 52.2059 74.0989 51.5482 74.0989 50.7367C74.0989 49.9257 73.4378 49.2676 72.6227 49.2676C71.8075 49.2676 71.1465 49.9257 71.1465 50.7367C71.1465 51.5482 71.8075 52.2059 72.6227 52.2059Z" fill="white"/>
<path d="M61.5494 49.462C62.3651 49.462 63.0256 48.8039 63.0256 47.9924C63.0256 47.1814 62.3651 46.5234 61.5494 46.5234C60.7343 46.5234 60.0732 47.1814 60.0732 47.9924C60.0732 48.8039 60.7343 49.462 61.5494 49.462Z" fill="white"/>
<path d="M64.9457 52.7435C65.6251 52.7435 66.176 52.1953 66.176 51.5192C66.176 50.8427 65.6251 50.2949 64.9457 50.2949C64.2662 50.2949 63.7158 50.8427 63.7158 51.5192C63.7158 52.1953 64.2662 52.7435 64.9457 52.7435Z" fill="white"/>
<path d="M67.0608 56.1234C67.659 56.1234 68.1436 55.6408 68.1436 55.0459C68.1436 54.4509 67.659 53.9688 67.0608 53.9688C66.4632 53.9688 65.9785 54.4509 65.9785 55.0459C65.9785 55.6408 66.4632 56.1234 67.0608 56.1234Z" fill="white"/>
<path d="M64.4535 56.81C64.9424 56.81 65.3391 56.4151 65.3391 55.9282C65.3391 55.4413 64.9424 55.0469 64.4535 55.0469C63.9641 55.0469 63.5674 55.4413 63.5674 55.9282C63.5674 56.4151 63.9641 56.81 64.4535 56.81Z" fill="white"/>
<path d="M62.1409 54.2621C62.7391 54.2621 63.2237 53.7799 63.2237 53.1845C63.2237 52.5896 62.7391 52.1074 62.1409 52.1074C61.5433 52.1074 61.0586 52.5896 61.0586 53.1845C61.0586 53.7799 61.5433 54.2621 62.1409 54.2621Z" fill="white"/>
<path d="M58.7948 51.9115C59.4742 51.9115 60.0246 51.3633 60.0246 50.6872C60.0246 50.0111 59.4742 49.4629 58.7948 49.4629C58.1153 49.4629 57.5645 50.0111 57.5645 50.6872C57.5645 51.3633 58.1153 51.9115 58.7948 51.9115Z" fill="white"/>
<path d="M58.7455 42.7045C59.4249 42.7045 59.9758 42.1563 59.9758 41.4802C59.9758 40.804 59.4249 40.2559 58.7455 40.2559C58.0665 40.2559 57.5156 40.804 57.5156 41.4802C57.5156 42.1563 58.0665 42.7045 58.7455 42.7045Z" fill="white"/>
<path d="M59.2864 38.3951C59.8846 38.3951 60.3692 37.9127 60.3692 37.3176C60.3692 36.7226 59.8846 36.2402 59.2864 36.2402C58.6888 36.2402 58.2041 36.7226 58.2041 37.3176C58.2041 37.9127 58.6888 38.3951 59.2864 38.3951Z" fill="white"/>
<path d="M60.4677 34.8685C60.957 34.8685 61.3537 34.4739 61.3537 33.987C61.3537 33.5002 60.957 33.1055 60.4677 33.1055C59.9787 33.1055 59.582 33.5002 59.582 33.987C59.582 34.4739 59.9787 34.8685 60.4677 34.8685Z" fill="white"/>
<path d="M58.4007 33.2037C58.9988 33.2037 59.4835 32.7213 59.4835 32.1262C59.4835 31.5312 58.9988 31.0488 58.4007 31.0488C57.803 31.0488 57.3184 31.5312 57.3184 32.1262C57.3184 32.7213 57.803 33.2037 58.4007 33.2037Z" fill="white"/>
<path d="M69.867 54.6049C70.546 54.6049 71.0969 54.0566 71.0969 53.3806C71.0969 52.7045 70.546 52.1562 69.867 52.1562C69.1876 52.1562 68.6367 52.7045 68.6367 53.3806C68.6367 54.0566 69.1876 54.6049 69.867 54.6049Z" fill="white"/>
<path d="M55.5961 31.7826C56.2755 31.7826 56.8264 31.2345 56.8264 30.5583C56.8264 29.8821 56.2755 29.334 55.5961 29.334C54.9171 29.334 54.3662 29.8821 54.3662 30.5583C54.3662 31.2345 54.9171 31.7826 55.5961 31.7826Z" fill="white"/>
<path d="M56.4325 36.974C57.1115 36.974 57.6623 36.4259 57.6623 35.7497C57.6623 35.0735 57.1115 34.5254 56.4325 34.5254C55.753 34.5254 55.2021 35.0735 55.2021 35.7497C55.2021 36.4259 55.753 36.974 56.4325 36.974Z" fill="white"/>
<path d="M55.0553 41.9208C55.8709 41.9208 56.532 41.263 56.532 40.4516C56.532 39.6402 55.8709 38.9824 55.0553 38.9824C54.2401 38.9824 53.5791 39.6402 53.5791 40.4516C53.5791 41.263 54.2401 41.9208 55.0553 41.9208Z" fill="white"/>
<path d="M50.577 41.9203C51.5279 41.9203 52.2991 41.1529 52.2991 40.2063C52.2991 39.2596 51.5279 38.4922 50.577 38.4922C49.6257 38.4922 48.8545 39.2596 48.8545 40.2063C48.8545 41.1529 49.6257 41.9203 50.577 41.9203Z" fill="white"/>
<path d="M45.3609 43.0956C46.448 43.0956 47.329 42.2185 47.329 41.1366C47.329 40.0548 46.448 39.1777 45.3609 39.1777C44.2738 39.1777 43.3926 40.0548 43.3926 41.1366C43.3926 42.2185 44.2738 43.0956 45.3609 43.0956Z" fill="white"/>
<path d="M39.6526 45.8886C40.93 45.8886 41.9654 44.8581 41.9654 43.5869C41.9654 42.3157 40.93 41.2852 39.6526 41.2852C38.3753 41.2852 37.3398 42.3157 37.3398 43.5869C37.3398 44.8581 38.3753 45.8886 39.6526 45.8886Z" fill="white"/>
<path d="M33.7479 50.5885C35.2698 50.5885 36.5035 49.3609 36.5035 47.8459C36.5035 46.3314 35.2698 45.1035 33.7479 45.1035C32.226 45.1035 30.9922 46.3314 30.9922 47.8459C30.9922 49.3609 32.226 50.5885 33.7479 50.5885Z" fill="white"/>
<path d="M37.3411 40.1581C38.6184 40.1581 39.6538 39.1276 39.6538 37.8564C39.6538 36.5852 38.6184 35.5547 37.3411 35.5547C36.0637 35.5547 35.0283 36.5852 35.0283 37.8564C35.0283 39.1276 36.0637 40.1581 37.3411 40.1581Z" fill="white"/>
<path d="M43.0484 37.3671C44.1355 37.3671 45.0167 36.49 45.0167 35.4081C45.0167 34.3262 44.1355 33.4492 43.0484 33.4492C41.9613 33.4492 41.0801 34.3262 41.0801 35.4081C41.0801 36.49 41.9613 37.3671 43.0484 37.3671Z" fill="white"/>
<path d="M42.2114 32.1757C43.2985 32.1757 44.1798 31.2986 44.1798 30.2168C44.1798 29.1349 43.2985 28.2578 42.2114 28.2578C41.1244 28.2578 40.2432 29.1349 40.2432 30.2168C40.2432 31.2986 41.1244 32.1757 42.2114 32.1757Z" fill="white"/>
<path d="M47.4273 31.0004C48.3786 31.0004 49.1498 30.233 49.1498 29.2863C49.1498 28.3396 48.3786 27.5723 47.4273 27.5723C46.4762 27.5723 45.7051 28.3396 45.7051 29.2863C45.7051 30.233 46.4762 31.0004 47.4273 31.0004Z" fill="white"/>
<path d="M51.9054 31.0009C52.7206 31.0009 53.3816 30.3431 53.3816 29.5317C53.3816 28.7203 52.7206 28.0625 51.9054 28.0625C51.0897 28.0625 50.4287 28.7203 50.4287 29.5317C50.4287 30.3431 51.0897 31.0009 51.9054 31.0009Z" fill="white"/>
<path d="M52.7418 36.1903C53.5575 36.1903 54.218 35.5326 54.218 34.7212C54.218 33.9097 53.5575 33.252 52.7418 33.252C51.9267 33.252 51.2656 33.9097 51.2656 34.7212C51.2656 35.5326 51.9267 36.1903 52.7418 36.1903Z" fill="white"/>
<path d="M48.2642 36.2406C49.2155 36.2406 49.9867 35.4732 49.9867 34.5266C49.9867 33.5799 49.2155 32.8125 48.2642 32.8125C47.3133 32.8125 46.542 33.5799 46.542 34.5266C46.542 35.4732 47.3133 36.2406 48.2642 36.2406Z" fill="white"/>
<path d="M43.3926 49.267C43.8818 49.267 44.2783 48.8726 44.2783 48.3857C44.2783 47.8988 43.8818 47.5039 43.3926 47.5039C42.9034 47.5039 42.5068 47.8988 42.5068 48.3857C42.5068 48.8726 42.9034 49.267 43.3926 49.267Z" fill="white"/>
<path d="M46.9361 48.8269C47.5341 48.8269 48.0187 48.3442 48.0187 47.7493C48.0187 47.1542 47.5341 46.6719 46.9361 46.6719C46.3382 46.6719 45.8535 47.1542 45.8535 47.7493C45.8535 48.3442 46.3382 48.8269 46.9361 48.8269Z" fill="white"/>
<path d="M50.8226 47.3568C51.5021 47.3568 52.0529 46.8087 52.0529 46.1325C52.0529 45.4563 51.5021 44.9082 50.8226 44.9082C50.1432 44.9082 49.5928 45.4563 49.5928 46.1325C49.5928 46.8087 50.1432 47.3568 50.8226 47.3568Z" fill="white"/>
<path d="M51.7579 51.2743C52.5731 51.2743 53.2341 50.6166 53.2341 49.8051C53.2341 48.9936 52.5731 48.3359 51.7579 48.3359C50.9423 48.3359 50.2812 48.9936 50.2812 49.8051C50.2812 50.6166 50.9423 51.2743 51.7579 51.2743Z" fill="white"/>
<path d="M47.0339 52.2045C47.7133 52.2045 48.2642 51.6562 48.2642 50.9802C48.2642 50.3041 47.7133 49.7559 47.0339 49.7559C46.3545 49.7559 45.8037 50.3041 45.8037 50.9802C45.8037 51.6562 46.3545 52.2045 47.0339 52.2045Z" fill="white"/>
<path d="M42.8511 52.1566C43.449 52.1566 43.9337 51.6745 43.9337 51.0791C43.9337 50.4841 43.449 50.002 42.8511 50.002C42.2532 50.002 41.7686 50.4841 41.7686 51.0791C41.7686 51.6745 42.2532 52.1566 42.8511 52.1566Z" fill="white"/>
<path d="M42.9001 55.5346C43.5795 55.5346 44.1303 54.9863 44.1303 54.3102C44.1303 53.6342 43.5795 53.0859 42.9001 53.0859C42.2207 53.0859 41.6699 53.6342 41.6699 54.3102C41.6699 54.9863 42.2207 55.5346 42.9001 55.5346Z" fill="white"/>
<path d="M47.9195 56.1727C48.7351 56.1727 49.3957 55.515 49.3957 54.7035C49.3957 53.8921 48.7351 53.2344 47.9195 53.2344C47.1043 53.2344 46.4434 53.8921 46.4434 54.7035C46.4434 55.515 47.1043 56.1727 47.9195 56.1727Z" fill="white"/>
<path d="M53.7763 55.5355C54.7271 55.5355 55.4983 54.7679 55.4983 53.8215C55.4983 52.8746 54.7271 52.1074 53.7763 52.1074C52.8249 52.1074 52.0537 52.8746 52.0537 53.8215C52.0537 54.7679 52.8249 55.5355 53.7763 55.5355Z" fill="white"/>
<path d="M57.2194 59.7967C58.3065 59.7967 59.1878 58.9196 59.1878 57.8378C59.1878 56.756 58.3065 55.8789 57.2194 55.8789C56.1323 55.8789 55.251 56.756 55.251 57.8378C55.251 58.9196 56.1323 59.7967 57.2194 59.7967Z" fill="white"/>
<path d="M49.9862 60.3831C50.9371 60.3831 51.7083 59.616 51.7083 58.6691C51.7083 57.7227 50.9371 56.9551 49.9862 56.9551C49.0349 56.9551 48.2637 57.7227 48.2637 58.6691C48.2637 59.616 49.0349 60.3831 49.9862 60.3831Z" fill="white"/>
<path d="M45.902 63.7132C46.8532 63.7132 47.6243 62.9461 47.6243 61.9992C47.6243 61.0528 46.8532 60.2852 45.902 60.2852C44.9507 60.2852 44.1797 61.0528 44.1797 61.9992C44.1797 62.9461 44.9507 63.7132 45.902 63.7132Z" fill="white"/>
<path d="M49.2975 68.0232C50.3846 68.0232 51.2659 67.1467 51.2659 66.0644C51.2659 64.9825 50.3846 64.1055 49.2975 64.1055C48.2105 64.1055 47.3291 64.9825 47.3291 66.0644C47.3291 67.1467 48.2105 68.0232 49.2975 68.0232Z" fill="white"/>
<path d="M58.3522 68.8069C59.6293 68.8069 60.6648 67.776 60.6648 66.505C60.6648 65.234 59.6293 64.2031 58.3522 64.2031C57.0746 64.2031 56.0391 65.234 56.0391 66.505C56.0391 67.776 57.0746 68.8069 58.3522 68.8069Z" fill="white"/>
<path d="M53.3815 64.6932C54.4686 64.6932 55.3499 63.8161 55.3499 62.7343C55.3499 61.6525 54.4686 60.7754 53.3815 60.7754C52.2945 60.7754 51.4131 61.6525 51.4131 62.7343C51.4131 63.8161 52.2945 64.6932 53.3815 64.6932Z" fill="white"/>
<path d="M62.1408 63.9104C63.4184 63.9104 64.4539 62.88 64.4539 61.6085C64.4539 60.3375 63.4184 59.3066 62.1408 59.3066C60.8636 59.3066 59.8281 60.3375 59.8281 61.6085C59.8281 62.88 60.8636 63.9104 62.1408 63.9104Z" fill="white"/>
<path d="M43.8356 59.5028C44.6509 59.5028 45.3119 58.8451 45.3119 58.0336C45.3119 57.2221 44.6509 56.5645 43.8356 56.5645C43.0203 56.5645 42.3594 57.2221 42.3594 58.0336C42.3594 58.8451 43.0203 59.5028 43.8356 59.5028Z" fill="white"/>
<path d="M101.86 31.2305H98.4814V60.7891H101.86V31.2305Z" fill="white"/>
<path d="M112.736 45.9864C112.736 37.7039 119.693 30.6895 127.873 30.6895C136.101 30.6895 142.958 37.6517 142.958 45.9864C142.958 54.3212 136.054 61.2835 127.873 61.2835C119.74 61.3306 112.736 54.3212 112.736 45.9864ZM139.579 45.9864C139.579 39.4184 134.241 33.8286 127.873 33.8286C121.505 33.8286 116.119 39.4184 116.119 45.9864C116.119 52.6067 121.505 58.1918 127.873 58.1918C134.241 58.1918 139.579 52.6067 139.579 45.9864Z" fill="white"/>
<path d="M160.296 34.4172H150.355V31.2305H173.574V34.4172H163.628V60.7891H160.249L160.296 34.4172Z" fill="white"/>
<path d="M191.3 35.348L180.083 60.7891H176.41L188.705 32.8974C189.146 31.8669 190.176 31.2305 191.253 31.2305C192.377 31.2305 193.36 31.8669 193.801 32.8974L206.095 60.7891H202.423L191.3 35.348Z" fill="white"/>
</g>
</svg>
