<svg width="160" height="23" viewBox="0 0 160 23" fill="none" xmlns="http://www.w3.org/2000/svg">
<path d="M3.38761 4.80391V22.2833H0V1.97782C0 0.349461 1.86203 -0.578743 3.16434 0.400368L19.2554 12.4981C19.7514 12.8712 20.0433 13.4553 20.0433 14.0758V22.2833H16.6557V14.7794L3.38761 4.80391Z" fill="white"/>
<path d="M58.0207 3.10547C56.6911 3.10547 55.6133 4.1823 55.6133 5.51069V20.7175H58.7395V7.54255L62.9542 14.414C63.4341 15.1961 64.2864 15.673 65.205 15.673C66.1211 15.673 66.9719 15.1983 67.4524 14.4188L71.6912 7.54255V20.7175H74.8173V5.39897C74.8173 4.1323 73.7898 3.10547 72.5217 3.10547C71.7075 3.10547 70.9541 3.53636 70.5419 4.23792L65.2649 13.219L60.1047 4.3064C59.6745 3.56316 58.8801 3.10547 58.0207 3.10547Z" fill="white"/>
<path fill-rule="evenodd" clip-rule="evenodd" d="M89.2553 3.10547C88.2223 3.10547 87.2941 3.73559 86.9136 4.69507L80.5596 20.7175H83.5864L85.5591 16.1068H92.7544L94.7268 20.7175H97.94L91.5978 4.69648C91.2176 3.73627 90.2891 3.10547 89.2553 3.10547ZM89.1568 6.71215L91.6627 13.2438H86.6384L89.1568 6.71215Z" fill="white"/>
<path d="M106.4 11.174L114.025 3.52102C114.29 3.255 114.65 3.10547 115.026 3.10547C116.285 3.10547 116.915 4.62834 116.022 5.51627L109.973 11.5333L118.892 20.7175H114.836L106.4 12.1905V20.7175H103.273V4.66712C103.273 3.80463 103.973 3.10547 104.837 3.10547C105.7 3.10547 106.4 3.80463 106.4 4.66712V11.174Z" fill="white"/>
<path d="M124.425 17.8971C124.425 19.4548 125.689 20.7175 127.248 20.7175H135.354C136.149 20.7175 136.793 20.0739 136.793 19.2797C136.793 18.4857 136.149 17.8421 135.354 17.8421H127.563V13.0828H134.672C135.467 13.0828 136.111 12.4389 136.111 11.645C136.111 10.8511 135.467 10.2072 134.672 10.2072H127.563V5.9809H135.354C136.149 5.9809 136.793 5.33721 136.793 4.54317C136.793 3.74916 136.149 3.10547 135.354 3.10547H127.248C125.689 3.10547 124.425 4.36817 124.425 5.92581V17.8971Z" fill="white"/>
<path fill-rule="evenodd" clip-rule="evenodd" d="M157.572 8.14985C157.572 8.71172 157.501 9.2488 157.361 9.76109C157.229 10.265 157.014 10.7526 156.716 11.2236C156.426 11.6946 156.025 12.116 155.512 12.4877C155.008 12.8597 154.408 13.1488 153.713 13.3553L159.036 20.7175H154.967L150.029 13.8883H147.039V20.7175H143.913V5.92581C143.913 4.36817 145.177 3.10547 146.736 3.10547H151.419C151.791 3.10547 152.13 3.11785 152.436 3.14264C152.75 3.15917 153.126 3.20875 153.565 3.29136C154.011 3.36573 154.404 3.46901 154.743 3.60123C155.091 3.73342 155.446 3.9276 155.81 4.18374C156.182 4.43989 156.488 4.74147 156.728 5.08851C156.976 5.42729 157.179 5.86109 157.336 6.3899C157.493 6.91045 157.572 7.49711 157.572 8.14985ZM147.039 5.96849V11.013H149.917C150.414 11.013 150.852 10.9963 151.232 10.9633C151.613 10.9303 152.006 10.864 152.411 10.765C152.816 10.6576 153.147 10.5129 153.403 10.3313C153.668 10.1494 153.883 9.89751 154.049 9.57517C154.222 9.25292 154.309 8.87285 154.309 8.43493C154.309 6.79064 153.04 5.96849 150.501 5.96849H147.039Z" fill="white"/>
<path d="M39.2397 22.2833V4.80391L25.9716 14.7794V22.2833H22.584V14.0758C22.584 13.4553 22.8759 12.8712 23.3719 12.4981L39.463 0.400368C40.7653 -0.578743 42.6273 0.349461 42.6273 1.97782V22.2833H39.2397Z" fill="white"/>
</svg>
