<svg width="103" height="31" viewBox="0 0 103 31" fill="none" xmlns="http://www.w3.org/2000/svg">
<path d="M0.0781003 12.3901C4.68546 12.2539 15.6742 11.7432 18.126 8.13298C19.991 5.38833 15.8756 2.53096 13.9205 1.49779C11.9645 0.461689 9.24343 0 9.24343 0C14.7194 0.624408 23.3744 3.66019 20.6805 9.17889C18.2683 14.1183 5.68865 14.7897 0.0751953 14.7897V12.3882H0.0781003V12.3901ZM0.0751953 24.7861V22.4238C7.04336 22.1885 16.3549 21.9837 21.185 17.3089C21.3157 21.4279 15.7449 23.2854 11.4813 24.0598C7.79092 24.7303 3.8614 24.894 0.077132 24.7861H0.0751953Z" fill="white"/>
<path d="M21.1873 12.1956C17.3623 16.195 9.68823 17.3056 0 17.3056V19.6993C10.1869 19.6993 21.1582 18.1858 21.1873 12.1946M88.6243 16.8664C88.6243 12.4113 91.3599 8.76676 95.9101 8.76676C101.114 8.76676 103.046 12.6808 102.809 16.5949H91.7462C91.8043 20.3884 93.9172 22.5871 96.7419 22.5871C98.9429 22.5871 100.488 21.352 101.233 19.1543L102.928 19.6366C102.215 22.8586 99.7457 24.9974 96.1783 24.9974C91.538 24.9974 88.6253 21.3539 88.6253 16.8674M91.8373 15.0902H99.6275C99.4784 12.5318 98.1702 10.3626 95.9111 10.3626C93.6519 10.3626 92.1936 12.4113 91.8373 15.0902ZM86.9849 23.0419L88.0259 24.4564V24.6965H82.8811V24.4564L83.9211 23.0419V5.51239L82.8811 3.97735V3.73719L86.9839 2.98438L86.9849 23.0419ZM66.4096 30.3289V30.0878L67.4496 28.5224V10.787L66.4096 9.449L66.3883 8.92066H70.4825V11.9329C71.3152 10.0058 73.249 8.77068 75.4191 8.77068C79.4338 8.77068 82.2885 12.0819 82.2885 16.9007C82.2885 21.7195 79.1356 25.0014 74.7935 25.0014C73.0989 25.0014 71.5215 24.3083 70.4815 23.0134V28.5224L71.9079 30.0878V30.3279H66.4067L66.4096 30.3289ZM74.4972 23.2811C77.2628 23.2811 79.1065 20.5423 79.1065 16.8997C79.1065 13.2562 77.3528 10.9674 74.7054 10.9674C69.0029 10.9674 68.4761 23.2811 74.4972 23.2811ZM56.7873 24.9974C52.7725 24.9974 49.9179 21.6549 49.9179 16.8674C49.9179 12.0799 53.0698 8.76676 57.4118 8.76676C59.3456 8.76676 61.0993 9.58035 62.0512 10.6929L63.2403 8.91772H64.7577V23.0095L65.7977 24.4534V24.6955H61.7239V21.8352C60.8911 23.732 58.9573 24.9974 56.7873 24.9974ZM57.53 22.7988C63.5211 22.7988 63.4707 10.4841 57.7082 10.4841C54.9435 10.4841 53.0989 13.2239 53.0989 16.8684C53.0989 20.5129 54.8535 22.8007 57.53 22.8007V22.7988ZM24.9125 24.6955V24.4554L26.1916 22.9497L26.1965 4.82329L24.8582 3.22845V2.9883H29.76L35.8556 16.9595C36.4603 18.3051 36.9671 19.6935 37.3721 21.1138C37.3721 21.1138 37.8775 19.217 38.8294 16.9282L44.6879 2.98634H49.6235V3.22649L48.2852 4.82231V22.8586L49.6235 24.4534V24.6936H43.6779V24.4534L45.0152 22.8586V11.5673C45.0152 9.0971 45.1643 7.11115 45.1643 7.11115C45.1643 7.11115 44.4806 8.97849 43.4987 11.2664L37.7003 24.6955H35.7975L29.9391 11.3252C28.9282 9.06769 28.2736 7.20133 28.2736 7.20133C28.2736 7.20133 28.4236 9.18826 28.4236 11.6575L28.4817 22.9478L29.7609 24.4534V24.6936H24.9144L24.9125 24.6955Z" fill="white"/>
</svg>
