<svg width="158" height="45" viewBox="0 0 158 45" fill="none" xmlns="http://www.w3.org/2000/svg">
<g clip-path="url(#clip0_25090_436)">
<path d="M136.495 32.865L131.072 13.9043H134.438L138.552 29.8313L142.852 13.9043H146.219L150.52 29.8313L154.633 13.9043H157.999L152.577 32.865H148.649L144.536 17.8102L140.422 32.865H136.495Z" fill="white"/>
<path d="M121.55 33.4343C115.379 33.4343 112.387 28.8837 112.387 23.3851C112.387 17.8864 115.379 13.3359 121.55 13.3359C127.721 13.3359 130.712 17.8864 130.712 23.3851C130.712 28.8837 127.721 33.4343 121.55 33.4343ZM115.753 23.3851C115.753 28.8837 118.371 31.159 121.55 31.159C124.729 31.159 127.347 28.8837 127.347 23.3851C127.347 17.8864 124.729 15.6112 121.55 15.6112C118.371 15.6112 115.753 17.8864 115.753 23.3851Z" fill="white"/>
<path d="M110.133 32.8657H106.954V8.2168H110.133V32.8657Z" fill="white"/>
<path d="M104.326 32.8657H101.147V8.2168H104.326V32.8657Z" fill="white"/>
<path d="M90.5054 33.4343C84.3347 33.4343 81.3428 28.8837 81.3428 23.3851C81.3428 17.8864 84.3347 13.3359 90.3185 13.3359C96.4893 13.3359 98.9202 18.0761 98.9202 22.6266V24.1435H84.7086C84.933 29.1112 87.4762 31.159 90.5054 31.159C92.9364 31.159 94.9933 29.8317 95.5543 27.1773H98.7332C97.9852 30.7797 95.1803 33.4343 90.5054 33.4343ZM90.3185 15.6112C87.4388 15.6112 85.1949 17.4694 84.7834 21.8683H95.5543C95.5543 17.5073 93.1607 15.6112 90.3185 15.6112Z" fill="white"/>
<path d="M53.667 32.8657V8.2168H58.5288L66.3827 29.0735L74.2364 8.2168H79.0982V32.8657H75.9193V11.6297L67.8785 32.8657H64.8867L56.8459 11.6297V32.8657H53.667Z" fill="white"/>
<path fill-rule="evenodd" clip-rule="evenodd" d="M22.19 42.4719C33.0682 42.4719 41.8867 33.5302 41.8867 22.5C41.8867 11.4698 33.0682 2.52809 22.19 2.52809C11.3118 2.52809 2.49326 11.4698 2.49326 22.5C2.49326 33.5302 11.3118 42.4719 22.19 42.4719ZM22.19 45C34.4452 45 44.38 34.9264 44.38 22.5C44.38 10.0736 34.4452 0 22.19 0C9.93479 0 0 10.0736 0 22.5C0 34.9264 9.93479 45 22.19 45Z" fill="white"/>
<path fill-rule="evenodd" clip-rule="evenodd" d="M24.9337 35.6464C32.0942 35.6464 37.8988 29.7607 37.8988 22.5004C37.8988 15.24 32.0942 9.35426 24.9337 9.35426C17.7735 9.35426 11.9688 15.24 11.9688 22.5004C11.9688 29.7607 17.7735 35.6464 24.9337 35.6464ZM24.9337 38.1745C33.4711 38.1745 40.3919 31.1569 40.3919 22.5004C40.3919 13.8437 33.4711 6.82617 24.9337 6.82617C16.3964 6.82617 9.47559 13.8437 9.47559 22.5004C9.47559 31.1569 16.3964 38.1745 24.9337 38.1745Z" fill="white"/>
<path fill-rule="evenodd" clip-rule="evenodd" d="M21.4413 28.0618C24.4707 28.0618 26.9265 25.5717 26.9265 22.5C26.9265 19.4283 24.4707 16.9383 21.4413 16.9383C18.412 16.9383 15.9562 19.4283 15.9562 22.5C15.9562 25.5717 18.412 28.0618 21.4413 28.0618ZM21.4413 30.5899C25.8476 30.5899 29.4198 26.968 29.4198 22.5C29.4198 18.0321 25.8476 14.4102 21.4413 14.4102C17.0349 14.4102 13.4629 18.0321 13.4629 22.5C13.4629 26.968 17.0349 30.5899 21.4413 30.5899Z" fill="white"/>
</g>
<defs>
<clipPath id="clip0_25090_436">
<rect width="158" height="45" fill="white"/>
</clipPath>
</defs>
</svg>
