<svg width="157" height="38" viewBox="0 0 157 38" fill="none" xmlns="http://www.w3.org/2000/svg">
<path d="M86.2622 9.11328L80.5489 23.1335L74.7772 9.11328H68.8594V29.3659H73.8689V17.192L78.4973 29.3659H82.5401L87.1406 17.2192V29.3659H92.1501V9.11328H86.2622Z" fill="white"/>
<path d="M95.1885 9.11328V29.3659H100.252V9.11328H95.1885Z" fill="white"/>
<path d="M110.888 9.11328H103.289V29.3659H110.888C117.357 29.3659 121.517 25.2411 121.517 19.2395C121.517 13.2383 117.357 9.11328 110.888 9.11328ZM110.569 25.0967H108.23V13.3253H110.569C114.296 13.3253 116.491 15.517 116.491 19.2395C116.491 22.9621 114.296 25.0967 110.569 25.0967Z" fill="white"/>
<path d="M134.482 9.11328H128.804L121.517 29.3659H126.651L127.855 25.7872H135.372L136.577 29.3659H141.769L134.482 9.11328ZM129.147 21.9807L131.613 14.5653L134.109 21.9807H129.147Z" fill="white"/>
<path d="M147.015 14.7764C147.015 13.5365 147.904 12.9445 149.079 12.9737C150.397 13.0002 151.313 13.7622 151.4 15.0286H156.702C156.499 11.2532 153.55 9.11328 149.163 9.11328C144.776 9.11328 141.826 11.1974 141.826 14.9437C141.77 21.9579 151.829 19.9855 151.829 23.6494C151.829 24.8042 150.914 25.5077 149.479 25.5077C148.044 25.5077 147.129 24.7749 146.986 23.2537H141.77C141.912 27.2548 145.294 29.3659 149.622 29.3659C154.322 29.3659 156.959 26.6069 156.959 23.283C156.959 16.6615 147.015 18.212 147.015 14.7764Z" fill="white"/>
<path fill-rule="evenodd" clip-rule="evenodd" d="M18.2275 26.9387V36.8003C18.2275 37.3125 17.6876 37.6339 17.2535 37.3797L0.655996 27.6571C0.250333 27.4192 0 26.9772 0 26.4981V5.73279C0 5.2204 0.539944 4.89914 0.973964 5.15337L9.11366 9.92159V21.2666L18.2275 26.9387Z" fill="white" fill-opacity="0.25"/>
<path fill-rule="evenodd" clip-rule="evenodd" d="M37.4678 26.9387V36.8003C37.4678 37.3125 38.0377 37.6339 38.4959 37.3797L56.0158 27.6571C56.4437 27.4192 56.7079 26.9772 56.7079 26.4981V5.73279C56.7079 5.2204 56.138 4.89914 55.6798 5.15337L47.0878 9.92159V21.2666L37.4678 26.9387Z" fill="white" fill-opacity="0.25"/>
<path d="M9.11426 0.660828C9.11426 0.154189 9.66926 -0.163457 10.1153 0.0879147L27.5161 9.89434C27.7218 10.0103 27.9742 10.0103 28.1799 9.89434L45.5809 0.0879147C46.027 -0.163457 46.5819 0.154189 46.5819 0.660828V21.299L28.1954 32.3083C27.9819 32.4361 27.7141 32.4361 27.5007 32.3083L9.11426 21.299V0.660828Z" fill="url(#paint0_linear_25090_362)"/>
<defs>
<linearGradient id="paint0_linear_25090_362" x1="11.7905" y1="25.0337" x2="46.2332" y2="-1.15901" gradientUnits="userSpaceOnUse">
<stop offset="0.16" stop-color="white"/>
<stop offset="0.56" stop-color="white"/>
<stop offset="1" stop-color="white"/>
</linearGradient>
</defs>
</svg>
