<svg width="158" height="32" viewBox="0 0 158 32" fill="none" xmlns="http://www.w3.org/2000/svg">
<g clip-path="url(#clip0_25090_371)">
<mask id="mask0_25090_371" style="mask-type:luminance" maskUnits="userSpaceOnUse" x="0" y="0" width="158" height="32">
<path d="M158 0H0V32H158V0Z" fill="white"/>
</mask>
<g mask="url(#mask0_25090_371)">
<path d="M3.87891 20.8997V29.8529C3.87891 30.4041 4.34346 30.6329 4.48799 30.6848C4.63249 30.7473 5.11772 30.8824 5.55127 30.4769L12.2968 23.9679C12.8712 23.4137 13.4256 22.8311 13.8422 22.1494C14.0383 21.8289 14.1196 21.6484 14.1196 21.6484C14.5326 20.8061 14.5326 19.995 14.1299 19.1839C13.5314 17.9776 12.0034 16.7506 9.70115 15.5859L5.76807 17.7905C4.60157 18.456 3.87891 19.6311 3.87891 20.8997Z" fill="white" fill-opacity="0.8"/>
<path d="M0 0.985931V10.376C0 11.551 0.784582 12.5909 1.89951 12.9237C5.69846 14.0259 12.3157 16.3968 13.9158 19.8804C14.1221 20.3379 14.2461 20.7851 14.2876 21.253C15.3509 19.3085 15.836 17.0727 15.6089 14.8058C15.2991 11.5926 13.606 8.67055 10.9634 6.80919L1.53819 0.185226C1.373 0.060441 1.17686 -0.00195312 0.980722 -0.00195312C0.815531 -0.00195312 0.671006 0.029244 0.516166 0.112434C0.206453 0.289212 0 0.611581 0 0.985931Z" fill="white"/>
<path d="M28.9677 20.8997V29.8529C28.9677 30.4041 28.5034 30.6329 28.3586 30.6848C28.2143 30.7473 27.7287 30.8824 27.2954 30.4769L20.3928 23.8165C19.923 23.3631 19.4743 22.8835 19.1204 22.334C18.8401 21.899 18.7271 21.6484 18.7271 21.6484C18.3141 20.8061 18.3141 19.995 18.7165 19.1839C19.3154 17.9776 20.8434 16.7506 23.1452 15.5859L27.0785 17.7905C28.2555 18.456 28.9677 19.6311 28.9677 20.8997Z" fill="white" fill-opacity="0.8"/>
<path d="M32.8523 0.985929V10.376C32.8523 11.551 32.0675 12.5908 30.9525 12.9236C27.1537 14.0259 20.5366 16.3968 18.9364 19.8804C18.7297 20.3379 18.6058 20.7851 18.5647 21.253C17.5014 19.3085 17.0163 17.0727 17.2433 14.8058C17.5528 11.5926 19.2459 8.67058 21.8889 6.80922L31.3141 0.185222C31.4792 0.0604373 31.6753 -0.00195312 31.8714 -0.00195312C32.0365 -0.00195312 32.1812 0.0292439 32.3358 0.112434C32.6456 0.289212 32.8523 0.611574 32.8523 0.985929Z" fill="white"/>
<path d="M48.8418 3.01562H52.4502L60.8125 22.4367H61.0603L69.4226 3.01562H72.9687V25.4066H70.3361V7.58711H70.0883L62.4231 25.4066H59.3878L51.7222 7.58711H51.4744V25.4066H48.8418V3.01562Z" fill="white"/>
<path d="M75.877 17.4908C75.877 12.1419 79.1137 9.1875 83.9143 9.1875C88.6992 9.1875 91.9512 12.1419 91.9512 17.4908C91.9512 22.8242 88.6992 25.7786 83.9143 25.7786C79.1137 25.7786 75.877 22.8242 75.877 17.4908ZM78.6334 17.4908C78.6334 21.4092 80.7552 23.5395 83.9143 23.5395C87.0577 23.5395 89.1795 21.4092 89.1795 17.4908C89.1795 13.5569 87.0577 11.4421 83.9143 11.4421C80.7552 11.4421 78.6334 13.5569 78.6334 17.4908Z" fill="white"/>
<path d="M94.5537 9.5622H97.1863V11.4592H97.4341C97.9763 10.3397 98.9674 9.5 101.336 9.5H103.535V11.8635H101.398C98.4409 11.8635 97.2792 13.4962 97.2792 16.7149V25.4069H94.5537V9.5622Z" fill="white"/>
<path d="M105.633 31.6252V9.56076H108.296V11.7532H108.544C109.721 9.91839 111.641 9.20312 113.871 9.20312C117.975 9.20312 121.119 12.002 121.119 17.4909C121.119 22.9643 117.975 25.7631 113.871 25.7631C111.688 25.7631 109.783 25.0634 108.606 23.3063H108.358V31.6252H105.633ZM108.265 17.4909C108.265 21.3316 110.31 23.4929 113.314 23.4929C116.333 23.4929 118.378 21.3316 118.378 17.4909C118.378 13.6347 116.333 11.4733 113.314 11.4733C110.31 11.4733 108.265 13.6347 108.265 17.4909Z" fill="white"/>
<path d="M123.728 3.01562H126.453V11.5211H126.701C127.831 9.84176 129.705 9.20424 131.919 9.20424C135.59 9.20424 137.913 11.0702 137.913 14.9419V25.4066H135.187V15.2063C135.187 12.6251 133.778 11.49 131.316 11.49C128.621 11.49 126.453 13.0916 126.453 16.5591V25.4066H123.728V3.01562Z" fill="white"/>
<path d="M140.364 17.4908C140.364 12.1419 143.601 9.1875 148.401 9.1875C153.186 9.1875 156.439 12.1419 156.439 17.4908C156.439 22.8242 153.186 25.7786 148.401 25.7786C143.601 25.7786 140.364 22.8242 140.364 17.4908ZM143.121 17.4908C143.121 21.4092 145.242 23.5395 148.401 23.5395C151.545 23.5395 153.666 21.4092 153.666 17.4908C153.666 13.5569 151.545 11.4421 148.401 11.4421C145.242 11.4421 143.121 13.5569 143.121 17.4908Z" fill="white"/>
</g>
</g>
<defs>
<clipPath id="clip0_25090_371">
<rect width="158" height="32" fill="white"/>
</clipPath>
</defs>
</svg>
