<svg width="163" height="37" viewBox="0 0 163 37" fill="none" xmlns="http://www.w3.org/2000/svg">
<g clip-path="url(#clip0_25090_499)">
<path d="M57.8703 8.53111V27.0583H55.294L45.8506 13.4703H45.678V27.0583H42.875V8.53073H45.4694L54.9222 22.137H55.0945V8.53073L57.8703 8.53111ZM65.0305 27.3658C64.1474 27.3658 63.3492 27.2028 62.6356 26.8773C61.9221 26.5457 61.3566 26.0664 60.939 25.4391C60.5278 24.8118 60.3223 24.043 60.3223 23.1319C60.3223 22.3478 60.4735 21.7029 60.7759 21.1961C61.0723 20.6953 61.4944 20.2805 62.0005 19.9927C62.5147 19.6974 63.0893 19.4741 63.724 19.3233C64.3641 19.1718 65.0124 19.0571 65.6656 18.9799L67.6976 18.7446C68.2175 18.6781 68.5957 18.5725 68.8315 18.4279C69.0673 18.2829 69.1852 18.0477 69.1852 17.7222V17.6587C69.1852 16.8688 68.9617 16.2568 68.5142 15.8227C68.0724 15.3882 67.4132 15.1709 66.5365 15.1709C65.6231 15.1709 64.9034 15.3733 64.3774 15.7772C63.8572 16.175 63.4973 16.6187 63.2979 17.1071L60.7487 16.528C61.0511 15.6839 61.4925 15.0019 62.0733 14.4836C62.6563 13.9609 63.3467 13.5719 64.0961 13.3437C64.8583 13.1028 65.6595 12.9819 66.5002 12.9819C67.0564 12.9819 67.6463 13.0481 68.2692 13.1808C68.8942 13.3059 69.4908 13.5451 70.029 13.8865C70.5795 14.2304 71.03 14.7219 71.3807 15.361C71.7314 15.9945 71.9067 16.8176 71.9067 17.8308V27.0583H69.258V25.1584H69.1489C68.9735 25.5084 68.7105 25.8522 68.3599 26.1896C68.0088 26.5274 67.5583 26.8081 67.0082 27.0311C66.4577 27.2541 65.7985 27.3658 65.0305 27.3658ZM65.6201 25.1947C66.37 25.1947 67.0112 25.0467 67.5433 24.751C68.0816 24.4557 68.4897 24.0702 68.768 23.5936C69.0482 23.1262 69.1956 22.5912 69.1944 22.0464V20.2551C69.0976 20.3519 68.91 20.4425 68.6321 20.5267C68.3599 20.6051 68.0483 20.6743 67.6976 20.7348C67.347 20.7891 67.0051 20.8403 66.6724 20.8885C66.3398 20.9306 66.0615 20.967 65.8379 20.9972C65.3115 21.0633 64.8311 21.175 64.3954 21.3319C63.9659 21.4887 63.6214 21.7147 63.3614 22.0104C63.1073 22.2996 62.9802 22.6859 62.9802 23.1682C62.9802 23.8376 63.2282 24.3444 63.724 24.6879C64.2201 25.0257 64.8521 25.1947 65.6201 25.1947ZM74.7533 32.2691V13.1628H77.402V15.4153H77.629C77.7864 15.1258 78.013 14.7911 78.3093 14.4113C78.6056 14.0311 79.0167 13.6998 79.5431 13.416C80.0691 13.1265 80.7647 12.9819 81.6295 12.9819C82.7546 12.9819 83.7583 13.2649 84.6415 13.8322C85.5242 14.399 86.2168 15.2164 86.7186 16.284C87.2266 17.3512 87.4808 18.636 87.4808 20.1377C87.4808 21.6394 87.2297 22.9269 86.7278 24.0006C86.2259 25.0677 85.5365 25.8913 84.6595 26.4704C83.7824 27.043 82.7817 27.3295 81.6566 27.3295C80.8102 27.3295 80.1177 27.1879 79.5795 26.9045C79.047 26.6211 78.6297 26.2894 78.3273 25.9092C78.0252 25.5294 77.7921 25.1917 77.629 24.896H77.4656V32.2691H74.7533ZM77.4112 20.1105C77.4112 21.0874 77.5532 21.9439 77.8377 22.6798C78.1217 23.4153 78.5332 23.9918 79.0715 24.4075C79.6097 24.8176 80.2689 25.0226 81.0491 25.0226C81.8595 25.0226 82.5367 24.8084 83.0811 24.3804C83.6255 23.9462 84.0366 23.3583 84.3149 22.6163C84.599 21.8742 84.741 21.0392 84.741 20.1105C84.741 19.1937 84.602 18.3705 84.3237 17.6407C84.0515 16.9109 83.6404 16.3349 83.0899 15.913C82.5459 15.4907 81.8653 15.2796 81.0491 15.2796C80.2628 15.2796 79.5975 15.4815 79.0531 15.8858C78.5149 16.2897 78.1068 16.8535 77.8285 17.5772C77.5502 18.3013 77.4112 19.1455 77.4112 20.1105ZM89.7536 27.0583V13.1628H92.4659V27.0583H89.7536ZM91.1233 11.0185C90.6517 11.0185 90.2463 10.8617 89.9075 10.548C89.5748 10.2286 89.4087 9.84882 89.4087 9.40818C89.4087 8.96219 89.5748 8.58199 89.9075 8.26834C90.2463 7.94895 90.6517 7.78906 91.1233 7.78906C91.595 7.78906 91.9973 7.94895 92.33 8.26872C92.6684 8.58237 92.838 8.96219 92.838 9.40857C92.838 9.84844 92.6684 10.2286 92.33 10.5484C91.9973 10.8621 91.595 11.0185 91.1233 11.0185ZM101.354 27.3386C99.9813 27.3386 98.7988 27.046 97.8069 26.4612C96.8212 25.8702 96.0594 25.041 95.5207 23.9734C94.9886 22.8997 94.7226 21.6424 94.7226 20.2008C94.7226 18.7779 94.9886 17.5233 95.5207 16.4378C96.0594 15.3519 96.8089 14.5046 97.7706 13.8957C98.7383 13.2864 99.8692 12.9815 101.163 12.9815C101.95 12.9815 102.712 13.1116 103.45 13.3709C104.187 13.6302 104.85 14.0372 105.436 14.5922C106.023 15.1468 106.485 15.8675 106.824 16.7541C107.163 17.6346 107.332 18.7052 107.332 19.9656V20.9249H96.2558V18.8984H104.674C104.674 18.1869 104.529 17.5562 104.239 17.0073C103.96 16.465 103.536 16.0109 103.014 15.6957C102.494 15.376 101.883 15.2164 101.182 15.2164C100.42 15.2164 99.7543 15.4031 99.1858 15.7772C98.6309 16.1368 98.1804 16.6359 97.8797 17.2246C97.5772 17.8155 97.426 18.4581 97.426 19.1516V20.7348C97.426 21.6635 97.5891 22.4537 97.916 23.1047C98.2483 23.7561 98.7111 24.2538 99.3037 24.5976C99.8963 24.9354 100.589 25.1041 101.381 25.1041C101.895 25.1041 102.364 25.0318 102.787 24.8872C103.197 24.745 103.571 24.5167 103.885 24.2178C104.193 23.9221 104.429 23.5572 104.593 23.1231L107.16 23.5844C106.961 24.3263 106.581 25.0071 106.053 25.5657C105.527 26.1265 104.865 26.5637 104.066 26.8773C103.274 27.1849 102.37 27.3386 101.354 27.3386ZM109.575 27.0583V13.1628H112.197V15.3698H112.342C112.596 14.6224 113.044 14.0341 113.685 13.6061C114.332 13.1716 115.064 12.9547 115.88 12.9547C116.05 12.9547 116.249 12.9608 116.479 12.9727C116.715 12.9849 116.899 12.9999 117.032 13.0178V15.6055C116.924 15.5749 116.73 15.542 116.452 15.506C116.175 15.4639 115.896 15.4427 115.617 15.4425C114.976 15.4425 114.405 15.5783 113.902 15.8495C113.415 16.1065 113.008 16.4913 112.723 16.9626C112.433 17.433 112.288 17.9693 112.288 18.5729V27.0583H109.575ZM118.831 27.0583V8.53073H130.352V10.9374H121.634V16.5824H129.526V18.9799H121.634V27.0583H118.831ZM132.815 27.0583V13.1628H135.527V27.0583H132.815ZM134.185 11.0185C133.713 11.0185 133.308 10.8617 132.969 10.548C132.637 10.2286 132.47 9.84882 132.47 9.40818C132.47 8.96219 132.637 8.58199 132.969 8.26834C133.308 7.94895 133.713 7.78906 134.185 7.78906C134.657 7.78906 135.059 7.94895 135.392 8.26872C135.73 8.58237 135.9 8.96219 135.9 9.40857C135.9 9.84844 135.73 10.2286 135.392 10.5484C135.059 10.8621 134.657 11.0185 134.185 11.0185Z" fill="white"/>
<path fill-rule="evenodd" clip-rule="evenodd" d="M4.37521 25.0568C6.79156 25.0568 8.75043 27.0137 8.75043 29.428C8.75043 31.8423 6.79156 33.7996 4.37483 33.7996C1.95926 33.7992 0 31.8423 0 29.428C0 27.0137 1.95887 25.0568 4.37521 25.0568ZM8.75043 19.2462C8.75043 21.6606 6.79156 23.6175 4.37483 23.6175C1.95926 23.6178 0 21.661 0 19.2466V7.57119C0 5.15647 1.95887 3.19922 4.37521 3.19922C5.59564 3.19922 6.69891 3.69876 7.49249 4.50354L29.3437 26.337C31.0522 28.0441 31.0522 30.8119 29.3437 32.5186C27.6356 34.2253 24.8655 34.2253 23.1574 32.5186L8.75043 18.1236V19.2462ZM30.6254 14.2313C30.6254 16.6456 28.6665 18.6029 26.2501 18.6029C23.8342 18.6029 21.8753 16.6456 21.8753 14.2313V7.57081C21.8753 5.15647 23.8342 3.19922 26.2498 3.19922C28.6665 3.19922 30.6254 5.15647 30.6254 7.57081V14.2313Z" fill="white"/>
</g>
<defs>
<clipPath id="clip0_25090_499">
<rect width="135.9" height="30.6" fill="white" transform="translate(0 3.19922)"/>
</clipPath>
</defs>
</svg>
