<svg width="153" height="28" viewBox="0 0 153 28" fill="none" xmlns="http://www.w3.org/2000/svg">
<g clip-path="url(#clip0_25090_631)">
<path d="M152.114 4.2H148.207C147.898 4.2 147.648 4.45107 147.648 4.76V26.04C147.648 26.3489 147.898 26.6 148.207 26.6H152.114C152.422 26.6 152.672 26.3489 152.672 26.04V4.76C152.672 4.45107 152.422 4.2 152.114 4.2ZM142.624 4.76V5.84687C142.624 6.01487 142.585 6.1488 142.508 6.27854L130.757 26.0549C130.657 26.2215 130.516 26.3592 130.348 26.4549C130.18 26.5505 129.99 26.6008 129.796 26.6009H125.308C125.115 26.6012 124.925 26.5511 124.757 26.4554C124.589 26.3597 124.448 26.2217 124.349 26.0549L112.598 6.27854C112.522 6.14739 112.481 5.99833 112.481 5.8464V4.76C112.481 4.45107 112.731 4.2 113.039 4.2H116.486C116.922 4.2 117.245 4.4072 117.446 4.746L127.556 21.7588L137.659 4.74647C137.863 4.40767 138.198 4.2 138.619 4.2H142.066C142.374 4.2 142.624 4.45107 142.624 4.76ZM97.1157 4.2C96.7216 4.2 96.359 4.4072 96.1555 4.746L84.4065 24.5233C84.3295 24.6539 84.2891 24.8031 84.2896 24.955V26.0414C84.2896 26.3508 84.5395 26.6014 84.8479 26.6014H88.2941C88.4873 26.6013 88.6772 26.551 88.8454 26.4553C89.0136 26.3597 89.1545 26.2219 89.2543 26.0554L91.6017 22.1074H107.122L109.47 26.0554C109.569 26.2222 109.71 26.3602 109.878 26.4559C110.047 26.5516 110.237 26.6018 110.43 26.6014H113.876C114.184 26.6014 114.434 26.3503 114.434 26.0414V24.955C114.434 24.8038 114.392 24.6554 114.317 24.5233L102.569 4.74694C102.469 4.57993 102.328 4.44173 102.16 4.34587C101.992 4.25 101.802 4.19974 101.608 4.2H97.1157ZM94.269 17.612L99.3583 9.044L104.449 17.612H94.269ZM79.5448 4.2H75.6595C75.3512 4.2 75.1013 4.45107 75.1013 4.76V20.0933L59.5162 4.68534C59.4574 4.62724 59.3943 4.57373 59.3275 4.52527C59.0407 4.31356 58.6942 4.1996 58.3385 4.2H53.8668C53.5584 4.2 53.309 4.45107 53.309 4.76V26.0409C53.3091 26.1145 53.3237 26.1873 53.3518 26.2553C53.3799 26.3232 53.421 26.3849 53.4728 26.4368C53.5246 26.4887 53.586 26.5299 53.6536 26.5579C53.7212 26.5859 53.7937 26.6002 53.8668 26.6H57.752C58.0599 26.6 58.3102 26.3503 58.3102 26.0409V10.7077L73.8958 26.1161C73.9552 26.1742 74.0179 26.2276 74.0841 26.2761C74.3715 26.4869 74.7179 26.6003 75.0735 26.6H79.5448C79.6179 26.6002 79.6904 26.586 79.7581 26.558C79.8257 26.53 79.8872 26.4889 79.9391 26.437C79.9909 26.385 80.0321 26.3233 80.0602 26.2554C80.0883 26.1874 80.1029 26.1146 80.103 26.0409V4.76C80.103 4.45107 79.8531 4.2 79.5448 4.2ZM42.1432 17.9424V27.16C42.1432 27.2705 42.1216 27.38 42.0795 27.4821C42.0373 27.5842 41.9756 27.6769 41.8978 27.755C41.82 27.833 41.7277 27.8948 41.6261 27.9369C41.5246 27.9789 41.4157 28.0004 41.3059 28H35.7516C35.4071 28.0007 35.0709 27.8941 34.789 27.6948L16.4096 14.7112C15.7591 14.2184 14.2328 14.3584 14.2328 15.862V27.16C14.2328 27.2705 14.2111 27.38 14.169 27.4821C14.1269 27.5842 14.0652 27.6769 13.9874 27.755C13.9096 27.833 13.8173 27.8948 13.7157 27.9369C13.6141 27.9789 13.5053 28.0004 13.3955 28H1.11467C1.00484 28.0004 0.896023 27.9789 0.79445 27.9369C0.692877 27.8948 0.600549 27.833 0.522759 27.755C0.44497 27.6769 0.383248 27.5842 0.341135 27.4821C0.299021 27.38 0.277343 27.2705 0.277344 27.16V14.84C0.277343 14.7295 0.299021 14.62 0.341135 14.5179C0.383248 14.4158 0.44497 14.3231 0.522759 14.245C0.600549 14.167 0.692877 14.1052 0.79445 14.0631C0.896023 14.0211 1.00484 13.9996 1.11467 14H8.65062C10.4032 14 11.4417 12.8688 11.4417 11.2V1.4C11.4417 1.28946 11.4634 1.18 11.5055 1.0779C11.5476 0.975805 11.6093 0.883079 11.6871 0.805041C11.7649 0.727003 11.8572 0.665188 11.9588 0.623139C12.0604 0.58109 12.1692 0.559635 12.279 0.560003H17.8218C18.2238 0.560003 18.514 0.669203 18.7987 0.876403L41.6689 17.0268C42.0153 17.2704 42.1432 17.5448 42.1432 17.9424ZM42.1432 0.840003V12.8744C42.1432 13.3672 41.6685 13.6192 41.2637 13.3336L28.6681 4.4352C28.3668 4.2252 28.1883 3.99 28.1883 3.514V0.840003C28.1883 0.729496 28.2099 0.620075 28.252 0.518009C28.2941 0.415943 28.3558 0.323239 28.4335 0.245207C28.5112 0.167175 28.6035 0.10535 28.705 0.0632735C28.8066 0.021197 28.9153 -0.000303723 29.0251 3.24103e-06H41.3055C41.7691 3.24103e-06 42.1432 0.375203 42.1432 0.840003Z" fill="white"/>
</g>
<defs>
<clipPath id="clip0_25090_631">
<rect width="153" height="28" fill="white"/>
</clipPath>
</defs>
</svg>
