<svg width="172" height="27" viewBox="0 0 172 27" fill="none" xmlns="http://www.w3.org/2000/svg">
<g clip-path="url(#clip0_25090_120)">
<path fill-rule="evenodd" clip-rule="evenodd" d="M24.0355 1.5H21.8506V22.9133L24.0355 25.0725V1.5Z" fill="white"/>
<path fill-rule="evenodd" clip-rule="evenodd" d="M19.6655 1.5H17.4805V18.5946L19.6655 20.7538V1.5Z" fill="white"/>
<path fill-rule="evenodd" clip-rule="evenodd" d="M15.2953 1.5H13.1104V14.276L15.2953 16.4353V1.5Z" fill="white"/>
<path fill-rule="evenodd" clip-rule="evenodd" d="M8.74023 10.0469V25.0721H10.9253V12.2062L8.74023 10.0469Z" fill="white"/>
<path fill-rule="evenodd" clip-rule="evenodd" d="M4.37109 5.72852V25.073H6.55613V7.88783L4.37109 5.72852Z" fill="white"/>
<path fill-rule="evenodd" clip-rule="evenodd" d="M0.0916647 1.5H0V25.0724H2.18502V3.56873L0.0916647 1.5Z" fill="white"/>
<path d="M39.8379 10.5278H43.36V12.8615H43.4218C43.7513 12.1341 44.3177 11.4976 45.121 10.9521C45.9449 10.3864 46.9129 10.1035 48.0252 10.1035C48.9932 10.1035 49.8171 10.2753 50.4967 10.6187C51.1971 10.942 51.7635 11.3764 52.1959 11.9219C52.6491 12.4675 52.9786 13.0938 53.1846 13.801C53.3905 14.5081 53.4936 15.2355 53.4936 15.9831V25.0752H49.7862V17.0136C49.7862 16.5892 49.7553 16.1447 49.6935 15.68C49.6317 15.2153 49.4978 14.8011 49.2918 14.4374C49.0859 14.0535 48.7975 13.7404 48.4268 13.4979C48.0766 13.2554 47.6029 13.1342 47.0056 13.1342C46.4083 13.1342 45.8933 13.2554 45.4609 13.4979C45.0284 13.7202 44.6679 14.0131 44.3795 14.3768C44.1118 14.7405 43.9058 15.1648 43.7616 15.6497C43.6174 16.1144 43.5454 16.5892 43.5454 17.0741V25.0752H39.8379V10.5278Z" fill="white"/>
<path d="M57.2637 17.7409C57.2637 16.5892 57.4696 15.5487 57.8815 14.6193C58.3142 13.6696 58.8908 12.8615 59.6116 12.1947C60.3326 11.5279 61.1873 11.0127 62.176 10.649C63.1647 10.2854 64.215 10.1035 65.3273 10.1035C66.4395 10.1035 67.4899 10.2854 68.4786 10.649C69.4673 11.0127 70.3219 11.5279 71.0429 12.1947C71.7638 12.8615 72.3302 13.6696 72.7421 14.6193C73.1746 15.5487 73.3909 16.5892 73.3909 17.7409C73.3909 18.8926 73.1746 19.9432 72.7421 20.8928C72.3302 21.8424 71.7638 22.6607 71.0429 23.3477C70.3219 24.0144 69.4673 24.5397 68.4786 24.9236C67.4899 25.3075 66.4395 25.4995 65.3273 25.4995C64.215 25.4995 63.1647 25.3075 62.176 24.9236C61.1873 24.5397 60.3326 24.0144 59.6116 23.3477C58.8908 22.6607 58.3142 21.8424 57.8815 20.8928C57.4696 19.9432 57.2637 18.8926 57.2637 17.7409ZM61.0328 17.7409C61.0328 18.3066 61.1153 18.8724 61.28 19.438C61.4655 20.0037 61.7331 20.5089 62.0833 20.9534C62.4335 21.3979 62.8763 21.7616 63.4118 22.0445C63.9473 22.3274 64.5859 22.4687 65.3273 22.4687C66.0687 22.4687 66.7072 22.3274 67.2427 22.0445C67.7782 21.7616 68.2211 21.3979 68.5712 20.9534C68.9214 20.5089 69.1789 20.0037 69.3437 19.438C69.5291 18.8724 69.6217 18.3066 69.6217 17.7409C69.6217 17.1751 69.5291 16.6195 69.3437 16.074C69.1789 15.5083 68.9214 15.0031 68.5712 14.5586C68.2211 14.1141 67.7782 13.7606 67.2427 13.4979C66.7072 13.215 66.0687 13.0736 65.3273 13.0736C64.5859 13.0736 63.9473 13.215 63.4118 13.4979C62.8763 13.7606 62.4335 14.1141 62.0833 14.5586C61.7331 15.0031 61.4655 15.5083 61.28 16.074C61.1153 16.6195 61.0328 17.1751 61.0328 17.7409Z" fill="white"/>
<path d="M75.1631 13.4385V10.5291H77.7582V6.31641H81.4039V10.5291H85.1113V13.4385H81.4039V20.197C81.4039 20.8435 81.5171 21.379 81.7437 21.8032C81.9909 22.2275 82.5264 22.4397 83.3503 22.4397C83.5974 22.4397 83.8652 22.4195 84.1534 22.3791C84.4418 22.3185 84.6993 22.2376 84.9259 22.1366L85.0495 24.9854C84.7199 25.1068 84.3286 25.1976 83.8754 25.2582C83.4224 25.339 82.9897 25.3795 82.5778 25.3795C81.5893 25.3795 80.7859 25.2481 80.1681 24.9854C79.5501 24.7026 79.0558 24.3288 78.6851 23.8642C78.3349 23.3792 78.0878 22.8336 77.9435 22.2275C77.82 21.6011 77.7582 20.9344 77.7582 20.2273V13.4385H75.1631Z" fill="white"/>
<path d="M88.1648 10.5284H91.8723V25.0758H88.1648V10.5284ZM87.6396 5.58835C87.6396 5.00241 87.8559 4.4973 88.2884 4.07301C88.7416 3.6285 89.308 3.40625 89.9876 3.40625C90.6674 3.40625 91.2338 3.6184 91.6868 4.0427C92.1605 4.4468 92.3975 4.96201 92.3975 5.58835C92.3975 6.21469 92.1605 6.74001 91.6868 7.16431C91.2338 7.56841 90.6674 7.77045 89.9876 7.77045C89.308 7.77045 88.7416 7.55831 88.2884 7.13401C87.8559 6.68951 87.6396 6.17428 87.6396 5.58835Z" fill="white"/>
<path d="M95.8145 17.7409C95.8145 16.5892 96.0204 15.5487 96.4323 14.6193C96.8648 13.6696 97.4415 12.8615 98.1624 12.1947C98.8833 11.5279 99.7381 11.0127 100.727 10.649C101.715 10.2854 102.766 10.1035 103.878 10.1035C104.99 10.1035 106.041 10.2854 107.029 10.649C108.018 11.0127 108.873 11.5279 109.594 12.1947C110.315 12.8615 110.881 13.6696 111.293 14.6193C111.725 15.5487 111.942 16.5892 111.942 17.7409C111.942 18.8926 111.725 19.9432 111.293 20.8928C110.881 21.8424 110.315 22.6607 109.594 23.3477C108.873 24.0144 108.018 24.5397 107.029 24.9236C106.041 25.3075 104.99 25.4995 103.878 25.4995C102.766 25.4995 101.715 25.3075 100.727 24.9236C99.7381 24.5397 98.8833 24.0144 98.1624 23.3477C97.4415 22.6607 96.8648 21.8424 96.4323 20.8928C96.0204 19.9432 95.8145 18.8926 95.8145 17.7409ZM99.5836 17.7409C99.5836 18.3066 99.6661 18.8724 99.8307 19.438C100.016 20.0037 100.284 20.5089 100.634 20.9534C100.984 21.3979 101.427 21.7616 101.963 22.0445C102.498 22.3274 103.136 22.4687 103.878 22.4687C104.619 22.4687 105.258 22.3274 105.794 22.0445C106.329 21.7616 106.772 21.3979 107.122 20.9534C107.472 20.5089 107.73 20.0037 107.894 19.438C108.08 18.8724 108.173 18.3066 108.173 17.7409C108.173 17.1751 108.08 16.6195 107.894 16.074C107.73 15.5083 107.472 15.0031 107.122 14.5586C106.772 14.1141 106.329 13.7606 105.794 13.4979C105.258 13.215 104.619 13.0736 103.878 13.0736C103.136 13.0736 102.498 13.215 101.963 13.4979C101.427 13.7606 100.984 14.1141 100.634 14.5586C100.284 15.0031 100.016 15.5083 99.8307 16.074C99.6661 16.6195 99.5836 17.1751 99.5836 17.7409Z" fill="white"/>
<path d="M115.845 10.5278H119.367V12.8615H119.429C119.758 12.1341 120.325 11.4976 121.128 10.9521C121.952 10.3864 122.92 10.1035 124.032 10.1035C125 10.1035 125.824 10.2753 126.504 10.6187C127.204 10.942 127.77 11.3764 128.203 11.9219C128.656 12.4675 128.985 13.0938 129.191 13.801C129.397 14.5081 129.5 15.2355 129.5 15.9831V25.0752H125.793V17.0136C125.793 16.5892 125.762 16.1447 125.7 15.68C125.638 15.2153 125.505 14.8011 125.299 14.4374C125.093 14.0535 124.804 13.7404 124.433 13.4979C124.083 13.2554 123.61 13.1342 123.012 13.1342C122.415 13.1342 121.9 13.2554 121.468 13.4979C121.035 13.7202 120.675 14.0131 120.386 14.3768C120.118 14.7405 119.913 15.1648 119.768 15.6497C119.624 16.1144 119.552 16.5892 119.552 17.0741V25.0752H115.845V10.5278Z" fill="white"/>
<path d="M143.342 23.2265H143.25C142.879 23.873 142.281 24.4083 141.457 24.8327C140.634 25.2368 139.696 25.4389 138.646 25.4389C138.049 25.4389 137.421 25.3581 136.762 25.1964C136.123 25.055 135.526 24.8125 134.97 24.4691C134.434 24.1053 133.981 23.6406 133.61 23.0749C133.26 22.4889 133.085 21.7717 133.085 20.9231C133.085 19.8321 133.394 18.9633 134.012 18.3167C134.65 17.6702 135.464 17.1751 136.453 16.8317C137.441 16.4882 138.533 16.2659 139.727 16.1649C140.943 16.0437 142.127 15.9831 143.28 15.9831V15.6194C143.28 14.7102 142.94 14.0434 142.261 13.6191C141.602 13.1746 140.809 12.9524 139.882 12.9524C139.099 12.9524 138.347 13.114 137.627 13.4373C136.906 13.7606 136.308 14.1546 135.835 14.6193L133.919 12.4069C134.764 11.6391 135.732 11.0632 136.823 10.6794C137.935 10.2955 139.058 10.1035 140.191 10.1035C141.509 10.1035 142.59 10.2854 143.435 10.649C144.3 11.0127 144.98 11.4875 145.474 12.0735C145.968 12.6594 146.308 13.3161 146.494 14.0434C146.699 14.7708 146.802 15.4982 146.802 16.2255V25.0752H143.342V23.2265ZM143.28 18.4379H142.446C141.849 18.4379 141.221 18.4682 140.562 18.5289C139.903 18.5693 139.295 18.6804 138.739 18.8623C138.183 19.0238 137.719 19.2663 137.349 19.5896C136.978 19.8927 136.792 20.3169 136.792 20.8625C136.792 21.2059 136.864 21.4989 137.009 21.7414C137.173 21.9637 137.379 22.1455 137.627 22.287C137.874 22.4283 138.152 22.5293 138.461 22.59C138.77 22.6506 139.079 22.6809 139.388 22.6809C140.665 22.6809 141.633 22.3476 142.292 21.6808C142.951 21.0141 143.28 20.1049 143.28 18.9532V18.4379Z" fill="white"/>
<path d="M151.493 2.16406H155.2V25.0762H151.493V2.16406Z" fill="white"/>
</g>
<defs>
<clipPath id="clip0_25090_120">
<rect width="155.2" height="24" fill="white" transform="translate(0 1.5)"/>
</clipPath>
</defs>
</svg>
