<svg width="156" height="63" viewBox="0 0 156 63" fill="none" xmlns="http://www.w3.org/2000/svg">
<path d="M17.9442 16.9027H35.2505C35.4217 16.9027 35.5151 16.6854 35.375 16.5768C32.9783 14.6367 29.9279 13.4727 26.5974 13.4727C23.2668 13.4727 20.2165 14.6367 17.8197 16.5768C17.6797 16.6854 17.7575 16.9027 17.9442 16.9027Z" fill="white"/>
<path d="M13.6648 23.1246H21.2907C21.4464 23.1246 21.5864 23.0626 21.6798 22.9539C22.8937 21.6191 24.6368 20.781 26.5822 20.781C28.5276 20.781 30.2707 21.6191 31.4846 22.9539C31.578 23.0626 31.7336 23.1246 31.8737 23.1246H39.4997C39.6709 23.1246 39.7954 22.9539 39.7331 22.7987C39.1884 21.2622 38.3947 19.8498 37.3831 18.6081C37.2897 18.4995 37.1496 18.4219 36.994 18.4219H16.1704C16.0148 18.4219 15.8747 18.484 15.7814 18.6081C14.7698 19.8498 13.976 21.2622 13.4313 22.7987C13.3691 22.9539 13.4936 23.1246 13.6648 23.1246Z" fill="white"/>
<path d="M39.7491 30.9473H32.4499C32.2787 30.9473 32.1231 31.0404 32.0142 31.1801C30.8158 32.8874 28.8393 34.0048 26.5826 34.0048C24.3259 34.0048 22.3494 32.8874 21.151 31.1801C21.0577 31.0404 20.8865 30.9473 20.7153 30.9473H13.4161C13.2449 30.9473 13.1204 31.1025 13.1671 31.2732C14.8479 37.0779 20.2172 41.3151 26.567 41.3151C32.9168 41.3151 38.2861 37.0779 39.9669 31.2732C40.0136 31.118 39.8891 30.9473 39.7179 30.9473H39.7491Z" fill="white"/>
<path d="M40.1225 24.6621H32.9323C32.7922 24.6621 32.6989 24.8018 32.7455 24.9415C33.0568 25.702 33.2124 26.5401 33.2124 27.4093C33.2124 28.2784 33.1346 28.6199 32.9634 29.1941C32.9323 29.3183 33.0257 29.4425 33.1502 29.4425H40.2159C40.3093 29.4425 40.3871 29.3804 40.4026 29.2718C40.4805 28.6664 40.5271 28.0301 40.5271 27.3937C40.5271 26.7574 40.4493 25.6554 40.2937 24.8173C40.2781 24.7242 40.2003 24.6621 40.1069 24.6621H40.1225Z" fill="white"/>
<path d="M20.217 29.1785C20.0613 28.6043 19.968 28.0145 19.968 27.3936C19.968 26.7728 20.1392 25.6864 20.4349 24.9259C20.4815 24.8017 20.3882 24.6465 20.2481 24.6465H13.0579C12.9645 24.6465 12.8867 24.7086 12.8711 24.8017C12.7155 25.6398 12.6377 26.4934 12.6377 27.3781C12.6377 28.2628 12.6844 28.6353 12.7622 29.2561C12.7622 29.3492 12.8556 29.4269 12.949 29.4269H20.0147C20.1392 29.4269 20.2325 29.3027 20.2014 29.1785H20.217Z" fill="white"/>
<path d="M52.8066 21.8838C51.7794 22.1322 50.8456 22.5978 50.0208 23.3117C49.6006 23.6687 49.2115 24.0723 48.8846 24.5224V22.0701H43.9355V40.9277H48.8846V30.3581C48.8846 29.2872 49.1959 28.387 49.8029 27.6575C50.441 26.9281 51.2969 26.4624 52.3708 26.2607C53.4758 26.0589 54.6742 26.1831 55.9659 26.6332V21.9925C54.892 21.6821 53.8337 21.6355 52.8066 21.8838Z" fill="white"/>
<path d="M71.2174 24.305C70.7661 23.8083 70.2525 23.3582 69.6766 22.9857C68.3849 22.1321 66.8908 21.713 65.21 21.713C63.5292 21.713 61.9884 22.1321 60.5877 22.9857C59.187 23.8394 58.0976 25.0189 57.2883 26.5245C56.5102 28.03 56.1211 29.6907 56.1211 31.4911C56.1211 33.2915 56.5102 34.9832 57.2883 36.5043C58.0976 37.9942 59.187 39.1583 60.5877 40.0119C61.9729 40.8656 63.5136 41.2846 65.21 41.2846C66.9064 41.2846 68.3849 40.8656 69.6766 40.0119C70.2525 39.6394 70.7661 39.1893 71.2174 38.6927V40.9276H76.1665V13.8906H71.2174V24.3205V24.305ZM70.5637 34.2072C70.128 35.0143 69.521 35.6506 68.774 36.1007C68.0269 36.5508 67.171 36.7991 66.2527 36.7991C65.3345 36.7991 64.4785 36.5663 63.7315 36.1007C62.9845 35.6351 62.3775 34.9987 61.9417 34.2072C61.506 33.3846 61.2881 32.4844 61.2881 31.5066C61.2881 30.5288 61.506 29.6441 61.9417 28.837C62.3775 28.0144 62.9845 27.3781 63.7315 26.9435C64.4941 26.4779 65.3345 26.2451 66.2527 26.2451C67.171 26.2451 68.0269 26.4779 68.774 26.9435C69.5366 27.3781 70.128 28.0144 70.5637 28.837C70.9995 29.6441 71.2174 30.5288 71.2174 31.5066C71.2174 32.4844 70.9995 33.3846 70.5637 34.2072Z" fill="white"/>
<path d="M94.5313 23.2805C92.9128 22.2251 91.0763 21.7129 88.9908 21.7129C86.9054 21.7129 85.4424 22.1475 83.9328 23.0321C82.4232 23.8858 81.2248 25.0654 80.3377 26.5709C79.4817 28.0608 79.0615 29.706 79.0615 31.5064C79.0615 33.3068 79.4973 34.9986 80.3844 36.5196C81.2871 38.0096 82.5165 39.1737 84.0573 40.0273C85.5981 40.8809 87.31 41.3 89.1932 41.3C91.0763 41.3 92.9283 40.8499 94.4691 39.9497C96.0098 39.0184 97.2238 37.7923 98.0953 36.2558L94.0333 34.4243C93.5664 35.2469 92.9283 35.9143 92.0879 36.3955C91.2786 36.8611 90.3604 37.0939 89.3332 37.0939C88.3061 37.0939 87.3411 36.8456 86.5163 36.3644C85.6914 35.8833 85.0378 35.2004 84.5709 34.3467C84.3841 34.0053 84.2441 33.6328 84.1507 33.2448H98.7645C99.1069 31.1805 98.889 29.2559 98.1109 27.5021C97.3483 25.7172 96.1655 24.3048 94.5625 23.265L94.5313 23.2805ZM86.3918 26.6795C87.1699 26.1984 88.0415 25.95 88.9908 25.95C89.9402 25.95 90.7806 26.1673 91.5121 26.6019C92.2747 27.0365 92.8661 27.6573 93.3018 28.4333C93.4886 28.7748 93.6442 29.1163 93.7532 29.4887H84.1974C84.2908 29.2094 84.3997 28.9455 84.5398 28.6817C84.9755 27.797 85.5981 27.1296 86.3762 26.664L86.3918 26.6795Z" fill="white"/>
<path d="M110.67 21.8838C109.643 22.1322 108.709 22.5978 107.884 23.3117C107.464 23.6687 107.075 24.0723 106.748 24.5224V22.0701H101.799V40.9277H106.748V30.3581C106.748 29.2872 107.059 28.387 107.666 27.6575C108.304 26.9281 109.16 26.4624 110.234 26.2607C111.339 26.0589 112.537 26.1831 113.829 26.6332V21.9925C112.755 21.6821 111.697 21.6355 110.67 21.8838Z" fill="white"/>
<path d="M121.083 13.8906H116.134V40.9432H121.083V13.8906Z" fill="white"/>
<path d="M138.03 22.0703V32.0501C138.03 32.8572 137.843 33.5867 137.486 34.2385C137.112 34.8749 136.583 35.3715 135.867 35.744C135.182 36.0855 134.404 36.2562 133.517 36.2562C132.63 36.2562 131.898 36.0855 131.276 35.744C130.684 35.3715 130.233 34.8904 129.922 34.2851C129.611 33.6487 129.439 32.9037 129.439 32.0501V22.0703H124.49V32.9193C124.49 34.4558 124.801 35.8061 125.408 36.9702C126.015 38.1342 126.887 39.0499 128.008 39.7173C129.159 40.3692 130.513 40.7106 132.07 40.7106C133.626 40.7106 134.933 40.3537 136.1 39.6552C136.847 39.1896 137.486 38.6154 137.999 37.9324V38.9568C137.999 40.4623 137.517 41.704 136.567 42.6507C135.633 43.6285 134.482 44.1097 133.081 44.1097C131.68 44.1097 131.338 43.8613 130.622 43.3492C129.906 42.868 129.346 42.1385 128.895 41.1918L124.49 43.5354C125.315 45.072 126.482 46.2981 127.976 47.2293C129.47 48.1606 131.167 48.6262 133.066 48.6262C134.964 48.6262 136.567 48.2071 138.046 47.3845C139.555 46.5619 140.738 45.3979 141.594 43.9079C142.481 42.449 142.917 40.8038 142.917 38.9723V22.0858H137.968L138.03 22.0703Z" fill="white"/>
</svg>
