<svg width="198" height="64" viewBox="0 0 198 64" fill="none" xmlns="http://www.w3.org/2000/svg">
<g clip-path="url(#clip0_25090_514)">
<path d="M61.8737 31.384H58.1569V37.3932H55.4639V22.0586H61.9627C63.7877 22.0586 66.3695 23.572 66.3695 26.5989C66.3695 30.6495 63.4316 31.384 61.8737 31.384ZM58.1569 29.1139H61.896C62.4969 29.1139 63.721 28.602 63.721 26.5989C63.721 25.1967 62.7194 24.351 61.9627 24.351H58.1569V29.1139ZM81.3993 30.6273V34.166C81.3993 34.6779 81.5773 35.1231 82.4453 35.1231H88.4768V37.3932H82.3118C79.8413 37.3265 78.7508 36.5697 78.7063 34.2773V22.0586H88.4768V24.3287H81.3993V28.3571H87.9872V30.6273H81.3993ZM104.058 26.2428V37.3932H101.365V22.0586H104.036C106.084 24.6403 108.821 28.7355 110.602 32.5191V22.0586H113.295V37.3932H110.602C108.821 33.8322 106.84 30.2267 104.058 26.2428ZM132.188 37.3932H126.891V22.0586H132.188C135.905 22.0586 139.354 24.6626 139.354 29.7593C139.354 34.9228 135.905 37.3932 132.188 37.3932ZM129.584 35.1231H131.253C134.725 35.1231 136.55 33.2981 136.55 29.7593C136.55 26.265 134.881 24.3287 131.253 24.3287H129.584V35.1231ZM154.761 22.0586V33.9657C154.761 34.5889 154.984 35.1231 156.03 35.1231H162.017V37.3932H155.674C153.203 37.3265 152.113 36.5697 152.068 34.2773V22.0586H154.761ZM176.7 30.6273V34.166C176.7 34.6779 176.879 35.1231 177.747 35.1231H183.778V37.3932H177.613C175.143 37.3265 174.052 36.5697 174.007 34.2773V22.0586H183.778V24.3287H176.7V28.3571H183.288V30.6273H176.7Z" fill="white"/>
<path d="M26.7079 44.658C34.9727 44.658 41.6726 37.958 41.6726 29.6932C41.6726 21.4285 34.9727 14.7285 26.7079 14.7285C18.4431 14.7285 11.7432 21.4285 11.7432 29.6932C11.7432 37.958 18.4431 44.658 26.7079 44.658Z" fill="white" fill-opacity="0.5"/>
<g filter="url(#filter0_d_25090_514)">
<path d="M19.9758 52.1391C24.5226 52.1391 28.2084 48.4532 28.2084 43.9065C28.2084 39.3597 24.5226 35.6738 19.9758 35.6738C15.429 35.6738 11.7432 39.3597 11.7432 43.9065C11.7432 48.4532 15.429 52.1391 19.9758 52.1391Z" fill="white"/>
<mask id="mask0_25090_514" style="mask-type:alpha" maskUnits="userSpaceOnUse" x="19" y="15" width="2" height="23">
<path fill-rule="evenodd" clip-rule="evenodd" d="M19.0703 37.6416V15.5781H20.9056V37.6416H19.0703Z" fill="white"/>
</mask>
<g mask="url(#mask0_25090_514)">
<path d="M41.6726 29.6932C41.6726 37.958 34.9727 44.658 26.7079 44.658C18.4431 44.658 11.7432 37.958 11.7432 29.6932C11.7432 21.4285 18.4431 14.7285 26.7079 14.7285C34.9727 14.7285 41.6726 21.4285 41.6726 29.6932Z" fill="white"/>
</g>
</g>
</g>
<defs>
<filter id="filter0_d_25090_514" x="-0.256836" y="3.57812" width="40.4648" height="60.5605" filterUnits="userSpaceOnUse" color-interpolation-filters="sRGB">
<feFlood flood-opacity="0" result="BackgroundImageFix"/>
<feColorMatrix in="SourceAlpha" type="matrix" values="0 0 0 0 0 0 0 0 0 0 0 0 0 0 0 0 0 0 127 0" result="hardAlpha"/>
<feOffset/>
<feGaussianBlur stdDeviation="6"/>
<feComposite in2="hardAlpha" operator="out"/>
<feColorMatrix type="matrix" values="0 0 0 0 0.376471 0 0 0 0 0.588235 0 0 0 0 1 0 0 0 1 0"/>
<feBlend mode="normal" in2="BackgroundImageFix" result="effect1_dropShadow_25090_514"/>
<feBlend mode="normal" in="SourceGraphic" in2="effect1_dropShadow_25090_514" result="shape"/>
</filter>
<clipPath id="clip0_25090_514">
<rect width="197.636" height="63.208" fill="white"/>
</clipPath>
</defs>
</svg>
