<svg width="130" height="32" viewBox="0 0 130 32" fill="none" xmlns="http://www.w3.org/2000/svg">
<path d="M60.4495 14.2132L58.4298 13.8746C55.1234 13.3195 54.6977 12.3704 54.6977 11.607C54.6977 10.1793 56.2885 9.29216 58.8472 9.29216C61.1611 9.29216 62.9195 10.2152 63.5538 11.7649L63.6458 11.9911L67.1675 11.9911L67.0459 11.5419C66.1372 8.17545 63.0476 6.08203 58.9803 6.08203C56.2491 6.08203 53.9861 6.83573 52.609 8.20475C51.6789 9.12775 51.199 10.2982 51.2204 11.5891C51.2795 14.4476 53.503 16.2854 57.8218 17.0489L59.8332 17.4119C63.0969 18.0614 63.7641 18.8721 63.7641 19.8879C63.7641 21.2976 61.9367 22.2775 59.3238 22.2775C56.4742 22.2775 54.9081 21.3155 54.088 19.0658L53.9993 18.8249H50.6436L50.7175 19.2481C51.3929 23.0964 54.6599 25.4909 59.2416 25.4909C62.0025 25.4909 64.3163 24.7079 65.7575 23.2884C66.7353 22.3231 67.2481 21.112 67.2382 19.782C67.2086 16.7835 64.9868 14.9603 60.4462 14.2132H60.4528H60.4495Z" fill="white"/>
<path d="M97.898 6.34343L91.1504 6.34343V25.2298H97.898C103.923 25.2298 107.967 21.4353 107.967 15.785C107.967 10.1347 103.923 6.3418 97.898 6.3418V6.34343ZM104.439 15.7866C104.439 19.6283 101.932 22.018 97.898 22.018H94.5456V9.55355H97.898C101.932 9.55355 104.439 11.94 104.439 15.785V15.7866Z" fill="white"/>
<path d="M125.715 6.34345V9.12219C124.018 7.24528 121.77 6.18555 119.413 6.18555C113.839 6.18555 109.793 10.2226 109.793 15.7834C109.793 21.3441 113.839 25.3812 119.413 25.3812C121.768 25.3812 124.016 24.3215 125.715 22.4445V25.2265H129.03V6.34345H125.715ZM125.715 15.785C125.715 19.547 123.109 22.2752 119.517 22.2752C115.924 22.2752 113.318 19.547 113.318 15.785C113.318 12.023 115.924 9.29475 119.517 9.29475C123.109 9.29475 125.715 12.023 125.715 15.785Z" fill="white"/>
<path d="M85.8709 8.92849C84.1207 7.1232 81.5702 6.08789 78.8718 6.08789C73.3123 6.08789 69.1201 10.2585 69.1201 15.7915C69.1201 21.3246 73.4175 25.4952 78.8998 25.4952C82.7649 25.4952 86.2341 23.2357 87.7082 19.8188L83.9465 19.8188C82.7584 21.4483 80.9967 22.3355 78.903 22.3355C75.8579 22.3355 73.3666 20.317 72.701 17.3722L88.474 17.3722L88.4921 17.0336C88.6843 13.6997 87.7756 10.8949 85.8742 8.93175H85.8709V8.92849ZM72.6632 14.2076C73.2762 11.1766 75.6377 9.2443 78.7913 9.2443C81.4601 9.2443 84.4757 11.1294 84.944 14.2076L72.6632 14.2076Z" fill="white"/>
<path d="M17.4974 0C17.3556 0.380537 17.2089 0.849866 17.1139 1.35091C16.8399 2.78902 17.0994 3.82757 17.8873 4.43484C18.6286 5.00723 20.7781 5.93321 23.0534 6.91309C23.7962 7.23337 24.5568 7.56 25.3303 7.9009C24.4456 4.98662 20.0595 1.64899 17.4974 0Z" fill="white"/>
<path d="M12.9776 2.69709C10.1432 5.08179 8.6446 7.2239 8.6446 8.8935C8.6446 12.2137 14.8919 14.5001 17.2977 15.101C17.6683 15.193 25.5882 17.2146 27.119 21.6114C27.9183 21.123 29.0317 20.4206 30.1436 19.6484C34.0044 16.9656 34.1301 16.0317 34.1333 15.9921C34.1333 15.4816 33.6467 14.3368 30.3901 12.4499C28.002 11.0673 24.9694 9.76081 22.2946 8.6081C19.7019 7.49186 17.6538 6.6087 16.7273 5.8936C15.024 4.57758 14.9515 2.56391 15.2786 0.927598C14.5745 1.42547 13.7736 2.02798 12.9776 2.69709Z" fill="white"/>
<path d="M16.244 27.5667C15.5027 26.9944 13.3548 26.0684 11.0795 25.0885C10.3367 24.7682 9.57609 24.4416 8.80263 24.0991C9.68727 27.0134 14.0734 30.351 16.6355 32C16.7773 31.6195 16.924 31.1501 17.019 30.6507C17.293 29.2126 17.0335 28.174 16.2456 27.5667H16.244Z" fill="white"/>
<path d="M21.1557 29.3029C23.9901 26.9182 25.4887 24.7761 25.4887 23.1049C25.4887 19.7848 19.243 17.4984 16.8356 16.8974C16.465 16.8055 8.54512 14.7839 7.01431 10.3871C6.21507 10.8754 5.10161 11.5778 3.98976 12.35C0.12891 15.0328 0.00322275 15.9667 0 16.0048C0 16.5153 0.486635 17.6601 3.74322 19.5469C6.13128 20.9295 9.16389 22.236 11.8388 23.3888C14.4315 24.505 16.4795 25.3882 17.4077 26.1033C19.1109 27.4193 19.1834 29.433 18.8563 31.0693C19.5605 30.5714 20.3613 29.9689 21.1574 29.2998L21.1557 29.3029Z" fill="white"/>
</svg>
