<svg width="206" height="44" viewBox="0 0 206 44" fill="none" xmlns="http://www.w3.org/2000/svg">
<g clip-path="url(#clip0_25090_114)">
<path d="M41.5941 25.4937H43.9751C44.5811 30.117 47.6534 34.4843 53.0636 34.4843C55.8341 34.4843 58.0403 32.9858 58.0403 30.2026C58.0403 23.0961 41.5941 27.4623 41.5941 15.6469C41.5941 10.5109 45.5766 6.65735 51.6349 6.65735C55.4444 6.65735 57.261 8.2845 58.5598 8.2845C59.1658 8.2845 59.8573 8.07048 59.8573 6.87159H62.1517V18.2161H59.7709C59.7709 12.7364 56.3953 9.65371 52.2409 9.65371C49.2107 9.65371 47.0027 11.1523 47.0027 13.5073C47.0027 20.6139 63.4505 16.2476 63.4505 28.0629C63.4505 33.6282 59.4677 37.4806 53.495 37.4806C48.821 37.4806 47.0027 35.511 45.2279 35.511C44.4056 35.511 43.8869 36.0677 43.8869 37.2666H41.5938L41.5941 25.4937ZM80.9975 33.1998C79.8298 35.6404 77.5785 37.4816 74.2898 37.4816C72.2552 37.4816 70.3938 36.8393 69.095 35.4692C67.884 34.2275 67.1482 32.473 67.1482 29.6471V21.6413C67.1482 20.1427 66.8884 19.586 66.4545 19.1578C66.0227 18.7296 65.4159 18.4299 64.1179 18.4299H63.9016V15.6469H73.2077V29.0894C73.2077 30.6737 73.5969 31.5728 74.1599 32.1294C74.8523 32.8145 75.6307 32.9858 76.453 32.9858C77.5355 32.9858 78.5741 32.4719 79.2669 31.6156C80.004 30.6737 80.3489 29.3464 80.3489 26.8211V21.6413C80.3489 20.1427 80.0892 19.586 79.6565 19.1578C79.2235 18.7296 78.6175 18.4299 77.3187 18.4299H77.1037V15.6469H86.4094V31.0578C86.4094 32.5566 86.6683 33.1132 87.1022 33.5413C87.534 33.9695 88.1408 34.2691 89.6551 34.2691H90.0877V37.0524H80.9983V33.1988L80.9975 33.1998ZM108.921 27.2354C109.138 32.6314 106.517 36.8971 100.912 37.3821C94.6171 37.9269 90.3604 33.5253 89.837 27.5972C89.2938 21.4561 92.7859 15.7388 99.1668 15.1865C104.642 14.7123 107.676 18.0595 107.962 21.3009C108.131 23.2201 107.401 24.7872 105.331 24.9661C103.994 25.0816 102.582 24.3442 102.424 22.5533C102.348 21.7002 102.489 20.8289 102.428 20.1459C102.304 18.7382 101.135 17.8091 99.4545 17.9536C96.3928 18.2191 94.4601 20.9209 94.8227 25.0153C95.1474 28.6827 97.1829 32.5458 101.71 32.154C104.513 31.9111 106.067 29.8441 106.55 27.4378L108.921 27.2322V27.2354ZM129.062 27.23C129.278 32.626 126.657 36.8917 121.052 37.3767C114.757 37.9215 110.501 33.5199 109.977 27.5919C109.434 21.4507 112.926 15.7336 119.307 15.1812C124.783 14.707 127.816 18.0542 128.102 21.2956C128.272 23.2149 127.541 24.782 125.471 24.9607C124.134 25.0764 122.722 24.3387 122.564 22.548C122.488 21.6948 122.629 20.8234 122.568 20.1406C122.444 18.7329 121.275 17.8038 119.594 17.9484C116.533 18.2138 114.6 20.9156 114.963 25.0099C115.287 28.6773 117.323 32.5404 121.85 32.1486C124.653 31.9057 126.207 29.8386 126.689 27.4323L129.062 27.2268V27.23ZM187.842 28.0511C187.582 33.4449 184.595 37.4688 178.969 37.4688C172.649 37.4688 168.798 32.7171 168.798 26.7666C168.798 20.6019 172.781 15.2079 179.186 15.2079C184.683 15.2079 187.41 18.8035 187.41 22.0577C187.41 23.9845 186.544 25.482 184.466 25.482C183.125 25.482 181.784 24.6256 181.784 22.8283C181.784 21.972 182 21.1158 182 20.4307C182 19.0177 180.918 17.9912 179.229 17.9912C176.156 17.9912 173.992 20.5163 173.992 24.6267C173.992 28.308 175.681 32.3328 180.225 32.3328C183.039 32.3328 184.769 30.4071 185.462 28.0521H187.843L187.842 28.0511ZM136.233 6.43359C134.112 6.43359 132.467 8.10354 132.467 10.2016C132.467 12.2996 134.112 13.9268 136.233 13.9268C138.344 13.9268 140.032 12.2996 140.032 10.2016C140.032 8.10354 138.344 6.43359 136.233 6.43359ZM168.927 34.265C167.628 34.265 167.022 33.9759 166.589 33.5477C166.156 33.1196 165.897 32.5629 165.897 31.0644V23.0574C165.897 20.2315 165.248 18.3903 164.035 17.1486C162.737 15.7785 160.789 15.2218 158.971 15.2218C155.248 15.2218 152.997 17.063 151.828 19.5035V15.6499H142.738V18.4329H143.17C144.685 18.4329 145.291 18.7326 145.724 19.1608C146.158 19.5891 146.417 20.1457 146.417 21.6443V31.0642C146.417 32.5628 146.158 33.1194 145.724 33.5475C145.291 33.9757 144.685 34.2648 143.17 34.2648H142.629C141.114 34.2648 140.508 33.9757 140.075 33.5475C139.653 33.1194 139.383 32.5628 139.383 31.0642V15.6499H129.653V18.4329H130.087C131.602 18.4329 132.208 18.7326 132.641 19.1608C133.073 19.5891 133.333 20.1457 133.333 21.6443V31.0642C133.333 32.5628 133.073 33.1194 132.641 33.5475C132.208 33.9757 131.602 34.2648 130.087 34.2648H129.653V37.0479H154.858V34.2648H154.642C154.209 34.2648 153.516 34.1362 153.083 33.7082C152.651 33.28 152.477 32.5628 152.477 31.0642V25.8833C152.477 23.3571 152.824 22.0725 153.56 21.1306C154.252 20.2743 155.291 19.7177 156.72 19.7177C157.412 19.7177 158.235 19.8461 158.927 20.5312C159.49 21.0878 159.837 22.0297 159.837 23.6139V31.0642C159.837 32.5628 159.663 33.28 159.23 33.7082C158.798 34.1362 158.105 34.2648 157.672 34.2648H157.456V37.0479H169.144V34.2648L168.927 34.265ZM205.735 33.842C204.525 35.8974 202.057 37.4805 199.2 37.4805C197.468 37.4805 195.868 37.0096 194.699 35.9391C193.53 34.8686 192.924 33.2416 192.924 30.3739V21.2977C192.924 19.9703 192.708 19.6277 192.449 19.3709C192.146 19.0712 191.798 18.8571 190.457 18.8571H188.38V16.502C194.006 15.5173 196.041 13.1195 196.603 8.58195H198.984V15.6457H205.259V18.8571H201.451C200.109 18.8571 199.762 19.0711 199.46 19.3709C199.2 19.6277 198.984 19.9703 198.984 21.2977V30.4585C198.984 31.5717 199.286 32.2567 199.85 32.685C200.325 33.0275 200.888 33.1977 201.625 33.1977C202.664 33.1977 203.486 32.7267 204.177 32.1272L205.735 33.84V33.842Z" fill="white"/>
<path d="M30.6616 4.39731V13.1903L22.9961 17.586V8.79299L15.3306 13.1887V21.9817L7.66504 17.586V8.79299L22.9961 0L30.6616 4.39731Z" fill="white"/>
<path opacity="0.4" d="M15.331 21.9816L7.66552 26.3773L0 21.9816L7.66552 17.5859L15.331 21.9816Z" fill="white"/>
<path d="M22.9965 26.3782V35.1711L7.66552 43.9641L0 39.5668V30.7738L7.66552 26.3782V35.1711L15.331 30.7755V21.9824L22.9965 26.3782Z" fill="white"/>
<path opacity="0.4" d="M30.6621 21.9816L22.9966 26.3773L15.3311 21.9816L22.9966 17.5859L30.6621 21.9816Z" fill="white"/>
</g>
<defs>
<clipPath id="clip0_25090_114">
<rect width="206" height="44" fill="white"/>
</clipPath>
</defs>
</svg>
