<svg width="102" height="46" viewBox="0 0 102 46" fill="none" xmlns="http://www.w3.org/2000/svg">
<mask id="mask0_25090_182" style="mask-type:luminance" maskUnits="userSpaceOnUse" x="0" y="0" width="33" height="33">
<path d="M32.32 16.0359C32.32 24.8922 25.0849 32.0717 16.16 32.0717C7.2351 32.0717 3.90121e-07 24.8922 0 16.0359C-3.90119e-07 7.17952 7.2351 3.87122e-07 16.16 0C25.0849 -3.87124e-07 32.32 7.17952 32.32 16.0359Z" fill="white"/>
</mask>
<g mask="url(#mask0_25090_182)">
<path d="M1.43066e-06 32.156L0 -0.326172H1.76966V32.156H1.43066e-06Z" fill="white"/>
<path d="M3.56445 32.156V-0.326172H5.16349V32.156H3.56445Z" fill="white"/>
<path d="M7.12988 32.156V-0.326172H8.55833V32.156H7.12988Z" fill="white"/>
<path d="M10.6934 32.156V-0.326172H11.9512V32.156H10.6934Z" fill="white"/>
<path d="M14.2598 32.156V-0.326172H15.3479V32.156H14.2598Z" fill="white"/>
<path d="M17.8242 32.156V-0.326172H18.7418V32.156H17.8242Z" fill="white"/>
<path d="M21.3887 32.156V-0.326172H22.1356V32.156H21.3887Z" fill="white"/>
<path d="M24.9551 32.156V-0.326172H25.5314V32.156H24.9551Z" fill="white"/>
<path d="M28.9253 32.156H28.5186V15.9149V-0.326172H28.9253V32.156Z" fill="white"/>
<path d="M32.3205 32.156H31.8525V15.9149V-0.326172H32.3205V32.156Z" fill="white"/>
</g>
<mask id="mask1_25090_182" style="mask-type:luminance" maskUnits="userSpaceOnUse" x="0" y="13" width="33" height="33">
<path d="M32.32 29.9343C32.32 38.7907 25.085 45.9702 16.16 45.9702C7.23506 45.9702 3.90469e-07 38.7907 0 29.9343C-3.89942e-07 21.078 7.23506 13.8984 16.16 13.8984C25.085 13.8984 32.32 21.078 32.32 29.9343Z" fill="white"/>
</mask>
<g mask="url(#mask1_25090_182)">
<path d="M30.5518 46.2928V13.8105H32.3214V46.2928H30.5518Z" fill="white"/>
<path d="M27.1562 46.2928V13.8105H28.7553V46.2928H27.1562Z" fill="white"/>
<path d="M23.7617 46.2928V13.8105H25.1902V46.2928H23.7617Z" fill="white"/>
<path d="M20.3672 46.2927V13.8105H21.625L21.625 46.2927H20.3672Z" fill="white"/>
<path d="M16.9727 46.2928V13.8105H18.0608V46.2928H16.9727Z" fill="white"/>
<path d="M13.5771 46.2928V13.8105H14.4947V46.2928H13.5771Z" fill="white"/>
<path d="M10.1846 46.2928V13.8105H10.9315V46.2928H10.1846Z" fill="white"/>
<path d="M6.78906 46.2927V13.8105H7.36539V46.2927H6.78906Z" fill="white"/>
<path d="M3.39453 46.2927V13.8105H3.80123V46.2927H3.39453Z" fill="white"/>
<path d="M1.43066e-06 46.2928L0 13.8105H0.46795L0.467951 30.0517L0.467952 46.2928H1.43066e-06Z" fill="white"/>
</g>
<path fill-rule="evenodd" clip-rule="evenodd" d="M31.0075 28.7201V15.3848H30.5625V28.7201H31.0075Z" fill="white"/>
<path fill-rule="evenodd" clip-rule="evenodd" d="M0.448188 28.9371L0.448187 15.6309H0L5.84963e-07 28.9371H0.448188Z" fill="white"/>
<path d="M91.2334 17.818V8.01667H93.0586L93.4878 9.08203C93.6597 8.86896 93.8746 8.67721 94.1107 8.50673C94.5187 8.18715 95.0981 7.91016 95.8499 7.91016C96.086 7.91016 96.2362 7.95275 96.3868 7.97407L96.6012 8.01667V10.5735L96.3651 10.5309C96.2149 10.5096 96.0001 10.467 95.7427 10.467C94.5399 10.467 93.7027 11.3193 93.7027 12.5978V17.818H91.2334Z" fill="white"/>
<path d="M86.5147 14.835H89.0917C88.576 16.3052 86.9227 17.9245 84.6895 17.9245C82.0271 17.9245 79.751 15.6873 79.751 12.9173C79.751 10.1474 82.0271 7.91016 84.6895 7.91016C87.2665 7.91016 89.4137 9.93432 89.4137 12.9173C89.4137 13.1517 89.3708 13.3648 89.349 13.5566L89.306 13.8761H82.4351C82.6712 14.835 83.4013 15.5807 84.6895 15.5807C85.3554 15.5807 85.7634 15.4103 86.0855 15.2185C86.2574 15.112 86.4075 14.9841 86.5147 14.835ZM82.3279 12.1716H87.0516C86.8155 11.0849 85.9783 10.254 84.6895 10.254C83.4013 10.254 82.5641 11.0849 82.3279 12.1716Z" fill="white"/>
<path d="M68.7969 21.2271V8.01667H70.622L71.0513 8.97552C71.2662 8.78377 71.524 8.59197 71.8031 8.44281C72.297 8.18715 72.9841 7.91016 73.8431 7.91016C76.3124 7.91016 78.4596 10.0196 78.4596 12.9173C78.4596 15.8151 76.3124 17.9245 73.8431 17.9245C73.0054 17.9245 72.4042 17.6901 71.9532 17.4558C71.6959 17.3066 71.4593 17.1575 71.2662 16.9657V21.2271H68.7969ZM73.5206 15.5807C74.9165 15.5807 75.9903 14.5367 75.9903 12.9173C75.9903 11.298 74.9165 10.254 73.5206 10.254C72.1251 10.254 71.0513 11.298 71.0513 12.9173C71.0513 14.5367 72.1251 15.5807 73.5206 15.5807Z" fill="white"/>
<path d="M57.4111 13.7705V8.01758H59.8804V13.4509C59.8804 14.7293 60.7177 15.5816 61.9204 15.5816C63.1227 15.5816 63.96 14.7293 63.96 13.4509V8.01758H66.4293V17.8189H64.6041L64.1749 16.86C63.9387 17.0518 63.6597 17.2436 63.3801 17.3927C62.8866 17.6697 62.1778 17.9254 61.3835 17.9254C59.0432 17.9254 57.4111 16.3274 57.4111 13.7705Z" fill="white"/>
<path d="M45.8252 13.5557H48.4019C48.4019 14.7489 49.2608 15.5799 50.6563 15.5799C52.1812 15.5799 52.9112 14.8342 52.9112 13.9819C52.9112 11.5316 45.9326 12.81 45.9326 8.14373C45.9326 6.09824 47.7577 4.28711 50.6563 4.28711C53.3405 4.28711 55.1656 6.09824 55.1656 8.54855H52.6964C52.6964 7.35535 51.9445 6.6309 50.6563 6.6309C49.3681 6.6309 48.6166 7.37663 48.6166 8.12241C48.6166 10.4449 55.5949 9.20904 55.5949 14.0884C55.5949 16.006 53.6413 17.9237 50.6563 17.9237C47.6504 17.9237 45.8252 16.1126 45.8252 13.5557Z" fill="white"/>
<path d="M91.9923 36.6211H94.4615C94.5687 36.8129 94.6976 36.962 94.8695 37.1112C95.1916 37.3455 95.6426 37.5799 96.3939 37.5799C97.7898 37.5799 98.6483 36.7489 98.6483 35.5557V34.81C98.4551 35.0018 98.219 35.1935 97.9612 35.3427C97.5102 35.6197 96.8661 35.8753 96.0718 35.8753C93.5808 35.8753 91.5625 33.8512 91.5625 31.0812C91.5625 28.3113 93.5808 26.2871 96.0718 26.2871C96.9308 26.2871 97.6179 26.5641 98.1119 26.8198C98.3909 26.9689 98.627 27.1607 98.8632 27.3525L99.2924 26.3936H101.118V35.5557C101.118 38.1126 99.4001 39.8171 96.3939 39.8171C94.5687 39.8171 93.4954 39.0501 92.8295 38.2191C92.4645 37.7504 92.1854 37.2177 91.9923 36.6211ZM96.3939 33.5315C97.6609 33.5315 98.756 32.4449 98.756 31.0812C98.756 29.7175 97.6609 28.6309 96.3939 28.6309C95.0839 28.6309 94.0318 29.7175 94.0318 31.0812C94.0318 32.4449 95.0839 33.5315 96.3939 33.5315Z" fill="white"/>
<path d="M80.8184 36.195V26.3936H82.6435L83.0728 27.3525C83.3089 27.1607 83.588 26.9689 83.8675 26.8198C84.361 26.5641 85.0268 26.2871 85.8641 26.2871C88.2045 26.2871 89.8365 27.8851 89.8365 30.442V36.195H87.3672V30.7616C87.3672 29.4832 86.53 28.6309 85.3277 28.6309C84.1249 28.6309 83.2876 29.4832 83.2876 30.7616V36.195H80.8184Z" fill="white"/>
<path d="M75.9944 36.1962V26.3949H78.4637V36.1962H75.9944ZM77.2826 25.2231C76.5313 25.2231 75.8867 24.5838 75.8867 23.8381C75.8867 23.0923 76.5313 22.4531 77.2826 22.4531C78.0339 22.4531 78.6781 23.0923 78.6781 23.8381C78.6781 24.5838 78.0339 25.2231 77.2826 25.2231Z" fill="white"/>
<path d="M69.0117 36.195V26.3936H70.8369L71.2661 27.459C71.438 27.2459 71.6529 27.0542 71.889 26.8837C72.297 26.5641 72.8769 26.2871 73.6282 26.2871C73.8643 26.2871 74.015 26.3297 74.1652 26.351L74.38 26.3936V28.9505L74.1434 28.9079C73.9933 28.8866 73.7784 28.844 73.521 28.844C72.3183 28.844 71.481 29.6963 71.481 30.9747V36.195H69.0117Z" fill="white"/>
<path d="M62.2589 28.6309C60.8629 28.6309 59.7896 29.6749 59.7896 31.2943C59.7896 32.9136 60.8629 33.9577 62.2589 33.9577C63.6548 33.9577 64.7281 32.9136 64.7281 31.2943C64.7281 29.6749 63.6548 28.6309 62.2589 28.6309ZM62.2589 26.2871C64.9213 26.2871 67.1974 28.5243 67.1974 31.2943C67.1974 34.0642 64.9213 36.3015 62.2589 36.3015C59.5965 36.3015 57.3203 34.0642 57.3203 31.2943C57.3203 28.5243 59.5965 26.2871 62.2589 26.2871Z" fill="white"/>
<path d="M45.8252 36.195V22.7715H51.4081C53.7697 22.7715 55.4877 24.4761 55.4877 26.5003C55.4877 27.4165 55.0797 28.0557 54.6717 28.4605C54.4356 28.6949 54.1565 28.908 53.8774 29.0571C54.2854 29.2489 54.6287 29.4832 54.9508 29.7816C55.4877 30.2929 56.0246 31.1452 56.0246 32.3598C56.0246 34.3839 54.1995 36.195 51.6225 36.195H45.8252ZM48.4019 28.2049H51.1932C52.1594 28.2049 52.9112 27.4591 52.9112 26.6068C52.9112 25.7545 52.1594 25.0088 51.1932 25.0088H48.4019V28.2049ZM48.4019 33.9578H51.4081C52.6104 33.9578 53.4477 33.1268 53.4477 32.0401C53.4477 30.9535 52.6104 30.1225 51.4081 30.1225H48.4019V33.9578Z" fill="white"/>
</svg>
