<svg width="154" height="51" viewBox="0 0 154 51" fill="none" xmlns="http://www.w3.org/2000/svg">
<mask id="mask0_25090_277" style="mask-type:luminance" maskUnits="userSpaceOnUse" x="0" y="0" width="154" height="51">
<path d="M153.216 0H0V50.5664H153.216V0Z" fill="white"/>
</mask>
<g mask="url(#mask0_25090_277)">
<path d="M14.2041 14.3693L22.7179 0L31.2426 14.3693L22.7179 19.1626L14.2041 14.3693Z" fill="white"/>
<path d="M7.10742 26.3573L11.3697 19.1621L22.7287 25.5462L34.0985 19.1621L38.3608 26.3573L22.7287 35.1433L7.10742 26.3573Z" fill="white"/>
<path d="M0 38.3454L4.26232 31.1504L22.718 41.527L41.1953 31.1504L45.4359 38.3454L44.8193 38.4719C38.4475 39.7887 29.674 44.719 25.3467 49.4384C25.0181 49.7948 24.6161 50.0796 24.1669 50.2746C23.7177 50.4696 23.2313 50.5705 22.7396 50.5705C22.2479 50.5705 21.7614 50.4696 21.3122 50.2746C20.8631 50.0796 20.4611 49.7948 20.1324 49.4384C15.8052 44.719 6.99928 39.7887 0.659902 38.4719L0 38.3454Z" fill="white"/>
<path d="M22.7179 19.1626L14.2041 14.3693L22.7179 0V19.1626Z" fill="white"/>
<path d="M22.7287 35.1433L7.10742 26.3573L11.3698 19.1621L22.7287 25.5462V35.1433Z" fill="white"/>
<path d="M22.718 50.5656C22.2267 50.565 21.741 50.4644 21.2921 50.2702C20.8431 50.0761 20.4407 49.7928 20.1108 49.4384C15.7836 44.719 6.97765 39.7887 0.638266 38.4719L0 38.3454L4.26232 31.1504L22.718 41.527V50.5656Z" fill="white"/>
<path d="M76.9815 29.1396V28.6128C76.9605 26.0196 77.984 23.5215 79.8325 21.6545C81.681 19.7876 84.207 18.7004 86.8692 18.626C93.5331 18.5418 96.8974 23.5879 96.8974 29.403C96.8974 29.8243 96.8974 30.2352 96.8218 30.6988H81.6766C81.8034 32.133 82.4918 33.4647 83.5996 34.4179C84.7074 35.371 86.1493 35.8726 87.6264 35.8186C88.6751 35.8216 89.713 35.6104 90.6726 35.1984C91.6322 34.7865 92.4924 34.1831 93.1976 33.4272L95.9672 35.8186C94.9548 37.0345 93.6671 38.0056 92.2051 38.6562C90.7431 39.3069 89.1465 39.6193 87.5399 39.5689C86.1291 39.6094 84.725 39.3662 83.4152 38.8543C82.1054 38.3426 80.9179 37.5732 79.9271 36.5946C78.9362 35.6159 78.1633 34.4487 77.6564 33.166C77.1496 31.8833 76.9198 30.5127 76.9815 29.1396ZM92.2241 27.6542C91.9104 24.6939 90.0605 22.3868 86.999 22.3868C84.1105 22.3868 82.0876 24.5465 81.6548 27.6542H92.2241Z" fill="white"/>
<path d="M114.672 39.0831H109.955V11.0293L113.482 12.9993C113.843 13.2022 114.143 13.4939 114.351 13.8452C114.56 14.1965 114.671 14.595 114.672 15.0009V39.0831Z" fill="white"/>
<path d="M105.087 39.0831H100.37V11.0293L103.854 12.9993C104.214 13.2022 104.514 13.4939 104.723 13.8452C104.932 14.1965 105.042 14.595 105.043 15.0009L105.087 39.0831Z" fill="white"/>
<path d="M70.9122 39.0832H66.1953V18.625L69.7221 20.6056C70.083 20.8059 70.383 21.0957 70.592 21.4452C70.8009 21.7949 70.9114 22.192 70.9122 22.5966V39.0832Z" fill="white"/>
<path d="M79.621 12.252H57.4873V16.845H79.621V12.252Z" fill="white"/>
<path d="M118.144 29.1396V28.6128C118.123 26.0196 119.147 23.5215 120.995 21.6545C122.844 19.7876 125.37 18.7004 128.032 18.626C134.696 18.5418 138.06 23.5879 138.06 29.403C138.06 29.8243 138.06 30.2352 137.985 30.6988H122.839C122.963 32.1245 123.643 33.45 124.74 34.4021C125.837 35.3545 127.266 35.8615 128.735 35.8186C129.785 35.8186 130.823 35.606 131.784 35.1943C132.745 34.7827 133.608 34.1809 134.317 33.4272L137.13 35.8186C136.117 37.0238 134.833 37.9858 133.378 38.6308C131.922 39.2756 130.333 39.5858 128.735 39.5374C127.324 39.582 125.92 39.3428 124.608 38.8349C123.297 38.3271 122.107 37.5613 121.113 36.5856C120.119 35.6098 119.343 34.4451 118.832 33.164C118.321 31.8827 118.087 30.5129 118.144 29.1396ZM133.387 27.6542C133.073 24.6939 131.223 22.3868 128.162 22.3868C125.273 22.3868 123.25 24.5465 122.817 27.6542H133.387Z" fill="white"/>
<path d="M141.263 18.625H144.194C144.665 18.625 145.116 18.807 145.449 19.131C145.782 19.455 145.968 19.8945 145.968 20.3527V39.0832H141.263V18.625Z" fill="white"/>
<path d="M153.216 18.6261V23.1771H145.968L148.813 19.7428C149.021 19.3913 149.321 19.0992 149.681 18.8959C150.042 18.6925 150.452 18.585 150.868 18.584L153.216 18.6261Z" fill="white"/>
</g>
</svg>
