<svg width="160" height="46" viewBox="0 0 160 46" fill="none" xmlns="http://www.w3.org/2000/svg">
<g clip-path="url(#clip0_25090_634)">
<mask id="mask0_25090_634" style="mask-type:luminance" maskUnits="userSpaceOnUse" x="0" y="0" width="160" height="46">
<path d="M0 0.0546875H159.265V45.7365H0V0.0546875Z" fill="white"/>
</mask>
<g mask="url(#mask0_25090_634)">
<path fill-rule="evenodd" clip-rule="evenodd" d="M39.2946 8.35354C40.1089 8.35334 40.9151 8.51421 41.6674 8.82696C42.4196 9.13971 43.1031 9.59821 43.6788 10.1763C44.2544 10.7543 44.711 11.4405 45.0223 12.1958C45.3337 12.9511 45.4937 13.7605 45.4933 14.5779V28.7843C45.4933 29.8868 45.4933 30.8211 45.4377 31.6062C45.3626 32.4281 45.2139 33.2509 44.8233 34.0359C44.229 35.2123 43.2771 36.1684 42.1055 36.7657C41.3243 37.1578 40.5048 37.3071 39.686 37.3818C38.904 37.4384 37.9733 37.4384 36.8751 37.4384H29.3551C28.1638 37.4384 27.4006 37.4384 26.8049 37.4942C26.246 37.5319 26.0417 37.6246 25.9298 37.6623C25.5398 37.8671 25.2215 38.1869 25.0178 38.5786C24.9615 38.6902 24.8871 38.8953 24.8503 39.4563C24.8128 39.9797 24.794 40.6342 24.794 41.6055H30.9927C31.5399 41.6035 32.0642 41.3844 32.4512 40.9959C32.8381 40.6074 33.0564 40.0811 33.0584 39.5317V38.4843H37.1914V39.5317C37.1917 40.349 37.0315 41.1584 36.7201 41.9136C36.4087 42.6687 35.9522 43.3549 35.3765 43.9329C34.8009 44.5108 34.1174 44.9693 33.3652 45.282C32.613 45.5947 31.8068 45.7555 30.9927 45.7553H16.8458C15.7476 45.7553 14.8177 45.7553 14.0349 45.6995C13.2161 45.6241 12.3974 45.4755 11.6154 45.0827C10.4439 44.4856 9.4921 43.5298 8.89765 42.3536C8.50704 41.5693 8.35756 40.7466 8.28319 39.9239C8.22761 39.1389 8.22761 38.2045 8.22761 37.1013V29.5497C8.22761 28.353 8.22761 27.5868 8.17202 26.9888C8.13446 26.4278 8.04131 26.2227 8.00451 26.1103C7.80031 25.7187 7.48154 25.3992 7.09108 25.1948C6.97991 25.1383 6.77484 25.0636 6.21671 25.0267C5.6954 24.989 5.04338 24.9701 4.07587 24.9701V31.1944C4.07765 31.7439 4.29584 32.2705 4.68283 32.6591C5.06982 33.0477 5.59421 33.267 6.1416 33.269H7.18423V37.4188H6.1431C2.77333 37.4376 0 34.6512 0 31.2125V17.0083C0 15.9058 0 14.9715 0.0555869 14.1865C0.130704 13.3638 0.279437 12.541 0.670047 11.756C1.26449 10.5798 2.21632 9.62404 3.38779 9.02695C4.16901 8.63482 4.98854 8.484 5.80732 8.4101C6.5893 8.35354 7.52 8.35354 8.61822 8.35354H16.139C17.3296 8.35354 18.0935 8.35354 18.6892 8.29774C19.2473 8.26003 19.4516 8.16652 19.5636 8.12957C19.9542 7.9237 20.2712 7.60623 20.4755 7.21334C20.5318 7.11984 20.6062 6.89587 20.643 6.33482C20.6806 5.81147 20.6993 5.15767 20.6993 4.18564H14.5007C13.9533 4.18763 13.4289 4.40685 13.0419 4.79549C12.6549 5.18413 12.4367 5.71065 12.4349 6.26016V7.30761H8.30197V6.26016C8.26441 2.83957 11.0573 0.0546875 14.4819 0.0546875H28.6287C29.7269 0.0546875 30.6577 0.0546875 31.4396 0.111245C32.2584 0.185901 33.0772 0.335212 33.8592 0.728097C35.0305 1.32499 35.9823 2.28051 36.5769 3.45643C36.9675 4.24144 37.117 5.06416 37.1914 5.88688C37.2469 6.67115 37.2469 7.60623 37.2469 8.70872V16.2603C37.2469 17.4563 37.2469 18.2224 37.3033 18.8204C37.3408 19.3815 37.4332 19.5873 37.4708 19.6989C37.6751 20.0918 37.9921 20.4093 38.3827 20.6152C38.4759 20.671 38.699 20.7464 39.2578 20.7833C39.7792 20.821 40.4297 20.8391 41.3987 20.8391V14.6156C41.3971 14.0658 41.1789 13.539 40.7917 13.1502C40.4045 12.7613 39.8799 12.5421 39.3322 12.5403H38.2896V8.39125H39.3322L39.2946 8.35354ZM10.8334 22.8956C11.1872 22.5034 11.4847 22.054 11.7454 21.5684C12.136 20.7841 12.2854 19.9614 12.3598 19.1387C12.4162 18.3536 12.4161 17.4193 12.4161 16.3161V13.5312H8.28319V16.2233C8.28319 17.4193 8.28319 18.1855 8.22761 18.7835C8.19005 19.3438 8.0969 19.5496 8.06009 19.662C7.85629 20.0534 7.53807 20.3729 7.14817 20.5775C7.03624 20.634 6.83117 20.7087 6.27305 20.7464C5.75174 20.7841 5.10047 20.8022 4.13221 20.8022V17.0641C4.13221 15.8674 4.13221 15.1012 4.18854 14.5032C4.2261 13.9422 4.3185 13.737 4.35606 13.6247C4.55974 13.233 4.87797 12.9133 5.26798 12.7085C5.36113 12.6527 5.58423 12.578 6.1431 12.5403C6.72 12.4845 7.50122 12.4845 8.69258 12.4845H16.2133C17.3115 12.4845 18.2415 12.4845 19.0242 12.4287C19.843 12.3533 20.6618 12.204 21.443 11.8118C21.9267 11.5742 22.3723 11.2654 22.7651 10.8956C23.1679 11.2527 23.6117 11.5603 24.0871 11.8118C24.8684 12.204 25.6871 12.3533 26.5067 12.4287C27.2886 12.4845 28.2193 12.4845 29.3176 12.4845H32.0909V8.33544H29.4107C28.2193 8.33544 27.4561 8.33544 26.8605 8.27888C26.3023 8.24118 26.0973 8.14843 25.9853 8.11072C25.5954 7.90612 25.2772 7.58667 25.0734 7.19525C25.0178 7.10174 24.9435 6.87702 24.9059 6.31672C24.8684 5.79338 24.8503 5.13882 24.8503 4.16754H28.5731C29.7645 4.16754 30.5277 4.16754 31.1234 4.22334C31.6815 4.26105 31.8866 4.3538 31.9977 4.39151C32.3884 4.59662 32.7054 4.91485 32.9104 5.30698C32.966 5.40049 33.0404 5.62521 33.0779 6.18551C33.1335 6.76465 33.1335 7.55043 33.1335 8.74643V16.2965C33.1335 17.3997 33.1335 18.334 33.1891 19.119C33.2642 19.941 33.413 20.7637 33.8036 21.5488C34.0454 22.0351 34.3437 22.4838 34.7155 22.876C34.3601 23.2804 34.0539 23.726 33.8036 24.2032C33.413 24.9882 33.2642 25.8109 33.1891 26.6329C33.1335 27.4179 33.1335 28.3522 33.1335 29.4555V32.2404H37.2657V29.5482C37.2657 28.353 37.2657 27.5861 37.3221 26.9881C37.3596 26.427 37.452 26.2219 37.4896 26.1095C37.6934 25.7181 38.0116 25.3987 38.4015 25.1941C38.4946 25.1375 38.7177 25.0629 39.2759 25.0259C39.7972 24.9882 40.4492 24.9693 41.4167 24.9693V28.7074C41.4167 29.9042 41.4167 30.6703 41.3611 31.2683C41.3236 31.8294 41.2304 32.0345 41.1936 32.1469C40.9885 32.539 40.6723 32.8572 40.2817 33.0631C40.1698 33.1189 39.9647 33.1935 39.4066 33.2312C38.8297 33.2871 38.0477 33.287 36.8563 33.287H29.3363C28.2381 33.287 27.3074 33.287 26.5254 33.3429C25.7067 33.4183 24.8879 33.5676 24.1059 33.9597C23.6222 34.1973 23.1766 34.5062 22.7838 34.8759C22.381 34.5189 21.9372 34.2113 21.4618 33.9597C20.6806 33.5676 19.8618 33.4183 19.043 33.3429C18.261 33.287 17.3303 33.287 16.2314 33.287H13.458V37.4361H16.139C17.3296 37.4361 18.0935 37.4361 18.6892 37.4927C19.2473 37.5304 19.4516 37.6231 19.5636 37.6608C19.9542 37.8667 20.2712 38.1842 20.4755 38.577C20.5318 38.6887 20.6062 38.8938 20.643 39.4548C20.6806 39.9782 20.6993 40.6327 20.6993 41.604H16.9765C15.7852 41.604 15.022 41.604 14.4263 41.5482C13.8674 41.5105 13.6631 41.4177 13.5512 41.38C13.1613 41.1754 12.8431 40.856 12.6392 40.4646C12.5829 40.371 12.5085 40.1471 12.4717 39.586C12.4154 39.0069 12.4154 38.2211 12.4154 37.0251V29.4751C12.4154 28.3718 12.4154 27.4375 12.3598 26.6525C12.2854 25.8305 12.1367 25.0078 11.7454 24.2228C11.5089 23.7373 11.2015 23.2899 10.8334 22.8956Z" fill="white"/>
<path d="M77.1201 8.98847C76.5432 8.98847 76.0783 9.45601 76.0783 10.0352V26.2784C76.0783 30.6515 72.9879 32.5955 69.8052 32.5955C66.3423 32.5955 63.5322 30.6892 63.5322 26.2777V10.0344C63.5322 9.45601 63.0664 8.98847 62.4895 8.98847H58.9342C58.3573 8.98847 57.8916 9.45601 57.8916 10.0352V25.9602C57.8916 33.0065 62.3032 37.4549 69.7864 37.4549C77.2696 37.4549 81.6813 33.0065 81.6813 25.9602V10.0352C81.6813 9.45601 81.2155 8.98847 80.6386 8.98847H77.0833H77.1201ZM97.9487 15.4172C94.1508 15.4172 91.6756 18.4079 90.6698 20.5578C90.5023 20.8746 90.3724 21.1181 90.0561 21.0435C89.516 20.9311 89.7579 20.352 89.9254 19.9968C90.3348 19.1552 90.5955 18.3702 90.5955 17.0807V16.7821C90.5955 16.2022 90.1305 15.7354 89.5536 15.7354H86.3333C85.7556 15.7354 85.2907 16.2029 85.2907 16.7821V36.0712C85.2907 36.6503 85.7556 37.1178 86.3333 37.1178H89.5536C90.1305 37.1178 90.5955 36.6503 90.5955 36.0712V28.408C90.5955 23.4732 93.4063 20.1092 96.4591 20.1092C99.2324 20.1092 100.499 21.4364 100.499 26.2581V36.0712C100.499 36.6503 100.964 37.1178 101.541 37.1178H104.761C105.338 37.1178 105.804 36.6503 105.804 36.0712V24.4829C105.804 18.4079 102.658 15.4172 97.9487 15.4172ZM108.411 10.9514C108.41 11.2927 108.477 11.6309 108.607 11.9464C108.737 12.2619 108.927 12.5485 109.168 12.79C109.408 13.0314 109.694 13.2228 110.008 13.3532C110.322 13.4836 110.659 13.5505 110.999 13.55H111.129C111.469 13.5505 111.806 13.4836 112.12 13.3532C112.434 13.2228 112.72 13.0314 112.96 12.79C113.2 12.5485 113.391 12.2619 113.521 11.9464C113.651 11.6309 113.717 11.2927 113.717 10.9514C113.717 10.6101 113.65 10.2721 113.521 9.95664C113.391 9.64123 113.2 9.35464 112.96 9.11331C112.719 8.87198 112.434 8.68064 112.12 8.55026C111.805 8.41988 111.469 8.35302 111.129 8.35352H110.999C110.659 8.35302 110.322 8.41988 110.008 8.55026C109.694 8.68064 109.408 8.87198 109.168 9.11331C108.927 9.35464 108.737 9.64123 108.607 9.95664C108.477 10.2721 108.411 10.6101 108.411 10.9514ZM108.411 36.0727C108.411 36.6518 108.877 37.1194 109.454 37.1194H112.674C113.251 37.1194 113.717 36.6518 113.717 36.0727V16.7828C113.717 16.2037 113.251 15.7369 112.674 15.7369H109.454C108.877 15.7369 108.411 16.2044 108.411 16.7836V36.0727ZM126.224 15.4172C119.41 15.4172 115.316 20.352 115.316 26.427C115.316 32.5013 119.41 37.4353 126.224 37.4353C133.037 37.4353 137.131 32.5013 137.131 26.4262C137.131 20.352 133.037 15.4172 126.224 15.4172ZM126.224 32.7441C122.631 32.7441 120.602 29.9034 120.602 26.4262C120.602 22.9498 122.631 20.1092 126.224 20.1092C129.816 20.1092 131.845 22.9498 131.845 26.4262C131.845 29.9026 129.816 32.7441 126.224 32.7441ZM151.41 15.4172C147.612 15.4172 145.137 18.4079 144.131 20.5578C143.963 20.8746 143.833 21.1181 143.517 21.0435C142.977 20.9311 143.219 20.352 143.386 19.9968C143.796 19.1552 144.056 18.3702 144.056 17.0807V16.7821C144.056 16.2022 143.592 15.7354 143.015 15.7354H139.794C139.217 15.7354 138.752 16.2029 138.752 16.7821V36.0712C138.752 36.6503 139.217 37.1178 139.794 37.1178H143.015C143.592 37.1178 144.056 36.6503 144.056 36.0712V28.408C144.056 23.4732 146.867 20.1092 149.92 20.1092C152.693 20.1092 153.959 21.4364 153.959 26.2581V36.0712C153.959 36.6503 154.425 37.1178 155.002 37.1178H158.222C158.799 37.1178 159.265 36.6503 159.265 36.0712V24.4829C159.265 18.4079 156.119 15.4172 151.41 15.4172Z" fill="white"/>
</g>
</g>
<defs>
<clipPath id="clip0_25090_634">
<rect width="160" height="46" fill="white"/>
</clipPath>
</defs>
</svg>
