<svg width="176" height="30" viewBox="0 0 176 30" fill="none" xmlns="http://www.w3.org/2000/svg">
<g clip-path="url(#clip0_25090_35)">
<mask id="mask0_25090_35" style="mask-type:luminance" maskUnits="userSpaceOnUse" x="0" y="0" width="30" height="30">
<path d="M29.718 0.146484H0.144531V29.9988H29.718V0.146484Z" fill="white"/>
</mask>
<g mask="url(#mask0_25090_35)">
<path d="M27.1751 23.2042C27.1564 23.2188 27.1377 23.2345 27.1179 23.2483C27.0993 23.2631 27.0797 23.277 27.0601 23.2917C27.0237 23.3183 26.9861 23.3442 26.9479 23.369C26.9435 23.3717 26.9389 23.3747 26.9345 23.3783C26.9033 23.3986 26.8721 23.4188 26.8402 23.4381C26.793 23.4677 26.7466 23.4954 26.6985 23.5229C26.3724 23.7108 26.0294 23.862 25.6794 23.9956C25.3489 24.1208 25.0141 24.2306 24.6763 24.3281C24.1927 24.4683 23.7027 24.5842 23.2084 24.6856C22.7283 24.7852 22.2464 24.869 21.7627 24.9417C21.279 25.0147 20.7936 25.0754 20.3072 25.1279C20.1477 25.1454 19.9883 25.1611 19.8289 25.1767C19.5091 25.2072 19.1893 25.2329 18.8695 25.2552C18.7092 25.2661 18.5488 25.2763 18.3894 25.2856C18.0304 25.3067 17.6714 25.3224 17.3124 25.3342C17.2474 25.3363 17.1824 25.339 17.1165 25.3408C17.0568 25.3427 16.9971 25.3445 16.9365 25.3463C17.0835 25.1583 17.2305 24.9713 17.365 24.7733C17.3846 24.7483 17.4042 24.7236 17.4229 24.6977C17.7266 24.2756 18.017 23.8445 18.295 23.4049C18.3235 23.4031 18.3519 23.4022 18.3796 23.4004C18.5559 23.3902 18.7323 23.3783 18.9087 23.3663C19.0423 23.357 19.1759 23.347 19.3095 23.3358C20.2439 23.2613 21.1748 23.1545 22.1012 23.0042C22.3712 22.9608 22.6393 22.9129 22.9065 22.8622C23.5318 22.7424 24.1516 22.5988 24.7629 22.4182C24.8974 22.3786 25.031 22.3371 25.1646 22.2938C25.2314 22.2717 25.2982 22.2496 25.365 22.2266C25.4656 22.245 25.5574 22.2883 25.6517 22.3242C25.7345 22.3556 25.8174 22.3887 25.9004 22.4228C26.1347 22.5186 26.3645 22.6246 26.5871 22.7472C26.6752 22.7952 26.7618 22.8458 26.8472 22.8992C26.9604 22.9702 27.0707 23.0447 27.1742 23.1304C27.2045 23.1554 27.2133 23.1654 27.2017 23.1802C27.1964 23.1877 27.1876 23.1949 27.1733 23.2061L27.1751 23.2042Z" fill="#F1ECE2"/>
<path d="M18.5179 27.6547C18.4982 27.6684 18.4767 27.6684 18.4561 27.6601C18.4617 27.6557 18.4664 27.6536 18.4711 27.6516C18.4795 27.6484 18.487 27.6484 18.4954 27.6484C18.5029 27.6484 18.5113 27.6505 18.5188 27.6547H18.5179Z" fill="white"/>
<path d="M18.4391 27.6597C18.4138 27.6722 18.3885 27.6732 18.3613 27.6649C18.3866 27.648 18.4129 27.6501 18.4391 27.6597Z" fill="white"/>
<path d="M18.3454 27.6644C18.32 27.6771 18.2948 27.6782 18.2676 27.6696C18.2929 27.6517 18.3182 27.6538 18.3454 27.6644Z" fill="white"/>
<path d="M18.2507 27.6695C18.2253 27.6833 18.2001 27.6833 18.1738 27.6737C18.1738 27.6737 18.1757 27.6737 18.1766 27.6727C18.201 27.6592 18.2263 27.6592 18.2507 27.6695Z" fill="white"/>
<path d="M18.1044 27.6681C18.1213 27.664 18.1391 27.666 18.1569 27.6736C18.1316 27.6871 18.1054 27.6871 18.0791 27.6788C18.0875 27.6736 18.096 27.6702 18.1044 27.6681Z" fill="white"/>
<path d="M18.0219 27.669C18.035 27.669 18.0481 27.6721 18.0622 27.6765C18.0369 27.689 18.0116 27.69 17.9854 27.6807C17.9975 27.6721 18.0097 27.669 18.0219 27.668V27.669Z" fill="white"/>
<path d="M17.9487 27.6758C17.9552 27.6768 17.9609 27.6789 17.9665 27.681C17.9421 27.6937 17.9159 27.6947 17.8896 27.6862C17.9074 27.6737 17.9262 27.6716 17.9449 27.6758C17.9449 27.6758 17.9459 27.6758 17.9468 27.6758H17.9477H17.9487Z" fill="white"/>
<path d="M17.871 27.6847C17.842 27.6981 17.8121 27.6971 17.7822 27.6884C17.8112 27.6744 17.8411 27.6753 17.871 27.6847Z" fill="white"/>
<path d="M17.7634 27.6899C17.7381 27.7045 17.7128 27.7024 17.6865 27.6941C17.7109 27.6783 17.7371 27.6783 17.7634 27.6899Z" fill="white"/>
<path d="M24.0088 21.8075C24.0202 21.8094 24.0337 21.8094 24.0462 21.8113C24.0623 21.8132 24.0784 21.818 24.091 21.8322C24.0579 21.8294 24.0257 21.8218 23.9971 21.8047C23.9988 21.8047 24.0015 21.8047 24.0032 21.8056C24.0052 21.8056 24.007 21.8056 24.0096 21.8066L24.0088 21.8075Z" fill="white"/>
<path d="M10.4434 29.9336C10.4461 29.9392 10.4488 29.945 10.4505 29.9497L9.95312 29.9515C9.95581 29.9459 9.95849 29.9401 9.96115 29.9345C10.0013 29.9345 10.0414 29.9345 10.0815 29.9345C10.2018 29.9345 10.3222 29.9345 10.4425 29.9345L10.4434 29.9336Z" fill="#3180F4"/>
<path d="M25.3678 22.2244C25.301 22.2475 25.2351 22.2696 25.1674 22.2917C25.0338 22.335 24.9002 22.3765 24.7658 22.4161C24.1538 22.5967 23.5347 22.7403 22.9093 22.8601C22.6421 22.9117 22.3732 22.9588 22.104 23.0022C21.1777 23.1522 20.2468 23.2592 19.3124 23.3338C19.1788 23.3449 19.0452 23.3549 18.9116 23.3642C18.7352 23.3763 18.5588 23.3881 18.3825 23.3983C18.354 23.4001 18.3263 23.401 18.2979 23.4028C18.4894 23.0997 18.6755 22.7928 18.8555 22.4815C19.1156 22.0319 19.3641 21.5758 19.6001 21.1133C20.0509 21.1538 20.5007 21.2008 20.9506 21.2579C20.9835 21.2616 21.0165 21.269 21.0503 21.2745C21.2516 21.2893 21.4512 21.3206 21.6498 21.351C21.9055 21.3897 22.1611 21.4321 22.4158 21.4763C22.7597 21.5362 23.1036 21.6025 23.4448 21.679C23.6291 21.7205 23.8126 21.7628 23.997 21.8043C24.0264 21.8209 24.0576 21.8273 24.0906 21.831C24.4843 21.9351 24.877 22.0448 25.2628 22.1765C25.2984 22.1885 25.3395 22.1922 25.3669 22.2235L25.3678 22.2244Z" fill="#D9D9D9"/>
<path d="M12.2705 25.2246C12.4292 25.2376 12.5887 25.2505 12.7474 25.2615C12.5878 25.2505 12.4292 25.2376 12.2705 25.2246Z" fill="#F1ECE2"/>
<path d="M7.18688 28.8986C7.17345 28.8986 7.16195 28.8945 7.15332 28.8828C7.15332 28.8828 7.15524 28.8828 7.15621 28.8828C7.15812 28.8828 7.16004 28.8828 7.16195 28.8828C7.16387 28.8828 7.16484 28.8841 7.16676 28.8841C7.1677 28.8841 7.16962 28.8841 7.17059 28.8851C7.1725 28.8851 7.17442 28.8872 7.17633 28.8883C7.17633 28.8883 7.17825 28.8883 7.17922 28.8893C7.18114 28.8914 7.18305 28.8935 7.18497 28.8955C7.18497 28.8955 7.18497 28.8955 7.18594 28.8955L7.18688 28.8986Z" fill="white"/>
<path d="M7.15539 28.885C7.14208 28.885 7.1297 28.882 7.12207 28.8691C7.12207 28.8691 7.12874 28.8691 7.1316 28.8691H7.13254C7.14111 28.8711 7.14874 28.8751 7.15445 28.884C7.15445 28.884 7.15445 28.884 7.15445 28.885H7.15539Z" fill="white"/>
<path d="M7.12414 28.8697C7.10986 28.8697 7.09653 28.8684 7.09082 28.8526C7.09082 28.8526 7.09082 28.8526 7.09082 28.8516H7.09178C7.1051 28.8516 7.11747 28.8545 7.12414 28.8684V28.8697Z" fill="white"/>
<path d="M7.0929 28.8517V28.8537C7.07959 28.8537 7.06531 28.8557 7.06055 28.8366V28.8346C7.07482 28.8324 7.0872 28.8356 7.09386 28.8517H7.0929Z" fill="white"/>
<path d="M6.969 28.7715C6.97798 28.7779 6.98876 28.7827 6.99865 28.7873C7.00586 28.7909 7.01304 28.7937 7.02023 28.7973C7.03282 28.804 7.04451 28.8122 7.0526 28.8243C7.05529 28.828 7.05799 28.8335 7.0607 28.8392C7.01843 28.8355 6.98157 28.8179 6.94922 28.79L6.969 28.7715Z" fill="white"/>
<path d="M9.82599 27.3817C9.79125 27.3872 9.75651 27.3927 9.72268 27.3981C9.58906 27.4167 9.45545 27.4276 9.32093 27.4313C9.27639 27.4322 9.23097 27.4333 9.18644 27.4322C9.141 27.4322 9.09646 27.4304 9.05102 27.4286C9.03142 27.4276 9.0127 27.4249 8.99312 27.4231C8.9744 27.4213 8.9548 27.4186 8.9352 27.4167C8.91026 27.4147 8.89156 27.4038 8.87287 27.3872C8.81941 27.3374 8.76863 27.2858 8.71875 27.2324C9.08756 27.2876 9.45632 27.3374 9.82599 27.3826V27.3817Z" fill="#F1ECE2"/>
<path d="M15.6284 20.9414C15.3629 20.9414 15.0975 20.9451 14.832 20.9497C14.3902 21.6582 13.9137 22.3419 13.3934 22.9914C13.2839 23.1278 13.1734 23.2623 13.0603 23.3951C12.7753 23.7312 12.4777 24.0557 12.166 24.3653C11.8925 24.6362 11.6101 24.8951 11.3153 25.1382C11.0855 25.3289 10.8476 25.5105 10.6009 25.6792C10.1466 25.9905 9.67003 26.2587 9.15695 26.4539C8.89686 26.5526 8.63141 26.6328 8.35704 26.6796C8.3419 26.6823 8.32764 26.6889 8.3125 26.6935C8.3134 26.698 8.31518 26.7037 8.31606 26.7082C8.31696 26.711 8.31786 26.7137 8.31964 26.7164C8.33922 26.7478 8.35882 26.7782 8.37932 26.8078C8.4203 26.8685 8.46306 26.9276 8.50669 26.9846C8.57261 27.0703 8.64299 27.1532 8.7169 27.2326C9.08567 27.2878 9.45446 27.3376 9.82412 27.3828C9.923 27.3671 10.021 27.3467 10.1181 27.3228C10.3434 27.2676 10.5626 27.1948 10.7772 27.1092C10.8841 27.0657 10.9901 27.0196 11.0944 26.9698C11.1986 26.9201 11.3019 26.8676 11.4043 26.8114C11.4489 26.7876 11.4925 26.7626 11.5371 26.7378C11.8435 26.5637 12.1375 26.3682 12.4189 26.1582C12.7013 25.9471 12.9721 25.7205 13.2349 25.4828C13.2723 25.4487 13.3097 25.4146 13.3471 25.3796C13.3747 25.3539 13.4014 25.328 13.4299 25.3014C13.5983 25.1419 13.764 24.978 13.9252 24.8103C13.9876 24.7448 14.049 24.6794 14.1105 24.6121C14.3127 24.3928 14.5096 24.1689 14.7011 23.9396C14.816 23.8023 14.9282 23.6621 15.0387 23.5212C15.052 23.5046 15.0654 23.4871 15.0788 23.4696C15.1545 23.3719 15.2293 23.2735 15.3041 23.1739C15.5384 22.8605 15.7638 22.5409 15.9811 22.2147C16.0987 22.0378 16.2136 21.86 16.3267 21.6804C16.39 21.579 16.4523 21.4777 16.5138 21.3763C16.5984 21.2372 16.6813 21.0962 16.7632 20.9552C16.3846 20.946 16.007 20.9414 15.6284 20.9414Z" fill="#F1ECE2"/>
<path d="M5.52615 28.1333C5.51214 28.1364 5.50111 28.1322 5.49609 28.1163C5.51112 28.1132 5.52215 28.1163 5.52615 28.1333Z" fill="#CDCCCB"/>
<path d="M13.3778 20.9971C13.1881 21.0063 12.9983 21.0174 12.8095 21.0294C12.6019 21.3334 12.3872 21.6329 12.1628 21.9249C11.9427 22.2124 11.7174 22.4943 11.4804 22.768C11.3459 22.9227 11.2106 23.0766 11.0716 23.2277C10.9736 23.3346 10.8738 23.4407 10.7714 23.5439C10.3643 23.9557 9.93764 24.3446 9.47887 24.6955C9.40228 24.7534 9.32568 24.8107 9.24728 24.8668C8.98985 25.0521 8.72353 25.2234 8.4465 25.3773C8.24606 25.4898 8.03941 25.5891 7.83008 25.6805C7.83186 25.6905 7.83008 25.7016 7.83452 25.7118C7.86392 25.7957 7.8951 25.8775 7.92895 25.9596C7.96191 26.0416 7.99753 26.1218 8.03495 26.2009C8.10977 26.3596 8.1935 26.5143 8.28436 26.6655L8.28614 26.6673C8.29238 26.6764 8.30308 26.6848 8.31108 26.693C8.32624 26.6884 8.34048 26.6821 8.35562 26.6791C8.62909 26.6323 8.89454 26.5521 9.15553 26.4534C9.66863 26.2591 10.1452 25.99 10.5995 25.6787C10.8462 25.51 11.0841 25.3284 11.3139 25.1377C11.6087 24.8937 11.8911 24.6348 12.1646 24.3648C12.4772 24.0552 12.7738 23.7309 13.0589 23.3946C13.172 23.2618 13.2825 23.1273 13.392 22.9909C13.9123 22.3414 14.3888 21.6577 14.8306 20.9492C14.3461 20.9584 13.8606 20.9732 13.3769 20.998L13.3778 20.9971Z" fill="#D9D9D9"/>
<path d="M22.9605 13.4347C22.9605 13.4347 22.9535 13.4336 22.9502 13.4336C22.9535 13.4336 22.9565 13.4336 22.9605 13.4347Z" fill="#E7AA24"/>
<path d="M22.9053 13.4565C22.9204 13.4565 22.9374 13.4565 22.9275 13.4316C22.9347 13.4316 22.9418 13.4335 22.9499 13.4344C22.9453 13.4344 22.9418 13.4353 22.9391 13.4372C22.933 13.4418 22.933 13.4519 22.9347 13.4639C22.9248 13.4639 22.9152 13.463 22.9053 13.4621C22.9 13.4621 22.8936 13.4611 22.8883 13.4602C22.8767 13.4593 22.8642 13.4575 22.8527 13.4565C22.8259 13.4528 22.7982 13.4473 22.7725 13.4409C22.818 13.4381 22.8615 13.4547 22.9061 13.4575L22.9053 13.4565Z" fill="#E7AA24"/>
<path d="M9.08551 22.9532C9.1051 22.9569 9.1238 22.9596 9.1425 22.9632C8.77106 23.3346 8.38089 23.683 7.96491 24.0016C7.81347 24.1178 7.66204 24.2339 7.49814 24.3325C7.46784 24.1971 7.45448 24.0589 7.43935 23.9207C7.38769 23.4803 7.36809 23.038 7.36719 22.5957C7.47052 22.6215 7.57384 22.6464 7.67808 22.6713C7.98182 22.7432 8.28647 22.8066 8.592 22.8648C8.7568 22.8962 8.92159 22.9255 9.08638 22.9541L9.08551 22.9532Z" fill="#F1ECE2"/>
<path d="M10.7859 21.2081C10.7422 21.2137 10.6977 21.2174 10.6531 21.222C10.2149 21.7987 9.74722 22.3488 9.23948 22.864C9.20742 22.8969 9.17446 22.9292 9.14241 22.9615C9.15754 22.9642 9.17268 22.9671 9.18694 22.9699C9.17178 22.9671 9.15754 22.9642 9.14241 22.9624C8.77096 23.3337 8.38079 23.6819 7.96481 24.0008C7.81337 24.1169 7.66194 24.233 7.49805 24.3317C7.49983 24.3501 7.50071 24.3694 7.50251 24.3878C7.50251 24.3933 7.50251 24.3978 7.50429 24.4035C7.50785 24.4246 7.51231 24.4458 7.51587 24.4669C7.51853 24.4846 7.52121 24.501 7.52476 24.5187C7.53278 24.561 7.54081 24.6044 7.54882 24.6476C7.59602 24.8908 7.65214 25.1312 7.72252 25.368C7.75458 25.4742 7.78042 25.5828 7.83207 25.6824C8.04141 25.591 8.24808 25.4917 8.44849 25.3792C8.72552 25.2244 8.99187 25.053 9.24928 24.8687C9.32768 24.8135 9.40427 24.7562 9.48089 24.6974C9.93963 24.3471 10.3663 23.9576 10.7734 23.5455C10.8758 23.4424 10.9747 23.3365 11.0736 23.2296C11.2125 23.0785 11.3479 22.9246 11.4824 22.7699C11.7185 22.4962 11.9448 22.2143 12.1648 21.9268C12.3884 21.6338 12.6039 21.3353 12.8115 21.0312C12.1363 21.0736 11.462 21.1326 10.7885 21.21L10.7859 21.2081Z" fill="#D6C8C7"/>
<path d="M9.18994 22.9712C9.17384 22.9682 9.15868 22.9649 9.14258 22.9629C9.15868 22.9662 9.1748 22.9692 9.18994 22.9712Z" fill="#F1ECE2"/>
<path d="M9.14588 22.9627C9.12591 22.9595 9.10496 22.9553 9.08496 22.9512L9.14588 22.9616V22.9627Z" fill="#D6C8C7"/>
<path d="M8.59082 22.8633C8.75573 22.8944 8.92065 22.924 9.08556 22.9527C8.92065 22.924 8.75485 22.8944 8.59082 22.8633Z" fill="#D6C8C7"/>
<path d="M10.3646 21.265C10.4599 21.2439 10.557 21.2328 10.6541 21.2227C10.2159 21.7994 9.7482 22.3495 9.24048 22.8646C9.2084 22.8978 9.17544 22.9299 9.14338 22.9621L9.08636 22.953C8.92159 22.9244 8.7568 22.8949 8.592 22.8637C8.28648 22.8055 7.98092 22.7419 7.67808 22.6701C7.57474 22.6452 7.47052 22.6204 7.36719 22.5946C7.36719 22.4278 7.36897 22.2601 7.37343 22.0924C7.37609 21.9929 7.38055 21.8943 7.38589 21.7957C7.73775 21.7091 8.09228 21.6327 8.44769 21.5627C9.05518 21.4438 9.66626 21.347 10.2791 21.2687C10.2889 21.2678 10.2987 21.266 10.3085 21.265C10.3201 21.2632 10.3317 21.2623 10.3432 21.2632C10.3504 21.2632 10.3575 21.265 10.3646 21.2669V21.265Z" fill="#D9D9D9"/>
<path d="M21.2002 13.2129C21.5547 13.258 21.9101 13.3023 22.2647 13.3474C22.2629 13.3511 22.2603 13.3548 22.2567 13.3585C22.0366 13.3308 21.8157 13.3041 21.5957 13.2746C21.5315 13.2663 21.4674 13.2608 21.4033 13.2534C21.3391 13.2461 21.275 13.2387 21.2118 13.2258C21.2082 13.2212 21.2046 13.2175 21.2002 13.2138V13.2129Z" fill="#E8EAEB"/>
<path d="M19.4629 14.3546C19.4769 14.3028 19.49 14.2491 19.504 14.1973C19.4909 14.25 19.4769 14.3028 19.4629 14.3546Z" fill="#F1ECE2"/>
<path d="M29.6532 21.7236C29.6532 21.2187 29.6532 20.7147 29.6532 20.2098C29.622 20.0689 29.5794 19.9316 29.5036 19.8081C29.3816 19.6091 29.2364 19.4313 29.0547 19.2857C28.8648 19.1337 28.6708 18.9909 28.4614 18.8693C28.1736 18.7025 27.8743 18.5615 27.5742 18.4224C27.5208 18.3975 27.4654 18.3855 27.412 18.3634C26.7333 18.0888 26.035 17.8825 25.3277 17.7046C24.8751 17.5904 24.4191 17.4927 23.9612 17.4043C23.4473 17.3048 22.9305 17.2191 22.413 17.1454C22.0558 17.0947 21.6987 17.0486 21.3406 17.0072C21.1811 16.9887 21.0217 16.9712 20.8622 16.9546C20.4115 16.9095 19.9599 16.8671 19.5083 16.8339C19.2419 16.8137 18.9747 16.7962 18.7083 16.7805C18.4821 16.7676 18.255 16.7556 18.0278 16.7446C17.6706 16.728 17.3143 16.7151 16.9571 16.7068C16.9313 16.7068 16.9054 16.705 16.8796 16.705C16.3158 16.692 15.751 16.6884 15.1871 16.6939C15.1782 16.6939 15.1693 16.6939 15.1595 16.6939C14.5787 16.6994 13.998 16.7133 13.4181 16.7381C13.3833 16.7391 13.3486 16.7418 13.3138 16.7427C12.6271 16.7731 11.9421 16.8174 11.2571 16.8773C10.2514 16.9648 9.24928 17.0836 8.25252 17.2458C8.22848 17.2495 8.20532 17.2541 8.18126 17.2578C8.14296 17.3978 8.10822 17.5397 8.06013 17.677C8.02627 17.817 7.99241 17.9571 7.95767 18.0962C7.86593 18.4675 7.7831 18.8407 7.71094 19.2166C7.76172 19.2074 7.81247 19.1991 7.86325 19.1899C7.93007 19.1779 7.99687 19.1668 8.06278 19.1549C8.16166 19.1383 8.26054 19.1217 8.35941 19.1051C8.71662 19.048 9.07556 18.9964 9.43367 18.9494C9.79264 18.9024 10.1516 18.861 10.5115 18.8241C10.7511 18.7992 10.9916 18.7762 11.2321 18.755C11.5956 18.7237 11.9599 18.697 12.3242 18.673C12.6672 18.6509 13.0101 18.6334 13.353 18.6186C13.4412 18.6149 13.5294 18.6103 13.6176 18.6067C13.7486 18.6011 13.8804 18.5974 14.0113 18.5928C14.096 18.5901 14.1806 18.5882 14.2661 18.5864C14.5752 18.5781 14.8843 18.5735 15.1934 18.5707C15.3101 18.5707 15.4259 18.5689 15.5426 18.5689C15.7421 18.5689 15.9416 18.5689 16.1403 18.5707C16.2124 18.5707 16.2846 18.5716 16.3567 18.5735C16.4342 18.5744 16.5117 18.5753 16.5892 18.5763C16.8003 18.5799 17.0105 18.5855 17.2217 18.5919C17.4328 18.5984 17.643 18.6067 17.8541 18.615C17.8889 18.6159 17.9236 18.6186 17.9583 18.6195C18.1846 18.6297 18.4108 18.6417 18.6362 18.6536C18.8099 18.6638 18.9836 18.6748 19.1573 18.6859C19.4174 18.7034 19.6784 18.7228 19.9385 18.7449C20.1781 18.7651 20.4177 18.7882 20.6583 18.8131C20.6663 18.8131 20.6752 18.8149 20.6832 18.8158C20.8551 18.8333 21.027 18.8508 21.199 18.8693C21.4742 18.8978 21.7494 18.9319 22.0248 18.9697C22.299 19.0075 22.5734 19.048 22.8477 19.0904C22.9617 19.1079 23.0757 19.1263 23.1889 19.1447C23.5301 19.2019 23.8703 19.2645 24.2089 19.3336C24.4084 19.3742 24.607 19.4165 24.8056 19.4608C25.0043 19.505 25.202 19.5529 25.3998 19.6027C25.6999 19.6791 25.9983 19.7611 26.2932 19.8505C26.6869 19.9703 27.0772 20.1048 27.4593 20.2623C27.5555 20.3011 27.65 20.3425 27.7451 20.384C27.8895 20.4485 28.0312 20.5194 28.1718 20.5913C28.2065 20.6088 28.2413 20.6263 28.2762 20.6447C28.3028 20.6585 28.3305 20.6724 28.3573 20.6862C28.3929 20.7046 28.4285 20.723 28.4632 20.7433C28.5078 20.7682 28.5513 20.7949 28.5924 20.8244C28.7508 20.9377 28.9138 21.0446 29.0608 21.1736C29.0947 21.204 29.1276 21.2344 29.1597 21.2666C29.1982 21.2998 29.2346 21.3357 29.2694 21.3717C29.3271 21.4316 29.3808 21.496 29.4278 21.5633C29.4511 21.5965 29.4724 21.6306 29.4928 21.6656C29.5106 21.696 29.5267 21.7264 29.5418 21.7577C29.557 21.789 29.5713 21.8213 29.5838 21.8554C29.5972 21.8886 29.6086 21.9227 29.6194 21.9568C29.6264 21.9807 29.6345 22.0056 29.6416 22.0295C29.6416 22.0295 29.6416 22.0314 29.6425 22.0323V22.0295C29.6613 21.9273 29.6497 21.8241 29.6506 21.7209L29.6532 21.7236Z" fill="#F1ECE2"/>
<path d="M29.6596 20.0086C29.6607 19.6262 29.6607 19.2448 29.6596 18.8624C29.6596 18.6864 29.6578 18.5095 29.657 18.3335C29.6277 18.234 29.6071 18.1317 29.5636 18.0368C29.4522 17.7982 29.2856 17.6066 29.0931 17.4352C28.8829 17.2472 28.6504 17.0915 28.4063 16.9542C28.0527 16.7534 27.6858 16.582 27.3072 16.4373C26.8689 16.2697 26.4244 16.1213 25.9737 15.9942C25.629 15.8974 25.2824 15.8081 24.9351 15.7261C24.5387 15.633 24.1405 15.551 23.7406 15.4782C23.3254 15.4036 22.9085 15.3317 22.4908 15.2718C22.2931 15.2433 22.0945 15.2165 21.8958 15.1907C21.4522 15.1318 21.0076 15.0802 20.5623 15.0396C20.4794 15.0313 20.3975 15.0194 20.3146 15.0129C19.9779 14.9862 19.6412 14.9604 19.3054 14.9355C19.2573 14.9318 19.2092 14.9281 19.1611 14.9245C18.9366 14.9079 18.7121 14.8913 18.4877 14.8793C18.1955 14.8646 17.9033 14.8535 17.6112 14.8425C17.6085 14.8425 17.6058 14.8425 17.6031 14.8425C17.2976 14.8314 16.993 14.8194 16.6874 14.8139C16.4184 14.8093 16.1494 14.8065 15.8795 14.8056C15.761 14.8056 15.6425 14.8047 15.5232 14.8047C15.0511 14.8047 14.5799 14.8121 14.1086 14.8259C14.1015 14.8259 14.0953 14.8259 14.0882 14.8259C13.535 14.8425 12.9809 14.8655 12.4286 14.9023C12.0038 14.93 11.5789 14.9549 11.1549 14.9917C10.9829 15.0065 10.8119 15.0286 10.6409 15.0461C10.0432 15.1078 9.44726 15.1797 8.8531 15.2663C8.84598 15.2672 8.83974 15.2681 8.83262 15.2691C8.59477 15.9057 8.381 16.5507 8.19305 17.2058C8.18859 17.2223 8.18415 17.238 8.17969 17.2546C8.20285 17.2509 8.22688 17.2463 8.25094 17.2426C9.24773 17.0805 10.2498 16.9607 11.2555 16.8741C11.9405 16.8151 12.6255 16.77 13.3123 16.7396C13.347 16.7377 13.3818 16.7359 13.4165 16.7349C13.9964 16.7101 14.5772 16.6963 15.158 16.6907C15.1669 16.6907 15.1767 16.6907 15.1856 16.6907C15.7503 16.6861 16.3142 16.6898 16.878 16.7018C16.9039 16.7018 16.9297 16.7036 16.9555 16.7036C17.3127 16.7119 17.6691 16.7248 18.0263 16.7414C18.2534 16.7525 18.4797 16.7644 18.7068 16.7773C18.9731 16.793 19.2404 16.8105 19.5067 16.8308C19.9583 16.8649 20.41 16.9063 20.8607 16.9515C21.0201 16.9681 21.1796 16.9856 21.339 17.004C21.6971 17.0454 22.0542 17.0915 22.4115 17.1422C22.929 17.2159 23.4458 17.3016 23.9597 17.4011C24.4176 17.4896 24.8735 17.5872 25.3262 17.7015C26.0335 17.8793 26.7318 18.0857 27.4105 18.3602C27.4639 18.3823 27.5193 18.3943 27.5726 18.4192C27.8728 18.5593 28.1721 18.6993 28.4599 18.8661C28.6691 18.9877 28.8633 19.1305 29.0532 19.2825C29.2349 19.4281 29.3801 19.6059 29.5021 19.8049C29.5776 19.9284 29.6196 20.0657 29.6517 20.2067C29.6642 20.1403 29.657 20.0731 29.657 20.0067L29.6596 20.0086Z" fill="#D9D9D9"/>
<path d="M19.1866 5.56506C19.4324 5.96217 19.6106 6.39153 19.7451 6.84115C19.7869 6.98028 19.8243 7.12033 19.8582 7.26131C19.9143 7.49624 19.958 7.73488 19.9927 7.97444C20.0025 8.04447 20.0123 8.11449 20.0212 8.18542C20.0381 8.3264 20.0533 8.46738 20.0657 8.60833C20.0711 8.67928 20.0764 8.74931 20.0818 8.82024C20.1067 9.20538 20.1174 9.59049 20.1076 9.97656C20.0969 10.3801 20.0738 10.7837 20.0346 11.1863C19.9954 11.5862 19.9419 11.9842 19.8778 12.3795C19.8395 12.6172 19.7967 12.854 19.7504 13.0889C19.3816 13.0585 19.0128 13.0327 18.6432 13.0143C18.4659 13.006 18.2878 12.9959 18.1096 12.9866C18.2299 12.4523 18.3314 11.9142 18.4107 11.3706C18.498 10.7689 18.5603 10.1654 18.5835 9.55824C18.6022 9.04231 18.5995 8.52542 18.5594 8.00944C18.5256 7.57917 18.4695 7.15349 18.3804 6.73151C18.2798 6.25701 18.1381 5.79633 17.935 5.35683C17.8548 5.18269 17.7604 5.01592 17.666 4.85008C17.7435 4.82428 17.8246 4.82151 17.9038 4.81324C17.9457 4.80863 17.9876 4.80494 18.0286 4.80217C18.0642 4.80033 18.0998 4.79849 18.1354 4.79756C18.1933 4.79665 18.2513 4.79665 18.3092 4.79756C18.3492 4.79849 18.3902 4.80033 18.4303 4.80217C18.4615 4.80401 18.4926 4.80585 18.5238 4.80863C18.5292 4.80863 18.5345 4.80953 18.539 4.81047C18.5488 4.81231 18.5577 4.81508 18.5666 4.81876C18.5755 4.82244 18.5835 4.82706 18.5915 4.83258C18.6031 4.83994 18.6147 4.85008 18.6254 4.86022C18.653 4.88601 18.6797 4.91274 18.7055 4.93944C18.7581 4.9929 18.8089 5.0491 18.857 5.10622C18.979 5.24903 19.0886 5.40106 19.1892 5.56322L19.1866 5.56506Z" fill="#F1ECE2"/>
<path d="M18.3773 6.73093C18.4664 7.152 18.5225 7.57859 18.5564 8.00886C18.5974 8.52484 18.6 9.04172 18.5804 9.5577C18.5582 10.1649 18.4958 10.7684 18.4076 11.37C18.3283 11.9136 18.2268 12.4526 18.1065 12.9861C17.972 12.9797 17.8366 12.9723 17.7021 12.9668C17.3939 12.9548 17.0866 12.9474 16.7784 12.941C16.6635 12.9382 16.5486 12.9364 16.4346 12.9345C16.5468 12.4969 16.6457 12.0555 16.7303 11.6114C16.7944 11.2788 16.8497 10.9444 16.8987 10.609C16.9307 10.3842 16.9592 10.1594 16.9842 9.93363C17.01 9.69775 17.0305 9.46095 17.0447 9.22322C17.0599 8.96986 17.0697 8.71557 17.075 8.46218C17.0813 8.1222 17.0706 7.78313 17.0465 7.44407C17.0305 7.22018 17.01 6.9972 16.9824 6.77425C16.945 6.46927 16.8915 6.16797 16.8212 5.86945C16.7651 5.63082 16.7009 5.39311 16.6154 5.16277C16.6742 5.12407 16.7419 5.10472 16.8069 5.07984C16.9388 5.02918 17.0715 4.98495 17.2069 4.94625C17.3423 4.90847 17.4786 4.87622 17.6175 4.85227C17.6273 4.85043 17.6362 4.84766 17.646 4.84766C17.6523 4.84766 17.6576 4.84766 17.6629 4.8495C17.7574 5.01536 17.8518 5.1812 17.932 5.35625C18.135 5.79575 18.2767 6.25643 18.3773 6.73093Z" fill="#D9D9D9"/>
<path d="M22.2522 5.95254C22.2522 5.95254 22.2471 5.94882 22.2471 5.94635C22.2471 5.9451 22.2471 5.94388 22.2471 5.94141L22.2534 5.9451L22.2509 5.95129L22.2522 5.95254Z" fill="#3180F4"/>
<path d="M29.6513 23.8485C29.6522 23.8246 29.654 23.8005 29.654 23.7767C29.654 23.3824 29.6549 22.9871 29.6549 22.5927C29.6549 22.4223 29.6522 22.2518 29.6513 22.0814C29.6513 22.0712 29.6557 22.0602 29.6549 22.05C29.6522 22.0436 29.6487 22.039 29.6461 22.0334C29.6461 22.0334 29.6461 22.0344 29.6461 22.0353C29.6461 22.0344 29.6461 22.0334 29.6452 22.0325C29.6379 22.0076 29.63 21.9837 29.6228 21.9588C29.6122 21.9238 29.5997 21.8897 29.5872 21.8574C29.5747 21.8243 29.5604 21.792 29.5454 21.7598C29.5303 21.7285 29.5134 21.6972 29.4964 21.6677C29.4758 21.6327 29.4545 21.5986 29.4314 21.5654C29.3842 21.4972 29.3316 21.4336 29.2728 21.3737C29.238 21.3378 29.2016 21.3028 29.1631 21.2687C29.131 21.2355 29.0981 21.2051 29.0642 21.1757C28.9172 21.0467 28.7544 20.9398 28.5958 20.8264C28.5538 20.797 28.5103 20.7702 28.4666 20.7454C28.4319 20.726 28.3963 20.7067 28.3607 20.6882C28.3339 20.6744 28.3062 20.6606 28.2796 20.6468C28.2449 20.6284 28.2102 20.6109 28.1752 20.5933C28.0346 20.5215 27.8929 20.4505 27.7487 20.386C27.6534 20.3446 27.5589 20.3031 27.4627 20.2644C27.0797 20.1078 26.6903 19.9723 26.2968 19.8526C26.001 19.7623 25.7027 19.6803 25.4032 19.6047C25.2054 19.555 25.0077 19.5071 24.809 19.4628C24.6104 19.4186 24.4118 19.3762 24.2123 19.3357C23.873 19.2666 23.5327 19.203 23.1923 19.1468C23.0783 19.1284 22.9653 19.1099 22.8513 19.0924C22.5768 19.0501 22.3033 19.0095 22.0282 18.9717C21.7538 18.934 21.4785 18.8999 21.2024 18.8713C21.0305 18.8538 20.8586 18.8354 20.6866 18.8179C20.6786 18.8179 20.6697 18.816 20.6617 18.8151C20.4221 18.7902 20.1825 18.7672 19.9419 18.7469C19.6818 18.7248 19.4208 18.7064 19.1607 18.6879C18.987 18.676 18.8133 18.6649 18.6396 18.6557C18.4134 18.6428 18.1871 18.6308 17.9618 18.6216C17.927 18.6198 17.8923 18.6179 17.8575 18.617C17.6464 18.6078 17.4362 18.6004 17.2251 18.594C17.014 18.5875 16.8038 18.582 16.5926 18.5783C16.5151 18.5774 16.4377 18.5765 16.3602 18.5755C16.288 18.5746 16.2159 18.5737 16.1437 18.5728C15.9442 18.5709 15.7446 18.57 15.546 18.5709C15.4293 18.5709 15.3126 18.5719 15.1968 18.5728C14.8877 18.5755 14.5786 18.5802 14.2695 18.5884C14.1849 18.5903 14.1003 18.5931 14.0148 18.5949C13.8838 18.5986 13.752 18.6032 13.621 18.6087C13.5329 18.6124 13.4447 18.617 13.3565 18.6207C13.0135 18.6354 12.6706 18.6539 12.3276 18.6751C11.9633 18.699 11.599 18.7248 11.2356 18.7571C10.9951 18.7782 10.7545 18.8013 10.5149 18.8262C10.1551 18.863 9.79608 18.9045 9.43709 18.9515C9.07813 18.9984 8.72004 19.0501 8.36283 19.1072C8.26396 19.1228 8.16508 19.1394 8.06623 19.1569C7.99941 19.168 7.93349 19.18 7.86669 19.1919C7.81592 19.2012 7.76514 19.2094 7.71438 19.2187C7.78652 18.8427 7.86935 18.4696 7.96111 18.0983C7.99585 17.9582 8.02969 17.8191 8.06355 17.6791C8.11164 17.5418 8.14638 17.3999 8.18468 17.2598C8.18914 17.2432 8.1936 17.2276 8.19804 17.211C8.38599 16.5559 8.59979 15.91 8.83764 15.2743C8.98817 14.8707 9.14848 14.4709 9.31864 14.0747C9.43266 13.8093 9.55113 13.5449 9.67317 13.2842C10.0767 12.4208 10.5247 11.5814 11.0218 10.7697C11.4859 10.0087 11.9909 9.27897 12.5441 8.58424C12.5557 8.57043 12.5646 8.55386 12.5753 8.53911C12.7419 8.34193 12.9058 8.14293 13.0759 7.94852C13.63 7.3137 14.2268 6.72586 14.8877 6.21081C15.0507 6.08365 15.2191 5.96388 15.3857 5.84134C15.4008 5.83029 15.4195 5.82845 15.4373 5.82752C15.4454 5.80265 15.4676 5.79158 15.4863 5.77961C15.8275 5.55388 16.182 5.35302 16.5553 5.19086C16.5686 5.18533 16.5811 5.17795 16.5953 5.17336C16.5989 5.17243 16.6033 5.17152 16.6078 5.17058C16.6122 5.17058 16.6167 5.16874 16.6212 5.16874C16.6799 5.13004 16.7476 5.1107 16.8127 5.08581C16.9445 5.03515 17.0772 4.99093 17.2126 4.95222C17.348 4.91445 17.4843 4.8822 17.6233 4.85824C17.6331 4.8564 17.642 4.85363 17.6518 4.85363C17.658 4.85363 17.6634 4.85363 17.6687 4.85547C17.7462 4.82968 17.8273 4.82693 17.9065 4.81863C17.9484 4.81402 17.9903 4.81033 18.0313 4.80756C18.0669 4.80572 18.1025 4.80388 18.1381 4.80297C18.196 4.80204 18.2539 4.80204 18.3118 4.80297C18.3519 4.80388 18.3929 4.80572 18.433 4.80756C18.4642 4.8094 18.4953 4.81127 18.5265 4.81402C18.5319 4.81402 18.5372 4.81495 18.5417 4.81586C18.5515 4.8177 18.5604 4.82047 18.5693 4.82415C18.5782 4.82783 18.5862 4.83245 18.5942 4.83797C18.6058 4.84536 18.6174 4.85547 18.6281 4.86561C18.6557 4.89143 18.6824 4.91813 18.7082 4.94486C18.7608 4.99829 18.8116 5.05449 18.8597 5.11163C18.9817 5.25443 19.0913 5.40645 19.1919 5.56863C19.4378 5.96572 19.6159 6.39509 19.7504 6.84472C19.7923 6.98384 19.8297 7.12388 19.8636 7.26486C19.9197 7.49981 19.9633 7.73845 19.9981 7.97799C20.0079 8.04802 20.0177 8.11804 20.0266 8.18899C20.0435 8.32995 20.0586 8.47093 20.0711 8.6119C20.0765 8.68284 20.0818 8.75286 20.0871 8.82381C20.1121 9.20895 20.1228 9.59406 20.113 9.98013C20.1023 10.3837 20.0791 10.7872 20.0399 11.1899C20.0007 11.5897 19.9473 11.9878 19.8832 12.383C19.8448 12.6208 19.8021 12.8575 19.7558 13.0925C19.8154 13.0971 19.8751 13.1017 19.9348 13.1072C20.3633 13.1441 20.7909 13.1883 21.2184 13.2289C21.2149 13.2242 21.2113 13.2206 21.2068 13.2169C21.5614 13.262 21.9168 13.3063 22.2712 13.3514C22.2695 13.3551 22.2668 13.3588 22.2633 13.3624C22.2846 13.3652 22.3061 13.3689 22.3275 13.3717C22.3987 13.0087 22.4628 12.6456 22.5171 12.2799C22.5652 11.9518 22.608 11.6229 22.641 11.2931C22.6722 10.9844 22.6997 10.6757 22.714 10.3652C22.7212 10.216 22.7291 10.0658 22.7381 9.91654C22.739 9.8972 22.7291 9.8714 22.7586 9.86311C22.7586 9.58486 22.7568 9.30568 22.7559 9.02743C22.7416 9.02097 22.7408 9.00809 22.739 8.99427C22.7355 8.93806 22.7291 8.88277 22.7274 8.82656C22.7166 8.42209 22.681 8.02038 22.6285 7.62049C22.5707 7.17733 22.485 6.74061 22.3666 6.31031C22.3371 6.20252 22.3123 6.09379 22.2659 5.99152L22.2563 5.95468C22.2563 5.95468 22.2525 5.9519 22.2525 5.95006C22.2525 5.94915 22.2525 5.94822 22.2525 5.94638C22.2499 5.93347 22.2481 5.92058 22.2437 5.90768C22.0717 5.39447 21.8473 4.90799 21.5382 4.46574C21.2407 4.03915 20.8817 3.68258 20.439 3.41722C20.2733 3.31772 20.0934 3.2477 19.9232 3.15833C19.9081 3.15004 19.8885 3.15188 19.8707 3.1482C19.8555 3.12793 19.8315 3.12238 19.811 3.11227C19.4093 2.92799 19.0084 2.7437 18.6058 2.56129C18.5541 2.53731 18.5069 2.50231 18.449 2.49495C18.4392 2.49124 18.4294 2.48849 18.4196 2.48481C18.351 2.46177 18.2807 2.44518 18.2147 2.41295C18.2085 2.41108 18.2032 2.40924 18.1969 2.40649C18.1942 2.40556 18.1907 2.40465 18.188 2.40372C18.188 2.40372 18.1871 2.40372 18.1862 2.40372C18.1791 2.40833 18.1747 2.40465 18.1702 2.3982C18.041 2.36411 17.9119 2.33831 17.7809 2.31988C17.6865 2.30606 17.5921 2.29593 17.4968 2.2904C17.4647 2.28856 17.4335 2.28763 17.4015 2.28672C17.3062 2.28395 17.2117 2.28486 17.1173 2.28947C16.9917 2.29499 16.867 2.30697 16.7423 2.32449C16.525 2.35581 16.3094 2.40281 16.0956 2.46361C16.0653 2.47283 16.0342 2.48113 16.0038 2.49124C15.6021 2.61472 15.2191 2.78149 14.8494 2.97865C14.7265 3.04408 14.6045 3.11318 14.4833 3.18597C14.3728 3.25138 14.2642 3.31865 14.1564 3.38958C14.1208 3.41263 14.0851 3.43658 14.0495 3.46054C14.0139 3.48449 13.9782 3.50845 13.9435 3.53331C13.8731 3.58215 13.8037 3.6319 13.7351 3.68349C13.7012 3.70931 13.6665 3.73511 13.6326 3.7609C13.6326 3.76365 13.6326 3.76549 13.6326 3.76827C13.6326 3.77011 13.6308 3.77195 13.63 3.77379C13.6273 3.77656 13.6237 3.77749 13.6184 3.77749H13.6175C13.6175 3.77749 13.6175 3.78118 13.6175 3.78208C13.6175 3.78577 13.6157 3.78761 13.6139 3.78854C13.6121 3.78947 13.6104 3.78947 13.6068 3.78854C13.6059 3.78854 13.6041 3.78854 13.6032 3.7867C13.4518 3.89633 13.3048 4.01058 13.1614 4.12945C13.0973 4.18197 13.034 4.23631 12.9717 4.29068C12.9619 4.29897 12.9521 4.3082 12.9423 4.31647C12.8781 4.37268 12.814 4.42981 12.7508 4.48786C12.7508 4.4897 12.7508 4.49063 12.7508 4.49247C12.7508 4.49706 12.749 4.49984 12.7463 4.50261C12.7463 4.50261 12.7445 4.50352 12.7436 4.50445C12.7419 4.50536 12.7392 4.50629 12.7365 4.50629C12.7347 4.50997 12.7321 4.51365 12.7294 4.51643C12.7258 4.52011 12.7232 4.52379 12.7187 4.52656C12.7134 4.53024 12.7071 4.53393 12.7 4.53484C12.7 4.54313 12.6982 4.54774 12.6947 4.54958C12.6893 4.55327 12.6795 4.55052 12.6724 4.55143C12.6483 4.57722 12.6234 4.60302 12.5993 4.6279C12.5976 4.62974 12.5967 4.63159 12.5949 4.63252C12.5949 4.63343 12.5949 4.63527 12.5949 4.6362C12.5949 4.63988 12.5931 4.64172 12.5913 4.64449H12.5904C12.5904 4.64449 12.5851 4.64724 12.5797 4.64724C12.5584 4.66568 12.5352 4.68227 12.5147 4.70161C12.5129 4.70345 12.5111 4.70438 12.5094 4.70622C12.431 4.7827 12.3517 4.85918 12.2742 4.93749C12.2688 4.94302 12.2635 4.94761 12.259 4.95222C12.235 4.97711 12.2101 5.00013 12.1851 5.02408C12.1228 5.08397 12.0586 5.14202 11.999 5.20468C11.9669 5.23877 11.9339 5.27286 11.9019 5.30604C11.7166 5.50045 11.5331 5.6967 11.3558 5.89938C11.1296 6.15829 10.9095 6.42181 10.6958 6.69083C10.6655 6.72954 10.6343 6.76731 10.604 6.80602C10.5996 6.81154 10.5942 6.81799 10.5907 6.82445C10.5844 6.83365 10.5782 6.84288 10.5719 6.85299C10.5639 6.8659 10.5559 6.87881 10.5479 6.89079C10.5417 6.89999 10.5354 6.90829 10.5283 6.91749C10.5256 6.92027 10.5238 6.92302 10.5221 6.92488C10.5123 6.93593 10.5025 6.94606 10.4909 6.95436C10.4909 6.95711 10.49 6.95804 10.4891 6.95988C10.4891 6.96172 10.4891 6.96356 10.4873 6.9654C10.4873 6.96634 10.4855 6.96724 10.4847 6.96818C10.4829 6.96911 10.4802 6.97002 10.4784 6.97095C10.4731 6.99674 10.4526 7.00963 10.4357 7.02622C10.4348 7.02622 10.4339 7.02806 10.433 7.02899C10.4276 7.03358 10.4241 7.03913 10.4205 7.04465C10.4187 7.0474 10.417 7.05018 10.4161 7.05386C10.4152 7.05754 10.4134 7.06031 10.4125 7.06399C10.4125 7.06584 10.4125 7.06677 10.4125 7.06861C10.4125 7.07322 10.4107 7.07597 10.4072 7.07874C10.4072 7.07874 10.4054 7.07874 10.4054 7.07965C10.4045 7.07965 10.4027 7.07965 10.4018 7.07965C10.4009 7.07965 10.4 7.07965 10.3982 7.07965C10.359 7.13033 10.319 7.18102 10.2798 7.23168C10.278 7.23445 10.2753 7.23722 10.2735 7.23997C10.2744 7.24643 10.2744 7.25195 10.2735 7.25749C10.2735 7.26209 10.2709 7.26486 10.2691 7.26854C10.2691 7.26947 10.2673 7.27131 10.2673 7.27222C10.2646 7.27499 10.2611 7.27868 10.2575 7.28052C10.253 7.28329 10.2477 7.28513 10.2424 7.28697C10.2361 7.29434 10.2299 7.30079 10.2236 7.30815C10.221 7.31093 10.2192 7.3137 10.2174 7.31554C10.2121 7.32106 10.2076 7.32752 10.2032 7.33304C10.1025 7.47308 10.0019 7.61406 9.9012 7.75411C9.9012 7.7587 9.89942 7.76147 9.89674 7.76424C9.89674 7.76424 9.89586 7.76515 9.89496 7.76609C9.89318 7.76793 9.8905 7.76884 9.88784 7.76884C9.81836 7.8702 9.74708 7.97063 9.67851 8.0729C9.66515 8.09315 9.65179 8.11343 9.63841 8.1337C9.53597 8.28943 9.43977 8.44974 9.33644 8.60452C9.28478 8.68193 9.23578 8.76115 9.1868 8.83947C9.1369 8.91779 9.08703 8.99611 9.03271 9.07259C8.94629 9.19511 8.87235 9.32872 8.79664 9.45863C8.76368 9.51483 8.73072 9.57104 8.69866 9.62724C8.33256 10.2556 7.97713 10.8904 7.67428 11.5547C7.65646 11.5934 7.63598 11.6294 7.61548 11.6662C7.595 11.7022 7.57362 11.739 7.5558 11.7759C7.45249 11.9905 7.35183 12.2062 7.25384 12.4236C7.21732 12.5047 7.1817 12.5857 7.14516 12.6677C7.09796 12.7737 7.05162 12.8806 7.00621 12.9875C6.94831 13.1229 6.89041 13.2593 6.83339 13.3965C6.80935 13.4537 6.78617 13.5117 6.76301 13.5698C6.73361 13.6416 6.70424 13.7135 6.67572 13.7863C6.57418 14.0415 6.47618 14.2995 6.38089 14.5575C6.35327 14.633 6.32565 14.7086 6.29893 14.785C6.23391 14.9693 6.17066 15.1536 6.10742 15.3388C6.09228 15.383 6.07712 15.4272 6.06198 15.4715C6.0504 15.5056 6.03882 15.5406 6.02814 15.5756C5.99874 15.6631 5.97112 15.7516 5.9444 15.84C5.91145 15.9478 5.87937 16.0556 5.84731 16.1634C5.82415 16.2408 5.80099 16.3173 5.77695 16.3947C5.72261 16.567 5.65936 16.7374 5.63798 16.9189C5.6371 16.9282 5.6264 16.9364 5.62106 16.9447C5.59434 17.0203 5.5783 17.0977 5.56048 17.1751C5.55158 17.2119 5.54088 17.2488 5.5302 17.2856C5.5195 17.3225 5.50882 17.3594 5.49902 17.3962C5.45804 17.5547 5.41796 17.7141 5.38055 17.8735C5.34581 18.0172 5.31285 18.1628 5.28079 18.3074C5.24515 18.4705 5.21129 18.6336 5.17833 18.7967C5.14983 18.9395 5.12224 19.0832 5.0964 19.2269C5.07592 19.3412 5.05542 19.4545 5.03672 19.5688C5.01978 19.6692 5.00464 19.7697 4.9886 19.8701C4.969 19.9981 4.9503 20.1253 4.93338 20.2534C4.91824 20.3685 4.90398 20.4828 4.88972 20.5979C4.85233 20.914 4.82203 21.23 4.79799 21.5479C4.79175 21.6391 4.78551 21.7294 4.78107 21.8206C4.77571 21.9118 4.77127 22.0021 4.76769 22.0933C4.76057 22.2748 4.75523 22.4573 4.74989 22.6388C4.74899 22.6802 4.74899 22.7217 4.74811 22.7633C4.74811 22.776 4.74811 22.788 4.74811 22.801C4.74721 23.0339 4.75611 23.2662 4.76325 23.4976C4.76325 23.5076 4.76503 23.5187 4.76503 23.5287C4.76681 23.5703 4.76859 23.6117 4.77127 23.6533C4.77927 23.821 4.79265 23.9885 4.80957 24.1562C4.82115 24.2696 4.8336 24.3839 4.84787 24.4971C4.84964 24.5137 4.85233 24.5294 4.85411 24.546C4.88441 24.7764 4.91914 25.0058 4.96278 25.2333C5.04384 25.6589 5.15164 26.0774 5.29949 26.4837C5.30217 26.4901 5.30483 26.4974 5.30751 26.5049C5.41796 26.8051 5.54622 27.0974 5.70389 27.3755C5.9631 27.8335 6.27933 28.2389 6.68286 28.5621C6.73096 28.601 6.77995 28.6378 6.82983 28.6746C6.87793 28.7087 6.92961 28.7401 6.97949 28.7714C6.98839 28.7778 6.99909 28.7824 7.00889 28.7871C7.01601 28.7908 7.02312 28.7935 7.03024 28.7971C7.04272 28.8037 7.0543 28.8119 7.06232 28.8239C7.06498 28.8276 7.06766 28.833 7.07034 28.8387V28.8369C7.0837 28.8349 7.09528 28.8378 7.10152 28.8526H7.1024C7.11488 28.8526 7.12646 28.8562 7.1327 28.868C7.13626 28.868 7.13892 28.868 7.1416 28.8689H7.1425C7.15052 28.871 7.15764 28.8746 7.16298 28.8828C7.16298 28.8828 7.16298 28.8828 7.16298 28.8837C7.16298 28.8837 7.16476 28.8837 7.16564 28.8837C7.16744 28.8837 7.16922 28.8837 7.171 28.8837C7.17278 28.8837 7.17366 28.8846 7.17634 28.8846C7.17722 28.8846 7.17902 28.8846 7.1799 28.8855C7.1817 28.8855 7.18346 28.8876 7.18524 28.8885C7.18524 28.8885 7.18702 28.8885 7.18792 28.8894C7.1897 28.8912 7.19148 28.893 7.19326 28.8949C7.19326 28.8949 7.19326 28.8949 7.19416 28.8949C7.21108 28.9133 7.23424 28.9178 7.25562 28.928C7.70012 29.1317 8.1455 29.3353 8.59001 29.5389C8.81002 29.6394 9.02825 29.7453 9.26072 29.8117C9.49321 29.878 9.72928 29.923 9.97067 29.9333C10.0108 29.9333 10.0509 29.9333 10.0909 29.9333C10.2112 29.9333 10.3314 29.9333 10.4517 29.9333C10.5684 29.9296 10.6842 29.9139 10.7991 29.8955C11.2667 29.8226 11.7157 29.6799 12.1495 29.4874C12.9441 29.1344 13.6611 28.6526 14.3337 28.0951C14.4815 27.9726 14.6258 27.8464 14.7693 27.7183C15.269 27.7276 15.7678 27.7303 16.2675 27.7246C16.7432 27.7192 17.2197 27.711 17.6954 27.6914C17.7186 27.6778 17.7435 27.6778 17.7685 27.6878C17.7756 27.6878 17.7827 27.6878 17.7898 27.6878C17.8183 27.6739 17.8477 27.6749 17.8771 27.6842H17.8985C17.9154 27.673 17.9333 27.6712 17.9511 27.6749C17.9511 27.6749 17.952 27.6749 17.9529 27.6749H17.9538C17.96 27.6769 17.9653 27.6787 17.9707 27.6805H17.9921C18.0036 27.673 18.0152 27.6703 18.0268 27.6694C18.0393 27.6694 18.0517 27.6721 18.0651 27.676C18.0722 27.676 18.0794 27.676 18.0865 27.676C18.0945 27.6712 18.1025 27.6685 18.1105 27.6667C18.1266 27.663 18.1435 27.6649 18.1604 27.6712C18.1675 27.6712 18.1738 27.6712 18.1809 27.6712C18.1809 27.6712 18.1827 27.6712 18.1836 27.6703C18.2067 27.6585 18.2308 27.6585 18.2539 27.6676C18.2611 27.6676 18.2682 27.6676 18.2744 27.6676C18.2985 27.6519 18.3225 27.6537 18.3484 27.663C18.3555 27.663 18.3626 27.663 18.3688 27.663C18.3929 27.6483 18.4178 27.6501 18.4428 27.6585C18.4499 27.6585 18.457 27.6585 18.4633 27.6585C18.4686 27.6546 18.4731 27.6528 18.4775 27.651C18.4855 27.6483 18.4927 27.6483 18.5007 27.6483C18.5078 27.6483 18.5158 27.6501 18.523 27.6537C18.6316 27.6483 18.7394 27.6446 18.8481 27.638C19.6801 27.5874 20.5094 27.5192 21.3378 27.4244C22.5955 27.2796 23.8453 27.0853 25.08 26.7942C25.9208 26.596 26.7501 26.3583 27.5519 26.0239C27.9821 25.8442 28.3998 25.6387 28.7865 25.3696C29.019 25.2076 29.2345 25.0251 29.4072 24.7919C29.516 24.6437 29.6041 24.4842 29.6379 24.2983C29.6513 24.2835 29.6566 24.266 29.6575 24.2476C29.6656 24.1139 29.67 23.9812 29.6584 23.8476L29.6513 23.8485ZM18.4855 21.0301C18.2539 21.0153 18.0232 21.0024 17.7916 20.9923C18.0232 21.0034 18.2539 21.0162 18.4855 21.0301ZM13.3485 25.3799C13.311 25.4139 13.2737 25.4489 13.2362 25.483C12.9735 25.7217 12.7027 25.9474 12.4203 26.1585C12.1379 26.3685 11.8448 26.5637 11.5384 26.738C11.4948 26.7628 11.4502 26.7876 11.4057 26.8117C11.3033 26.8669 11.1999 26.9194 11.0957 26.9701C10.9915 27.0199 10.8855 27.066 10.7786 27.1092C10.5648 27.1958 10.3457 27.2678 10.1194 27.323C10.0215 27.3469 9.92346 27.3671 9.82548 27.3828C9.79074 27.3885 9.756 27.3939 9.72214 27.3994C9.58853 27.4178 9.45491 27.4289 9.32042 27.4326C9.27588 27.4335 9.23044 27.4344 9.1859 27.4335C9.14049 27.4335 9.09593 27.4317 9.05053 27.4299C9.03093 27.4289 9.01221 27.4262 8.99261 27.4244C8.97391 27.4226 8.95431 27.4199 8.93471 27.4178C8.90977 27.416 8.89108 27.4051 8.87238 27.3885C8.81892 27.3387 8.76814 27.2871 8.71826 27.2337C8.64432 27.1544 8.57395 27.0714 8.50803 26.9858C8.46439 26.9287 8.42163 26.8696 8.38065 26.8089C8.36018 26.7785 8.34058 26.748 8.32098 26.7176C8.3192 26.7149 8.3183 26.7121 8.31742 26.7094C8.31652 26.7049 8.31474 26.6992 8.31386 26.6946C8.30584 26.6864 8.29514 26.678 8.28892 26.6689L8.28712 26.6669C8.19538 26.5169 8.11254 26.3621 8.03771 26.2026C8.00031 26.1224 7.96467 26.0433 7.93171 25.9612C7.89785 25.8801 7.86669 25.7971 7.83729 25.7133C7.83373 25.7033 7.83461 25.693 7.83283 25.6821C7.78118 25.5826 7.75534 25.4737 7.72328 25.3678C7.652 25.131 7.59588 24.8905 7.54956 24.6474C7.54154 24.6039 7.53355 24.5617 7.52553 24.5183C7.52194 24.5008 7.52017 24.4842 7.51661 24.4667C7.51305 24.4455 7.50859 24.4244 7.50503 24.4033C7.50503 24.3976 7.50503 24.393 7.50325 24.3876C7.50147 24.3692 7.50059 24.3499 7.49881 24.3312C7.46851 24.196 7.45515 24.0576 7.44001 23.9194C7.38833 23.4792 7.36875 23.0369 7.36785 22.5946C7.36785 22.4278 7.36963 22.2601 7.37409 22.0924C7.37675 21.9929 7.38121 21.8943 7.38655 21.7957C7.73842 21.7091 8.09295 21.6327 8.44835 21.5626C9.05585 21.4438 9.66693 21.347 10.2798 21.2687C10.2896 21.2678 10.2994 21.2659 10.3092 21.265C10.3207 21.2632 10.3323 21.2623 10.3439 21.2632C10.351 21.2632 10.3582 21.265 10.3653 21.2669C10.4606 21.2457 10.5577 21.2346 10.6548 21.2245C10.6993 21.2199 10.7439 21.2153 10.7875 21.2107C11.4609 21.1333 12.1352 21.0743 12.8104 21.0319C13.0002 21.0199 13.1899 21.0089 13.3787 20.9997C13.8633 20.9757 14.3479 20.96 14.8325 20.9508C15.0979 20.9453 15.3634 20.9425 15.6288 20.9425C16.0074 20.9425 16.386 20.9472 16.7637 20.9564C16.6817 21.0973 16.5989 21.2383 16.5143 21.3774C16.4528 21.4797 16.3905 21.581 16.3272 21.6815C16.2141 21.8612 16.0992 22.039 15.9816 22.2159C15.7642 22.542 15.5389 22.8617 15.3046 23.1751C15.2307 23.2746 15.1558 23.373 15.0792 23.4708C15.0659 23.4883 15.0525 23.5058 15.0391 23.5224C14.9287 23.6642 14.8165 23.8035 14.7016 23.9408C14.51 24.1701 14.3132 24.3939 14.111 24.6133C14.0495 24.6796 13.988 24.746 13.9257 24.8114C13.7654 24.9789 13.5997 25.143 13.4304 25.3024C13.4028 25.3283 13.3752 25.3549 13.3476 25.3808L13.3485 25.3799ZM14.2499 25.3355C14.4459 25.3421 14.6428 25.3476 14.8387 25.3512C14.6419 25.3476 14.4459 25.3421 14.2499 25.3355ZM27.2036 23.1778C27.1981 23.1851 27.1893 23.1926 27.175 23.2035C27.1564 23.2183 27.1377 23.2339 27.1179 23.2478C27.0992 23.2626 27.0797 23.2764 27.0601 23.291C27.0236 23.3178 26.9861 23.3437 26.9478 23.3685C26.9435 23.3712 26.9388 23.3739 26.9344 23.3778C26.9032 23.398 26.872 23.4183 26.84 23.4376C26.7929 23.4671 26.7466 23.4946 26.6985 23.5224C26.3724 23.7103 26.0294 23.8614 25.6794 23.9951C25.3489 24.1203 25.014 24.2301 24.6763 24.3276C24.1927 24.4676 23.7027 24.5837 23.2083 24.6851C22.7282 24.7846 22.2464 24.8685 21.7627 24.9412C21.279 25.0139 20.7935 25.0749 20.3072 25.1274C20.1477 25.1449 19.9883 25.1605 19.8288 25.1762C19.509 25.2067 19.1893 25.2324 18.8695 25.2546C18.7091 25.2655 18.5488 25.2758 18.3893 25.2849C18.0304 25.3062 17.6714 25.3219 17.3124 25.3337C17.2474 25.3355 17.1823 25.3385 17.1164 25.3403C17.0568 25.3421 16.9971 25.3439 16.9365 25.3458C17.0835 25.1578 17.2304 24.9708 17.365 24.7726C17.3845 24.7478 17.4041 24.7228 17.4229 24.6971C17.7106 24.2962 17.9867 23.888 18.2521 23.4726C18.2664 23.4496 18.3403 23.3335 18.3626 23.2976C18.531 23.0294 18.694 22.7585 18.8534 22.484C19.1135 22.0344 19.362 21.5783 19.5981 21.1158C20.0488 21.1563 20.4987 21.2033 20.9485 21.2604C20.9815 21.2641 21.0144 21.2715 21.0483 21.277C21.2496 21.2917 21.4491 21.3231 21.6478 21.3535C21.9034 21.3922 22.1591 21.4346 22.4138 21.4788C22.7577 21.5387 23.1016 21.605 23.4426 21.6815C23.6271 21.7229 23.8106 21.7653 23.995 21.8068C23.9967 21.8068 23.9993 21.8068 24.0011 21.8077C24.0029 21.8077 24.0048 21.8077 24.0075 21.8086C24.0189 21.8105 24.0323 21.8105 24.0448 21.8123C24.0609 21.8142 24.0769 21.8188 24.0894 21.8326C24.4832 21.9367 24.8758 22.0463 25.2617 22.1781C25.2973 22.1901 25.3381 22.1938 25.3658 22.2251C25.4665 22.2435 25.5583 22.2868 25.6526 22.3227C25.7356 22.3541 25.8185 22.3872 25.9004 22.4213C26.1346 22.5172 26.3645 22.6231 26.5871 22.7458C26.6752 22.7935 26.7617 22.8442 26.8472 22.8976C26.9604 22.9687 27.0707 23.0433 27.1742 23.1289C27.2045 23.1537 27.2133 23.1639 27.2016 23.1787L27.2036 23.1778Z" fill="#E8EAEB"/>
<path d="M29.6594 16.5375C29.6488 16.3173 29.5677 16.1229 29.4438 15.946C29.2693 15.6944 29.0439 15.4982 28.7998 15.325C28.3838 15.0302 27.9286 14.8136 27.4628 14.6201C27.2035 14.5123 26.9409 14.4165 26.6753 14.3281C26.271 14.1935 25.8603 14.0784 25.4479 13.9733C24.9322 13.8425 24.4136 13.7292 23.8918 13.6306C23.5736 13.5707 23.2548 13.5127 22.9351 13.4647C22.9252 13.4647 22.9153 13.4638 22.9057 13.4629C22.9004 13.4629 22.894 13.462 22.8887 13.4611C22.8771 13.4601 22.8646 13.4583 22.8531 13.4574C22.8263 13.4537 22.7986 13.4482 22.7729 13.4417C22.6776 13.426 22.5831 13.4104 22.488 13.3938C22.4326 13.3855 22.3774 13.3772 22.3223 13.3698C22.3007 13.3662 22.2794 13.3634 22.2581 13.3606C22.038 13.333 21.8171 13.3063 21.5971 13.2768C21.5329 13.2685 21.4688 13.263 21.4047 13.2556C21.3405 13.2492 21.2764 13.2409 21.2132 13.2279C20.7856 13.1865 20.358 13.1423 19.9296 13.1063C19.8699 13.1017 19.8102 13.0962 19.7505 13.0916C19.3817 13.0612 19.013 13.0354 18.6433 13.017C18.466 13.0087 18.2879 12.9985 18.1097 12.9893C17.9752 12.9829 17.8398 12.9755 17.7053 12.97C17.3971 12.958 17.0898 12.9506 16.7816 12.9442C16.6667 12.9414 16.5518 12.9396 16.4378 12.9377C16.4378 12.9377 16.6489 12.0587 16.7335 11.6147C16.7976 11.282 16.8529 10.9476 16.9018 10.6122C16.9339 10.3874 16.9624 10.1626 16.9874 9.93683C17.0132 9.70097 17.0337 9.46417 17.0479 9.22647C17.0631 8.97311 17.0729 8.71881 17.0782 8.46542C17.0844 8.12545 17.0738 7.78638 17.0497 7.44731C17.0337 7.22342 17.0132 7.00045 16.9856 6.77749C16.9482 6.47252 16.8947 6.17122 16.8243 5.8727C16.7682 5.63406 16.7041 5.39636 16.6186 5.16602C16.6141 5.16602 16.6097 5.16602 16.6052 5.16786C16.6008 5.16786 16.5963 5.1697 16.5927 5.17063C16.5785 5.17522 16.566 5.18261 16.5527 5.18813C16.1785 5.35029 15.8249 5.55206 15.4837 5.77688C15.4641 5.78979 15.4428 5.79992 15.4348 5.82479C15.5167 6.36011 15.555 6.89817 15.5594 7.43995C15.5666 8.21481 15.5113 8.98508 15.4089 9.75256C15.3314 10.3303 15.229 10.9034 15.1043 11.4727C14.9965 11.9666 14.8718 12.4559 14.7328 12.9405C14.397 12.9442 14.0603 12.9552 13.7245 12.9663C13.2773 12.9819 12.8301 13.0032 12.3839 13.0326C11.9901 13.0584 11.5955 13.0852 11.2018 13.1202C10.6905 13.1662 10.1801 13.2178 9.67147 13.2823C9.54943 13.544 9.43095 13.8075 9.31694 14.0729C9.1468 14.469 8.98647 14.8689 8.83594 15.2725C8.84306 15.2715 8.8493 15.2706 8.85642 15.2697C9.45055 15.1831 10.0474 15.1112 10.6442 15.0495C10.8152 15.032 10.9862 15.0108 11.1582 14.9951C11.5822 14.9583 12.0071 14.9334 12.432 14.9058C12.9842 14.8689 13.5374 14.8459 14.0915 14.8293C14.0986 14.8293 14.1048 14.8293 14.112 14.8293C14.5832 14.8155 15.0544 14.809 15.5265 14.8081C15.645 14.8081 15.7634 14.8081 15.8828 14.809C16.1518 14.8099 16.4217 14.8127 16.6907 14.8173C16.9963 14.8228 17.3009 14.8348 17.6064 14.8459C17.6091 14.8459 17.6118 14.8459 17.6145 14.8459C17.9066 14.8569 18.1988 14.868 18.491 14.8827C18.7154 14.8938 18.9399 14.9104 19.1644 14.9279C19.2125 14.9316 19.2606 14.9352 19.3087 14.9389C19.6454 14.9638 19.9812 14.9896 20.3179 15.0163C20.4008 15.0228 20.4827 15.0347 20.5656 15.043C21.011 15.0836 21.4555 15.1352 21.8991 15.1942C22.0977 15.2199 22.2955 15.2476 22.4941 15.2752C22.9118 15.3351 23.3288 15.407 23.7439 15.4816C24.1438 15.5544 24.5428 15.6364 24.9383 15.7295C25.2866 15.8115 25.6331 15.9008 25.977 15.9976C26.4287 16.1247 26.8721 16.2731 27.3105 16.4408C27.6891 16.5863 28.0551 16.7577 28.4098 16.9577C28.6537 17.0959 28.8853 17.2506 29.0964 17.4386C29.288 17.6091 29.4554 17.8007 29.5668 18.0402C29.6112 18.1352 29.6319 18.2374 29.6602 18.3369C29.6613 18.1388 29.6631 17.9407 29.664 17.7427C29.664 17.4487 29.664 17.1539 29.664 16.86C29.664 16.7531 29.6675 16.6453 29.6622 16.5394L29.6594 16.5375Z" fill="#D6C8C7"/>
<path d="M18.416 2.48043C18.3473 2.45739 18.2769 2.44079 18.2109 2.40852C18.2109 2.3993 18.2118 2.39007 18.2127 2.38086C18.2947 2.40667 18.3723 2.44263 18.4445 2.49057C18.4347 2.48689 18.4249 2.48412 18.4151 2.48043H18.416Z" fill="white"/>
<path d="M18.1782 2.39391C18.1782 2.39391 18.186 2.3974 18.1882 2.40085C18.1882 2.40085 18.1871 2.40085 18.186 2.40085C18.1771 2.40665 18.1715 2.40202 18.166 2.39391C18.1705 2.39277 18.1738 2.3916 18.1782 2.39391Z" fill="white"/>
<path d="M9.8958 7.75391C9.8958 7.75391 9.89381 7.76217 9.89081 7.76525C9.89081 7.76525 9.88983 7.76629 9.88882 7.76731C9.88683 7.76939 9.88383 7.77041 9.88086 7.77041C9.88086 7.76939 9.88086 7.76835 9.88086 7.76731V7.76423C9.88086 7.76423 9.88683 7.75805 9.88983 7.75599C9.89182 7.75599 9.89381 7.75391 9.8958 7.75391Z" fill="white"/>
<path d="M10.2627 7.26994C10.2627 7.26994 10.2561 7.27648 10.2523 7.27835C10.2476 7.28113 10.2429 7.283 10.2363 7.28486C10.2363 7.28113 10.2363 7.27835 10.2363 7.27554C10.2363 7.27273 10.2363 7.26994 10.2373 7.26808C10.2392 7.2634 10.241 7.25873 10.2439 7.255C10.2467 7.25127 10.2514 7.24846 10.2552 7.24473C10.2599 7.24195 10.2646 7.23914 10.2693 7.23633C10.2703 7.24287 10.2703 7.24846 10.2693 7.25406C10.2693 7.25873 10.2665 7.26154 10.2646 7.26527C10.2646 7.26621 10.2627 7.26808 10.2627 7.269V7.26994Z" fill="white"/>
<path d="M10.4033 7.07806C10.4033 7.07806 10.4012 7.07806 10.4012 7.07916C10.4001 7.07916 10.3979 7.07916 10.3969 7.07916C10.3958 7.07916 10.3947 7.07916 10.3926 7.07916C10.3979 7.07267 10.4033 7.06508 10.4087 7.05859C10.4087 7.06076 10.4087 7.06182 10.4087 7.06399C10.4087 7.06941 10.4066 7.07267 10.4023 7.0759L10.4033 7.07806Z" fill="#215CB5"/>
<path d="M10.4736 6.96525C10.4736 6.95982 10.4779 6.9555 10.4822 6.95333C10.4843 6.95333 10.4865 6.95224 10.4886 6.95117C10.4886 6.9544 10.4875 6.9555 10.4865 6.95766C10.4865 6.95982 10.4865 6.96199 10.4843 6.96415C10.4843 6.96525 10.4822 6.96631 10.4811 6.96741C10.479 6.9685 10.4758 6.96957 10.4736 6.97067C10.4736 6.9685 10.4736 6.96741 10.4736 6.96525Z" fill="#215CB5"/>
<path d="M16.7969 1.74327C16.815 1.73558 16.8264 1.74327 16.8369 1.7577C16.8207 1.76155 16.8036 1.7654 16.7969 1.74423V1.74327Z" fill="#FEC35E"/>
<path d="M16.7959 1.74219H16.7978L16.7959 1.74409V1.74219Z" fill="#D9D9D9"/>
<path d="M12.5752 4.64621C12.5817 4.64082 12.5872 4.6354 12.5937 4.62891C12.5937 4.62997 12.5937 4.63214 12.5937 4.63323C12.5937 4.63756 12.5915 4.63972 12.5893 4.64298H12.5882C12.5882 4.64298 12.5817 4.64621 12.5752 4.64621Z" fill="white"/>
<path d="M12.681 4.53471C12.6861 4.53146 12.6921 4.5293 12.6991 4.5293C12.6991 4.53903 12.6971 4.54444 12.6931 4.5466C12.6871 4.55092 12.676 4.5477 12.668 4.54876C12.672 4.54228 12.676 4.53796 12.681 4.53471Z" fill="white"/>
<path d="M12.7487 4.48873C12.7487 4.48873 12.7466 4.49738 12.7433 4.50064C12.7433 4.50064 12.7412 4.50171 12.7401 4.5028C12.7379 4.50387 12.7347 4.50496 12.7314 4.50496C12.7368 4.49845 12.7433 4.49089 12.7487 4.48438C12.7487 4.48656 12.7487 4.48763 12.7487 4.4898V4.48873Z" fill="white"/>
<path d="M13.6316 3.7654C13.6316 3.7654 13.6295 3.76972 13.6284 3.77189C13.6251 3.77514 13.6208 3.77621 13.6143 3.77621C13.6197 3.76972 13.6262 3.7643 13.6327 3.75781C13.6327 3.76107 13.6327 3.76323 13.6327 3.76649L13.6316 3.7654Z" fill="white"/>
<path d="M13.6158 3.77344C13.6158 3.77344 13.6158 3.77677 13.6158 3.77786C13.6158 3.78229 13.6136 3.78453 13.6115 3.78562C13.6093 3.78674 13.6072 3.78674 13.6029 3.78562C13.6018 3.78562 13.5997 3.78562 13.5986 3.78341C13.6051 3.78007 13.6104 3.77677 13.6169 3.77344H13.6158Z" fill="white"/>
<path d="M18.2061 2.37624C17.766 2.17353 17.3251 1.97175 16.885 1.76813C16.8672 1.75984 16.8494 1.76629 16.8334 1.75615C16.8182 1.75984 16.8022 1.76352 16.796 1.74325C16.7782 1.75154 16.7612 1.74325 16.7443 1.7368C16.3586 1.61703 15.964 1.58017 15.5623 1.60136C15.0305 1.62992 14.5209 1.76444 14.0257 1.96254C13.8698 2.02427 13.7166 2.09245 13.5669 2.16524C13.5295 2.18366 13.4921 2.20209 13.4547 2.22144C13.411 2.24355 13.3674 2.26567 13.3246 2.28963C13.2667 2.32004 13.2097 2.35135 13.1518 2.3836C12.8516 2.55313 12.5603 2.74201 12.278 2.94472C12.2192 2.9871 12.1604 3.02949 12.1025 3.07279L12.0678 3.09858C11.9288 3.20363 11.7925 3.31049 11.6589 3.42106C11.324 3.69656 11.0024 3.98954 10.6915 4.29635C9.82837 5.14863 9.06142 6.08933 8.35951 7.08626C8.34169 7.11206 8.32387 7.13879 8.30607 7.16458C8.30607 7.16458 8.30429 7.17101 8.30249 7.17288C8.30071 7.17472 8.29805 7.17563 8.29449 7.17656C8.23123 7.2696 8.16887 7.36174 8.10564 7.45481C8.00052 7.6096 7.89721 7.76438 7.79565 7.92194C7.69945 8.07119 7.60414 8.22231 7.5106 8.3734C7.43578 8.49319 7.36275 8.61388 7.29059 8.73551C7.22645 8.84422 7.16231 8.95203 7.09908 9.06074C7.01 9.2146 6.9218 9.36938 6.8345 9.52601C6.79087 9.60433 6.74811 9.68174 6.70535 9.76097C6.70089 9.77017 6.69467 9.77847 6.68931 9.78769C6.68931 9.79783 6.68575 9.8061 6.68219 9.8144C6.67863 9.81994 6.67507 9.82638 6.67239 9.83192C6.63231 9.90563 6.59311 9.98026 6.55392 10.0549C6.40606 10.3341 6.26175 10.616 6.12279 10.8998C6.06399 11.0196 6.0061 11.1403 5.94908 11.2609C5.64089 11.9133 5.35494 12.5757 5.09217 13.2474C4.95232 13.604 4.8196 13.9633 4.69311 14.3245C4.62629 14.5161 4.56037 14.7087 4.49713 14.9022C4.38044 15.2597 4.27354 15.6199 4.16932 15.9811C4.12657 16.1294 4.08471 16.2787 4.04463 16.428C4.04373 16.4317 4.04285 16.4354 4.04195 16.439C3.97871 16.6731 3.91991 16.908 3.8647 17.1439C3.81392 17.3558 3.76492 17.5686 3.7195 17.7824C3.6803 17.9648 3.64466 18.1482 3.60905 18.3315C3.60103 18.3748 3.59301 18.4181 3.58499 18.4624C3.58143 18.4799 3.57875 18.4974 3.57519 18.5149C3.57429 18.5213 3.57251 18.5278 3.57163 18.5351C3.56539 18.5701 3.55827 18.6042 3.55203 18.6393C3.50125 18.9258 3.45583 19.2133 3.41663 19.5026C3.37834 19.7817 3.34448 20.06 3.31598 20.3401C3.30974 20.4027 3.3044 20.4654 3.29816 20.5281C3.29816 20.5327 3.29726 20.5373 3.29726 20.5419C3.29282 20.5898 3.29014 20.6239 3.28658 20.658C3.2741 20.8137 3.26342 20.9703 3.25452 21.126C3.2456 21.2827 3.23848 21.4393 3.23402 21.5959C3.23402 21.6162 3.23402 21.6365 3.23224 21.6567C3.22334 21.958 3.22156 22.2584 3.23046 22.5587C3.23936 22.8424 3.25452 23.1254 3.28034 23.4083C3.30528 23.6901 3.34001 23.9713 3.38723 24.2522C3.41039 24.3895 3.43533 24.5258 3.46383 24.6613C3.55827 25.1183 3.68564 25.5661 3.86024 25.9992C3.87269 26.0295 3.88427 26.059 3.89766 26.0895C3.91011 26.119 3.92347 26.1492 3.93595 26.1788C3.96623 26.2488 3.99831 26.3179 4.03127 26.3861C4.08649 26.5004 4.14529 26.6117 4.20764 26.7206C4.37866 27.019 4.57997 27.2965 4.8187 27.547C4.88106 27.6133 4.94608 27.6761 5.01289 27.7358C5.13849 27.8492 5.2721 27.9533 5.41462 28.0465C5.44136 28.064 5.47252 28.074 5.49211 28.1008C5.4948 28.1045 5.49748 28.109 5.49926 28.1136C5.51261 28.1108 5.52241 28.1136 5.52597 28.1283C5.58119 28.1422 5.62573 28.1808 5.67651 28.204C5.9473 28.3283 6.21721 28.4526 6.488 28.5772C6.64211 28.6481 6.79711 28.7172 6.9521 28.7872L6.9717 28.7688C6.9218 28.7365 6.87014 28.7061 6.82205 28.672C6.77127 28.6361 6.72317 28.5983 6.67507 28.5597C6.27155 28.2354 5.95532 27.8308 5.69611 27.3729C5.53843 27.0947 5.41018 26.8026 5.29972 26.5022C5.29704 26.4949 5.29436 26.4883 5.2917 26.4811C5.14383 26.0747 5.03605 25.6563 4.955 25.2306C4.91134 25.0031 4.8766 24.7738 4.84632 24.5433C4.84454 24.5267 4.84186 24.5111 4.84008 24.4945C4.82582 24.3813 4.81336 24.267 4.80178 24.1536C4.78484 23.9861 4.77238 23.8192 4.76348 23.6506C4.76168 23.609 4.75902 23.5676 4.75724 23.5263C4.75724 23.5161 4.75634 23.5049 4.75546 23.4949C4.74744 23.2626 4.73942 23.0304 4.7403 22.7983C4.7403 22.7854 4.7403 22.7724 4.7403 22.7606C4.7403 22.7191 4.7403 22.6776 4.7421 22.6362C4.74744 22.4537 4.75278 22.2722 4.7599 22.0907C4.76348 21.9995 4.76792 21.9092 4.77326 21.818C4.77862 21.7268 4.78396 21.6365 4.7902 21.5452C4.81336 21.2274 4.84454 20.9114 4.88194 20.5953C4.8953 20.4801 4.90956 20.3659 4.9256 20.2507C4.94252 20.1226 4.96121 19.9946 4.98081 19.8674C4.99598 19.767 5.01199 19.6666 5.02891 19.5661C5.04763 19.4519 5.06811 19.3386 5.08861 19.2243C5.11443 19.0806 5.14205 18.9378 5.17055 18.794C5.20351 18.631 5.23736 18.467 5.27298 18.3048C5.30506 18.1602 5.33802 18.0155 5.37276 17.8708C5.41106 17.7114 5.45026 17.552 5.49124 17.3936C5.50104 17.3567 5.51171 17.3199 5.52241 17.283C5.53309 17.2461 5.54379 17.2093 5.55269 17.1724C5.57139 17.095 5.58655 17.0176 5.61327 16.9421C5.61951 16.9338 5.62931 16.9255 5.63019 16.9163C5.65157 16.7339 5.71481 16.5634 5.76914 16.392C5.7932 16.3156 5.81636 16.2382 5.83952 16.1608C5.87158 16.053 5.90366 15.9452 5.93662 15.8374C5.96334 15.7489 5.99096 15.6605 6.02036 15.5729C6.03194 15.5389 6.04261 15.5039 6.05419 15.4688C6.06933 15.4246 6.08449 15.3804 6.09963 15.3361C6.16377 15.1519 6.22611 14.9667 6.29115 14.7824C6.31786 14.7069 6.34548 14.6304 6.3731 14.5548C6.4684 14.2959 6.5664 14.0389 6.66793 13.7836C6.69645 13.7109 6.72583 13.639 6.75523 13.5671C6.77929 13.5091 6.80245 13.452 6.82561 13.3939C6.88262 13.2576 6.94052 13.1212 6.99842 12.9848C7.04384 12.8779 7.09016 12.772 7.13737 12.6651C7.17301 12.5831 7.20953 12.5029 7.24605 12.4209C7.34403 12.2035 7.4438 11.9879 7.54802 11.7732C7.56584 11.7354 7.58722 11.6995 7.6077 11.6636C7.6282 11.6276 7.64868 11.5908 7.66649 11.5521C7.96934 10.8878 8.32477 10.253 8.69088 9.6246C8.72383 9.5684 8.75589 9.51219 8.78885 9.45599C8.86547 9.32517 8.93851 9.19251 9.02492 9.06997C9.07924 8.99349 9.12912 8.91608 9.179 8.83685C9.22887 8.75853 9.27787 8.67931 9.32865 8.6019C9.43199 8.44713 9.52818 8.28681 9.63062 8.13108C9.64398 8.11081 9.65734 8.09056 9.6707 8.07029C9.7393 7.96801 9.81055 7.86758 9.88003 7.76622C9.88003 7.76531 9.88003 7.76438 9.88003 7.76347V7.76069C9.88003 7.76069 9.88537 7.75517 9.88805 7.75333C9.88983 7.75333 9.89161 7.75149 9.89339 7.75149C9.99404 7.61144 10.0947 7.47047 10.1954 7.33042C10.1998 7.32397 10.2052 7.31844 10.2096 7.31292C10.2123 7.31015 10.2141 7.30738 10.2159 7.30554C10.2221 7.29817 10.2283 7.29172 10.2346 7.28435C10.2346 7.28067 10.2346 7.2779 10.2346 7.27515C10.2346 7.27238 10.2346 7.2696 10.2355 7.26776C10.2372 7.26224 10.239 7.25856 10.2417 7.25488C10.2444 7.25117 10.2488 7.24842 10.2524 7.24474C10.2568 7.24197 10.2613 7.23919 10.2657 7.23644C10.2684 7.23367 10.2702 7.23092 10.272 7.22815C10.3112 7.17747 10.3513 7.12681 10.3905 7.07613C10.3949 7.0706 10.3993 7.06415 10.4038 7.05863C10.4038 7.05492 10.4056 7.05217 10.4074 7.04849C10.4083 7.04572 10.4101 7.04204 10.4118 7.03926C10.4154 7.03374 10.4198 7.02822 10.4243 7.0236C10.4243 7.02269 10.4261 7.02176 10.427 7.02083C10.4439 7.00426 10.4653 6.99044 10.4697 6.96556C10.4697 6.96372 10.4697 6.96279 10.4697 6.96094C10.4697 6.95635 10.4733 6.95265 10.4768 6.95081C10.4786 6.95081 10.4804 6.9499 10.4822 6.94897C10.4938 6.93976 10.5045 6.93056 10.5134 6.91949C10.516 6.91672 10.5178 6.91397 10.5196 6.91213C10.5267 6.90383 10.533 6.8946 10.5392 6.8854C10.5472 6.87342 10.5552 6.86051 10.5633 6.84763C10.5695 6.8384 10.5757 6.82829 10.582 6.81906C10.5864 6.8126 10.5909 6.80617 10.5953 6.80063C10.6256 6.76194 10.6568 6.72324 10.6871 6.68547C10.9009 6.41551 11.1209 6.15199 11.3471 5.89401C11.5244 5.69131 11.7079 5.49506 11.8932 5.30065C11.9252 5.26656 11.9582 5.23247 11.9903 5.19931C12.0508 5.13665 12.1141 5.0786 12.1764 5.01872C12.2014 4.99476 12.2263 4.97172 12.2504 4.94685C12.2557 4.94224 12.2602 4.93672 12.2655 4.9321C12.343 4.85472 12.4223 4.77731 12.5007 4.70083C12.5025 4.69899 12.5042 4.69808 12.506 4.69624C12.5265 4.67688 12.5497 4.65938 12.571 4.64188C12.5764 4.63726 12.5808 4.63265 12.5862 4.62713C12.588 4.62529 12.5889 4.62438 12.5906 4.62251C12.6147 4.59672 12.6396 4.57185 12.6637 4.54606C12.6672 4.54051 12.6708 4.53683 12.6753 4.53408C12.6797 4.53131 12.6851 4.52947 12.6913 4.52947C12.6984 4.52853 12.7047 4.52485 12.71 4.52117C12.7136 4.5184 12.7171 4.51472 12.7207 4.51104C12.7234 4.50826 12.7251 4.50458 12.7278 4.5009C12.7323 4.49538 12.7376 4.48892 12.7421 4.4834C12.8053 4.42535 12.8686 4.36822 12.9336 4.31201C12.9434 4.30374 12.9532 4.29544 12.963 4.28622C13.0253 4.23185 13.0886 4.17842 13.1527 4.12499C13.2961 4.00613 13.444 3.89097 13.5946 3.78224C13.5999 3.77947 13.6043 3.77672 13.6097 3.77394H13.6106C13.615 3.76749 13.6204 3.76197 13.6257 3.75735C13.6596 3.73156 13.6943 3.70483 13.7282 3.67997C13.7967 3.62838 13.8671 3.57863 13.9366 3.52979C13.9713 3.50583 14.007 3.48094 14.0426 3.45792C14.0782 3.43397 14.1139 3.41001 14.1495 3.38697C14.2573 3.31694 14.3659 3.24876 14.4764 3.18335C14.5967 3.11149 14.7196 3.04238 14.8425 2.97604C15.2131 2.77888 15.5961 2.6121 15.9969 2.48865C16.0272 2.47942 16.0584 2.47022 16.0887 2.46099C16.3025 2.39926 16.5172 2.35229 16.7354 2.32188C16.8592 2.30435 16.9848 2.29238 17.1104 2.28685C17.2048 2.28226 17.2993 2.28133 17.3946 2.2841C17.4266 2.28501 17.4578 2.28594 17.4899 2.28778C17.5852 2.29331 17.6796 2.30344 17.774 2.31726C17.905 2.33569 18.0341 2.36149 18.1633 2.39558C18.1669 2.39465 18.1695 2.39374 18.1731 2.39558C18.1767 2.39558 18.1793 2.39835 18.1811 2.4011C18.1838 2.40203 18.1873 2.40294 18.19 2.40388C18.1963 2.40572 18.2016 2.40756 18.2078 2.41033C18.2078 2.4011 18.2087 2.3919 18.2096 2.38267C18.2078 2.38083 18.2061 2.37899 18.2034 2.37808L18.2061 2.37624Z" fill="#F1ECE2"/>
<path d="M16.7973 1.74346C16.7911 1.71489 16.7644 1.71213 16.7448 1.70292C16.3653 1.52878 15.9858 1.35372 15.6046 1.18142C15.503 1.13536 15.405 1.08192 15.2999 1.04506C15.2884 1.05243 15.2759 1.05151 15.2634 1.0469C15.0024 0.958449 14.7316 0.914224 14.459 0.896717C14.2087 0.881055 13.9575 0.896717 13.709 0.930808C13.5041 0.959371 13.3028 1.0036 13.1033 1.05888C12.7158 1.16668 12.3435 1.31318 11.9845 1.49653C11.8464 1.56748 11.7128 1.64763 11.5765 1.72226C11.5311 1.74714 11.4839 1.76926 11.4402 1.79598C11.0501 2.03645 10.6715 2.29535 10.3125 2.58373C10.2225 2.65562 10.1308 2.72564 10.0471 2.80394C9.99273 2.85462 9.94017 2.90621 9.88137 2.95044C9.87069 2.95874 9.85911 2.96703 9.84575 2.97533C9.83595 2.98453 9.82615 2.99283 9.81635 3.00112V3.00296C9.81189 3.01494 9.80746 3.02601 9.80031 3.03244C9.79588 3.03614 9.79142 3.03798 9.78608 3.03889C9.7834 3.03889 9.77984 3.03889 9.77716 3.03889H9.77538C9.77538 3.03889 9.77004 3.03705 9.76648 3.03614C9.7638 3.03799 9.76114 3.03983 9.75934 3.04167C9.72818 3.06469 9.71124 3.10433 9.68274 3.12735C9.67828 3.13103 9.67384 3.1338 9.66938 3.13655C9.59456 3.1771 9.54912 3.24989 9.48231 3.29964C9.41819 3.34755 9.36473 3.41112 9.30595 3.46733C9.01464 3.74467 8.73939 4.03858 8.46682 4.33526C8.38309 4.42648 8.30827 4.52412 8.22809 4.61903C8.18177 4.67339 8.13012 4.7213 8.08468 4.77476C7.96086 4.92126 7.84061 5.07144 7.71857 5.21885C7.62771 5.32848 7.5422 5.44183 7.46114 5.55883C7.397 5.65189 7.32041 5.73483 7.25181 5.82419C7.04426 6.09969 6.8474 6.38344 6.65055 6.6663C6.45636 6.94548 6.27821 7.23573 6.09381 7.52226C5.92814 7.77933 5.7758 8.0456 5.61815 8.30912C5.56023 8.40678 5.50857 8.50812 5.44978 8.6058C5.34912 8.77348 5.2556 8.94578 5.16741 9.12083C5.11219 9.18901 5.07923 9.27194 5.03735 9.34842C4.95005 9.50873 4.86634 9.67089 4.79062 9.83767C4.76656 9.89112 4.73182 9.93626 4.70688 9.98969C4.63651 10.138 4.56525 10.2864 4.49131 10.4338C4.30694 10.8042 4.1448 11.1847 3.97645 11.5634C3.79384 11.9725 3.63172 12.3917 3.47139 12.8109C3.36271 13.0956 3.25316 13.3803 3.16674 13.6733C3.15248 13.7212 3.12576 13.7645 3.10974 13.8115C3.02601 14.064 2.94227 14.3155 2.86299 14.5689C2.78905 14.802 2.71958 15.0369 2.65276 15.2719C2.58864 15.4986 2.52716 15.7252 2.46839 15.9528C2.35347 16.3941 2.24835 16.8382 2.15839 17.2851C2.13523 17.4039 2.11207 17.5228 2.0898 17.6416C2.0132 18.0461 1.9455 18.4534 1.89027 18.8625C1.83861 19.2513 1.79585 19.641 1.762 20.0317C1.75933 20.0676 1.75666 20.1035 1.75398 20.1395C1.73795 20.3532 1.72548 20.5679 1.71746 20.7835C1.70766 21.0295 1.70588 21.2755 1.7041 21.5215C1.7041 21.6385 1.71568 21.7565 1.71479 21.8744C1.71301 22.0541 1.72815 22.2328 1.73795 22.4116C1.74151 22.477 1.74419 22.5433 1.75042 22.6097C1.75131 22.6207 1.75309 22.6327 1.75398 22.6438C1.77447 22.8161 1.78783 22.9893 1.81099 23.1606C1.83326 23.3274 1.85553 23.4943 1.88493 23.659C1.92768 23.8895 1.96777 24.1197 2.03636 24.3436C2.05774 24.4138 2.06932 24.4874 2.08891 24.5593C2.12989 24.7158 2.17888 24.8706 2.23234 25.0227C2.30983 25.2411 2.39891 25.4549 2.49511 25.6649C2.64386 25.9874 2.82825 26.2877 3.04471 26.5661C3.24958 26.8304 3.48385 27.0636 3.75198 27.2588C3.76268 27.2672 3.77426 27.2745 3.78584 27.282C3.80542 27.2947 3.82502 27.3077 3.84462 27.3206C3.85532 27.3279 3.8669 27.3354 3.87848 27.3427C3.91587 27.3668 3.95241 27.3915 3.98803 27.4183C3.98803 27.4183 3.98893 27.4183 3.98981 27.4193C4.00051 27.4274 4.01119 27.4358 4.02189 27.4449C4.02189 27.4468 4.02367 27.4486 4.02455 27.4506C4.03079 27.4597 4.04327 27.4606 4.05307 27.4652C4.51625 27.6772 4.97857 27.889 5.44178 28.1011C5.46048 28.1093 5.4783 28.1222 5.50055 28.1168C5.4979 28.112 5.49612 28.1083 5.49343 28.1038C5.47384 28.077 5.44266 28.067 5.41594 28.0495C5.2743 27.9563 5.13981 27.8522 5.01419 27.7388C4.94739 27.679 4.88236 27.6154 4.82002 27.5499C4.58129 27.2995 4.37998 27.0211 4.20894 26.7236C4.14658 26.6149 4.08781 26.5033 4.03257 26.389C3.99961 26.3208 3.96755 26.2518 3.93725 26.1818C3.92389 26.1513 3.91143 26.122 3.89895 26.0915C3.8865 26.0611 3.87401 26.0315 3.86153 26.0013C3.68696 25.5681 3.56047 25.1204 3.46515 24.6633C3.43665 24.5279 3.41171 24.3915 3.38855 24.2543C3.34224 23.9743 3.30747 23.6931 3.28166 23.4104C3.25582 23.1283 3.24068 22.8447 3.23178 22.5608C3.22286 22.2605 3.22464 21.9592 3.23356 21.6588C3.23444 21.6385 3.23444 21.6183 3.23534 21.598C3.24068 21.4414 3.2478 21.2847 3.25582 21.1281C3.26474 20.9724 3.27542 20.8158 3.2879 20.6601C3.29056 20.626 3.29412 20.5919 3.29858 20.544C3.29858 20.5393 3.29948 20.5347 3.29948 20.5301C3.30482 20.4675 3.31016 20.4048 3.31727 20.3422C3.34489 20.0621 3.37963 19.7829 3.41793 19.5046C3.45803 19.2153 3.50345 18.9279 3.55335 18.6413C3.55957 18.6063 3.56671 18.5722 3.57292 18.5372C3.57383 18.5308 3.57561 18.5243 3.57651 18.5169C3.58007 18.4994 3.58272 18.4819 3.58631 18.4644C3.5943 18.4202 3.60232 18.3769 3.61034 18.3336C3.64508 18.1502 3.6816 17.9669 3.7208 17.7845C3.76624 17.5707 3.81522 17.3579 3.86599 17.146C3.92211 16.9101 3.98091 16.6751 4.04327 16.4411C4.04327 16.4374 4.04505 16.4337 4.04593 16.4301C4.08603 16.2808 4.12789 16.1315 4.17064 15.9832C4.27486 15.622 4.38263 15.2618 4.49845 14.9043C4.56169 14.7108 4.62761 14.5182 4.6944 14.3266C4.8209 13.9645 4.95364 13.6051 5.09347 13.2495C5.35626 12.5778 5.64131 11.9153 5.9504 11.263C6.00742 11.1423 6.06531 11.0216 6.12409 10.9018C6.26307 10.6181 6.40736 10.3361 6.55524 10.057C6.59443 9.98233 6.63451 9.90769 6.67371 9.83398C6.67727 9.82846 6.68083 9.82201 6.68351 9.81648C6.68795 9.80819 6.69151 9.79989 6.69063 9.78976C6.69597 9.78055 6.70221 9.77133 6.70667 9.76305C6.74943 9.68473 6.79217 9.60642 6.83582 9.5281C6.92312 9.37237 7.01042 9.21758 7.10037 9.0628C7.16363 8.95408 7.22777 8.84535 7.29189 8.73755C7.36404 8.61594 7.4371 8.49523 7.51192 8.37546C7.60546 8.22435 7.70075 8.07323 7.79697 7.92398C7.8985 7.76644 8.00184 7.61164 8.10696 7.45685C8.16932 7.3638 8.23255 7.27167 8.29579 7.1786C8.29579 7.17676 8.29579 7.17489 8.29579 7.17305C8.29579 7.17214 8.29669 7.1703 8.29757 7.16939C8.29935 7.16662 8.30293 7.16569 8.30649 7.16569C8.32429 7.13989 8.34123 7.11319 8.35993 7.08739C9.06188 6.09046 9.82884 5.15067 10.692 4.29749C11.0029 3.99067 11.3235 3.69767 11.6594 3.42219C11.793 3.31162 11.9293 3.20473 12.0682 3.09971L12.103 3.07392C12.1609 3.0306 12.2196 2.98821 12.2784 2.94585C12.5617 2.74314 12.8521 2.55426 13.1523 2.38473C13.2093 2.35248 13.2672 2.32114 13.3251 2.29076C13.3687 2.26771 13.4115 2.24468 13.4551 2.22257C13.4926 2.20322 13.53 2.18479 13.5674 2.16636C13.7179 2.09358 13.8702 2.0254 14.0261 1.96366C14.5214 1.76649 15.0309 1.63197 15.5627 1.60249C15.9635 1.58038 16.3582 1.61723 16.7448 1.73793C16.7617 1.74346 16.7786 1.75175 16.7964 1.74438L16.7973 1.74346Z" fill="#D9D9D9"/>
<path d="M8.298 7.16823C8.298 7.16823 8.30417 7.16406 8.30831 7.16406C8.30831 7.16823 8.30622 7.17136 8.30417 7.17345C8.30211 7.17553 8.29904 7.17658 8.29492 7.17761C8.29492 7.17553 8.29492 7.17345 8.29492 7.17136C8.29492 7.17031 8.29594 7.16823 8.29698 7.1672L8.298 7.16823Z" fill="#CDCCCB"/>
<path d="M9.77403 3.00924C9.7797 3.00272 9.78628 2.99897 9.79571 2.99805C9.80136 2.99805 9.80889 2.99805 9.81644 2.99991V3.00178C9.81172 3.01391 9.80701 3.02512 9.79948 3.03164C9.79476 3.03539 9.79007 3.03726 9.7844 3.03818C9.78159 3.03818 9.77782 3.03818 9.77499 3.03818H9.77311C9.77311 3.03818 9.76746 3.03631 9.76367 3.03539C9.76555 3.02418 9.76934 3.01485 9.77499 3.00924H9.77403Z" fill="#CDCCCB"/>
<path d="M15.2158 1.007C14.871 0.847602 14.5254 0.692813 14.1825 0.531574C13.7897 0.346379 13.3817 0.232129 12.9497 0.210938C12.841 0.210938 12.7314 0.210938 12.6227 0.211859C12.58 0.211859 12.5372 0.211859 12.4954 0.211859C12.278 0.223837 12.0633 0.257006 11.8505 0.303997C11.2225 0.442202 10.6381 0.696497 10.0778 1.01529C9.51396 1.33593 8.9902 1.71922 8.49226 2.13936C8.42903 2.1928 8.36043 2.24163 8.30521 2.30613C8.30075 2.30797 8.29629 2.31165 8.29363 2.31627V2.32179C8.29363 2.32179 8.29185 2.32179 8.29095 2.32179C8.28917 2.32179 8.28829 2.32179 8.28829 2.32179C8.27403 2.33377 8.25977 2.34483 8.24553 2.35681C7.69413 2.84513 7.18195 3.3749 6.69737 3.93417C6.12193 4.5994 5.59103 5.30149 5.09487 6.03122C4.35554 7.11842 3.70082 8.25908 3.11736 9.44302C2.72364 10.2409 2.36555 11.0563 2.0431 11.8883C1.70728 12.7562 1.39907 13.6352 1.15144 14.5354C1.12383 14.6349 1.08998 14.7335 1.06236 14.833C0.859265 15.5747 0.683783 16.3229 0.545715 17.0802C0.428133 17.7224 0.334603 18.3674 0.273139 19.0179C0.227711 19.4896 0.196533 19.9623 0.198315 20.4368C0.198315 20.6524 0.199205 20.8679 0.200096 21.0836C0.202768 21.113 0.203659 21.1425 0.20455 21.172C0.205441 21.2181 0.20455 21.2632 0.202769 21.3093C0.20455 21.5719 0.225929 21.8326 0.24998 22.0943C0.290064 22.5209 0.352418 22.9428 0.444166 23.3603C0.558186 23.8835 0.71407 24.3912 0.935872 24.8769C1.17371 25.3964 1.47568 25.8692 1.88365 26.2644C2.12149 26.4949 2.38337 26.6892 2.67822 26.8319C2.94011 26.9592 3.20556 27.078 3.47101 27.1987C3.65272 27.2817 3.83266 27.371 4.01793 27.4446C4.00725 27.4364 3.99655 27.4271 3.98587 27.4189C3.98587 27.4189 3.98497 27.4189 3.98409 27.418C3.94845 27.3912 3.91193 27.3664 3.87451 27.3424C3.86293 27.3351 3.85226 27.3276 3.84068 27.3203C3.82108 27.3074 3.80148 27.2953 3.78188 27.2817C3.7703 27.2742 3.75962 27.266 3.74804 27.2585C3.47991 27.0624 3.24654 26.8301 3.04077 26.5658C2.82429 26.2874 2.63992 25.9871 2.49115 25.6646C2.39407 25.4546 2.30499 25.2408 2.22838 25.0224C2.17493 24.8703 2.12594 24.7155 2.08497 24.5589C2.06626 24.488 2.05379 24.4144 2.03241 24.3433C1.96382 24.1194 1.92285 23.8892 1.88098 23.6587C1.85069 23.4939 1.82932 23.3271 1.80705 23.1603C1.78388 22.9889 1.76963 22.8158 1.75004 22.6434C1.74915 22.6324 1.74736 22.6204 1.74647 22.6093C1.74024 22.5439 1.73756 22.4776 1.734 22.4112C1.72509 22.2325 1.70995 22.0538 1.71084 21.8741C1.71084 21.7571 1.69926 21.6392 1.70015 21.5212C1.70193 21.2752 1.70461 21.0292 1.71352 20.7832C1.72153 20.5685 1.734 20.3538 1.75004 20.1392C1.75271 20.1032 1.75538 20.0673 1.75805 20.0314C1.7919 19.6407 1.83466 19.251 1.88632 18.8622C1.94155 18.4531 2.00925 18.0458 2.08586 17.6413C2.10812 17.5225 2.13129 17.4036 2.15444 17.2848C2.24351 16.837 2.34953 16.3938 2.46443 15.9525C2.52323 15.7249 2.58468 15.4973 2.64882 15.2716C2.71564 15.0357 2.78512 14.8017 2.85905 14.5686C2.93921 14.3152 3.02295 14.0627 3.10578 13.8112C3.12092 13.7633 3.14854 13.72 3.1628 13.673C3.2501 13.38 3.35878 13.0953 3.46743 12.8106C3.62778 12.3914 3.7899 11.9731 3.97251 11.5631C4.14087 11.1853 4.30298 10.8039 4.48737 10.4335C4.56041 10.2861 4.63257 10.1377 4.70294 9.98938C4.72788 9.93686 4.7635 9.89079 4.78666 9.83736C4.86238 9.67058 4.94611 9.50842 5.03341 9.34813C5.07527 9.27165 5.10823 9.18874 5.16347 9.12056C5.25164 8.94549 5.34518 8.7732 5.44584 8.60551C5.50463 8.50876 5.55629 8.40649 5.61419 8.30883C5.77096 8.04531 5.9233 7.77997 6.08987 7.52199C6.27424 7.23545 6.4524 6.9452 6.64659 6.66604C6.84347 6.38317 7.04032 6.0994 7.24787 5.8239C7.31557 5.73361 7.39216 5.65161 7.4572 5.55856C7.53826 5.44154 7.62378 5.3282 7.71463 5.21856C7.83667 5.07022 7.95692 4.92004 8.08074 4.77447C8.12616 4.72104 8.17784 4.67311 8.22415 4.61876C8.30431 4.52476 8.37915 4.4262 8.46288 4.33497C8.73545 4.03829 9.0107 3.74438 9.30195 3.46704C9.36075 3.41083 9.41421 3.34727 9.47832 3.29936C9.54514 3.24961 9.58968 3.17681 9.6654 3.13629C9.66986 3.13352 9.6752 3.13074 9.67876 3.12706C9.70726 3.10404 9.7242 3.0644 9.75535 3.04138C9.75803 3.03954 9.76071 3.0377 9.76249 3.03586C9.76427 3.02479 9.76783 3.01558 9.77317 3.01006C9.77851 3.00361 9.78475 2.99992 9.79367 2.99899C9.79901 2.99899 9.80613 2.99899 9.81327 3.00083C9.82305 2.99254 9.83285 2.98333 9.84265 2.97504C9.85601 2.96583 9.86671 2.95845 9.87829 2.95015C9.93709 2.90592 9.98962 2.85527 10.044 2.80367C10.1277 2.72442 10.2203 2.65533 10.3094 2.58345C10.6684 2.29506 11.047 2.03617 11.4371 1.79569C11.4817 1.76897 11.528 1.74686 11.5734 1.72198C11.7097 1.64643 11.8433 1.56627 11.9814 1.49624C12.3404 1.31289 12.7136 1.16639 13.1002 1.05859C13.2997 1.00331 13.5011 0.960008 13.7059 0.930524C13.9545 0.895513 14.2056 0.880772 14.456 0.896436C14.7294 0.91394 14.9993 0.958165 15.2603 1.04662C15.2737 1.05122 15.2853 1.05214 15.2968 1.04477C15.2746 1.0199 15.2407 1.0199 15.2131 1.007H15.2158Z" fill="#D6C8C7"/>
<path d="M9.78707 2.90905C9.78707 2.90905 9.78012 2.90367 9.77734 2.90234C9.78152 2.90503 9.7843 2.90636 9.78707 2.90905Z" fill="#D6C8C7"/>
<path d="M12.9501 0.210342H12.623C12.5802 0.212229 12.5374 0.212229 12.4955 0.212229C12.4937 0.206568 12.491 0.200907 12.4893 0.195246C12.6444 0.195246 12.8003 0.195246 12.9555 0.193359C12.9537 0.19902 12.9519 0.204681 12.9501 0.210342Z" fill="#FEC35E"/>
<path d="M8.29235 2.32472H8.28809V2.31641H8.29801V2.32613C8.29801 2.32613 8.29518 2.32613 8.29375 2.32613L8.29235 2.32472Z" fill="#CDCCCB"/>
<path opacity="0.48" d="M27.1903 23.1907C27.2347 23.1548 27.2347 23.1509 27.1903 23.115C27.0868 23.0293 26.9765 22.9548 26.8634 22.8838C26.4857 22.647 26.0823 22.4664 25.6687 22.3098C25.5745 22.2739 25.4826 22.2306 25.382 22.2121C25.3543 22.1799 25.3134 22.1771 25.2778 22.1651C24.892 22.0325 24.4994 21.9237 24.1056 21.8196C24.0727 21.8169 24.0406 21.8095 24.012 21.7929C23.8277 21.7514 23.6433 21.7091 23.4598 21.6676C23.1186 21.5911 22.7756 21.5248 22.4317 21.4649C22.1771 21.4207 21.9214 21.3792 21.6657 21.3396C21.4662 21.3092 21.2667 21.2779 21.0653 21.2631C21.0324 21.2576 20.9994 21.2511 20.9656 21.2465C20.261 21.1572 19.5555 21.0899 18.8473 21.0392C18.385 21.007 17.9227 20.9812 17.4595 20.9628C16.8547 20.9388 16.249 20.9277 15.6432 20.9277C14.8923 20.9277 14.1423 20.9471 13.3931 20.9849C12.5273 21.0282 11.6633 21.0963 10.8019 21.1959C10.6612 21.2124 10.5186 21.2217 10.3797 21.253C10.3512 21.2447 10.3236 21.253 10.2951 21.2558C9.6813 21.3341 9.07025 21.4308 8.46275 21.5497C8.10379 21.6197 7.74658 21.6971 7.39205 21.7846L7.38493 21.7966C7.38493 21.7966 7.29318 23.162 7.49627 24.4952C7.84636 24.5809 8.1982 24.6575 8.55095 24.7257C8.86628 24.7863 9.18248 24.8445 9.50049 24.8916C9.94588 24.9577 10.3921 25.025 10.8402 25.0729C11.2758 25.12 11.7105 25.1688 12.147 25.202C12.4053 25.2213 12.6627 25.2443 12.921 25.26C13.3032 25.2829 13.6862 25.3025 14.0684 25.3161C14.4175 25.3291 14.7667 25.3393 15.1159 25.3438C15.6744 25.3511 16.2338 25.3484 16.7923 25.3366C17.3303 25.3245 17.8684 25.3034 18.4055 25.272C19.046 25.2352 19.6856 25.1827 20.3242 25.1145C21.2978 25.0102 22.2661 24.8702 23.2254 24.6723C24.0636 24.4991 24.892 24.287 25.6955 23.9811C26.0456 23.8484 26.3886 23.6963 26.7146 23.5084C26.8803 23.4136 27.0407 23.3104 27.1903 23.1898V23.1907Z" fill="url(#paint0_linear_25090_35)"/>
</g>
<path d="M40.1918 10.8887L44.436 22.1032L48.6537 10.8887H51.2638L45.5577 25.7486H43.1509L37.4141 10.8887H40.1918Z" fill="#F3F4F6"/>
<path d="M56.74 22.8746C57.5438 23.4092 58.5198 23.7335 59.5488 23.7335C62.4458 23.7335 64.7114 21.3307 64.7114 18.3066H67.1759C67.1759 22.6371 63.793 26.0494 59.4914 26.0494C55.2472 26.0494 51.9482 22.6691 51.9482 18.398C51.9482 14.0355 55.3311 10.5957 59.6327 10.5957C61.757 10.5957 64.1639 11.4271 65.7406 13.5924L56.74 22.8746ZM55.1898 21.2119L62.3575 13.766C61.5274 13.2041 60.5777 12.9072 59.5488 12.9072C56.6827 12.9072 54.4171 15.31 54.4171 18.3066C54.4171 19.3755 54.704 20.3805 55.1898 21.2119Z" fill="#F3F4F6"/>
<path d="M69.9316 4.0957H72.6255V25.7529H69.9316V4.0957Z" fill="#F3F4F6"/>
<path d="M75.668 18.3066C75.668 13.9167 78.9362 10.5957 83.2687 10.5957C87.6276 10.5957 90.8956 13.9167 90.8956 18.3066C90.8956 22.7285 87.6276 26.0494 83.2687 26.0494C78.9362 26.0494 75.668 22.7239 75.668 18.3066ZM83.2687 23.5553C86.1348 23.5553 88.2857 21.2987 88.2857 18.3066C88.2857 15.3419 86.1348 13.0579 83.2687 13.0579C80.429 13.0579 78.2781 15.3419 78.2781 18.3066C78.2781 21.3032 80.429 23.5553 83.2687 23.5553Z" fill="#F3F4F6"/>
<path d="M100.763 25.7522C96.1164 25.7522 93.0205 22.7876 93.0205 18.3063C93.0205 13.857 96.1164 10.8923 100.763 10.8923H103.169V4.09961H105.863V25.7567H100.763V25.7522ZM100.763 23.2581H103.169V13.3499H100.763C97.7239 13.3499 95.7146 15.337 95.7146 18.3017C95.7146 21.3029 97.7196 23.2581 100.763 23.2581Z" fill="#F3F4F6"/>
<path d="M109.825 10.8887H112.519V15.1918L116.966 10.5918L118.658 12.3414L112.519 18.659V25.7485H109.825V10.8887Z" fill="#F3F4F6"/>
<path d="M118.83 18.3066C118.83 13.9167 122.098 10.5957 126.431 10.5957C130.79 10.5957 134.058 13.9167 134.058 18.3066C134.058 22.7285 130.79 26.0494 126.431 26.0494C122.098 26.0494 118.83 22.7239 118.83 18.3066ZM126.431 23.5553C129.297 23.5553 131.448 21.2987 131.448 18.3066C131.448 15.3419 129.297 13.0579 126.431 13.0579C123.591 13.0579 121.44 15.3419 121.44 18.3066C121.44 21.3032 123.591 23.5553 126.431 23.5553Z" fill="#F3F4F6"/>
<path d="M137.096 10.8887H139.732V12.6703C142.055 10.8613 143.058 10.5918 144.378 10.5918C146.101 10.5918 147.589 11.51 148.309 12.9946C150.945 10.8887 152.01 10.5918 153.383 10.5918C155.848 10.5918 157.8 12.4327 157.8 15.2192V25.7485H155.106V15.5162C155.106 14.1503 154.16 13.1408 152.955 13.1408C152.036 13.1408 151.347 13.3463 148.795 15.5436V25.7485H146.101V15.5162C146.101 14.1503 145.155 13.1408 143.95 13.1408C143.031 13.1408 142.342 13.3463 139.79 15.5436V25.7485H137.096V10.8887Z" fill="#F3F4F6"/>
<path d="M165.489 22.8746C166.293 23.4092 167.269 23.7335 168.298 23.7335C171.195 23.7335 173.46 21.3307 173.46 18.3066H175.925C175.925 22.6371 172.542 26.0494 168.24 26.0494C163.996 26.0494 160.697 22.6691 160.697 18.398C160.697 14.0355 164.08 10.5957 168.382 10.5957C170.506 10.5957 172.913 11.4271 174.489 13.5924L165.489 22.8746ZM163.943 21.2119L171.111 13.766C170.281 13.2041 169.331 12.9072 168.302 12.9072C165.436 12.9072 163.17 15.31 163.17 18.3066C163.166 19.3755 163.453 20.3805 163.943 21.2119Z" fill="#F3F4F6"/>
</g>
<defs>
<linearGradient id="paint0_linear_25090_35" x1="17.3377" y1="21.4353" x2="17.2054" y2="24.7401" gradientUnits="userSpaceOnUse">
<stop offset="0.16" stop-color="#191919"/>
<stop offset="0.97" stop-color="#191919" stop-opacity="0"/>
</linearGradient>
<clipPath id="clip0_25090_35">
<rect width="176" height="30" fill="white"/>
</clipPath>
</defs>
</svg>
