<svg width="239" height="44" viewBox="0 0 239 44" fill="none" xmlns="http://www.w3.org/2000/svg">
<g clip-path="url(#clip0_25090_614)">
<path d="M30.736 31.4974V37.1808H7.02448C7.35148 33.4403 8.57198 30.8082 12.7935 27.1077L30.736 11.9732V25.2543H37.1955V0.819961H0.465984V13.0001H6.92248V7.20589H26.434L8.57898 22.2707L8.53648 22.3103C1.05348 28.8613 0.458984 34.1477 0.458984 40.3774V43.5692H37.1925V31.4998H30.734L30.736 31.4974ZM76.7235 23.4636C76.7025 23.4636 76.6835 23.4824 76.6835 23.5057C76.8135 26.0745 77.897 30.2223 83.4695 30.2223C87.769 30.2223 88.6505 27.5695 88.9965 26.8195C89.004 26.8057 89.0155 26.7963 89.0325 26.7963H93.192C93.218 26.7963 93.2345 26.8195 93.23 26.8427C92.9765 28.2374 90.8005 33.6959 83.4695 33.6959C76.1385 33.6959 72.5425 28.2493 72.5425 22.3691C72.5425 15.1743 77.124 10.9934 83.3245 10.9934C89.1055 10.9934 93.434 15.3147 93.434 20.7495C93.434 21.0659 93.4265 21.448 93.41 21.891C93.3933 22.3274 93.3388 22.8399 93.2465 23.4285C93.2449 23.4375 93.2402 23.4456 93.2333 23.4515C93.2264 23.4574 93.2176 23.4609 93.2085 23.4612H76.7235V23.4636ZM83.23 14.1826C77.9915 14.1826 76.733 18.0427 76.733 20.2808C76.733 20.3021 76.7495 20.3228 76.7735 20.3228H89.352C89.3735 20.3228 89.39 20.304 89.3925 20.2833C89.5395 17.8084 87.847 14.1826 83.23 14.1826ZM108.864 33.1402C108.864 33.1493 108.86 33.158 108.854 33.1649C108.848 33.1717 108.84 33.1763 108.83 33.1778C108.418 33.2386 107.875 33.3018 107.202 33.3632C106.512 33.4268 105.814 33.4587 105.109 33.4591C101.523 33.4591 98.226 32.1865 98.226 25.8916V15.0779C98.226 15.0674 98.2218 15.0574 98.2143 15.05C98.2068 15.0426 98.1966 15.0384 98.186 15.0384H94.2205C94.2152 15.0385 94.2099 15.0375 94.205 15.0355C94.2001 15.0336 94.1956 15.0307 94.1919 15.027C94.1881 15.0233 94.1851 15.0189 94.1831 15.0141C94.181 15.0093 94.18 15.0041 94.18 14.9988V11.6024C94.18 11.5972 94.181 11.592 94.1831 11.5872C94.1851 11.5824 94.1881 11.578 94.1919 11.5743C94.1956 11.5706 94.2001 11.5677 94.205 11.5657C94.2099 11.5638 94.2152 11.5628 94.2205 11.5629H98.186C98.1966 11.5629 98.2068 11.5587 98.2143 11.5513C98.2218 11.5439 98.226 11.5338 98.226 11.5233V4.31821C98.226 4.31297 98.227 4.30779 98.2291 4.30296C98.2311 4.29813 98.2341 4.29374 98.2379 4.29007C98.2416 4.28639 98.2461 4.28348 98.251 4.28152C98.2559 4.27957 98.2612 4.27859 98.2665 4.27866H102.376C102.382 4.27859 102.387 4.27957 102.392 4.28152C102.397 4.28348 102.401 4.28639 102.405 4.29007C102.409 4.29374 102.412 4.29813 102.414 4.30296C102.416 4.30779 102.417 4.31297 102.417 4.31821V11.5223C102.417 11.5436 102.433 11.5619 102.457 11.5619H108.058C108.063 11.5619 108.069 11.5629 108.073 11.565C108.078 11.567 108.083 11.5699 108.086 11.5737C108.09 11.5774 108.093 11.5818 108.095 11.5867C108.097 11.5915 108.098 11.5967 108.098 11.6019V14.9983C108.098 15.0035 108.097 15.0087 108.095 15.0135C108.093 15.0183 108.09 15.0226 108.086 15.0263C108.083 15.03 108.078 15.0329 108.073 15.0349C108.068 15.0369 108.063 15.0379 108.058 15.0379H102.457C102.452 15.0379 102.447 15.0389 102.442 15.0409C102.437 15.0429 102.432 15.0458 102.429 15.0495C102.425 15.0532 102.422 15.0575 102.42 15.0623C102.418 15.0671 102.417 15.0722 102.417 15.0774V24.9537C102.417 29.4931 104.294 29.6503 106.026 29.6503H107.543C108.078 29.6503 108.503 29.6073 108.819 29.5213C108.842 29.5144 108.866 29.5332 108.866 29.5589V33.1397L108.864 33.1402ZM132.367 11.6049V33.1352C132.368 33.1405 132.367 33.1458 132.365 33.1506C132.363 33.1555 132.36 33.16 132.356 33.1637C132.352 33.1674 132.348 33.1704 132.343 33.1724C132.338 33.1744 132.332 33.1754 132.327 33.1753H128.267C128.262 33.1754 128.256 33.1744 128.252 33.1724C128.247 33.1705 128.242 33.1676 128.238 33.1639C128.235 33.1602 128.232 33.1558 128.23 33.151C128.228 33.1462 128.226 33.141 128.226 33.1357V29.5633C128.226 29.5238 128.172 29.5094 128.155 29.547C127.42 30.9837 124.96 33.6974 120.573 33.6974C114.73 33.6974 109.357 29.1624 109.357 22.3711C109.357 16.8562 113.327 10.9953 120.573 10.9953C124.676 10.9953 127.316 13.4934 128.155 15.1457C128.174 15.1803 128.226 15.1689 128.226 15.1289V11.6039C128.226 11.5987 128.228 11.5935 128.23 11.5887C128.232 11.5838 128.235 11.5795 128.238 11.5758C128.242 11.5721 128.247 11.5692 128.252 11.5672C128.256 11.5653 128.262 11.5643 128.267 11.5644H132.327C132.332 11.5643 132.338 11.5653 132.342 11.5672C132.347 11.5692 132.352 11.5721 132.356 11.5758C132.359 11.5795 132.362 11.5838 132.364 11.5887C132.366 11.5935 132.367 11.5987 132.367 11.6039M120.815 29.985C125.967 29.985 128.229 25.8693 128.229 22.3701C128.229 18.3161 125.335 14.7072 120.815 14.7072C115.7 14.7072 113.498 19.0211 113.498 22.3701C113.498 25.7195 115.579 29.985 120.815 29.985ZM152.716 19.4186C152.697 19.4186 152.682 19.4043 152.678 19.3855C152.32 17.6023 151.642 14.7076 146.617 14.7076C142.592 14.7076 139.829 17.6912 139.829 22.3711C139.829 25.8045 141.502 29.9855 146.856 29.9855C150.86 29.9855 152.033 28.0871 152.72 25.7788C152.723 25.7707 152.728 25.7636 152.735 25.7586C152.742 25.7535 152.75 25.7507 152.758 25.7507H156.871C156.894 25.7507 156.913 25.7719 156.911 25.7952C156.378 29.4397 153.609 33.6978 146.567 33.6978C139.968 33.6978 135.64 28.8282 135.64 22.3716C135.64 16.6575 139.293 10.9958 146.52 10.9958C154.225 10.9958 156.629 16.1982 156.866 19.3761C156.866 19.3998 156.849 19.4181 156.826 19.4181L152.716 19.4186ZM160.39 0.571287H164.5C164.506 0.571221 164.511 0.572196 164.516 0.574154C164.521 0.576112 164.525 0.579015 164.529 0.582694C164.533 0.586374 164.536 0.590756 164.538 0.595587C164.54 0.600418 164.541 0.605601 164.541 0.610837V15.2119C164.541 15.2515 164.595 15.2633 164.614 15.2282C165.257 13.9651 167.248 10.9958 172.244 10.9958C179.158 10.9958 180.587 16.1725 180.476 20.4192V33.1357C180.476 33.1462 180.472 33.1563 180.464 33.1637C180.457 33.1711 180.447 33.1753 180.436 33.1753H176.326C176.321 33.1754 176.315 33.1744 176.311 33.1724C176.306 33.1705 176.301 33.1676 176.297 33.1639C176.294 33.1602 176.291 33.1558 176.289 33.151C176.287 33.1462 176.285 33.141 176.285 33.1357V21.7036C176.285 17.9889 175.017 14.6587 170.748 14.6587C167.525 14.6587 164.538 17.0303 164.538 22.0364V33.1352C164.539 33.1405 164.538 33.1457 164.536 33.1505C164.534 33.1554 164.531 33.1598 164.527 33.1635C164.523 33.1673 164.519 33.1702 164.514 33.1722C164.509 33.1742 164.504 33.1753 164.498 33.1753H160.388C160.383 33.1754 160.378 33.1744 160.373 33.1724C160.368 33.1705 160.364 33.1676 160.36 33.1639C160.356 33.1602 160.353 33.1558 160.351 33.151C160.349 33.1462 160.348 33.141 160.348 33.1357V0.60886C160.348 0.603624 160.349 0.59844 160.351 0.593609C160.353 0.588778 160.356 0.584396 160.36 0.580717C160.364 0.577038 160.368 0.574135 160.373 0.572177C160.378 0.570218 160.383 0.569244 160.388 0.569309L160.39 0.571287ZM206.349 11.6049V33.1352C206.35 33.1405 206.349 33.1457 206.347 33.1505C206.345 33.1554 206.342 33.1598 206.338 33.1635C206.334 33.1673 206.33 33.1702 206.325 33.1722C206.32 33.1742 206.315 33.1753 206.309 33.1753H202.249C202.238 33.1753 202.228 33.1711 202.221 33.1637C202.213 33.1563 202.209 33.1462 202.209 33.1357V29.5633C202.209 29.5238 202.156 29.5119 202.137 29.547C201.434 30.8176 199.115 33.6974 194.555 33.6974C188.132 33.6974 183.339 28.6942 183.339 22.3711C183.339 17.1445 187.127 10.9953 194.555 10.9953C199.061 10.9953 201.431 13.8776 202.137 15.1457C202.156 15.1803 202.209 15.1689 202.209 15.1289V11.6039C202.209 11.5934 202.213 11.5834 202.221 11.5759C202.228 11.5685 202.238 11.5644 202.249 11.5644H206.309C206.32 11.5644 206.33 11.5685 206.338 11.5759C206.345 11.5834 206.349 11.5934 206.349 11.6039M194.797 29.985C199.708 29.985 202.211 26.031 202.211 22.3701C202.211 18.2969 199.288 14.7072 194.797 14.7072C189.506 14.7072 187.38 19.3098 187.48 22.3701C187.646 27.5448 191.241 29.985 194.797 29.985ZM209.156 3.22414C209.156 2.43412 209.403 1.74281 209.898 1.15021C210.22 0.764652 210.629 0.459966 211.093 0.261116C211.557 0.0622661 212.062 -0.0250892 212.566 0.00620801C213.353 0.06059 214.038 0.374523 214.621 0.95295C215.205 1.53138 215.525 2.2095 215.579 2.98733C215.611 3.48601 215.522 3.98494 215.322 4.44352C215.121 4.90209 214.814 5.30736 214.425 5.62634C213.825 6.11578 213.123 6.36248 212.325 6.36248C211.436 6.36281 210.685 6.05959 210.073 5.45281C209.46 4.84769 209.153 4.10562 209.153 3.22661L209.156 3.22414ZM214.425 11.5649H210.317C210.312 11.5648 210.307 11.5658 210.302 11.5677C210.297 11.5697 210.293 11.5726 210.289 11.5763C210.285 11.5799 210.282 11.5843 210.28 11.5892C210.278 11.594 210.277 11.5992 210.277 11.6044V33.1333C210.277 33.155 210.295 33.1728 210.317 33.1728H214.425C214.436 33.1728 214.446 33.1686 214.453 33.1612C214.461 33.1538 214.465 33.1438 214.465 33.1333V11.6049C214.465 11.5944 214.461 11.5844 214.453 11.5769C214.446 11.5695 214.436 11.5654 214.425 11.5654M238.542 33.1728H234.522C234.511 33.1728 234.501 33.1686 234.494 33.1612C234.486 33.1538 234.482 33.1438 234.482 33.1333V19.5402C234.543 16.0316 233.666 15.5372 230.469 15.5797H222.479C222.468 15.5797 222.458 15.5839 222.451 15.5913C222.443 15.5987 222.439 15.6088 222.439 15.6193V33.1333C222.439 33.1385 222.438 33.1437 222.436 33.1485C222.434 33.1533 222.431 33.1577 222.427 33.1614C222.423 33.1651 222.419 33.168 222.414 33.1699C222.409 33.1719 222.404 33.1729 222.398 33.1728H218.419C218.414 33.1729 218.408 33.1719 218.404 33.1699C218.399 33.168 218.394 33.1651 218.39 33.1614C218.387 33.1577 218.384 33.1533 218.382 33.1485C218.38 33.1437 218.378 33.1385 218.378 33.1333V11.6024C218.378 11.5972 218.38 11.592 218.382 11.5872C218.384 11.5824 218.387 11.578 218.39 11.5743C218.394 11.5706 218.399 11.5677 218.404 11.5657C218.408 11.5638 218.414 11.5628 218.419 11.5629H230.467C235.432 11.6143 238.535 15.6875 238.535 19.5402V33.1703H238.537L238.542 33.1728ZM57.9135 22.2193C54.2135 25.5257 53.9195 28.1904 53.9195 31.3288V33.1728H70.881V29.4818H57.6785C57.873 27.8602 58.487 26.6509 60.3355 24.9938L70.881 16.2076V11.5461H53.9055V15.2376H66.3205L57.961 22.1748L57.9135 22.2168V22.2193Z" fill="white"/>
</g>
<defs>
<clipPath id="clip0_25090_614">
<rect width="239" height="44" fill="white"/>
</clipPath>
</defs>
</svg>
