<svg width="214" height="93" viewBox="0 0 214 93" fill="none" xmlns="http://www.w3.org/2000/svg">
<g clip-path="url(#clip0_1916_973)">
<path fill-rule="evenodd" clip-rule="evenodd" d="M45.494 0.00976562C70.6195 0.00976562 90.9879 20.6618 90.9879 46.1375C90.9879 71.6132 70.6195 92.2652 45.494 92.2652C20.3683 92.2652 0 71.6132 0 46.1375C0 20.6618 20.3683 0.00976562 45.494 0.00976562ZM55.5909 37.3074L61.7711 48.1614L61.8653 48.327L64.7618 46.6315L53.8727 27.5078L50.7271 46.1179C50.6413 46.6166 50.5995 47.1217 50.6016 47.6288C50.6037 48.1275 50.6476 48.6346 50.7376 49.1376C50.8255 49.6339 50.9532 50.1243 51.1248 50.6017C51.2922 51.0686 51.5015 51.5248 51.7526 51.9662C52.3365 52.9911 53.0941 53.8527 53.969 54.5317C54.8752 55.2383 55.9069 55.7476 56.9931 56.0426C58.0793 56.3375 59.2241 56.4182 60.3584 56.2675C61.4509 56.1211 62.5329 55.7603 63.5437 55.1683L65.2138 54.1901L68.1899 59.4166H57.2254V62.799C58.1189 62.799 59.7092 62.7994 61.5252 62.8001C66.0558 62.8016 71.9892 62.8035 71.9968 62.799C72.2081 62.799 72.4007 62.7439 72.5639 62.6484C72.7397 62.5444 72.882 62.398 72.9804 62.224C73.0788 62.05 73.1332 61.8505 73.1332 61.6468C73.1332 61.4537 73.0851 61.2585 72.9804 61.0738L66.4277 49.5662L61.882 52.2272L61.8716 52.2334C60.6054 52.9741 59.1655 53.1248 57.8575 52.7704C57.1899 52.5879 56.5578 52.276 56.0032 51.845C55.4695 51.4291 55.0028 50.9009 54.6449 50.2705C54.4859 49.9906 54.354 49.7063 54.2494 49.4198C54.1427 49.1227 54.0631 48.8277 54.0108 48.5328C53.9564 48.2293 53.9292 47.9217 53.9292 47.6118C53.9271 47.2997 53.9543 46.9901 54.0045 46.6866L55.5909 37.3074ZM39.183 30.6698L39.0909 30.8331L32.9128 41.6851L41.7174 38.3873C42.002 38.2812 42.2783 38.1477 42.5462 37.9907C42.8099 37.8336 43.0589 37.6575 43.2912 37.458C43.5173 37.2647 43.7307 37.0464 43.9296 36.8045C44.1221 36.5708 44.3 36.3122 44.459 36.0321C44.819 35.4018 45.0367 34.7291 45.1246 34.0522C45.2167 33.3498 45.1664 32.639 44.9885 31.9621C44.6369 30.6358 43.7872 29.4454 42.5232 28.7048L42.5127 28.6984L37.967 26.0374L44.5197 14.5297C44.6265 14.3472 44.7688 14.205 44.9341 14.1096C45.1078 14.0056 45.3067 13.9547 45.5034 13.9547C45.7001 13.9525 45.8968 14.0056 46.0726 14.1074C46.2359 14.203 46.3782 14.3429 46.4849 14.5297C46.4906 14.5341 49.188 19.2741 51.4023 23.1649C52.4403 24.9889 53.3723 26.6265 53.8706 27.5016L50.9825 29.1926L45.4992 19.5653L42.5232 24.7918L44.1933 25.77C45.2041 26.3621 46.0538 27.1303 46.7235 28.0172C47.4204 28.9382 47.9227 29.9843 48.2136 31.0857C48.5045 32.187 48.5841 33.3475 48.4355 34.4976C48.2911 35.6055 47.9353 36.7026 47.3514 37.7275C47.1002 38.1666 46.8156 38.5785 46.4996 38.9604C46.1794 39.3488 45.8236 39.7074 45.4427 40.0342C45.0555 40.3652 44.6474 40.6557 44.2205 40.9084C43.7893 41.1631 43.3352 41.3795 42.8664 41.5556L25.3974 48.0978L36.2865 28.9743L39.183 30.6698ZM35.4451 59.4123H35.6314V59.4144H47.9876L40.7693 53.3328C40.5349 53.1352 40.2838 52.9572 40.0159 52.8023C39.7522 52.6493 39.476 52.5179 39.1892 52.4139C38.9109 52.3121 38.6179 52.2334 38.3123 52.1803C38.0152 52.1296 37.7075 52.102 37.3873 52.102C36.6695 52.102 35.9851 52.2463 35.3635 52.5073C34.7189 52.7789 34.135 53.1779 33.6474 53.6723C32.6909 54.642 32.0987 55.9829 32.0987 57.4643V57.4768V62.799H18.9932C18.7818 62.799 18.5914 62.7417 18.4261 62.6462C18.2503 62.5444 18.1079 62.398 18.0096 62.224C17.9112 62.0521 17.8568 61.8526 17.8568 61.6468C17.8568 61.4556 17.9049 61.2606 18.0117 61.0738C18.0117 61.0643 21.2027 55.4641 23.4939 51.4427C24.2982 50.0313 24.9918 48.8144 25.3974 48.102L28.2855 49.793L22.8022 59.4208H28.7543V57.4643C28.7543 56.2802 28.9887 55.1492 29.4094 54.1179C29.8489 53.0442 30.4893 52.0808 31.2846 51.2742C32.0798 50.4681 33.0321 49.8166 34.089 49.3731C35.1061 48.9442 36.2216 48.7089 37.3894 48.7089C37.8917 48.7089 38.3856 48.7535 38.869 48.8405C39.363 48.9296 39.8464 49.0612 40.3152 49.2331C40.7903 49.4071 41.2423 49.6212 41.6714 49.8697C42.1046 50.1222 42.5148 50.4108 42.8999 50.7352L57.2233 62.8033H35.4451V59.4123Z" fill="white"/>
<path fill-rule="evenodd" clip-rule="evenodd" d="M138.181 23.2837H113.005L108.561 48.5504H116.803C118.605 46.004 120.409 44.894 123.693 44.894C128.586 44.894 131.484 48.6797 131.484 53.4457C131.484 58.0165 128.458 62.2584 123.693 62.2584C119.637 62.2584 116.738 59.5167 116.288 55.4022H107.145C107.337 65 115.129 69.8957 123.885 69.8957C132.899 70.0909 140.626 62.8443 140.626 53.4438C140.626 44.8921 135.603 37.9065 126.717 37.9065C123.111 37.9065 120.407 38.8866 117.896 41.4309L117.766 41.2993L119.568 30.9185H138.175V23.2837H138.181ZM152.875 22.3691H143.732V30.0084H152.875V22.3691ZM143.732 68.9851H152.875V35.2306H143.732V68.9851ZM158.296 68.9851H167.44V53.7725C167.44 47.7672 169.694 42.9354 176.453 42.9354C177.548 42.9354 178.9 43.0648 179.737 43.2622V34.6447C179.093 34.4495 178.45 34.3181 177.741 34.3181C173.17 34.3181 168.854 37.2569 167.117 41.4988H166.987V35.2306H158.296V68.9851ZM189.088 48.4846C189.281 45.8725 190.762 41.3036 196.685 41.3036C201.128 41.3036 203.125 43.7844 203.962 48.4846H189.088ZM213.105 54.3605C213.812 43.9796 208.275 34.3181 196.945 34.3181C186.836 34.3181 179.946 42.0208 179.946 52.1407C179.946 62.5873 186.449 69.8976 196.945 69.8976C204.479 69.8976 209.951 66.5682 212.525 58.5385H204.477C203.897 60.6265 200.936 62.9122 197.265 62.9122C192.114 62.9122 189.345 60.3 189.088 54.3605H213.105Z" fill="white"/>
</g>
<defs>
<clipPath id="clip0_1916_973">
<rect width="213.261" height="92.3072" fill="white"/>
</clipPath>
</defs>
</svg>
