<svg xmlns="http://www.w3.org/2000/svg" viewBox="0.453 0.467 111.09 39.066"><g xmlns="http://www.w3.org/2000/svg" clip-path="url(#clip0_122_19)"><path fill="#fff" d="m29.511 30.327-.272.194-11.725 8.548-.662.464v-7.775l.156-.116 4.518-3.287-6.544-13.46-6.544 13.46 4.519 3.287.156.116v7.736l-.663-.464L.726 30.482l-.273-.194.156-.309L14.593 1.24l.35-.773.39.773 14.023 28.778zm13.634-.038h-3.817l6.934-19.533h4.401l6.934 19.533h-3.818l-5.258-15.51h-.156zm.117-7.659h10.362v2.824H43.262zm22.823 7.93a7.44 7.44 0 0 1-3.818-.929 5.97 5.97 0 0 1-2.454-2.63 8.6 8.6 0 0 1-.857-3.984 8.4 8.4 0 0 1 .857-3.945 6.3 6.3 0 0 1 2.454-2.669 6.7 6.7 0 0 1 3.662-.967 8.1 8.1 0 0 1 2.57.426 5.85 5.85 0 0 1 2.143 1.315 6.1 6.1 0 0 1 1.48 2.32 9.5 9.5 0 0 1 .546 3.327v1.044H60.592v-2.32h8.765a3.9 3.9 0 0 0-.429-1.78 3.2 3.2 0 0 0-1.215-1.266 3.2 3.2 0 0 0-1.706-.436 3.47 3.47 0 0 0-1.817.472c-.55.32-1 .787-1.3 1.346a4.06 4.06 0 0 0-.467 1.818v2.011a4.85 4.85 0 0 0 .468 2.205c.28.593.744 1.081 1.324 1.393a3.97 3.97 0 0 0 1.987.464c.461 0 .92-.064 1.363-.194a2.44 2.44 0 0 0 1.052-.657c.32-.275.55-.639.662-1.044l3.233.348a5 5 0 0 1-1.169 2.243 5.84 5.84 0 0 1-2.181 1.47 6.54 6.54 0 0 1-3.077.619m15.932 5.53a9 9 0 0 1-3.233-.502 6.1 6.1 0 0 1-2.143-1.315 4.2 4.2 0 0 1-1.13-1.857l3.117-.735q.254.467.623.85c.314.302.684.54 1.09.697a4.6 4.6 0 0 0 1.754.27 4.17 4.17 0 0 0 2.454-.695c.662-.464.973-1.238.973-2.321v-2.785h-.155c-.207.396-.47.76-.78 1.083-.374.412-.84.73-1.363.928a4.75 4.75 0 0 1-2.103.387 6.4 6.4 0 0 1-3.077-.773 5.7 5.7 0 0 1-2.182-2.399 8.64 8.64 0 0 1-.818-3.983 9 9 0 0 1 .818-4.062 5.83 5.83 0 0 1 2.182-2.514 5.67 5.67 0 0 1 3.077-.851 5 5 0 0 1 2.142.425c.519.24.973.598 1.325 1.045.305.333.554.711.74 1.122h.194v-2.437h3.428v14.891a5.2 5.2 0 0 1-.896 3.095A5.67 5.67 0 0 1 85.6 35.51c-1.156.38-2.365.576-3.583.58m0-8.741a3.23 3.23 0 0 0 1.87-.542c.54-.384.947-.924 1.168-1.547a6.3 6.3 0 0 0 .39-2.398 6.7 6.7 0 0 0-.39-2.437 3.67 3.67 0 0 0-1.169-1.624 3.4 3.4 0 0 0-3.856.039 3.8 3.8 0 0 0-1.168 1.663 6.4 6.4 0 0 0-.39 2.36c-.02.803.112 1.603.39 2.358a3.43 3.43 0 0 0 1.168 1.548 3.24 3.24 0 0 0 1.987.58m10.475 2.941V15.63h3.466v14.62h-3.466zm1.752-16.71a2.05 2.05 0 0 1-1.402-.541 1.79 1.79 0 0 1-.436-2.036c.101-.227.25-.43.436-.595a1.88 1.88 0 0 1 1.403-.541 2.05 2.05 0 0 1 1.402.541 1.78 1.78 0 0 1 .585 1.315 1.77 1.77 0 0 1-.585 1.316 2.05 2.05 0 0 1-1.403.541m16.948 5.917-3.155.348a2.2 2.2 0 0 0-.468-.89 2.24 2.24 0 0 0-.896-.657 3.6 3.6 0 0 0-1.363-.27 3.4 3.4 0 0 0-1.831.463 1.31 1.31 0 0 0-.701 1.2 1.3 1.3 0 0 0 .467 1.044c.472.343 1.02.57 1.597.657l2.532.542c1.403.31 2.415.773 3.117 1.431a3.46 3.46 0 0 1 1.051 2.553 3.85 3.85 0 0 1-.818 2.437 5.34 5.34 0 0 1-2.22 1.624 8.5 8.5 0 0 1-3.272.58c-1.792 0-3.272-.386-4.363-1.121a4.7 4.7 0 0 1-1.323-1.382 4.7 4.7 0 0 1-.663-1.79l3.389-.31c.117.609.466 1.15.973 1.509a3.3 3.3 0 0 0 1.948.503 3.44 3.44 0 0 0 1.987-.503 1.45 1.45 0 0 0 .74-1.238 1.24 1.24 0 0 0-.507-1.044 3.5 3.5 0 0 0-1.48-.619l-2.532-.541c-1.402-.31-2.454-.774-3.155-1.47a3.7 3.7 0 0 1-1.013-2.63 3.8 3.8 0 0 1 .74-2.36 4.8 4.8 0 0 1 2.104-1.547 7.8 7.8 0 0 1 3.116-.541c1.714 0 3.077.348 4.09 1.083a4.44 4.44 0 0 1 1.909 2.94"/></g></svg>