<svg width="114" height="43" viewBox="0 0 114 43" fill="none" xmlns="http://www.w3.org/2000/svg">
<path d="M45.2342 0.0625H42.8567H38.4551V4.73013H42.8567V41.2645H47.6111V0.0625H45.2342Z" fill="#F5F5F5"/>
<path d="M81.4893 27.024C81.4893 17.0174 75.9068 11.0488 67.3273 11.0488C58.7478 11.0488 53.1064 16.7251 53.1064 26.7309C53.1064 36.7367 58.689 42.1792 67.3273 42.1792C74.1438 42.1792 79.2562 38.2585 80.6667 32.8167H75.3777C74.2027 35.3328 71.7929 37.5566 67.3273 37.5566C61.5682 37.5566 58.6301 33.9282 58.0429 28.7209H81.49V27.024H81.4893ZM58.1011 24.2155C58.806 19.1833 61.8618 15.6136 67.3273 15.6136C72.7928 15.6136 75.672 19.1247 76.377 24.2155H58.1011Z" fill="#F5F5F5"/>
<path d="M99.3716 11.0488C90.7331 11.0488 85.1504 16.7251 85.1504 26.7309C85.1504 36.7367 90.7331 42.1792 99.3716 42.1792C108.01 42.1792 113.534 36.9125 113.534 26.7309C113.534 16.5492 107.951 11.0488 99.3716 11.0488ZM99.3716 37.6738C93.201 37.6738 89.8516 32.8753 89.8516 26.673C89.8516 20.4706 93.201 15.4963 99.3716 15.4963C105.542 15.4963 108.833 20.3534 108.833 26.673C108.833 32.9926 105.601 37.6738 99.3716 37.6738Z" fill="#F5F5F5"/>
<path d="M24.4144 0H19.8445H14.8468L6.54199 24.1899H11.5999L18.3259 4.4564H20.761L27.487 24.1899H18.2154H11.5999L10.0339 28.6463H19.7234H28.995L33.3439 41.3779H38.5619L24.4144 0Z" fill="#F5F5F5"/>
<path d="M0.640625 41.378H5.68511L10.0333 28.6465H5.01152L0.640625 41.378Z" fill="#F5F5F5"/>
<path d="M1.52992 24.1895L0 28.6458H5.01261L6.54253 24.1895H1.52992Z" fill="#F5F5F5"/>
</svg>
