<svg width="143" height="35" viewBox="0 0 143 35" fill="none" xmlns="http://www.w3.org/2000/svg">
<path fill-rule="evenodd" clip-rule="evenodd" d="M117.788 12.7036C117.677 12.3895 117.506 12.0984 117.274 11.8321C117.041 11.5659 116.752 11.3418 116.411 11.1598C116.067 10.9798 115.662 10.8878 115.197 10.8878C114.952 10.8878 114.739 10.8093 114.555 10.6523C114.371 10.4952 114.279 10.2711 114.279 9.98186C114.279 9.23103 114.01 8.58937 113.471 8.05689C112.932 7.52632 112.284 7.26009 111.524 7.26009H104.177C103.417 7.26009 102.769 7.52441 102.23 8.05689C101.691 8.58937 101.422 9.23103 101.422 9.98186H101.423V13.6096C101.423 12.8607 101.152 12.219 100.615 11.6866C100.076 11.1541 99.426 10.8878 98.6677 10.8878C98.4233 10.8878 98.2081 10.8036 98.0238 10.635C97.8415 10.4645 97.7485 10.2481 97.7485 9.98186C97.7485 9.23103 97.4789 8.58937 96.9417 8.05689C96.4025 7.52632 95.7529 7.26009 94.9946 7.26009H89.483C88.7247 7.26009 88.077 7.52441 87.5378 8.05689C86.9987 8.58937 86.7291 9.23103 86.7291 9.98186C86.7291 10.1983 86.6419 10.4052 86.4712 10.5986C86.3005 10.7921 86.0795 10.8878 85.8099 10.8878C85.0516 10.8878 84.4019 11.1541 83.8628 11.6866C83.3236 12.219 83.056 12.8607 83.056 13.6096V20.869C83.056 21.4876 83.2383 22.0335 83.6068 22.5047C83.0832 22.0201 82.4587 21.775 81.7334 21.775H79.8968C79.6758 21.775 79.4682 21.6983 79.2724 21.5394C79.0765 21.3823 78.9776 21.1582 78.9776 20.869V2.72251C78.9776 1.97359 78.708 1.33194 78.1689 0.799455C77.6317 0.266975 76.982 0.000735799 76.2237 0.000735799C75.4654 0.000735799 74.8158 0.266975 74.2766 0.799455C73.7375 1.33194 73.4679 1.97359 73.4679 2.72251V9.98186C73.4679 9.23103 73.1984 8.58937 72.6592 8.05689C72.1201 7.52632 71.4724 7.26009 70.7121 7.26009C69.9519 7.26009 69.3042 7.52441 68.765 8.05689C68.2259 8.58937 67.9583 9.23103 67.9583 9.98186V20.869C67.9583 21.1352 67.871 21.3536 67.7004 21.5221C67.5297 21.6907 67.3086 21.775 67.039 21.775H61.5294C61.2598 21.775 61.0387 21.6907 60.8681 21.5221C60.6974 21.3536 60.6101 21.1352 60.6101 20.869V9.98186C60.6101 9.23103 60.3406 8.58937 59.8034 8.05689C59.2642 7.52632 58.6146 7.26009 57.8563 7.26009C57.098 7.26009 56.4483 7.52441 55.9092 8.05689C55.37 8.58937 55.1005 9.23103 55.1005 9.98186V13.5656C55.0908 12.8358 54.8212 12.2076 54.2937 11.6866C53.7546 11.1541 53.1049 10.8878 52.3466 10.8878C52.077 10.8878 51.856 10.8036 51.6853 10.635C51.5127 10.4645 51.4274 10.2481 51.4274 9.97995C51.4274 9.23103 51.1578 8.58937 50.6187 8.05689C50.0815 7.52632 49.4318 7.25817 48.6735 7.25817H43.1619C42.9428 7.25817 42.7333 7.18155 42.5374 7.02258C42.3416 6.86551 42.2446 6.64141 42.2446 6.35219V2.72251C42.2446 1.97359 41.975 1.33194 41.4359 0.799455C40.8968 0.266975 40.249 0.000735799 39.4888 0.000735799C38.7286 0.000735799 38.0808 0.266975 37.5417 0.799455C37.0026 1.33194 36.7349 1.97359 36.7349 2.72251V13.6096C36.7349 12.8607 36.4634 12.219 35.9262 11.6866C35.3871 11.1541 34.7374 10.8878 33.9791 10.8878C33.7833 10.8878 33.5796 10.8093 33.3721 10.6523C33.1646 10.4952 33.0599 10.2711 33.0599 9.98186C33.0599 9.23103 32.7903 8.58937 32.2512 8.05689C31.714 7.52632 31.0643 7.26009 30.3041 7.26009H21.1213C20.363 7.26009 19.7134 7.52441 19.1742 8.05689C18.6351 8.58937 18.3675 9.23103 18.3675 9.98186C18.3675 10.7327 18.637 11.3724 19.1742 11.9049C19.7134 12.4374 20.363 12.7036 21.1213 12.7036H30.3041C30.5019 12.7036 30.7036 12.7822 30.9111 12.9392C31.1186 13.0963 31.2233 13.3204 31.2233 13.6096C31.2233 13.8988 31.1186 14.1249 30.9111 14.2819C30.7036 14.439 30.5019 14.5175 30.3041 14.5175H21.1213C20.363 14.5175 19.7134 14.7838 19.1742 15.3162C18.6429 15.8411 18.3733 16.4751 18.3675 17.2125V13.6096C18.3675 12.8607 18.096 12.219 17.5588 11.6866C17.0196 11.1541 16.37 10.8878 15.6117 10.8878C15.3421 10.8878 15.121 10.8036 14.9504 10.635C14.7797 10.4645 14.6944 10.2481 14.6944 9.97995C14.6944 9.23103 14.4229 8.58937 13.8857 8.05689C13.3465 7.52632 12.6968 7.25817 11.9386 7.25817H6.42891C6.20782 7.25817 6.00031 7.18155 5.80444 7.02258C5.60857 6.86551 5.50966 6.64141 5.50966 6.35219V2.72251C5.50966 1.97359 5.24009 1.33194 4.70096 0.799455C4.16376 0.266975 3.51408 0.000735799 2.7558 0.000735799C1.99752 0.000735799 1.34784 0.266975 0.808704 0.799455C0.269568 1.33194 0 1.97359 0 2.72251V24.4986C0 25.2476 0.269568 25.8892 0.808704 26.4217C1.3459 26.9542 1.99558 27.2204 2.7558 27.2204H11.9386C12.6968 27.2204 13.3465 26.9523 13.8857 26.4217C14.4229 25.8892 14.6944 25.2476 14.6944 24.4986C14.6944 24.2075 14.7913 23.9834 14.9872 23.8263C15.1831 23.6693 15.3906 23.5907 15.6117 23.5907C16.37 23.5907 17.0196 23.3245 17.5588 22.792C18.0979 22.2595 18.3675 21.6179 18.3675 20.869C18.3675 21.6179 18.637 22.2595 19.1762 22.792C19.7134 23.3245 20.363 23.5907 21.1213 23.5907C21.3424 23.5907 21.5499 23.675 21.7458 23.8455C21.9417 24.0141 22.0406 24.2324 22.0406 24.4986C22.0406 25.2476 22.3101 25.8892 22.8493 26.4217C23.3865 26.9542 24.0362 27.2204 24.7944 27.2204H33.9791C34.7374 27.2204 35.3871 26.9542 35.9262 26.4217C36.4654 25.8892 36.7349 25.2476 36.7349 24.4986C36.7349 25.2476 37.0045 25.8892 37.5417 26.4217C38.0808 26.9542 38.7305 27.2204 39.4888 27.2204H48.6735C49.4318 27.2204 50.0815 26.9523 50.6187 26.4217C51.1578 25.8892 51.4274 25.2476 51.4274 24.4986C51.4274 24.2075 51.5263 23.9834 51.7221 23.8263C51.918 23.6693 52.1255 23.5907 52.3466 23.5907C53.1049 23.5907 53.7546 23.3245 54.2937 22.792C54.8231 22.2672 55.0927 21.637 55.1005 20.8996C55.1082 21.637 55.3778 22.2672 55.9092 22.792C56.4464 23.3245 57.096 23.5907 57.8563 23.5907C58.1258 23.5907 58.345 23.6808 58.5176 23.8627C58.6882 24.0447 58.7736 24.2573 58.7736 24.4986C58.7736 25.2476 59.0431 25.8892 59.5823 26.4217C60.1214 26.9542 60.7692 27.2204 61.5294 27.2204H67.039C67.3086 27.2204 67.5297 27.3047 67.7004 27.4733C67.871 27.6437 67.9583 27.8602 67.9583 28.1264C67.9583 28.3926 67.871 28.611 67.7004 28.7796C67.5297 28.95 67.3086 29.0343 67.039 29.0343H57.8563C57.096 29.0343 56.4464 29.3005 55.9092 29.833C55.37 30.3636 55.1005 31.0072 55.1005 31.7561C55.1005 32.505 55.37 33.1486 55.9092 33.6791C56.4464 34.2116 57.096 34.4779 57.8563 34.4779H67.039C67.7973 34.4779 68.447 34.2116 68.9861 33.6791C69.5253 33.1467 69.7948 32.505 69.7948 31.7561C69.7948 31.5147 69.8802 31.3021 70.0508 31.1221C70.2215 30.9401 70.4426 30.8482 70.7121 30.8482C71.4704 30.8482 72.1201 30.5819 72.6592 30.0514C73.1984 29.5189 73.4679 28.8772 73.4679 28.1264V20.869C73.4679 21.6179 73.7375 22.2595 74.2766 22.792C74.8138 23.3245 75.4635 23.5907 76.2237 23.5907C76.4429 23.5907 76.6504 23.6693 76.8482 23.8263C77.0421 23.9834 77.141 24.2075 77.141 24.4986C77.141 25.2476 77.4106 25.8892 77.9497 26.4217C78.4869 26.9542 79.1366 27.2204 79.8968 27.2204H81.7334C82.4917 27.2204 83.1413 26.9523 83.6785 26.4217C84.2177 25.8892 84.4873 25.2476 84.4873 24.4986C84.4873 23.8781 84.303 23.3322 83.9345 22.861C84.4582 23.3475 85.0846 23.5907 85.8099 23.5907C86.0795 23.5907 86.3005 23.675 86.4712 23.8455C86.6419 24.0141 86.7291 24.2324 86.7291 24.4986C86.7291 25.2476 86.9987 25.8892 87.5378 26.4217C88.075 26.9542 88.7247 27.2204 89.483 27.2204H94.9946C95.7529 27.2204 96.4025 26.9523 96.9417 26.4217C97.4789 25.8892 97.7485 25.2476 97.7485 24.4986C97.7485 24.3052 97.828 24.1041 97.9889 23.8991C98.146 23.6942 98.3729 23.5907 98.6677 23.5907C99.426 23.5907 100.076 23.3245 100.615 22.792C101.154 22.2595 101.423 21.6179 101.423 20.869V24.4986C101.423 25.2476 101.691 25.8892 102.23 26.4217C102.769 26.9542 103.419 27.2204 104.177 27.2204C104.936 27.2204 105.585 26.9523 106.124 26.4217C106.664 25.8892 106.933 25.2476 106.933 24.4986V13.6096C106.933 13.3683 107.018 13.1557 107.189 12.9756C107.362 12.7937 107.581 12.7036 107.85 12.7036H111.524C111.745 12.7036 111.952 12.7879 112.148 12.9565C112.344 13.1269 112.443 13.3434 112.443 13.6096V24.4986C112.443 25.2476 112.712 25.8892 113.252 26.4217C113.789 26.9542 114.438 27.2204 115.197 27.2204C115.955 27.2204 116.607 26.9523 117.144 26.4217C117.683 25.8892 117.952 25.2476 117.952 24.4986V13.6096C117.952 13.3204 117.898 13.0178 117.788 12.7036ZM12.8559 20.869C12.8559 21.1831 12.7589 21.4129 12.563 21.5585C12.3672 21.7041 12.1596 21.775 11.9386 21.775H6.42891C6.18261 21.775 5.96928 21.6907 5.78505 21.5221C5.60275 21.3536 5.50966 21.1352 5.50966 20.869V13.6096C5.50966 13.3932 5.59499 13.1863 5.76759 12.9929C5.93825 12.7994 6.15934 12.7036 6.42891 12.7036H11.9386C12.2081 12.7036 12.4273 12.7937 12.5999 12.9756C12.7705 13.1557 12.8559 13.3683 12.8559 13.6096V20.869ZM30.9305 21.5221C30.7327 21.6907 30.5252 21.775 30.3041 21.775H24.7944C24.5753 21.775 24.3658 21.6907 24.17 21.5221C23.9741 21.3536 23.8771 21.1352 23.8771 20.869C23.8771 20.6506 23.9625 20.4457 24.1331 20.2522C24.3057 20.0588 24.5249 19.9611 24.7944 19.9611H30.3041C30.5737 19.9611 30.7947 20.0588 30.9654 20.2522C31.138 20.4457 31.2233 20.6506 31.2233 20.869C31.2233 21.1352 31.1244 21.3536 30.9305 21.5221ZM49.5908 20.869C49.5908 21.1831 49.4919 21.4129 49.298 21.5585C49.1002 21.7041 48.8926 21.775 48.6735 21.775H43.1638C42.9175 21.775 42.7042 21.6907 42.52 21.5221C42.3357 21.3536 42.2446 21.1352 42.2446 20.869V13.6096C42.2446 13.3932 42.3299 13.1863 42.5006 12.9929C42.6732 12.7994 42.8923 12.7036 43.1619 12.7036H48.6735C48.9411 12.7036 49.1622 12.7937 49.3348 12.9756C49.5055 13.1557 49.5908 13.3683 49.5908 13.6096V20.869ZM95.9119 20.869C95.9119 21.1831 95.813 21.4129 95.6191 21.5585C95.4212 21.7041 95.2137 21.775 94.9946 21.775H89.4849C89.2386 21.775 89.0253 21.6907 88.8411 21.5221C88.6568 21.3536 88.5657 21.1352 88.5657 20.869V13.6096C88.5657 13.3932 88.651 13.1882 88.8236 12.9929C88.9943 12.7994 89.2134 12.7036 89.483 12.7036H94.9946C95.2622 12.7036 95.4833 12.7937 95.6559 12.9756C95.8266 13.1557 95.9119 13.3683 95.9119 13.6096V20.869ZM123.565 3.41206C123.474 3.16688 123.534 2.89298 123.722 2.70719L126.264 0.196106C126.451 0.0122283 126.73 -0.0490647 126.978 0.0409589L132.401 2.00807C132.534 2.05596 132.622 2.18237 132.622 2.32219V3.49442C132.622 3.58253 132.587 3.66872 132.523 3.73001L131.204 5.03248C131.111 5.12442 130.971 5.15506 130.847 5.1091L129.391 4.57853L127.791 3.99625C127.655 3.94645 127.523 4.0767 127.574 4.21078L128.7 7.22944C128.747 7.35202 128.716 7.48993 128.623 7.58187L127.449 8.74069C127.318 8.87093 127.318 9.08354 127.449 9.21379L128.629 10.3783C128.722 10.4703 128.753 10.6082 128.706 10.7308L127.579 13.7494C127.529 13.8835 127.661 14.0138 127.797 13.964L130.853 12.8511C130.977 12.8052 131.117 12.8358 131.21 12.9277L132.523 14.2245C132.587 14.2877 132.622 14.3719 132.622 14.4601V15.6323C132.622 15.7721 132.534 15.8966 132.401 15.9464L126.986 17.9193C126.738 18.0093 126.46 17.9499 126.272 17.7641L123.73 15.253C123.544 15.0692 123.482 14.7933 123.573 14.5482L125.564 9.21762C125.621 9.06822 125.621 8.90349 125.564 8.75409L123.567 3.40631L123.565 3.41206ZM142.241 14.552C142.332 14.7972 142.272 15.0711 142.084 15.2569L139.541 17.7679C139.355 17.9518 139.076 18.0131 138.828 17.9231L133.405 15.956C133.271 15.9081 133.184 15.7817 133.184 15.6419V14.4696C133.184 14.3815 133.219 14.2953 133.283 14.234L134.602 12.9316C134.695 12.8396 134.834 12.809 134.959 12.855L136.415 13.3855L138.015 13.9678C138.151 14.0176 138.283 13.8874 138.232 13.7533L137.105 10.7346C137.059 10.612 137.09 10.4741 137.183 10.3822L138.356 9.22337C138.488 9.09312 138.488 8.88051 138.356 8.75026L137.177 7.5857C137.084 7.49376 137.053 7.35586 137.1 7.23327L138.226 4.21461C138.277 4.08053 138.145 3.95028 138.009 4.00008L134.953 5.11293C134.829 5.1589 134.689 5.12825 134.596 5.03631L133.283 3.73959C133.219 3.67638 133.184 3.5921 133.184 3.50399V2.33177C133.184 2.19195 133.273 2.06745 133.405 2.01765L138.82 0.0447898C139.068 -0.0452338 139.345 0.0141437 139.533 0.199937L142.076 2.71102C142.262 2.8949 142.324 3.17072 142.233 3.41589L140.241 8.74643C140.185 8.89583 140.185 9.06056 140.241 9.20996L142.239 14.5577L142.241 14.552Z" fill="#F5F7F2"/>
</svg>
