<svg width="133" height="46" viewBox="0 0 133 46" fill="none" xmlns="http://www.w3.org/2000/svg">
<mask id="mask0_25090_424" style="mask-type:luminance" maskUnits="userSpaceOnUse" x="0" y="0" width="133" height="46">
<path d="M0 0H132.416V45.1593H0V0Z" fill="white"/>
</mask>
<g mask="url(#mask0_25090_424)">
<path d="M67.5848 21.865C67.6749 21.9645 67.7957 22.0285 67.9283 22.0498C69.601 22.5639 70.8544 23.9591 71.186 25.6766C71.5936 27.4486 71.3282 29.1045 70.1223 30.5353C69.575 31.1679 68.895 31.6701 68.1274 32.0041C66.9547 32.5466 65.6776 32.8308 64.384 32.8379C61.015 32.864 57.6459 32.8379 54.2769 32.8379C54.1821 32.8379 54.0898 32.8261 54.002 32.819C53.8883 32.4068 53.8599 12.9412 53.9689 12.2661C54.1466 12.2068 54.3338 12.1902 54.5186 12.2186H63.6614C65.2795 12.1784 66.8788 12.5668 68.298 13.3462C71.2691 15.0495 71.1601 18.4963 69.7907 20.2588C69.3405 20.8487 68.7529 21.3177 68.0776 21.6257L67.5848 21.865ZM59.1528 28.5785C59.2119 28.6047 59.2759 28.6213 59.3399 28.6307H63.4955C66.1657 28.5478 66.2131 24.5182 63.5453 24.395H59.6006C59.4537 24.395 59.2949 24.3548 59.1599 24.4827L59.1528 28.5785ZM59.1528 20.3844C59.2428 20.4033 59.3329 20.4152 59.4229 20.4224H63.1142C63.3605 20.4175 63.6045 20.382 63.8415 20.3205C64.7963 20.1309 65.4525 19.2473 65.3578 18.2784C65.3104 17.3072 64.7062 16.6652 63.6852 16.5064C63.498 16.478 63.3083 16.4661 63.1189 16.4685H59.5437C59.4181 16.4685 59.2759 16.4283 59.1528 16.568V20.3844ZM120.758 17.1697C121.821 20.183 122.878 23.1845 123.932 26.1718C123.992 26.3375 124.174 26.4252 124.34 26.3684H124.344C124.435 26.3375 124.508 26.2642 124.539 26.1741C125.065 24.7931 125.472 23.3882 125.918 21.9952C126.43 20.3939 126.929 18.7901 127.439 17.1721C127.477 17.0347 127.602 16.9376 127.747 16.9352H132.1C132.274 16.9352 132.417 17.0774 132.417 17.2526V17.2574C132.417 17.3001 132.41 17.3403 132.393 17.3782C130.294 22.9807 128.195 28.5833 126.093 34.1811C125.802 34.9843 125.404 35.7424 124.908 36.4388C123.987 37.744 122.539 38.578 120.947 38.7201C119.157 38.9191 117.476 38.5993 115.983 37.5237L115.664 37.2868L115.441 37.1187L117.379 33.7666C117.47 33.6126 117.666 33.5605 117.82 33.6505L117.865 33.6813C117.92 33.7263 117.969 33.7761 118.023 33.814C118.422 34.1077 118.894 34.2877 119.386 34.3352C120.158 34.4299 120.909 34.0437 121.281 33.3615C121.31 33.3142 121.331 33.262 121.357 33.2146C121.629 32.7124 121.656 32.1154 121.431 31.5919C119.568 27.0814 117.72 22.5639 115.887 18.0368C115.768 17.7431 115.649 17.4493 115.529 17.1555C115.502 17.0869 115.482 16.9921 115.542 16.9519C115.571 16.9376 115.602 16.9305 115.633 16.9328H120.441C120.59 16.9305 120.72 17.03 120.758 17.1721V17.1697ZM101.226 27.7424L103.294 29.8886C103.464 30.0616 103.464 30.3411 103.294 30.5141C101.97 31.8951 100.195 32.7574 98.2901 32.9469C96.9301 33.1341 95.5465 33.0464 94.2221 32.6911C91.289 31.9188 89.1496 29.3983 88.8652 26.3779C88.6923 24.8546 88.7373 23.3456 89.2372 21.8768C90.2513 18.9512 92.3576 17.293 95.4234 16.8191C96.6056 16.6439 97.8116 16.6936 98.9771 16.9661C100.979 17.3853 102.668 18.7237 103.536 20.5763C104.367 22.2346 104.561 24.0066 104.519 25.878C104.514 26.1172 104.32 26.3091 104.08 26.3115C103.626 26.3233 103.183 26.3115 102.74 26.3115H95.755C95.3499 26.3115 94.9471 26.2973 94.5183 26.3115C94.2719 26.3162 94.0752 26.5223 94.08 26.7687C94.08 26.8232 94.0918 26.8753 94.1108 26.9251C94.298 27.4131 94.5989 27.849 94.9921 28.1925C96.0962 29.1567 97.3614 29.2158 98.6858 28.8321C99.3397 28.6355 99.9438 28.2991 100.456 27.8442L100.612 27.7116C100.792 27.5576 101.062 27.5718 101.226 27.7424ZM99.0932 23.4095C99.342 23.4095 99.5434 23.2082 99.5434 22.9594V22.9168C99.451 21.7513 98.6051 20.7824 97.4608 20.5336C95.5654 20.1191 94.298 21.4812 93.9497 22.8623C93.8928 23.0992 94.0373 23.3385 94.2766 23.3977C94.3121 23.4048 94.35 23.4048 94.3856 23.3977L99.0932 23.4095ZM84.757 27.7305L86.8278 29.891C86.9865 30.0592 86.9865 30.3245 86.8278 30.4928C86.1384 31.2365 85.3068 31.8336 84.3803 32.2457C82.9518 32.8641 81.3952 33.1293 79.8433 33.018C78.9169 32.9896 78 32.8142 77.1282 32.4968C74.5433 31.5256 73.0176 29.6328 72.4963 26.9535C72.1243 25.2194 72.2381 23.4166 72.8232 21.7418C73.9036 18.7972 76.0526 17.2077 79.1325 16.8191C80.3195 16.6652 81.5254 16.7338 82.6864 17.0252C84.75 17.5346 86.2189 18.7759 87.1405 20.6782C87.9721 22.398 88.1379 24.2315 88.0527 26.1101C88.0361 26.1812 88.01 26.2523 87.9745 26.3162H78.0427C77.8034 26.3162 77.6091 26.5081 77.6068 26.7474C77.6068 26.8138 77.6209 26.8777 77.6494 26.9369C77.6849 27.0103 77.7229 27.0814 77.756 27.1525C78.3626 28.4199 79.6941 29.1756 81.0919 29.0477C82.2339 28.9719 83.3166 28.5005 84.1505 27.7163C84.3235 27.5552 84.5936 27.5623 84.757 27.7305ZM77.3414 23.3764C78.109 23.5114 82.755 23.4712 83.1294 23.3338C83.0867 22.3625 82.7788 21.5073 81.9448 20.9458C81.1085 20.3489 80.0091 20.2754 79.1017 20.7563C78.0308 21.287 77.5689 22.2535 77.3414 23.3764Z" fill="white"/>
<path d="M116.235 11.6528C116.043 12.8066 115.86 13.9175 115.673 15.0451C115.644 15.2134 115.486 15.3295 115.317 15.3034H115.289C114.995 15.2276 114.73 15.159 114.464 15.0831C114.412 15.0689 114.36 15.0547 114.308 15.0451C113.318 14.8936 112.391 15.5711 112.237 16.5613C112.221 16.6608 112.214 16.7627 112.216 16.8646V17.3596C112.218 17.5279 112.356 17.6629 112.524 17.6653H115.201C115.357 17.6653 115.488 17.7813 115.509 17.9353C115.595 18.9184 115.606 19.9063 115.547 20.8894C115.535 21.0481 115.405 21.1713 115.246 21.176C114.358 21.1974 113.457 21.176 112.514 21.176C112.346 21.1807 112.214 21.3182 112.211 21.4864V32.5044C112.211 32.6749 112.071 32.8123 111.901 32.8123H107.48C107.309 32.8123 107.172 32.6749 107.172 32.5044V21.4982C107.172 21.3372 107.046 21.2045 106.885 21.1902C106.383 21.1452 105.9 21.1902 105.414 21.1665C105.248 21.1547 105.122 21.0126 105.127 20.8467V17.9898C105.127 17.8216 105.262 17.6842 105.431 17.6795C105.93 17.644 106.416 17.6795 106.892 17.6653C107.042 17.6558 107.165 17.5397 107.179 17.3904C107.172 17.272 107.172 17.1559 107.179 17.0375C107.165 16.45 107.186 15.8649 107.243 15.2798C107.584 13.0293 108.984 11.5226 111.195 10.9824C112.825 10.5868 114.407 10.7669 116.028 11.307C116.173 11.3567 116.258 11.5036 116.235 11.6528ZM22.5834 2.40922C25.3081 2.40922 27.9498 2.94223 30.4352 3.99405C31.6292 4.49863 32.7831 5.12404 33.861 5.85367C34.9295 6.5762 35.9341 7.40533 36.8486 8.31738C37.7631 9.23179 38.5924 10.2362 39.3126 11.3046C40.04 12.3825 40.6678 13.5362 41.1725 14.7302C42.2243 17.2152 42.7575 19.8566 42.7575 22.5808C42.7575 25.3051 42.2243 27.9465 41.1725 30.4315C40.6678 31.6255 40.0423 32.7791 39.3126 33.857C38.59 34.9254 37.7608 35.9298 36.8486 36.8442C35.9341 37.7587 34.9295 38.5878 33.861 39.3079C32.7831 40.0376 31.6292 40.6631 30.4352 41.1676C27.9498 42.2195 25.3081 42.7524 22.5834 42.7524C19.8589 42.7524 17.2172 42.2195 14.7318 41.1676C13.5378 40.6631 12.384 40.0376 11.306 39.3079C10.2374 38.5854 9.23289 37.7564 8.31837 36.8442C7.40383 35.9298 6.57461 34.9254 5.85437 33.857C5.12701 32.7791 4.49916 31.6255 3.99452 30.4315C2.94258 27.9465 2.4095 25.3051 2.4095 22.5808C2.4095 19.8566 2.94258 17.2152 3.99452 14.7302C4.49916 13.5362 5.12464 12.3825 5.85437 11.3046C6.57697 10.2362 7.40621 9.23179 8.31837 8.31738C9.23289 7.40297 10.2374 6.57384 11.306 5.85367C12.384 5.12404 13.5378 4.49863 14.7318 3.99405C17.2172 2.94223 19.8589 2.40922 22.5834 2.40922ZM22.5834 0C10.1095 0 0 10.1083 0 22.5808C0 35.0533 10.1095 45.1617 22.5834 45.1617C35.0574 45.1617 45.167 35.0533 45.167 22.5808C45.167 10.1083 35.0551 0 22.5834 0Z" fill="white"/>
<path d="M15.7296 13.9274V12.262C15.7296 10.9165 16.611 9.81962 17.9378 9.58747C18.9399 9.4098 19.8686 9.59695 20.6055 10.3645C21.0889 10.8667 21.3399 11.4755 21.3495 12.172C21.3589 12.75 21.3495 13.3305 21.3495 13.9179H24.3963C24.3963 13.8823 24.401 13.8445 24.401 13.8042V12.2241C24.4057 10.7293 25.588 9.5472 27.083 9.53299C27.5994 9.52824 28.0993 9.578 28.559 9.82673C29.5019 10.3384 29.9947 11.1344 30.0208 12.2051C30.0351 12.7714 30.0232 13.3376 30.0232 13.9227H33.9822C34.7214 13.9227 35.2118 14.4154 35.2782 15.1521C35.335 15.7822 35.1739 16.358 34.9654 16.9336C34.7498 17.5305 34.4418 18.0896 34.0485 18.5872C33.7381 18.9803 33.3899 19.3475 33.032 19.7006C32.5677 20.1554 32.0796 20.5865 31.594 21.0224C31.3287 21.2592 31.0917 21.5175 30.94 21.8421C30.8974 21.9344 30.8595 22.0435 30.8595 22.1429C30.8548 24.5687 30.8642 26.9945 30.8524 29.4203C30.8382 32.3364 28.6822 34.9353 25.8201 35.4896C25.3772 35.5724 24.9294 35.6175 24.4792 35.6199C23.2211 35.6364 21.9631 35.627 20.7051 35.6246C17.6344 35.6246 15.0615 33.5304 14.4597 30.5242C14.3816 30.1074 14.3413 29.6857 14.3437 29.2616C14.3317 26.8974 14.3389 24.5332 14.3366 22.1714C14.3366 22.0979 14.3199 22.0244 14.2891 21.9582C14.0972 21.5128 13.7584 21.1859 13.4054 20.866C12.9293 20.4349 12.4577 19.999 11.991 19.5584C11.4461 19.0444 10.9604 18.4805 10.605 17.8172C10.207 17.0733 9.86816 16.3011 9.86816 15.4316C9.86816 15.2351 9.88948 15.0408 9.93213 14.8489C10.0648 14.2969 10.5552 13.925 11.1262 13.9227H15.7249L15.7296 13.9274ZM20.1056 16.6043H15.2629C14.9525 16.6043 14.6848 16.8128 14.6446 17.1183C14.6185 17.2937 14.6208 17.4737 14.6516 17.649C14.7583 18.1915 14.9952 18.6818 15.3719 19.0846C15.7486 19.4873 16.1609 19.845 16.5423 20.2359C16.8313 20.5297 17.0161 20.8802 17.0161 21.3138C17.0137 23.9623 17.0137 26.6107 17.0161 29.2592C17.0161 29.4464 17.0257 29.6335 17.0516 29.8183C17.3194 31.6376 18.8451 32.95 20.6837 32.95H24.4721C24.6593 32.95 24.8465 32.9406 25.0336 32.9169C26.8366 32.6681 28.18 31.1307 28.1823 29.3113C28.1823 28.8708 28.1776 28.4278 28.1847 27.9871C28.1847 27.8853 28.1562 27.8426 28.0567 27.8118C27.1256 27.5276 26.2348 27.1224 25.408 26.6083C23.5078 25.4287 22.0507 23.8462 21.1078 21.8065C20.6552 20.8282 20.3449 19.8072 20.2359 18.734C20.1648 18.0304 20.1506 17.3221 20.108 16.5996L20.1056 16.6043ZM27.9952 23.7064C28.0022 23.0431 27.4715 22.5007 26.8106 22.4911C26.1471 22.484 25.6046 23.0147 25.5952 23.678C25.588 24.3413 26.1187 24.8838 26.7797 24.8933H26.7821C27.4431 24.9027 27.9857 24.3744 27.9928 23.7135V23.7064H27.9952Z" fill="white"/>
<path d="M20.5787 23.6941C20.5763 24.3575 20.0362 24.8928 19.3752 24.8904C18.7118 24.888 18.1764 24.348 18.1787 23.6847C18.1811 23.0214 18.7212 22.486 19.3847 22.4883H19.3894C20.0505 22.4883 20.5835 23.0285 20.5812 23.687V23.6918L20.5787 23.6941Z" fill="white"/>
</g>
</svg>
