<svg width="226" height="32" viewBox="0 0 226 32" fill="none" xmlns="http://www.w3.org/2000/svg">
<path fill-rule="evenodd" clip-rule="evenodd" d="M67.6127 18.3338V14.6666C67.6127 12.8979 65.9113 11.4591 63.8198 11.4591C61.7283 11.4591 60.0267 12.8979 60.0267 14.6666V18.3338C60.0267 20.1025 61.7283 21.5413 63.8198 21.5413C65.9113 21.5413 67.6127 20.1025 67.6127 18.3338ZM63.8198 7.3333C68.6082 7.3333 72.4899 10.6167 72.4899 14.6666V18.3338C72.4899 22.3837 68.6082 25.6659 63.8198 25.6659C59.0314 25.6659 55.1496 22.3837 55.1496 18.3338V14.6666C55.1496 10.6167 59.0314 7.3333 63.8198 7.3333ZM106.628 18.3338V14.6666C106.628 12.8979 104.927 11.4591 102.835 11.4591C100.744 11.4591 99.0415 12.8979 99.0415 14.6666V18.3338C99.0415 20.1025 100.744 21.5413 102.835 21.5413C104.927 21.5413 106.628 20.1025 106.628 18.3338ZM102.835 7.3333C107.624 7.3333 111.505 10.6167 111.505 14.6666V18.3338C111.505 22.3837 107.624 25.6659 102.835 25.6659C98.0463 25.6659 94.1649 22.3837 94.1649 18.3338V14.6666C94.1649 10.6167 98.0463 7.3333 102.835 7.3333ZM44.3124 11.4591C42.2209 11.4591 40.5188 12.8979 40.5188 14.6666V18.3338C40.5188 20.1025 42.2209 21.5413 44.3124 21.5413C46.4039 21.5413 48.1054 20.1025 48.1054 18.3338H52.9819C52.9819 22.3837 49.1002 25.6659 44.3124 25.6659C39.524 25.6659 35.6422 22.3837 35.6422 18.3338V14.6666C35.6422 10.6167 39.524 7.3333 44.3124 7.3333C49.1002 7.3333 52.9819 10.6167 52.9819 14.6666H48.1054C48.1054 12.8979 46.4039 11.4591 44.3124 11.4591ZM28.5981 25.2085V7.79184H33.4745V25.2085H28.5981ZM28.5981 5.95881V1.83419H33.4745V5.95881H28.5981ZM83.3272 7.3333C88.1156 7.3333 91.9974 10.6167 91.9974 14.6666V25.2085H87.1201V14.6666C87.1201 12.8979 85.4187 11.4591 83.3272 11.4591C81.2357 11.4591 79.5341 12.8979 79.5341 14.6666V25.2085H74.6577V14.6666C74.6577 10.6167 78.5388 7.3333 83.3272 7.3333ZM129.928 7.3333C133.819 7.3333 136.973 10.0007 136.973 13.2921V25.2085H132.097V13.2921C132.097 12.2808 131.124 11.4591 129.928 11.4591C128.733 11.4591 127.761 12.2808 127.761 13.2921V25.2085H122.885V13.2921C122.885 12.2808 121.912 11.4591 120.717 11.4591C119.522 11.4591 118.55 12.2808 118.55 13.2921V25.2085H113.672V13.2921C113.672 10.0007 116.827 7.3333 120.717 7.3333C122.479 7.3333 124.088 7.88147 125.323 8.78592C126.558 7.88147 128.167 7.3333 129.928 7.3333ZM152.496 7.79184H157.686L147.628 31.1662H142.438L145.002 25.2085L137.506 7.79184H142.696L147.597 19.1773L152.496 7.79184ZM3.94234 4.12578L2.16769 0H12.4775V4.12578H8.81948V10.7707H12.4775V14.8964H8.81948V21.5413H12.4775V25.6659H0L1.77523 21.5413H3.94234V4.12578ZM22.4392 11.9843C24.8419 13.3139 26.4303 15.609 26.4303 18.2189C26.4303 22.332 22.488 25.6671 17.6246 25.6671H14.6445V21.5413H17.6246C19.791 21.5413 21.5538 20.0508 21.5538 18.2189C21.5538 16.387 19.791 14.8964 17.6246 14.8964H14.6445V10.7707H15.4575C17.6233 10.7707 19.3861 9.28009 19.3861 7.44821C19.3861 5.61633 17.6233 4.12578 15.4575 4.12578H14.6445V0H15.4575C20.3204 0 24.2626 3.33509 24.2626 7.44821C24.2626 9.15598 23.5821 10.7281 22.4392 11.9843Z" fill="white"/>
<path d="M160.004 23.6511C160.004 24.9141 158.966 25.9369 157.686 25.9369C156.407 25.9369 155.369 24.9141 155.369 23.6511C155.369 22.3892 156.407 21.3652 157.686 21.3652C158.966 21.3652 160.004 22.3892 160.004 23.6511Z" fill="white"/>
<path d="M167.687 14.6712C167.687 12.9025 169.389 11.4636 171.48 11.4636C173.572 11.4636 175.273 12.9025 175.273 14.6712H180.15C180.15 10.6213 176.268 7.33789 171.48 7.33789C166.692 7.33789 162.811 10.6213 162.811 14.6712V18.3384C162.811 22.3883 166.692 25.6717 171.48 25.6717C176.268 25.6717 180.15 22.3883 180.15 18.3384H175.273C175.273 20.1071 173.572 21.5459 171.48 21.5459C169.389 21.5459 167.687 20.1071 167.687 18.3384V14.6712Z" fill="white"/>
<path d="M225.514 13.3768C225.514 10.0865 222.36 7.41797 218.47 7.41797C216.708 7.41797 215.099 7.96616 213.864 8.87061C212.629 7.96616 211.02 7.41797 209.259 7.41797C205.369 7.41797 202.214 10.0865 202.214 13.3768V25.2921H207.09V13.3768C207.09 12.3654 208.063 11.5426 209.259 11.5426C210.453 11.5426 211.426 12.3654 211.426 13.3768V25.2921H216.302V13.3768C216.302 12.3654 217.275 11.5426 218.47 11.5426C219.665 11.5426 220.637 12.3654 220.637 13.3768V25.2921H225.514V13.3768Z" fill="white"/>
<path fill-rule="evenodd" clip-rule="evenodd" d="M191.58 7.65625C196.369 7.65625 200.25 10.9396 200.25 14.9895V18.6568C200.25 22.7067 196.369 25.99 191.58 25.99C186.792 25.99 182.91 22.7067 182.91 18.6568V14.9895C182.91 10.9396 186.792 7.65625 191.58 7.65625ZM195.374 18.6568V14.9895C195.374 13.2209 193.672 11.782 191.581 11.782C189.488 11.782 187.788 13.2209 187.788 14.9895V18.6568C187.788 20.4254 189.488 21.8643 191.581 21.8643C193.672 21.8643 195.374 20.4254 195.374 18.6568Z" fill="white"/>
</svg>
