<svg width="209" height="38" viewBox="0 0 209 38" fill="none" xmlns="http://www.w3.org/2000/svg">
<path d="M42.1817 10.6089C34.5892 10.6089 28.6568 16.4752 28.6568 24.3286C28.6568 32.1819 34.4394 37.9981 42.1817 37.9981C49.9241 37.9981 55.8072 32.0815 55.8072 24.2784C55.8072 16.5254 50.0246 10.6089 42.1817 10.6089ZM42.2329 32.3383C37.9093 32.3383 34.741 28.9205 34.741 24.3305C34.741 19.6884 37.8581 16.2725 42.1817 16.2725C46.5566 16.2725 49.723 19.7405 49.723 24.3305C49.723 28.9205 46.5566 32.3383 42.2329 32.3383ZM57.4653 16.5776H61.2369V37.4902H67.2699V11.1187H57.4653V16.5776ZM13.4737 16.2705C16.642 16.2705 19.1557 18.2595 20.11 21.2177H26.4959C25.3386 14.8937 20.2106 10.6089 13.5249 10.6089C5.93246 10.6089 0 16.4752 0 24.3305C0 32.1858 5.78258 38 13.5249 38C20.0607 38 25.2893 33.7151 26.4466 27.339H20.11C19.2051 30.2973 16.6913 32.3383 13.523 32.3383C9.14816 32.3383 6.08233 28.9205 6.08233 24.3305C6.08423 19.6884 9.10073 16.2705 13.4737 16.2705ZM172.096 21.7797L167.672 21.1173C165.56 20.8122 164.052 20.0978 164.052 18.4139C164.052 16.5776 166.014 15.6603 168.678 15.6603C171.593 15.6603 173.455 16.9348 173.857 19.0261H179.689C179.034 13.7216 175.012 10.6108 168.829 10.6108C162.443 10.6108 158.22 13.9263 158.22 18.6186C158.22 23.1063 160.986 25.7092 166.566 26.5241L170.99 27.1864C173.153 27.4915 174.36 28.3605 174.36 29.9922C174.36 32.0834 172.248 32.9505 169.332 32.9505C165.762 32.9505 163.751 31.4713 163.449 29.2275H157.516C158.07 34.3794 162.041 38 169.281 38C175.868 38 180.241 34.9394 180.241 29.6851C180.241 24.9928 177.074 22.5443 172.096 21.7797ZM64.2534 0.254891C62.0413 0.254891 60.3813 1.88658 60.3813 4.13039C60.3813 6.37421 62.0394 8.00589 64.2534 8.00589C66.4655 8.00589 68.1255 6.37421 68.1255 4.13039C68.1255 1.88658 66.4655 0.254891 64.2534 0.254891ZM152.791 20.148C152.791 14.4361 149.372 10.6108 142.132 10.6108C135.295 10.6108 131.474 14.131 130.719 19.5378H136.703C137.004 17.4465 138.613 15.7125 142.032 15.7125C145.099 15.7125 146.608 17.0893 146.608 18.7731C146.608 20.9667 143.842 21.5267 140.423 21.8839C135.798 22.3937 130.066 24.0254 130.066 30.1467C130.066 34.8911 133.536 37.9498 139.066 37.9498C143.39 37.9498 146.105 36.1134 147.463 33.2053C147.664 35.8064 149.575 37.4902 152.24 37.4902H155.76V32.0332H152.792V20.148H152.791ZM146.858 26.779C146.858 30.2992 143.842 32.9003 140.171 32.9003C137.907 32.9003 135.997 31.9309 135.997 29.8918C135.997 27.2907 139.065 26.5762 141.88 26.2712C144.595 26.0163 146.103 25.4041 146.858 24.2301V26.779ZM114.832 10.6089C111.463 10.6089 108.647 12.0378 106.636 14.4342V0H100.603V37.4902H106.536V34.0222C108.547 36.5209 111.413 38 114.832 38C122.072 38 127.553 32.1858 127.553 24.3305C127.553 16.4752 121.971 10.6089 114.832 10.6089ZM113.927 32.3383C109.603 32.3383 106.435 28.9205 106.435 24.3305C106.435 19.7405 109.653 16.2725 113.976 16.2725C118.351 16.2725 121.417 19.6903 121.417 24.3305C121.417 28.9205 118.251 32.3383 113.927 32.3383ZM86.1733 10.6089C82.2519 10.6089 79.6869 12.2406 78.1786 14.5365V11.1187H72.195V37.4883H78.228V23.1565C78.228 19.1265 80.7417 16.2705 84.4621 16.2705C87.932 16.2705 90.0929 18.7692 90.0929 22.3918V37.4902H96.1259V21.9341C96.1278 15.3012 92.7603 10.6089 86.1733 10.6089ZM209 23.4635C209 15.9152 203.57 10.6108 196.279 10.6108C188.537 10.6108 182.855 16.5274 182.855 24.3305C182.855 32.543 188.939 38 196.38 38C202.665 38 207.592 34.2249 208.848 28.8703H202.563C201.658 31.2164 199.446 32.543 196.479 32.543C192.607 32.543 189.691 30.0945 189.038 25.8096H208.998V23.4635H209ZM189.391 21.4224C190.347 17.7497 193.062 15.9654 196.179 15.9654C199.598 15.9654 202.212 17.9544 202.815 21.4224H189.391Z" fill="white"/>
</svg>
