<svg width="177" height="32" viewBox="0 0 177 32" fill="none" xmlns="http://www.w3.org/2000/svg">
<path d="M19.664 23.0445L17.2538 20.6049C16.3426 21.4573 15.402 22.1333 14.4615 22.633C13.5209 23.1327 12.4039 23.3972 11.0812 23.3972C10.0525 23.3972 9.11189 23.1915 8.25949 22.8093C7.37769 22.3978 6.64286 21.8688 5.99621 21.1633C5.34956 20.4579 4.87927 19.6643 4.52655 18.7237C4.17383 17.7831 3.99747 16.8131 3.99747 15.7256C3.99747 14.6674 4.17383 13.6681 4.52655 12.7569C4.87927 11.8457 5.34956 11.0521 5.99621 10.3466C6.64286 9.67058 7.37769 9.11211 8.25949 8.73C9.14128 8.31849 10.0819 8.14213 11.0812 8.14213C12.3157 8.14213 13.4033 8.37728 14.3439 8.87696C15.3139 9.37665 16.225 10.0233 17.0774 10.8169L19.4877 8.02456C18.988 7.52488 18.4295 7.08398 17.8711 6.67247C17.3126 6.26097 16.6659 5.90825 15.9899 5.61432C15.3139 5.32038 14.579 5.08524 13.756 4.93828C12.9624 4.76192 12.0512 4.70312 11.0812 4.70312C9.43522 4.70312 7.96556 4.99706 6.61347 5.58492C5.26138 6.17279 4.11505 6.9664 3.11568 7.96577C2.1457 8.96514 1.38148 10.1409 0.82301 11.493C0.293932 12.845 0 14.2853 0 15.8138C0 17.3716 0.264539 18.8119 0.82301 20.164C1.38148 21.516 2.1457 22.6918 3.11568 23.6617C4.08565 24.6611 5.23199 25.4253 6.55468 26.0132C7.87738 26.6011 9.31764 26.8656 10.9049 26.8656C11.9042 26.8656 12.8154 26.7774 13.6384 26.6011C14.4615 26.4247 15.2257 26.1602 15.9311 25.8368C16.6365 25.5135 17.2832 25.102 17.8711 24.6317C18.5177 24.1614 19.1056 23.6324 19.664 23.0445Z" fill="white"/>
<path d="M68.2513 10.7282C68.2513 10.0228 68.5452 9.40556 69.1624 8.90588C69.7797 8.40619 70.6321 8.17105 71.7197 8.17105C72.6896 8.17105 73.6596 8.3474 74.6002 8.72952C75.5408 9.11163 76.5107 9.64071 77.4807 10.3755L79.4795 7.52439C78.3919 6.6426 77.2162 5.99595 75.9523 5.52566C74.7178 5.05537 73.3069 4.84961 71.749 4.84961C70.6909 4.84961 69.7209 4.99658 68.8391 5.29051C67.9573 5.58444 67.1931 5.99595 66.5465 6.55442C65.8998 7.11289 65.4001 7.75954 65.0474 8.52376C64.6947 9.28798 64.5183 10.1404 64.5183 11.081C64.5183 12.0803 64.6653 12.9327 64.9886 13.6088C65.3119 14.3142 65.7528 14.9021 66.3701 15.3724C66.958 15.8721 67.7222 16.2542 68.604 16.6069C69.4858 16.9302 70.5145 17.2241 71.6315 17.4887C72.6308 17.7238 73.4245 17.959 74.0711 18.1941C74.6884 18.4293 75.188 18.6644 75.5408 18.8996C75.8935 19.1641 76.1286 19.4286 76.2756 19.752C76.3932 20.0459 76.4814 20.3986 76.4814 20.7807C76.4814 21.6037 76.1286 22.2798 75.4526 22.7795C74.7765 23.2791 73.8654 23.5143 72.6896 23.5143C71.3375 23.5143 70.1618 23.2791 69.1037 22.8089C68.0455 22.3386 67.0167 21.6331 65.9586 20.7513L63.6953 23.4261C64.9886 24.5724 66.3701 25.4542 67.8691 26.0127C69.3682 26.5712 70.9554 26.8651 72.6014 26.8651C73.7184 26.8651 74.7472 26.7182 75.6877 26.4242C76.6283 26.1303 77.4219 25.7188 78.0686 25.1603C78.7446 24.6018 79.2443 23.9258 79.6264 23.1322C80.0085 22.3386 80.1849 21.4274 80.1849 20.428C80.1849 19.5462 80.0379 18.7526 79.744 18.1059C79.4501 17.4299 79.0092 16.8714 78.4507 16.3717C77.8922 15.8721 77.1574 15.4606 76.305 15.1078C75.4526 14.7551 74.4532 14.4318 73.3363 14.1673C72.3075 13.9321 71.4845 13.697 70.8085 13.4618C70.1618 13.2267 69.6327 12.9915 69.2506 12.727C68.8685 12.4625 68.604 12.1685 68.4864 11.8746C68.31 11.5219 68.2513 11.1691 68.2513 10.7282Z" fill="white"/>
<path d="M109.931 11.0217V26.3062H113.634V4.99609H109.637L103.141 15.078L96.6449 4.99609H92.6475V26.3062H96.3804V11.0805L103.053 21.0742H103.17L109.931 11.0217Z" fill="white"/>
<path d="M144.908 15.7846C144.908 16.8133 144.732 17.8127 144.379 18.7533C144.026 19.6938 143.527 20.4875 142.909 21.1635C142.292 21.8395 141.528 22.398 140.646 22.7801C139.764 23.1916 138.794 23.368 137.736 23.368C136.678 23.368 135.708 23.1622 134.797 22.7507C133.915 22.3392 133.121 21.7808 132.504 21.1047C131.858 20.3993 131.358 19.6057 131.005 18.6651C130.652 17.7245 130.476 16.7545 130.476 15.6964C130.476 14.6676 130.652 13.6682 131.005 12.7277C131.358 11.7871 131.858 10.9935 132.475 10.3174C133.092 9.64137 133.856 9.0829 134.738 8.70079C135.62 8.28928 136.59 8.11292 137.648 8.11292C138.706 8.11292 139.676 8.31868 140.587 8.73018C141.469 9.14169 142.263 9.70016 142.88 10.3762C143.527 11.0816 144.026 11.8753 144.379 12.8158C144.732 13.7564 144.908 14.7264 144.908 15.7846ZM148.847 15.7258C148.847 14.2267 148.582 12.7864 148.024 11.4344C147.465 10.0823 146.701 8.90655 145.731 7.90718C144.761 6.90781 143.585 6.11419 142.204 5.52633C140.852 4.93846 139.323 4.64453 137.677 4.64453C136.031 4.64453 134.532 4.93846 133.151 5.52633C131.799 6.11419 130.594 6.9078 129.594 7.93656C128.595 8.93593 127.831 10.1117 127.272 11.4637C126.714 12.8158 126.449 14.2267 126.449 15.7552C126.449 17.2542 126.714 18.6945 127.272 20.0466C127.831 21.3987 128.595 22.5744 129.565 23.5737C130.535 24.5731 131.711 25.3667 133.092 25.9546C134.444 26.5425 135.973 26.8364 137.619 26.8364C139.265 26.8364 140.764 26.5425 142.145 25.9546C143.497 25.3667 144.702 24.5731 145.702 23.5444C146.701 22.545 147.465 21.3693 148.024 20.0172C148.582 18.6651 148.847 17.2248 148.847 15.7258Z" fill="white"/>
<path d="M164.485 10.7282C164.485 10.0228 164.779 9.40556 165.396 8.90588C166.013 8.40619 166.866 8.17105 167.953 8.17105C168.923 8.17105 169.893 8.3474 170.834 8.72952C171.774 9.11163 172.744 9.64071 173.714 10.3755L175.713 7.52439C174.625 6.6426 173.45 5.99595 172.186 5.52566C170.951 5.05537 169.54 4.84961 167.982 4.84961C166.924 4.84961 165.954 4.99658 165.073 5.29051C164.191 5.58444 163.426 5.99595 162.78 6.55442C162.133 7.11289 161.663 7.75954 161.281 8.52376C160.928 9.28798 160.752 10.1404 160.752 11.081C160.752 12.0803 160.899 12.9327 161.222 13.6088C161.545 14.3142 161.986 14.9021 162.603 15.3724C163.191 15.8721 163.956 16.2542 164.837 16.6069C165.719 16.9302 166.748 17.2241 167.865 17.4887C168.864 17.7238 169.658 17.959 170.305 18.1941C170.922 18.4293 171.421 18.6644 171.774 18.8996C172.127 19.1641 172.362 19.4286 172.509 19.752C172.627 20.0459 172.715 20.3986 172.715 20.7807C172.715 21.6037 172.362 22.2798 171.686 22.7795C171.01 23.2791 170.099 23.5143 168.923 23.5143C167.571 23.5143 166.395 23.2791 165.337 22.8089C164.279 22.3386 163.25 21.6331 162.192 20.7513L159.929 23.4261C161.193 24.5724 162.603 25.4542 164.103 26.0127C165.602 26.5712 167.189 26.8651 168.835 26.8651C169.952 26.8651 170.981 26.7182 171.921 26.4242C172.862 26.1303 173.655 25.7188 174.302 25.1603C174.978 24.6018 175.478 23.9258 175.86 23.1322C176.242 22.3386 176.418 21.4274 176.418 20.428C176.418 19.5462 176.271 18.7526 175.977 18.1059C175.683 17.4299 175.243 16.8714 174.684 16.3717C174.126 15.8721 173.391 15.4606 172.538 15.1078C171.686 14.7551 170.687 14.4318 169.57 14.1673C168.541 13.9321 167.718 13.697 167.042 13.4618C166.395 13.2267 165.866 12.9915 165.484 12.727C165.102 12.4625 164.837 12.1685 164.72 11.8746C164.543 11.5219 164.485 11.1691 164.485 10.7282Z" fill="white"/>
<path d="M45.1776 9.28825L34.9782 19.4583C34.8606 19.1938 34.7136 18.9292 34.6255 18.6647C34.2728 17.7535 34.0964 16.7541 34.0964 15.7254C34.0964 14.6966 34.2728 13.6972 34.6255 12.786C34.9782 11.8749 35.4779 11.0518 36.0951 10.3758C36.7124 9.69976 37.4766 9.17068 38.3584 8.75918C39.2402 8.37707 40.2102 8.17132 41.2683 8.17132C42.3265 8.17132 43.2965 8.37707 44.2076 8.78857C44.5604 8.90615 44.8837 9.0825 45.1776 9.28825ZM44.2664 22.7503C43.3846 23.1325 42.4147 23.3382 41.3565 23.3382C40.2984 23.3382 39.3284 23.1325 38.4172 22.721C38.0939 22.574 37.7705 22.3976 37.4766 22.2213L47.676 12.0512C47.7936 12.3158 47.9406 12.5803 48.0288 12.8448C48.3815 13.756 48.5578 14.7554 48.5578 15.7842C48.5578 16.8129 48.3815 17.8123 48.0288 18.7235C47.676 19.6347 47.1764 20.4577 46.5591 21.1337C45.9125 21.8098 45.1776 22.3388 44.2664 22.7503ZM45.8243 25.8954C47.1764 25.3075 48.3815 24.5139 49.3809 23.5146C50.3802 22.5152 51.1444 21.3395 51.7029 19.9874C52.2614 18.6353 52.5259 17.2244 52.5259 15.7254C52.5259 14.2263 52.2614 12.786 51.7029 11.4633C51.3796 10.6697 50.9681 9.9349 50.4978 9.25886L57.1407 2.64539L54.4953 0L47.8524 6.64287C47.2645 6.23136 46.6179 5.87864 45.9125 5.58471C44.5604 4.99684 43.0319 4.70291 41.3859 4.70291C39.7399 4.70291 38.2408 4.99684 36.8593 5.58471C35.5073 6.17257 34.3021 6.96619 33.3028 7.96556C32.3034 8.96493 31.5392 10.1407 30.9807 11.4927C30.4222 12.8448 30.1577 14.2557 30.1577 15.7548C30.1577 17.2538 30.4222 18.6941 30.9807 20.0168C31.304 20.8104 31.7155 21.5452 32.1858 22.2213L25.543 28.8641L28.1884 31.5095L34.8312 24.8667C35.4191 25.2782 36.0657 25.6309 36.7712 25.9248C38.1233 26.5127 39.6517 26.8066 41.2977 26.8066C42.9437 26.7772 44.4428 26.4833 45.8243 25.8954Z" fill="white"/>
</svg>
