<svg xmlns="http://www.w3.org/2000/svg" viewBox="7.059089660644531 7.062990188598633 3985.880859375 558.02001953125"><g xmlns="http://www.w3.org/2000/svg" mask="url(#mask0_31_71)">
<path d="M1094.32 565.038C1061.49 565.038 1031.31 557.245 1003.7 541.613C976.091 525.981 954.202 503.321 938.078 473.634C921.909 443.947 913.847 408.764 913.847 368.13V357.949C913.847 317.315 921.909 282.267 938.078 252.85C954.202 223.433 975.956 200.773 1003.3 184.871C1030.63 168.969 1060.99 161.04 1094.32 161.04C1120.89 161.04 1143.41 164.554 1161.93 171.581C1180.39 178.609 1195.39 187.484 1206.83 198.16C1218.27 208.837 1227.14 220.189 1233.4 232.172H1244.35V7.06299H1306.05V554.091H1245.88V490.798H1234.93C1224.53 510.079 1208.36 527.287 1186.47 542.379C1164.58 557.47 1133.87 565.038 1094.28 565.038H1094.32ZM1110.71 510.349C1150.3 510.349 1182.46 497.735 1207.19 472.463C1231.92 447.19 1244.3 411.917 1244.3 366.553V359.525C1244.3 314.206 1231.92 278.933 1207.19 253.66C1182.46 228.388 1150.26 215.774 1110.71 215.774C1071.17 215.774 1039.46 228.433 1014.24 253.66C988.973 278.933 976.362 314.206 976.362 359.525V366.553C976.362 411.872 988.973 447.19 1014.24 472.463C1039.51 497.735 1071.67 510.349 1110.71 510.349Z" fill="white"></path>
<path d="M1571.7 565.038C1533.14 565.038 1499.27 556.839 1470.13 540.441C1440.95 524.044 1418.29 500.979 1402.17 471.291C1386 441.604 1377.94 407.187 1377.94 368.13V358.759C1377.94 319.161 1386 284.519 1402.17 254.832C1418.29 225.144 1440.72 202.079 1469.37 185.682C1498.01 169.284 1530.8 161.085 1567.82 161.085C1604.84 161.085 1635.52 168.788 1663.13 184.15C1690.74 199.512 1712.35 221.541 1727.98 250.192C1743.61 278.843 1751.4 312.449 1751.4 351.011V379.121H1439.68C1441.26 420.296 1454.55 452.461 1479.54 475.616C1504.54 498.816 1535.8 510.394 1573.32 510.394C1606.15 510.394 1631.37 502.871 1649.12 487.734C1666.82 472.643 1680.38 454.668 1689.74 433.811L1742.89 459.579C1735.1 475.751 1724.25 491.879 1710.46 508.051C1696.64 524.224 1678.66 537.739 1656.55 548.685C1634.39 559.632 1606.15 565.083 1571.79 565.083L1571.7 565.038ZM1440.41 328.261H1688.84C1686.77 292.853 1674.66 265.238 1652.5 245.416C1630.34 225.64 1602.1 215.729 1567.73 215.729C1533.37 215.729 1504.18 225.64 1481.8 245.416C1459.41 265.238 1445.58 292.808 1440.41 328.261Z" fill="white"></path>
<path d="M1820.13 554.091V171.987H1880.31V218.883H1891.25C1898.01 202.215 1908.46 189.961 1922.51 182.168C1936.56 174.375 1955.07 170.455 1978 170.455H2023.31V226.721H1974.08C1946.47 226.721 1924.18 234.425 1907.29 249.786C1890.35 265.148 1881.88 288.979 1881.88 321.279V554.137H1820.18L1820.13 554.091Z" fill="white"></path>
<path d="M2075.6 554.091V171.987H2137.3V554.136H2075.6V554.091Z" fill="white"></path>
<path d="M2075.6 90.3133V7.06299H2137.3V90.2682H2075.6V90.3133Z" fill="white"></path>
<path d="M2324.85 554.091L2188.11 171.942H2253.73L2368.58 507.961H2379.53L2494.38 171.942H2560L2423.26 554.091H2324.8H2324.85Z" fill="white"></path>
<path d="M2769.39 565.038C2730.84 565.038 2696.97 556.839 2667.83 540.441C2638.64 524.044 2615.98 500.979 2599.86 471.291C2583.69 441.604 2575.63 407.187 2575.63 368.13V358.759C2575.63 319.161 2583.69 284.519 2599.86 254.832C2615.98 225.144 2638.41 202.079 2667.06 185.682C2695.71 169.284 2728.54 161.085 2765.52 161.085C2802.49 161.085 2833.21 168.788 2860.82 184.15C2888.43 199.512 2910.05 221.541 2925.68 250.192C2941.31 278.843 2949.1 312.449 2949.1 351.011V379.121H2637.38C2638.96 420.296 2652.24 452.461 2677.24 475.616C2702.24 498.816 2733.49 510.394 2771.01 510.394C2803.85 510.394 2829.07 502.871 2846.81 487.734C2864.51 472.643 2878.07 454.668 2887.44 433.811L2940.59 459.579C2932.79 475.751 2921.94 491.879 2908.16 508.051C2894.33 524.224 2876.36 537.739 2854.24 548.685C2832.09 559.632 2803.85 565.083 2769.48 565.083L2769.39 565.038ZM2638.14 328.261H2886.58C2884.51 292.853 2872.4 265.238 2850.24 245.416C2828.08 225.64 2799.84 215.729 2765.47 215.729C2731.11 215.729 2701.92 225.64 2679.54 245.416C2657.15 265.238 2643.32 292.808 2638.14 328.261Z" fill="white"></path>
<path d="M3017.87 554.091V171.987H3078.05V218.883H3088.99C3095.75 202.215 3106.2 189.961 3120.25 182.168C3134.3 174.375 3152.81 170.455 3175.74 170.455H3221.05V226.721H3171.82C3144.21 226.721 3121.92 234.425 3105.03 249.786C3088.09 265.148 3079.62 288.979 3079.62 321.279V554.137H3017.92L3017.87 554.091Z" fill="white"></path>
<path d="M3419.45 565.038C3372.07 565.038 3332.07 554.091 3299.51 532.198C3266.94 510.304 3247.26 475.661 3240.5 428.27L3299.1 414.981C3303.24 439.983 3311.08 459.669 3322.52 473.995C3333.96 488.32 3348.19 498.501 3365.08 504.493C3382.02 510.484 3400.13 513.457 3419.4 513.457C3448.05 513.457 3470.7 507.736 3487.37 496.249C3504.03 484.806 3512.36 469.445 3512.36 450.164C3512.36 430.883 3504.44 416.422 3488.54 408.358C3472.64 400.295 3450.88 393.627 3423.28 388.447L3391.25 382.996C3366.75 378.851 3344.37 372.319 3324.05 363.445C3303.74 354.57 3287.57 342.632 3275.59 327.496C3263.61 312.404 3257.62 293.394 3257.62 270.464C3257.62 236.091 3270.91 209.242 3297.48 189.961C3324.05 170.68 3359.18 161.04 3402.96 161.04C3446.74 161.04 3481.2 170.816 3508.04 190.367C3534.84 209.918 3552.18 237.398 3560.02 272.806L3502.19 287.672C3497.5 260.057 3486.29 240.686 3468.59 229.469C3450.88 218.252 3429 212.666 3402.96 212.666C3376.93 212.666 3356.35 217.486 3341.26 227.127C3326.13 236.767 3318.6 250.958 3318.6 269.698C3318.6 288.438 3325.76 301.367 3340.09 309.927C3354.41 318.531 3373.55 324.928 3397.51 329.072L3429.54 334.523C3456.61 339.208 3480.97 345.605 3502.59 353.669C3524.21 361.733 3541.37 373.355 3554.16 388.447C3566.91 403.583 3573.3 423.36 3573.3 447.821C3573.3 485.347 3559.34 514.223 3531.51 534.54C3503.63 554.857 3466.29 565.038 3419.4 565.038H3419.45Z" fill="white"></path>
<path d="M3813.23 565.038C3774.68 565.038 3740.81 556.839 3711.66 540.441C3682.48 524.044 3659.82 500.979 3643.7 471.291C3627.53 441.604 3619.47 407.187 3619.47 368.13V358.759C3619.47 319.161 3627.53 284.519 3643.7 254.832C3659.82 225.144 3682.25 202.079 3710.9 185.682C3739.54 169.284 3772.33 161.085 3809.36 161.085C3846.38 161.085 3877.05 168.788 3904.66 184.15C3932.27 199.512 3953.89 221.541 3969.52 250.192C3985.15 278.843 3992.94 312.449 3992.94 351.011V379.121H3681.22C3682.79 420.296 3696.08 452.461 3721.08 475.616C3746.07 498.816 3777.33 510.394 3814.85 510.394C3847.68 510.394 3872.91 502.871 3890.65 487.734C3908.35 472.643 3921.91 454.668 3931.28 433.811L3984.42 459.579C3976.59 475.751 3965.78 491.879 3952 508.051C3938.17 524.224 3920.2 537.739 3898.08 548.685C3875.92 559.632 3847.68 565.083 3813.32 565.083L3813.23 565.038ZM3681.94 328.261H3930.38C3928.31 292.853 3916.19 265.238 3894.03 245.416C3871.87 225.64 3843.63 215.729 3809.27 215.729C3774.9 215.729 3745.71 225.64 3723.33 245.416C3700.95 265.238 3687.12 292.808 3681.94 328.261Z" fill="white"></path>
<path d="M535.288 18.1445C464.621 32.2448 393.008 30.6681 322.971 13.8649C283.967 3.86401 247.26 6.97238 217.624 25.7127C187.988 44.453 169.431 76.2575 161.684 115.81C146.821 186.312 117.501 251.678 74.4427 309.431C13.0987 386.96 -9.91661 460.164 20.26 507.871C50.3915 555.623 126.373 566.254 222.713 544.09C293.38 529.99 364.993 531.566 435.03 548.37C474.079 558.371 510.787 555.217 540.423 536.522C570.059 517.781 588.615 485.977 596.362 446.424C611.225 375.923 640.546 310.557 683.604 252.804C744.948 175.32 767.963 102.116 737.787 54.3638C707.61 6.61199 631.628 -4.01954 535.288 18.1445ZM225.551 38.2363C246.809 24.8117 272.302 20.487 299.776 24.0009C276.806 29.3617 254.601 38.5066 233.928 51.5708C213.255 64.6349 195.464 80.8075 180.781 99.2325C189.429 72.8789 204.247 51.7059 225.506 38.2813L225.551 38.2363ZM173.034 137.299C189.384 107.972 212.489 82.7446 241.9 64.1394C271.311 45.5342 304.01 35.5334 337.519 33.326C339.276 33.9567 341.077 34.6774 342.789 35.3081C311.396 44.6332 280.094 58.5984 250.277 77.4288C220.461 96.3043 194.428 118.558 172.539 142.93C172.719 141.083 172.854 139.146 173.034 137.299ZM171.999 166.4C195.149 137.704 224.109 111.576 258.25 89.9975C292.39 68.419 328.421 53.4628 364.273 44.8585C367.29 46.3451 370.263 47.9669 373.281 49.6337C337.79 63.1483 301.803 81.0327 266.672 103.287C231.541 125.496 199.923 150.318 172.494 176.581C172.269 173.158 172.089 169.734 172.044 166.4H171.999ZM174.16 195.412C202.851 166.896 236.585 139.867 274.554 115.855C312.522 91.8445 351.437 73.014 389.495 59.2741C392.783 61.3464 396.026 63.5087 399.314 65.7612C359.273 84.3663 320.269 105.449 282.931 129.145C245.503 152.751 209.742 178.924 175.737 207.079C175.106 203.115 174.566 199.286 174.115 195.412H174.16ZM32.826 499.942C12.333 467.552 21.0707 418.629 57.0123 360.696C47.4639 403.267 51.6526 442.955 72.0105 475.165C92.3685 507.42 126.418 528.188 168.936 537.873C101.196 545.487 53.274 532.377 32.826 499.942ZM216.813 529.674C157.406 527.377 109.574 506.79 84.5766 467.237C59.5796 427.684 61.5163 375.607 84.9369 320.963C88.0447 316.954 91.2425 312.989 94.5754 308.98C89.531 356.236 98.5389 402.637 123.716 442.505C148.893 482.418 186.952 510.439 231.766 526.161C226.722 527.422 221.722 528.638 216.813 529.719V529.674ZM258.52 518.682C207.265 506.159 163.621 477.823 136.282 434.531C108.943 391.239 102.052 339.658 112.771 287.987C118.176 281.996 123.896 276.049 129.706 270.058C132.634 317.314 147.587 365.606 175.467 409.754C203.346 453.902 240.594 488.139 281.985 511.069C274.103 513.772 266.267 516.385 258.52 518.682ZM300.947 504.222C256.988 482.733 217.173 448.001 187.988 401.826C158.802 355.651 144.524 304.79 143.984 255.822C151.19 248.885 158.622 241.947 166.369 235.055C177.854 284.383 199.788 333.712 227.172 377.049C254.556 420.386 289.687 461.38 329.277 492.915C319.774 496.924 310.315 500.708 300.947 504.222ZM532.451 523.953C511.192 537.378 485.7 541.702 458.226 538.189C481.196 532.828 503.4 523.683 524.074 510.619C544.747 497.555 562.537 481.382 577.22 462.957C568.573 489.311 553.755 510.484 532.496 523.908L532.451 523.953ZM584.967 424.936C568.618 454.263 545.512 479.49 516.102 498.095C486.691 516.7 453.992 526.701 420.482 528.909C418.726 528.278 416.924 527.557 415.213 526.926C446.605 517.601 477.908 503.636 507.724 484.806C537.54 465.93 563.573 443.676 585.463 419.305C585.282 421.152 585.147 423.089 584.967 424.936ZM586.003 395.834C562.853 424.53 533.892 450.659 499.752 472.237C465.612 493.816 429.58 508.772 393.729 517.376C390.711 515.889 387.738 514.268 384.721 512.601C420.212 499.086 456.199 481.202 491.33 458.948C526.461 436.739 558.078 411.917 585.508 385.653C585.733 389.077 585.913 392.501 585.958 395.834H586.003ZM583.841 366.823C555.151 395.339 521.416 422.368 483.448 446.379C445.479 470.39 406.565 489.266 368.507 502.96C365.219 500.888 361.976 498.726 358.688 496.473C398.728 477.868 437.733 456.785 475.07 433.09C512.498 409.484 548.26 383.311 582.265 355.155C582.895 359.119 583.436 362.949 583.886 366.823H583.841ZM467.098 420.521C427.914 445.253 387.063 467.462 344.726 486.202C302.974 454.263 267.888 413.538 239.738 369.12C211.724 324.612 190.014 275.464 179.07 224.018C214.156 193.88 251.764 166.445 290.903 141.669C330.088 116.937 370.939 94.7276 413.276 75.9873C455.028 107.972 490.114 148.651 518.263 193.069C546.278 237.578 567.987 286.726 578.932 338.172C543.846 368.309 506.238 395.744 467.098 420.521ZM591.633 327.135C580.148 277.806 558.214 228.478 530.829 185.141C503.445 141.804 468.314 100.809 428.725 69.275C438.228 65.2656 447.686 61.4815 457.055 57.9677C501.013 79.456 540.828 114.189 570.014 160.364C599.2 206.539 613.477 257.399 614.018 306.322C606.811 313.26 599.38 320.197 591.633 327.09V327.135ZM628.295 292.177C625.368 244.921 610.415 196.628 582.535 152.48C554.655 108.332 517.453 74.0952 476.016 51.1653C483.898 48.4624 491.735 45.8496 499.482 43.5521C550.737 56.0757 594.38 84.4114 621.719 127.703C649.059 170.995 655.95 222.576 645.23 274.247C639.825 280.239 634.105 286.185 628.295 292.177ZM673.065 241.272C669.957 245.281 666.759 249.245 663.426 253.255C668.471 205.998 659.463 159.598 634.286 119.73C609.108 79.8164 571.05 51.796 526.235 36.074C531.28 34.8126 536.279 33.5963 541.189 32.5151C600.596 34.8126 648.473 55.3999 673.425 94.9528C698.422 134.506 696.485 186.582 673.065 241.227V241.272ZM700.989 201.538C710.538 158.967 706.349 119.279 685.991 87.0693C665.633 54.8143 631.583 34.0468 589.066 24.3612C656.805 16.748 704.728 29.8572 725.176 62.2924C745.669 94.7276 736.931 143.606 700.989 201.538Z" fill="white"></path>
</g></svg>