<svg width="102" height="25" viewBox="0 0 102 25" fill="none" xmlns="http://www.w3.org/2000/svg">
<g clip-path="url(#clip0_25090_328)">
<path d="M21.4594 13.1083L7.95222 20.818C7.0194 21.3505 6.69964 22.5294 7.23801 23.4513C7.77637 24.3731 8.96898 24.6888 9.9018 24.1564L23.409 16.4467C24.3418 15.9143 24.6615 14.7353 24.1231 13.8135C23.5848 12.8916 22.3922 12.5759 21.4594 13.1083Z" fill="white"/>
<path d="M12.1177 10.6435L1.98735 16.4258C1.05456 16.9582 0.734795 18.1371 1.27316 19.059C1.81152 19.9809 3.00415 20.2966 3.93696 19.7641L14.0673 13.9819C15.0001 13.4495 15.3199 12.2705 14.7815 11.3486C14.2431 10.4268 13.0505 10.111 12.1177 10.6435Z" fill="white"/>
<path d="M14.6225 1.40129L1.11528 9.11099C0.182478 9.6434 -0.137272 10.8224 0.401091 11.7442C0.939454 12.6661 2.13207 12.9818 3.06487 12.4494L16.572 4.73968C17.5048 4.20727 17.8246 3.02831 17.2862 2.10644C16.7479 1.18457 15.5552 0.868863 14.6225 1.40129Z" fill="white"/>
<path d="M44.6099 24.503H28.1201V1.63291H44.3127V5.16172H32.0532V11.0426H43.1564V14.4735H32.0532V20.9743H44.6112V24.503H44.6099ZM53.5104 24.9928C49.3465 24.9928 46.9334 22.4113 46.9334 18.6544V7.18776H50.8326V18.492C50.8326 20.4523 52.221 21.5955 54.303 21.5955C56.9794 21.5955 58.5657 19.8647 58.5981 17.6427V7.18776H62.4975V24.503H59.3584L59.0614 21.9873C58.0366 23.8496 55.9546 24.9928 53.5104 24.9928ZM69.7693 24.503H65.8699V0H69.7693V24.503ZM81.2432 24.9928C75.8903 24.9928 72.2215 21.2037 72.2215 15.9105C72.2215 10.1933 76.0221 6.6645 80.9133 6.6645C85.8045 6.6645 89.1742 10.0953 89.2736 15.7146V16.6297H76.1209C76.3855 19.6674 78.3017 21.7256 81.2756 21.7256C83.2912 21.7256 84.8111 20.7462 85.4066 19.014H89.2066C88.3152 22.7387 85.3742 24.9928 81.2432 24.9928ZM76.2866 13.918H85.2425C84.7473 11.4344 83.1934 9.93162 80.9133 9.93162C78.6332 9.93162 76.8822 11.4344 76.2866 13.918ZM95.5556 24.503H91.6568V7.18776H94.7959L95.2586 10.5851C96.3822 8.23298 98.4318 6.99186 101.339 6.99186H102V10.7488H101.339C97.704 10.7488 95.5556 12.6769 95.5556 15.9427V24.5017V24.503Z" fill="white"/>
</g>
<defs>
<clipPath id="clip0_25090_328">
<rect width="102" height="25" fill="white"/>
</clipPath>
</defs>
</svg>
