<svg width="105" height="30" viewBox="0 0 105 30" fill="none" xmlns="http://www.w3.org/2000/svg">
<g clip-path="url(#clip0_25090_311)">
<mask id="mask0_25090_311" style="mask-type:luminance" maskUnits="userSpaceOnUse" x="0" y="0" width="105" height="30">
<path d="M105 0H0V30H105V0Z" fill="white"/>
</mask>
<g mask="url(#mask0_25090_311)">
<path d="M36.9496 28.0035L19.5364 2.0332L2.06934 28.0035H26.4043L19.5364 18.0914L16.1295 23.2411H12.5063L19.5362 12.8863L29.7031 28.0035H36.9496Z" fill="white" fill-opacity="0.99"/>
<path d="M53.1189 14.8459C52.9159 14.8459 52.8289 14.9322 52.8289 15.1338V16.8615C52.8289 17.0631 52.9159 17.1494 53.1189 17.1494H58.8911V20.173C57.7598 22.0159 55.7294 23.0813 53.0319 23.0813C48.7103 23.0813 46.0415 20.317 46.0415 15.0186C46.0415 9.7491 49.1741 6.95573 52.7419 6.95573C55.5264 6.95573 57.7889 8.04997 58.5141 10.6994C58.5721 10.9009 58.6881 10.9873 58.8622 10.9873H60.7189C60.9219 10.9873 61.0379 10.9009 61.0379 10.6994C60.2548 6.66806 56.7739 4.65234 52.7422 4.65234C48.2173 4.65234 43.4893 8.10781 43.4893 15.0189C43.4893 21.8434 47.9562 25.3854 53.1482 25.3854C56.3099 25.3854 59.1815 24.0896 61.0379 21.2388C61.2409 20.9509 61.3279 20.5766 61.3279 20.1446V15.1342C61.3279 14.9327 61.2409 14.8463 61.0379 14.8463L53.1189 14.8459ZM83.2272 5.22825C83.2272 5.02671 83.1402 4.94033 82.9371 4.94033H80.1816C79.9496 4.94033 79.8045 5.02671 79.7175 5.22825L74.0903 18.0422L68.4631 5.22825C68.3761 5.02671 68.2311 4.94033 67.999 4.94033H65.2435C65.0404 4.94033 64.9534 5.02671 64.9534 5.22825V24.809C64.9534 25.0106 65.0404 25.097 65.2435 25.097H67.0999C67.3029 25.097 67.3899 25.0106 67.3899 24.809V8.71251L73.0753 21.4689C73.1623 21.6416 73.2783 21.728 73.4524 21.728H74.7286C74.9026 21.728 75.0186 21.6416 75.1057 21.4689L80.7911 8.71251V24.809C80.7911 25.0106 80.8781 25.097 81.0811 25.097H82.9375C83.1405 25.097 83.2276 25.0106 83.2276 24.809L83.2272 5.22825ZM89.5505 5.22825C89.3475 4.96912 89.3475 4.94033 89.1444 4.94033H86.9109C86.7079 4.94033 86.6209 5.08429 86.7079 5.22825L92.8572 14.4716L85.9538 24.809C85.8667 24.953 85.9538 25.097 86.1568 25.097H88.3322C88.5352 25.097 88.5932 25.0682 88.7963 24.809L94.3075 16.5736L99.8186 24.809C100.022 25.0682 100.08 25.097 100.283 25.097H102.458C102.661 25.097 102.748 24.953 102.661 24.809L95.7578 14.4716L101.907 5.22825C101.994 5.08429 101.907 4.94033 101.704 4.94033H99.4706C99.2676 4.94033 99.2676 4.96912 99.0645 5.22825L94.3075 12.3405L89.5505 5.22825Z" fill="white"/>
</g>
</g>
<defs>
<clipPath id="clip0_25090_311">
<rect width="105" height="30" fill="white"/>
</clipPath>
</defs>
</svg>
