<svg width="198" height="39" viewBox="0 0 198 39" fill="none" xmlns="http://www.w3.org/2000/svg">
<g clip-path="url(#clip0_25207_421)">
<mask id="mask0_25207_421" style="mask-type:luminance" maskUnits="userSpaceOnUse" x="0" y="0" width="198" height="39">
<path d="M0 0H198V39H0V0Z" fill="white"/>
</mask>
<g mask="url(#mask0_25207_421)">
<path d="M71.3823 30.3926C71.3823 30.6391 71.1945 30.7623 70.7883 30.7327C68.6894 30.6096 66.585 30.6096 64.486 30.7327C64.0798 30.7623 63.8928 30.6391 63.8928 30.3926C63.8928 30.239 64.0798 30.0518 64.4538 29.8989C64.985 29.682 65.1099 29.1891 65.1099 27.9551V21.4148H55.6004V27.9551C55.6004 29.1906 55.7261 29.6844 56.2565 29.8989C56.6305 30.0525 56.8175 30.239 56.8175 30.3926C56.8175 30.6391 56.6305 30.7623 56.2243 30.7327C54.1254 30.6096 52.021 30.6096 49.922 30.7327C49.5158 30.7623 49.3288 30.6391 49.3288 30.3926C49.3288 30.239 49.5158 30.0837 49.86 29.8989C50.4532 29.682 50.5459 29.1891 50.5459 27.9551V11.1383C50.5459 9.90437 50.4532 9.40907 49.86 9.19457C49.5158 9.03857 49.3288 8.85449 49.3288 8.70083C49.3288 8.45435 49.5158 8.33111 49.922 8.36075C52.1692 8.48399 53.9771 8.48399 56.2243 8.36075C56.6305 8.33111 56.8175 8.45435 56.8175 8.70083C56.8175 8.85683 56.6305 9.04169 56.2565 9.19457C55.7253 9.40907 55.6004 9.90437 55.6004 11.1383V20.1473H65.1099V11.1383C65.1099 9.90437 64.9842 9.40907 64.4538 9.19457C64.0798 9.03857 63.8928 8.85449 63.8928 8.70083C63.8928 8.45435 64.0798 8.33111 64.486 8.36075C66.7332 8.48399 68.5411 8.48399 70.7883 8.36075C71.1945 8.33111 71.3815 8.45435 71.3815 8.70083C71.3815 8.85683 71.1945 9.04169 70.8205 9.19457C70.2893 9.40907 70.1644 9.90437 70.1644 11.1383V27.9536C70.1644 29.1891 70.2901 29.6821 70.8205 29.8973C71.1945 30.0502 71.3815 30.2374 71.3815 30.3903L71.3823 30.3926ZM89.9471 13.4534C89.9471 13.6998 89.7923 13.8551 89.478 13.9471C88.7599 14.0703 88.074 14.9034 87.4808 16.4774L81.8645 30.4558C81.539 31.2249 81.1955 31.9864 80.8344 32.7396C80.5531 33.3262 80.1485 33.9432 79.6794 34.5914C78.7122 35.9181 77.4951 36.5351 75.9661 36.6584C74.4073 36.8128 73.3151 36.4116 72.6897 35.4548C72.2209 34.7445 72.2209 34.0968 72.6897 33.5118C72.8445 33.3262 73.0338 33.171 73.2829 33.0477C74.5322 32.5844 74.8119 32.8013 75.6848 33.2014C76.1531 33.4183 76.4957 33.5415 76.777 33.5711C78.119 33.6944 79.241 32.7989 80.084 30.9176L73.345 15.9221C72.846 14.8121 72.784 14.6273 72.5027 14.3488C72.3755 14.1937 72.2164 14.0674 72.036 13.9783C71.6612 13.8239 71.4742 13.6382 71.4742 13.4534C71.4742 13.2365 71.6612 13.1133 72.0682 13.1453C74.4395 13.2685 76.0612 13.2685 78.4325 13.1453C78.8387 13.1133 79.0257 13.2365 79.0257 13.4534C79.0257 13.6382 78.8387 13.8231 78.4647 13.9783C77.8715 14.1951 77.9037 14.6881 78.4018 15.9221L82.178 25.6721C84.455 20.0873 85.672 17.0024 85.8913 16.4774C86.5146 14.9653 86.3899 14.1322 85.5173 13.9783C84.7693 13.7615 84.7693 13.1453 85.5495 13.1453C86.6094 13.2069 87.2953 13.2365 87.5774 13.2365C87.7966 13.2365 88.3883 13.2069 89.3877 13.1453C89.7617 13.1133 89.9487 13.2365 89.9487 13.4534H89.9471ZM107.888 30.1454C107.888 30.3622 107.701 30.4854 107.295 30.4854C105.143 30.5478 103.551 30.6391 102.489 30.7639C102.115 30.8263 101.928 30.6407 101.928 30.239V27.8935C100.773 30.0541 98.9003 31.1321 96.3436 31.1321C93.9417 31.1321 92.0065 30.2374 90.6024 28.4489C89.1983 26.6588 88.543 24.2213 88.6373 21.1683C88.7316 18.3588 89.6045 16.2005 91.2883 14.6889C93.0043 13.1772 95.0943 12.5603 97.6228 12.8372C99.5886 13.054 101.025 14.0087 101.93 15.6756V12.6203C101.93 11.5101 101.711 10.8622 101.274 10.6766C100.9 10.5229 100.713 10.3685 100.713 10.1516C100.713 9.93479 100.9 9.74915 101.244 9.62591C102.992 9.31781 104.613 8.79287 106.08 8.05265C106.361 7.89743 106.641 8.02145 106.641 8.36075V27.7383C106.641 28.9418 106.798 29.4356 107.327 29.6524C107.701 29.8053 107.888 29.9925 107.888 30.1454ZM101.991 22.4335V21.0131C101.866 16.539 100.088 14.1936 97.4342 14.3168C96.1849 14.3465 95.2193 15.1187 94.5011 16.6007C93.783 18.0827 93.471 19.9328 93.5033 22.1543C93.5355 24.4069 93.9723 26.1354 94.8453 27.4006C95.719 28.635 96.7797 29.2211 98.0274 29.1587C100.399 29.0674 101.866 26.7219 101.991 22.4335ZM122.865 14.5953C123.334 15.5523 123.334 16.4158 122.803 17.2488C122.396 17.8978 121.805 18.2355 120.992 18.2059C119.899 18.2059 119.368 17.4041 119.213 16.6638C119.089 15.8916 118.495 15.0906 117.341 15.0906C115.874 15.0906 115.126 16.635 115.126 19.6879V27.9575C115.126 29.193 115.407 29.7156 116.186 29.9324C116.592 30.0557 116.779 30.2117 116.779 30.3965C116.779 30.643 116.56 30.7662 116.156 30.7366C113.784 30.6134 112.006 30.6134 109.759 30.7366C109.353 30.7662 109.166 30.643 109.166 30.3965C109.166 30.2429 109.353 30.0557 109.727 29.9028C110.196 29.7499 110.413 29.101 110.413 27.959V17.6849C110.413 16.5749 110.196 15.926 109.727 15.7411C109.353 15.5882 109.166 15.433 109.166 15.2162C109.166 14.9993 109.32 14.8457 109.603 14.784C111.194 14.444 112.752 13.9206 114.251 13.1492C114.595 12.9643 114.813 13.0556 114.844 13.4573L115.064 15.9556V16.0492C115.812 13.859 117.186 12.7475 119.213 12.7475C121.054 12.7469 122.271 13.3642 122.865 14.5992V14.5953ZM139.746 30.331C139.746 30.6087 139.526 30.7327 139.123 30.7327H138.778C137.935 30.7327 137.906 30.7327 137.062 30.6391C136.731 30.6181 136.404 30.5449 136.095 30.4223C135.314 29.9901 134.472 29.4036 134.192 27.9536C133.194 29.9582 130.947 31.1321 128.481 31.1321C125.08 31.1321 123.114 29.374 123.022 26.8756C122.835 23.1729 126.236 21.5381 129.137 20.8891C131.134 20.3642 133.349 19.8408 134.097 19.2542V18.7605C134.097 15.1506 133.536 13.547 131.414 13.547C127.234 13.547 130.229 18.7308 126.454 18.514C125.611 18.4844 125.08 18.0507 124.83 17.2785C124.519 16.3542 124.768 15.4587 125.611 14.5641C126.796 13.3598 128.731 12.7436 131.414 12.7436C136.282 12.7436 138.746 14.7482 138.746 19.1926C138.746 19.4711 138.746 20.7659 138.777 23.0793C138.807 25.3928 138.807 26.8756 138.807 27.5238C138.807 28.7593 138.932 29.4987 139.181 29.7756C139.431 30.0221 139.742 30.0838 139.742 30.331H139.746ZM134.067 25.2399L134.097 20.7339C133.816 20.9195 133.255 21.198 132.412 21.5357C131.569 21.8758 130.853 22.2143 130.197 22.5224C128.948 23.1386 127.671 24.4982 127.795 26.1947C127.888 27.6455 129.075 28.5082 130.571 28.4785C132.693 28.4785 134.065 26.9669 134.065 25.2376L134.067 25.2399ZM149.575 29.4972C148.795 30.546 147.609 31.0704 146.018 31.0704C143.305 31.0704 141.963 29.7117 141.963 26.9988V14.4081H140.871C140.528 14.4081 140.372 14.1936 140.372 13.7599C140.372 13.2669 140.466 13.1437 140.871 13.1437H141.277C142.182 13.1437 143.055 12.8028 143.866 12.1562C144.709 11.4776 145.27 10.6742 145.582 9.71951C145.675 9.44105 145.863 9.31781 146.143 9.31781C146.487 9.31781 146.674 9.47069 146.674 9.81155V13.1429H149.17C149.482 13.1429 149.639 13.3582 149.639 13.7599C149.64 14.192 149.484 14.4081 149.17 14.4081H146.674V27.2141C146.674 28.4177 146.986 29.0666 147.641 29.1899C147.829 29.2195 148.265 29.1275 148.921 28.9114C149.265 28.7266 149.482 28.6946 149.607 28.8194C149.762 28.973 149.762 29.1899 149.577 29.498L149.575 29.4972ZM158.248 30.3926C158.248 30.6391 158.061 30.7623 157.655 30.7327C156.658 30.6745 155.659 30.6433 154.66 30.6391C153.724 30.6381 152.726 30.6693 151.665 30.7327C151.259 30.7623 151.071 30.6391 151.071 30.3926C151.071 30.239 151.259 30.0525 151.633 29.8989C152.164 29.682 152.288 29.1891 152.288 27.9551V17.7114C152.288 16.5078 152.164 16.0149 151.633 15.7676C151.259 15.6147 151.071 15.4595 151.071 15.2427C151.071 15.0258 151.259 14.841 151.633 14.7177C153.381 14.3777 154.972 13.8543 156.438 13.1437C156.844 12.9588 157.031 13.0501 157.031 13.4526V27.9543C157.031 29.1899 157.156 29.6828 157.687 29.8981C158.061 30.051 158.248 30.2382 158.248 30.3911V30.3926ZM152.258 11.0463C151.041 10.0596 151.041 8.45435 152.258 7.46765C153.475 6.48095 155.41 6.48095 156.625 7.46765C157.842 8.45435 157.842 10.0596 156.625 11.0463C155.408 12.0033 153.473 12.0033 152.258 11.0463ZM175.191 15.3971C176.876 17.1552 177.717 19.3455 177.717 21.9382C177.717 24.5309 176.875 26.7516 175.191 28.5105C173.537 30.2686 171.322 31.1321 168.607 31.1321C165.891 31.1321 163.676 30.2686 162.022 28.5105C160.369 26.7516 159.526 24.5613 159.526 21.9382C159.557 19.3158 160.399 17.1552 162.053 15.3971C163.706 13.6382 165.891 12.7436 168.604 12.7436C171.318 12.7436 173.535 13.6382 175.188 15.3971H175.191ZM164.427 22.648C164.833 24.9615 165.549 26.8132 166.579 28.264C167.609 29.714 168.826 30.3006 170.23 30.0837C173.069 29.5292 173.569 25.4864 172.819 21.2276C172.413 18.9141 171.697 17.0624 170.667 15.6116C169.637 14.1616 168.42 13.575 167.048 13.7919C164.115 14.3465 163.646 18.3892 164.427 22.648ZM198 30.3926C198 30.6391 197.813 30.7623 197.407 30.7327C195.412 30.6087 193.411 30.6087 191.416 30.7327C191.01 30.7623 190.823 30.6391 190.823 30.3918C190.823 30.239 191.01 30.0518 191.384 29.8989C191.915 29.682 192.04 29.1891 192.04 27.9551V20.088C192.04 16.694 190.885 14.997 188.575 14.997C187.296 14.997 186.329 15.4905 185.673 16.4774C185.017 17.4337 184.705 18.606 184.705 19.9328V27.9551C184.705 29.097 184.923 29.746 185.391 29.8989C185.735 30.0518 185.922 30.239 185.922 30.3926C185.922 30.6391 185.735 30.7623 185.329 30.7327C184.342 30.6712 183.354 30.64 182.366 30.6391C181.4 30.6391 180.431 30.6687 179.371 30.7327C178.965 30.7623 178.777 30.6391 178.777 30.3918C178.777 30.239 178.965 30.0837 179.308 29.8989C179.777 29.746 179.994 29.097 179.994 27.9551V17.681C179.994 16.571 179.777 15.9221 179.308 15.7372C178.934 15.5843 178.747 15.4291 178.747 15.2123C178.747 14.9954 178.902 14.8418 179.184 14.7801C180.775 14.4401 182.334 13.9167 183.832 13.1453C184.176 12.9604 184.394 13.0517 184.426 13.4534L184.645 15.9517L184.675 16.2606C185.767 13.9151 187.67 12.7428 190.354 12.7428C194.816 12.7428 196.781 15.1187 196.781 20.088V27.9551C196.781 29.1906 196.906 29.6844 197.437 29.8989C197.811 30.0518 197.998 30.239 197.998 30.3926H198ZM35.4468 22.1504L37.0536 20.5631C37.359 20.2615 37.6013 19.9031 37.7667 19.5082C37.9321 19.1134 38.0172 18.69 38.0172 18.2625C38.0172 17.8349 37.9321 17.4115 37.7667 17.0167C37.6013 16.6219 37.359 16.2634 37.0536 15.9618L35.692 14.6156C30.8182 19.436 23.526 20.4024 17.6803 17.5218C21.6308 18.2433 25.726 17.681 29.356 15.7512C31.7838 14.4603 32.2443 11.2054 30.2949 9.27725L22.2586 1.33139C21.395 0.478076 20.2262 -0.000976562 19.0077 -0.000976562C17.7893 -0.000976562 16.6204 0.478076 15.7568 1.33139L7.09511 9.89657C12.7994 7.49963 19.6508 8.61113 24.2905 13.2303C17.2135 9.83261 8.44497 11.0385 2.56861 16.8495L0.961828 18.4383C0.656677 18.7399 0.414535 19.0982 0.249307 19.4929C0.0840797 19.8876 -0.000976563 20.3108 -0.000976562 20.7382C-0.000976563 21.1656 0.0840797 21.5888 0.249307 21.9834C0.414535 22.3781 0.656677 22.7365 0.961828 23.038L2.32111 24.3827C7.19569 19.5623 14.4879 18.5951 20.3336 21.4764C16.3823 20.7542 12.2871 21.3173 8.6579 23.247C6.23004 24.5379 5.76961 27.7921 7.71897 29.7203L15.7553 37.6661C16.6188 38.5192 17.7875 38.9981 19.0058 38.9981C20.224 38.9981 21.3927 38.5192 22.2563 37.6661L30.9188 29.1017C25.2137 31.4995 18.3623 30.3872 13.7234 25.768C20.8003 29.1657 29.5689 27.9598 35.4445 22.1488L35.4468 22.1504Z" fill="white"/>
</g>
</g>
<defs>
<clipPath id="clip0_25207_421">
<rect width="198" height="39" fill="white"/>
</clipPath>
</defs>
</svg>
