<svg width="107" height="43" viewBox="0 0 107 43" fill="none" xmlns="http://www.w3.org/2000/svg">
<path fill-rule="evenodd" clip-rule="evenodd" d="M13.7507 0V34.2628H0V8.30621L13.7507 0Z" fill="white"/>
<path fill-rule="evenodd" clip-rule="evenodd" d="M25.541 42.3025V7.83203H39.2917V8.22572V33.9964L25.541 42.3025Z" fill="white"/>
<path d="M49.814 11.7539H45.4141V33.9023H49.814V11.7539Z" fill="white"/>
<path d="M49.814 11.7539H45.4141V33.9023H49.814V11.7539Z" fill="white"/>
<path d="M73.812 22.3911C73.812 28.5095 68.85 33.4695 62.7288 33.4695C56.6076 33.4695 51.6455 28.5095 51.6455 22.3911C51.6455 16.2726 56.6076 11.3125 62.7288 11.3125C68.85 11.3125 73.812 16.2726 73.812 22.3911ZM56.0788 22.3911C56.0788 26.0621 59.0561 29.0381 62.7288 29.0381C66.4014 29.0381 69.3788 26.0621 69.3788 22.3911C69.3788 18.7199 66.4014 15.7439 62.7288 15.7439C59.0561 15.7439 56.0788 18.7199 56.0788 22.3911Z" fill="white"/>
<path d="M70.2988 5.26562H74.7321V33.958H70.2988V5.26562Z" fill="white"/>
<path d="M77.4248 5.14648H81.8581V33.8389H77.4248V5.14648Z" fill="white"/>
<path d="M106.566 24.5515C106.987 21.836 106.397 19.0595 104.909 16.7551C103.422 14.4506 101.141 12.7806 98.5047 12.0656C95.8686 11.3505 93.0633 11.6409 90.627 12.881C88.1906 14.121 86.295 16.2232 85.3041 18.7842C84.3132 21.3452 84.2967 24.1845 85.258 26.7569C86.2192 29.3292 88.0903 31.4536 90.5122 32.7221C92.934 33.9907 95.7359 34.3139 98.3799 33.6299C101.024 32.9458 103.324 31.3027 104.838 29.0158L101.152 26.542C100.244 27.9141 98.8637 28.9 97.2773 29.3105C95.6909 29.7208 94.0098 29.5269 92.5567 28.7658C91.1036 28.0048 89.981 26.73 89.4042 25.1866C88.8275 23.6431 88.8373 21.9396 89.4318 20.4031C90.0265 18.8664 91.1638 17.6051 92.6255 16.8611C94.0873 16.1171 95.7706 15.9428 97.3522 16.3719C98.9339 16.8008 100.302 17.8028 101.195 19.1856C102.088 20.5682 102.442 22.2341 102.189 23.8634L106.566 24.5515Z" fill="white"/>
<path d="M86.6807 20.6855H106.274L106.551 24.545H86.6807V20.6855Z" fill="white"/>
</svg>
