<svg width="194" height="53" viewBox="0 0 194 53" fill="none" xmlns="http://www.w3.org/2000/svg">
<g clip-path="url(#clip0_25090_471)">
<path d="M14.7242 1.28655e-06C12.7807 0.0096939 10.8581 0.404179 9.06634 1.161C7.27453 1.91782 5.64856 3.02221 4.28128 4.41092C2.91399 5.79961 1.83219 7.44554 1.09762 9.25463C0.363066 11.0637 -0.00983096 13.0006 0.000197005 14.9547V19.8943H11.9635V12.7378C11.9634 12.4017 12.0291 12.0688 12.157 11.7583C12.2848 11.4478 12.4722 11.1656 12.7086 10.9279C12.9449 10.6902 13.2256 10.5018 13.5344 10.3732C13.8432 10.2446 14.1742 10.1784 14.5085 10.1785H14.9398C15.2741 10.1784 15.6052 10.2446 15.914 10.3732C16.2229 10.5018 16.5035 10.6902 16.74 10.9279C16.9763 11.1656 17.1637 11.4478 17.2917 11.7583C17.4196 12.0688 17.4853 12.4016 17.4853 12.7378V31.9227C19.0564 31.9227 20.6121 31.6116 22.0636 31.0072C23.515 30.4027 24.8339 29.5166 25.9449 28.3998C27.0558 27.2828 27.9369 25.9568 28.5382 24.4975C29.1393 23.0381 29.4487 21.4739 29.4487 19.8943V14.9547C29.4572 10.9955 27.9066 7.19397 25.1357 4.38085C23.7762 2.99264 22.1555 1.89038 20.3679 1.13826C18.5805 0.386143 16.662 -0.000814294 14.7242 1.28655e-06Z" fill="#F2F2F2"/>
<path d="M14.9404 41.6343H14.5091C14.1749 41.6343 13.8439 41.568 13.5351 41.4396C13.2263 41.311 12.9457 41.1225 12.7094 40.8847C12.473 40.6472 12.2855 40.3652 12.1577 40.0547C12.0298 39.7442 11.964 39.4113 11.9641 39.0753V19.8906C10.393 19.8905 8.83726 20.2014 7.38575 20.8058C5.93423 21.4103 4.61538 22.2962 3.50445 23.4132C2.39353 24.5301 1.5123 25.8562 0.911138 27.3157C0.309971 28.775 0.000636857 30.3392 0.000772051 31.9188V36.7897C-0.0191585 38.7466 0.346977 40.688 1.078 42.5018C1.80902 44.3155 2.89042 45.9655 4.25968 47.3564C5.62892 48.7472 7.25884 49.8513 9.05516 50.6048C10.8515 51.3584 12.7786 51.7464 14.725 51.7464C16.6714 51.7464 18.5984 51.3584 20.3948 50.6048C22.1911 49.8513 23.8211 48.7472 25.1904 47.3564C26.5596 45.9655 27.641 44.3155 28.3719 42.5018C29.1031 40.688 29.4691 38.7466 29.4491 36.7897V31.9188H17.486V39.0753C17.486 39.4115 17.42 39.7442 17.2922 40.0547C17.1642 40.3652 16.9766 40.6473 16.7403 40.8849C16.5039 41.1226 16.2234 41.311 15.9144 41.4396C15.6057 41.568 15.2746 41.6343 14.9404 41.6343Z" fill="#F2F2F2"/>
<path d="M49.8981 15.1875H45.7051V36.5741H58.0117V32.5421H49.8985L49.8981 15.1875Z" fill="#F2F2F2"/>
<path d="M71.4398 23.1073C70.8484 22.3683 70.0911 21.7808 69.2302 21.3932C68.3692 21.0055 67.429 20.8286 66.4867 20.8769C65.5022 20.8692 64.5277 21.0738 63.6286 21.4771C62.7296 21.8804 61.9271 22.4731 61.2753 23.2149C59.8759 24.7913 59.1025 26.8304 59.1025 28.9436C59.1025 31.0567 59.8759 33.0958 61.2753 34.6724C61.9272 35.4139 62.7299 36.0062 63.6289 36.4094C64.528 36.8124 65.5024 37.017 66.4867 37.0093C68.614 37.0093 70.2651 36.2658 71.4398 34.7791V36.5818H75.3601V21.3058H71.4398V23.1073ZM70.2402 32.0443C69.8447 32.4422 69.3724 32.7544 68.8525 32.9619C68.3325 33.1695 67.7758 33.2677 67.2166 33.2509C66.6594 33.2688 66.1048 33.171 65.5869 32.9633C65.0692 32.7558 64.5998 32.4428 64.2077 32.0443C63.4447 31.1935 63.0225 30.0885 63.0225 28.9429C63.0225 27.7971 63.4447 26.6922 64.2077 25.8415C64.5999 25.4432 65.0695 25.1306 65.5872 24.9231C66.1048 24.7155 66.6596 24.6175 67.2166 24.6352C67.7756 24.6186 68.3323 24.7171 68.8522 24.9244C69.3722 25.1318 69.8446 25.4438 70.2402 25.8415C71.0119 26.688 71.4398 27.7945 71.4398 28.9429C71.4398 30.0911 71.0119 31.1977 70.2402 32.0443Z" fill="#F2F2F2"/>
<path d="M85.4623 31.5605L81.4995 21.293H77.2148L83.4423 36.0808C83.1817 36.9633 82.6692 37.7494 81.9684 38.3417C81.2319 38.8439 80.3483 39.0809 79.4609 39.0143V42.6811C81.191 42.8419 82.9207 42.3696 84.3322 41.3507C85.636 40.3613 86.6833 38.7761 87.4742 36.5953L93.0135 21.2941H88.82L85.4623 31.5605Z" fill="#F2F2F2"/>
<path d="M101.499 20.8739C100.431 20.8362 99.3659 21.0216 98.3721 21.4187C97.3785 21.8159 96.4776 22.4161 95.7264 23.1812C94.2759 24.749 93.472 26.8124 93.4776 28.9538C93.483 31.095 94.2975 33.1542 95.7562 34.7145C97.2759 36.2416 99.2916 37.0054 101.804 37.0057C104.72 37.0057 106.928 35.9163 108.428 33.7374L105.268 31.9036C104.866 32.4163 104.346 32.8232 103.753 33.0892C103.161 33.3554 102.512 33.4728 101.864 33.4311C99.5341 33.4311 98.1059 32.474 97.5793 30.5597H109.036C109.133 30.0253 109.184 29.483 109.187 28.9396C109.245 26.8117 108.465 24.7472 107.015 23.1958C106.313 22.4363 105.458 21.8363 104.507 21.4359C103.555 21.0355 102.53 20.8439 101.499 20.8739ZM97.5189 27.5041C97.6924 26.6064 98.1767 25.7998 98.886 25.2273C99.64 24.6669 100.562 24.3812 101.499 24.4178C102.355 24.4067 103.193 24.6749 103.885 25.1822C104.621 25.7523 105.115 26.5818 105.267 27.5036L97.5189 27.5041Z" fill="#F2F2F2"/>
<path d="M115.837 23.9231V21.2948H111.917V36.5713H115.837V29.2694C115.837 27.803 116.308 26.754 117.25 26.1224C118.193 25.4907 119.334 25.2296 120.456 25.3891V20.9907C119.471 20.9781 118.5 21.2313 117.645 21.7238C116.801 22.2164 116.16 22.9966 115.837 23.9231Z" fill="#F2F2F2"/>
<path d="M139.567 18.4952V15.1875H125.624V19.2207H134.254L125.399 33.206V36.5736H139.736V32.5415H130.711L139.567 18.4952Z" fill="#F2F2F2"/>
<path d="M148.995 20.8739C147.926 20.8362 146.861 21.0216 145.868 21.4187C144.874 21.8159 143.973 22.4161 143.222 23.1812C141.771 24.749 140.967 26.8126 140.973 28.954C140.978 31.0952 141.793 33.1544 143.252 34.7145C144.772 36.2416 146.787 37.0054 149.299 37.0057C152.215 37.0057 154.424 35.9163 155.923 33.7374L152.763 31.9036C152.361 32.4162 151.842 32.823 151.249 33.0891C150.656 33.3553 150.008 33.4726 149.36 33.4311C147.03 33.4311 145.602 32.474 145.075 30.5597H156.532C156.629 30.0251 156.68 29.483 156.683 28.9396C156.741 26.8117 155.961 24.7472 154.511 23.1958C153.809 22.4363 152.954 21.8363 152.002 21.4359C151.051 21.0355 150.026 20.8439 148.995 20.8739ZM145.015 27.5041C145.188 26.6064 145.673 25.7996 146.382 25.2273C147.136 24.6666 148.058 24.381 148.995 24.418C149.852 24.4064 150.689 24.6746 151.381 25.1822C152.117 25.7523 152.611 26.5818 152.763 27.5036L145.015 27.5041Z" fill="#F2F2F2"/>
<path d="M163.332 23.9231V21.2948H159.412V36.5713H163.332V29.2694C163.332 27.803 163.803 26.754 164.745 26.1224C165.688 25.4907 166.829 25.2298 167.951 25.3891V20.9907C166.966 20.9781 165.994 21.2313 165.14 21.7238C164.295 22.2164 163.654 22.9965 163.332 23.9231Z" fill="#F2F2F2"/>
<path d="M176.89 20.8712C175.05 20.8916 173.274 21.5514 171.864 22.7386C170.454 23.9259 169.495 25.5673 169.153 27.3842C168.809 29.201 169.102 31.0813 169.981 32.7059C170.86 34.3305 172.271 35.599 173.974 36.2962C175.678 36.9933 177.569 37.0763 179.327 36.5307C181.084 35.9852 182.599 34.8447 183.616 33.3032C184.633 31.7617 185.086 29.9142 184.902 28.0741C184.716 26.2341 183.904 24.5152 182.602 23.2091C181.859 22.4467 180.969 21.8459 179.987 21.4437C179.004 21.0416 177.95 20.8467 176.89 20.8712ZM179.837 31.9619C179.453 32.3521 178.993 32.659 178.485 32.8638C177.979 33.0684 177.436 33.1665 176.89 33.152C176.345 33.1676 175.803 33.0699 175.299 32.8652C174.794 32.6603 174.336 32.3529 173.955 31.9619C173.203 31.1362 172.785 30.0569 172.785 28.937C172.785 27.8172 173.203 26.738 173.955 25.9122C174.336 25.5214 174.794 25.214 175.299 25.0092C175.803 24.8045 176.345 24.7065 176.89 24.722C177.436 24.7076 177.978 24.8059 178.485 25.0106C178.993 25.2152 179.453 25.5222 179.837 25.9122C180.598 26.7332 181.022 27.8143 181.022 28.937C181.022 30.0598 180.598 31.1409 179.837 31.9619Z" fill="#F2F2F2"/>
<path d="M193.165 31.873H188.396V36.5782H193.165V31.873Z" fill="#F2F2F2"/>
<path d="M193.165 31.873H188.396V36.5782H193.165V31.873Z" fill="#F2F2F2"/>
</g>
<defs>
<clipPath id="clip0_25090_471">
<rect width="193.461" height="52.6215" fill="white"/>
</clipPath>
</defs>
</svg>
