<svg width="141" height="50" viewBox="0 0 141 50" fill="none" xmlns="http://www.w3.org/2000/svg">
<path fill-rule="evenodd" clip-rule="evenodd" d="M28.3301 43.261C28.555 46.5103 27.0119 49.2653 24.8832 49.4111C22.7558 49.5581 20.8495 47.0427 20.6259 43.7923C20.4011 40.5431 21.9441 37.7881 24.0728 37.6423C26.2002 37.494 28.1065 40.0106 28.3301 43.261ZM6.28122 41.4239C4.73322 40.6889 4.69245 37.536 6.18857 34.3819C7.68345 31.2279 10.1506 29.266 11.6986 30.0011C13.2454 30.7362 13.2874 33.889 11.7913 37.0431C10.2964 40.1972 7.82923 42.1578 6.28122 41.4239ZM0.0212495 17.5602C0.285634 16.3309 2.9233 15.8541 5.9143 16.4953C8.9053 17.1377 11.1167 18.6536 10.8536 19.8841C10.5904 21.1133 7.95154 21.589 4.96054 20.949C1.96954 20.3066 -0.241899 18.7895 0.0212495 17.5602ZM13.9298 0.0391999C14.6624 -0.315371 16.4057 1.77499 17.8227 4.70669C19.2398 7.64086 19.7945 10.3045 19.0631 10.659C18.3305 11.0136 16.5873 8.92324 15.1702 5.99155C13.7532 3.05861 13.1972 0.393771 13.9298 0.0391999ZM37.1178 1.69963C37.6639 2.1518 36.6372 4.29282 34.8273 6.48325C33.0161 8.67245 31.1049 10.0809 30.5589 9.62992C30.014 9.17775 31.0394 7.03549 32.8506 4.84629C34.6605 2.65586 36.5717 1.24622 37.1178 1.69963ZM43.1974 13.6562C43.9553 13.4976 44.7371 13.4899 45.498 13.6335C46.2589 13.7772 46.9841 14.0694 47.632 14.4934C48.2799 14.9175 48.8379 15.4651 49.2741 16.105C49.7102 16.7448 50.016 17.4643 50.1739 18.2224C50.4942 19.7526 50.1935 21.3473 49.338 22.6558C48.4825 23.9642 47.1422 24.8793 45.6121 25.1995C44.0819 25.5198 42.4872 25.2191 41.1787 24.3636C39.8702 23.5081 38.9552 22.1678 38.6349 20.6377C38.3147 19.1069 38.6154 17.5116 39.4709 16.2025C40.3265 14.8933 41.6668 13.9774 43.1974 13.6562ZM43.4964 32.341C46.0661 34.4684 46.69 37.9573 44.8924 40.1329C43.0924 42.3073 39.5504 42.3468 36.9819 40.2194C34.4122 38.0907 33.7883 34.6031 35.5859 32.4262C37.3859 30.2519 40.9279 30.2148 43.4964 32.341Z" fill="white"/>
<path d="M64.7617 10.502H67.4846V32.4607H79.1793V34.9389H64.7617V10.502ZM89.7917 35.4282C88.0003 35.4282 86.4412 34.997 85.1144 34.1359C83.8192 33.3096 82.7749 32.1445 82.0949 30.7669C81.4141 29.4071 81.0612 27.9067 81.0646 26.386C81.0619 24.8613 81.4273 23.3585 82.1295 22.0051C82.8303 20.6304 83.8849 19.4675 85.1848 18.6361C86.5104 17.775 88.0473 17.3438 89.793 17.3438C91.5844 17.3438 93.1435 17.775 94.4703 18.6361C95.7702 19.4675 96.8249 20.6304 97.5256 22.0051C98.2274 23.3586 98.5923 24.8614 98.5893 26.386C98.5923 27.9106 98.2274 29.4134 97.5256 30.7669C96.8249 32.1416 95.7702 33.3045 94.4703 34.1359C93.1435 34.997 91.5831 35.4282 89.7917 35.4282ZM89.7917 33.0191C90.979 33.0191 92.0378 32.7287 92.9693 32.1469C93.9013 31.5637 94.6558 30.7366 95.1511 29.755C95.6749 28.742 95.9368 27.6202 95.9368 26.386C95.9368 25.1296 95.6749 24.0016 95.1511 23.0009C94.652 22.0266 93.898 21.2059 92.9693 20.6264C92.0378 20.0445 90.9802 19.7529 89.793 19.7529C88.6057 19.7529 87.5519 20.0445 86.6327 20.6264C85.7142 21.2071 84.9717 22.0278 84.4855 22.9997C83.974 24.0004 83.7183 25.1296 83.7183 26.386C83.7183 27.6202 83.974 28.7432 84.4855 29.755C84.9982 30.7681 85.7197 31.565 86.65 32.1469C87.5815 32.7275 88.6279 33.0191 89.7917 33.0191ZM110.53 35.4282C108.737 35.4282 107.178 34.997 105.851 34.1359C104.556 33.3096 103.512 32.1445 102.832 30.7669C102.151 29.4071 101.798 27.9067 101.801 26.386C101.799 24.8613 102.164 23.3585 102.866 22.0051C103.567 20.6304 104.622 19.4675 105.922 18.6361C107.247 17.775 108.784 17.3438 110.53 17.3438C112.321 17.3438 113.88 17.775 115.207 18.6361C116.507 19.4675 117.562 20.6304 118.262 22.0051C118.964 23.3586 119.329 24.8614 119.326 26.386C119.329 27.9106 118.964 29.4134 118.262 30.7669C117.562 32.1416 116.507 33.3045 115.207 34.1359C113.88 34.997 112.321 35.4282 110.53 35.4282ZM110.53 33.0191C111.716 33.0191 112.775 32.7287 113.706 32.1469C114.638 31.5637 115.393 30.7366 115.888 29.755C116.412 28.742 116.674 27.6202 116.674 26.386C116.674 25.1296 116.412 24.0016 115.888 23.0009C115.389 22.0266 114.635 21.2059 113.706 20.6264C112.775 20.0445 111.717 19.7529 110.53 19.7529C109.343 19.7529 108.289 20.0445 107.37 20.6264C106.451 21.2071 105.709 22.0278 105.222 22.9997C104.711 24.0004 104.455 25.1296 104.455 26.386C104.455 27.6202 104.711 28.7432 105.222 29.755C105.735 30.7681 106.457 31.565 107.387 32.1469C108.318 32.7275 109.366 33.0191 110.53 33.0191ZM132.034 17.3796C133.687 17.3796 135.13 17.8158 136.363 18.6892C137.586 19.5497 138.562 20.7172 139.191 22.0743C139.836 23.4322 140.17 24.9171 140.168 26.4206C140.168 27.9575 139.859 29.4116 139.243 30.7854C138.647 32.133 137.693 33.2917 136.485 34.1359C135.262 34.997 133.78 35.4282 132.034 35.4282C130.707 35.4282 129.543 35.1601 128.543 34.6251C127.554 34.1001 126.695 33.3605 126.03 32.4607V42.27H123.376V17.833H125.611L125.959 20.3818C126.604 19.4825 127.446 18.7422 128.42 18.2173C129.433 17.6589 130.638 17.3796 132.034 17.3796ZM131.755 19.7529C130.614 19.7529 129.607 20.0383 128.735 20.6091C127.862 21.1786 127.187 21.9705 126.709 22.9824C126.233 23.9954 125.995 25.1407 125.995 26.4206C125.995 28.3763 126.524 29.97 127.583 31.2042C128.641 32.4372 130.032 33.0537 131.755 33.0537C132.872 33.0537 133.867 32.7695 134.74 32.1987C135.613 31.628 136.294 30.8435 136.782 29.8428C137.271 28.8421 137.516 27.7017 137.516 26.4206C137.516 25.1407 137.271 23.9954 136.782 22.9824C136.294 21.9693 135.613 21.1786 134.74 20.6091C133.867 20.0383 132.872 19.7529 131.755 19.7529Z" fill="white"/>
</svg>
