<svg width="105" height="40" viewBox="0 0 105 40" fill="none" xmlns="http://www.w3.org/2000/svg">
<path d="M58.6111 0H19.5371V6.51231H58.6111V0Z" fill="white"/>
<path d="M104.198 0H65.124V6.51231H104.198V0Z" fill="white"/>
<path d="M26.0494 6.51172H19.5371V13.024H26.0494V6.51172Z" fill="white"/>
<path d="M39.0745 6.51172H26.0498V13.024H39.0745V6.51172Z" fill="#DFDFDF"/>
<path d="M52.0989 6.51172H39.0742V13.024H52.0989V6.51172Z" fill="black"/>
<path d="M58.611 6.51172H52.0986V13.024H58.611V6.51172Z" fill="white"/>
<path d="M71.6364 6.51172H65.124V13.024H71.6364V6.51172Z" fill="white"/>
<path d="M84.6604 6.51172H71.6357V13.024H84.6604V6.51172Z" fill="#DFDFDF"/>
<path d="M97.6848 6.51172H84.6602V13.024H97.6848V6.51172Z" fill="black"/>
<path d="M104.197 6.51172H97.6846V13.024H104.197V6.51172Z" fill="white"/>
<path d="M26.0493 13.0254H0V19.5377H26.0493V13.0254Z" fill="white"/>
<path d="M39.0745 13.0254H26.0498V19.5377H39.0745V13.0254Z" fill="#DFDFDF"/>
<path d="M52.0989 13.0254H39.0742V19.5377H52.0989V13.0254Z" fill="black"/>
<path d="M71.6356 13.0254H52.0986V19.5377H71.6356V13.0254Z" fill="white"/>
<path d="M84.6604 13.0254H71.6357V19.5377H84.6604V13.0254Z" fill="#DFDFDF"/>
<path d="M97.6848 13.0254H84.6602V19.5377H97.6848V13.0254Z" fill="black"/>
<path d="M104.197 13.0254H97.6846V19.5377H104.197V13.0254Z" fill="white"/>
<path d="M6.51233 19.5371H0V26.0494H6.51233V19.5371Z" fill="white"/>
<path d="M26.0494 19.5371H19.5371V26.0494H26.0494V19.5371Z" fill="white"/>
<path d="M39.0745 19.5371H26.0498V26.0494H39.0745V19.5371Z" fill="#DFDFDF"/>
<path d="M52.0989 19.5371H39.0742V26.0494H52.0989V19.5371Z" fill="black"/>
<path d="M58.611 19.5371H52.0986V26.0494H58.611V19.5371Z" fill="white"/>
<path d="M71.6364 19.5371H65.124V26.0494H71.6364V19.5371Z" fill="white"/>
<path d="M84.6604 19.5371H71.6357V26.0494H84.6604V19.5371Z" fill="#DFDFDF"/>
<path d="M97.6848 19.5371H84.6602V26.0494H97.6848V19.5371Z" fill="black"/>
<path d="M104.197 19.5371H97.6846V26.0494H104.197V19.5371Z" fill="white"/>
<path d="M6.51233 26.0488H0V32.5611H6.51233V26.0488Z" fill="white"/>
<path d="M26.0494 26.0488H19.5371V32.5611H26.0494V26.0488Z" fill="white"/>
<path d="M39.0745 26.0488H26.0498V32.5611H39.0745V26.0488Z" fill="#DFDFDF"/>
<path d="M52.0989 26.0488H39.0742V32.5611H52.0989V26.0488Z" fill="black"/>
<path d="M58.611 26.0488H52.0986V32.5611H58.611V26.0488Z" fill="white"/>
<path d="M71.6364 26.0488H65.124V32.5611H71.6364V26.0488Z" fill="white"/>
<path d="M84.6604 26.0488H71.6357V32.5611H84.6604V26.0488Z" fill="#DFDFDF"/>
<path d="M97.6848 26.0488H84.6602V32.5611H97.6848V26.0488Z" fill="black"/>
<path d="M104.197 26.0488H97.6846V32.5611H104.197V26.0488Z" fill="white"/>
<path d="M58.6111 32.5625H19.5371V39.0748H58.6111V32.5625Z" fill="white"/>
<path d="M104.198 32.5625H65.124V39.0748H104.198V32.5625Z" fill="white"/>
</svg>
