<svg width="128" height="27" viewBox="0 0 128 27" fill="none" xmlns="http://www.w3.org/2000/svg">
<g clip-path="url(#clip0_25090_547)">
<path d="M6.72089 25.8168L0.938305 25.9723L0.680154 24.3653L4.50079 23.8987V4.66607L0.731784 5.02895L0.473633 3.42191L6.25622 1.76303L8.21817 1.60751L8.52795 6.01391L16.1176 0.933594C17.8042 0.933594 19.1466 1.08911 20.1448 1.40015C21.1429 1.71119 21.9002 2.21231 22.4165 2.90351C22.9672 3.59471 23.3114 4.49327 23.4491 5.59919C23.6212 6.67055 23.7072 7.98383 23.7072 9.53903V23.8987L27.8893 24.3653L27.6311 25.9723L21.8486 25.8168L17.1502 25.9723L16.8921 24.3653L19.6285 23.8987V8.86511C19.6285 7.41359 19.3187 6.35951 18.6991 5.70287C18.0795 5.01167 17.1674 4.66607 15.9627 4.66607C14.9989 4.66607 14.0524 4.92527 13.123 5.44367C12.1714 5.97637 11.2413 6.54707 10.335 7.15439L8.63121 8.24303V23.8987L11.6774 24.3653L11.4192 25.9723L6.72089 25.8168ZM50.1731 19.2331C50.1731 20.4082 50.2244 21.2722 50.3269 21.8251C50.4309 22.3435 50.569 22.8101 50.7411 23.2248H53.4775L53.6829 24.8318L47.6422 26.076L46.1976 21.9806L38.608 26.6981C36.8525 26.6981 35.4581 26.5253 34.4248 26.1797C33.4281 25.8341 32.6536 25.3157 32.1015 24.6245C31.5507 23.9333 31.1893 23.052 31.0172 21.9806C30.881 20.8747 30.8125 19.5787 30.8118 18.0926V4.66607L26.9395 4.92527L26.6814 3.05903L32.6694 1.76303L34.8906 1.55567V18.9221C34.8906 20.3736 35.2004 21.4104 35.8199 22.0325C36.438 22.6546 37.4018 22.9656 38.7112 22.9656C39.6061 22.9656 40.5871 22.6718 41.6541 22.0843C42.778 21.4481 43.8801 20.7738 44.9585 20.0626L46.0427 19.3886V4.66607L42.79 4.92527L42.5319 3.05903L47.953 1.76303L50.1721 1.55567L50.1731 19.2331ZM89.7133 25.8168L85.1182 25.9723L84.86 24.3653L87.6481 23.8987V8.86511C87.6481 7.41359 87.3555 6.35951 86.7704 5.70287C86.2196 5.04623 85.4452 4.71791 84.447 4.71791C83.6553 4.71791 82.7604 4.95983 81.7622 5.44367C80.7985 5.92751 79.8347 6.51503 78.8709 7.20623L77.2198 8.34671V23.8987L79.6465 24.3653L79.3883 25.9723L75.3612 25.8168L70.921 25.9723L70.6628 24.3653L73.1411 23.8987V8.86511C73.1411 7.41359 72.8485 6.35951 72.2633 5.70287C71.7126 5.04623 70.9382 4.71791 69.94 4.71791C69.1483 4.71791 68.2534 4.95983 67.2552 5.44367C66.2914 5.92751 65.3277 6.51503 64.3639 7.20623L62.6601 8.34671V23.8987L65.4482 24.3653L65.19 25.9723L60.9047 25.8168L54.9672 25.9723L54.7091 24.3653L58.5297 23.8987V4.66607L54.7607 5.02895L54.5025 3.42191L60.3884 1.76303L62.3503 1.60751L62.5569 5.96207L69.7335 0.933594C70.9726 0.933594 72.0224 1.03727 72.8829 1.24463C73.7434 1.45199 74.449 1.76303 74.9997 2.17775C75.8258 2.79983 75.9807 3.12815 76.2905 3.78479C76.6003 4.44143 76.824 5.20175 76.9617 6.06575L84.1899 0.933594C85.8765 0.933594 87.2189 1.10639 88.2171 1.45199C89.2153 1.79759 89.9725 2.35055 90.4888 3.11087C91.0051 3.87119 91.3321 4.83887 91.4698 6.01391C91.6419 7.18895 91.7279 8.60591 91.7279 10.2648V23.8987L95.8584 24.3653L95.6002 25.9723L89.7133 25.8168ZM110.038 13.5826L101.829 17.004C101.473 17.3486 101.207 17.7759 101.055 18.2482C100.917 18.6974 100.848 19.1986 100.848 19.7515C100.848 21.0994 101.175 22.0325 101.829 22.5509C102.483 23.0693 103.206 23.3285 103.998 23.3285C105.185 23.3285 105.495 23.1557 106.114 22.8101C106.734 22.4299 107.216 22.1189 107.56 21.877L110.038 20.1662V13.5826ZM106.424 0.933594C108.008 0.933594 109.298 1.05455 110.297 1.29647C111.295 1.50383 112.069 1.91855 112.62 2.54063C113.205 3.16271 113.601 4.02671 113.807 5.13263C114.014 6.20399 114.117 7.58639 114.117 9.27983V19.4405C114.117 20.581 114.203 21.4277 114.375 21.9806C114.547 22.499 114.771 22.9483 115.047 23.3285H117.68L117.835 24.9355L111.897 26.076L110.348 22.1362L104.101 26.6981C101.932 26.6981 100.16 26.1278 98.783 24.9874C97.4062 23.8469 96.7178 22.2398 96.7178 20.1662C96.7178 19.2677 96.8555 18.4901 97.1308 17.8334C97.4062 17.1422 97.8192 16.3819 98.37 15.5525L110.038 11.6126V9.12431C110.038 8.36399 110.004 7.67279 109.935 7.05071C109.901 6.39407 109.78 5.84111 109.574 5.39183C109.383 4.92509 109.036 4.53995 108.593 4.30319C108.18 4.02671 107.595 3.88847 106.837 3.88847C106.08 3.88847 105.271 3.99215 104.411 4.19951C103.585 4.40687 102.862 4.63151 102.242 4.87343L101.313 8.60591H97.5439V4.97711L106.424 0.933594Z" fill="white"/>
<path d="M124.235 26.9995C126.315 26.9995 128 25.3071 128 23.2195C128 21.1318 126.315 19.4395 124.235 19.4395C122.156 19.4395 120.471 21.1318 120.471 23.2195C120.471 25.3071 122.156 26.9995 124.235 26.9995Z" fill="white"/>
</g>
<defs>
<clipPath id="clip0_25090_547">
<rect width="128" height="27" fill="white"/>
</clipPath>
</defs>
</svg>
