<svg width="153" height="33" viewBox="0 0 153 33" fill="none" xmlns="http://www.w3.org/2000/svg">
<g clip-path="url(#clip0_25090_616)">
<path d="M20.3252 16.5381C20.2141 12.2959 18.7193 6.27736 16.2384 2.29119L17.7877 0.568359C25.1317 3.14008 30.3065 9.32132 30.3065 16.5381C30.3065 23.6843 25.2348 29.8143 18.0064 32.4304L16.2305 30.8271C18.8564 26.7556 20.5054 23.3475 20.3252 16.5381Z" fill="white"/>
<path d="M10.9731 16.8182C9.96218 13.022 8.49678 10.4116 5.30078 7.4109L6.07485 5.89062C11.78 6.3128 16.931 9.52973 18.0802 14.8598C19.081 20.0966 17.0421 25.3891 12.2719 28.4865L10.7056 27.6877C11.8378 23.7675 11.7472 19.7165 10.9731 16.8182Z" fill="white"/>
<path d="M4.57187 19.276C3.44193 17.1753 1.82013 15.5435 0 14.5057L0.2448 13.4975C3.67993 12.9422 7.02553 14.2713 8.55213 17.1139C10.064 19.9257 9.36473 23.4214 7.07313 25.9932L6.035 25.7405C6.16987 23.6411 5.70407 21.3823 4.573 19.2771M50.7427 4.30078C52.4042 4.30078 53.8594 4.64899 55.1401 5.27485C56.3867 5.90071 57.3897 6.80423 58.0822 7.98654C58.7743 9.16771 59.1203 10.5234 59.1203 12.0535C59.1203 13.617 58.7747 14.9734 58.0822 16.1557C57.3909 17.3369 56.3856 18.2404 55.1401 18.8663C53.8594 19.4922 52.4042 19.8051 50.7427 19.8051H45.169V28.6354H41.1876V4.30078H50.7427ZM45.169 16.3287H50.3971C51.816 16.3287 52.9584 15.9464 53.7891 15.1817C54.6199 14.417 55.0698 13.3746 55.0698 12.0524C55.0698 10.7324 54.6542 9.69002 53.8231 8.92533C52.9924 8.16064 51.8511 7.7783 50.4311 7.7783H45.169V16.3287ZM76.7788 10.8371V28.6343H73.4899L73.0739 25.9226C72.4596 26.8128 71.6399 27.5405 70.6849 28.0437C69.7159 28.6002 68.5735 28.8425 67.2928 28.8425C65.6653 28.8425 64.2101 28.4955 62.9646 27.7649C61.6756 27.0381 60.6372 25.9348 59.9873 24.6015C59.2609 23.2121 58.9141 21.6133 58.9141 19.7357C58.9141 17.9275 59.2609 16.364 59.9873 14.9734C60.6694 13.6425 61.7141 12.5335 62.9997 11.7759C64.2464 11.01 65.7005 10.6277 67.2928 10.6277C68.6075 10.6277 69.751 10.9065 70.72 11.3924C71.689 11.8783 72.4506 12.5758 73.0739 13.4441L73.5239 10.8371H76.7788ZM71.655 24.0462C72.5889 22.9685 73.0739 21.5427 73.0739 19.8051C73.0739 18.0675 72.5889 16.6075 71.655 15.4946C70.6856 14.3825 69.439 13.8264 67.915 13.8264C66.3578 13.8264 65.1115 14.3825 64.1761 15.4946C63.2071 16.6075 62.7572 17.9981 62.7572 19.7357C62.7572 21.5086 63.2071 22.9333 64.1761 24.0462C65.1111 25.1579 66.3578 25.6802 67.9161 25.6802C69.4393 25.6802 70.6849 25.1579 71.655 24.0462ZM93.5193 12.5747C94.8339 13.8947 95.5275 15.9816 95.5275 18.8322V28.6343H91.7535V19.0404C91.7535 17.3722 91.3727 16.0852 90.6803 15.1828C89.9527 14.3134 88.9145 13.8605 87.5296 13.8605C86.0404 13.8605 84.864 14.3828 84.0333 15.4252C83.2025 16.4675 82.7866 17.8581 82.7866 19.6663V28.6343H79.0466V10.8371H82.3015L82.7175 13.1653C84.0321 11.4971 85.9361 10.6277 88.3955 10.6277C90.4729 10.6277 92.2046 11.2877 93.5193 12.5747ZM114.749 10.8371V28.6343H111.46L111.045 25.9226C110.431 26.8128 109.611 27.5405 108.656 28.0437C107.686 28.6002 106.544 28.8425 105.263 28.8425C103.635 28.8425 102.181 28.4955 100.936 27.7649C99.6463 27.0383 98.6076 25.9349 97.9574 24.6015C97.2309 23.2121 96.8841 21.6133 96.8841 19.7357C96.8841 17.9275 97.2309 16.364 97.9574 14.9734C98.6394 13.6425 99.6842 12.5335 100.97 11.7759C102.216 11.01 103.671 10.6277 105.263 10.6277C106.578 10.6277 107.721 10.9065 108.69 11.3924C109.66 11.8794 110.422 12.5758 111.045 13.4441L111.495 10.8371H114.749ZM109.626 24.0462C110.56 22.9685 111.045 21.5427 111.045 19.8051C111.045 18.0675 110.56 16.6075 109.625 15.4946C108.656 14.3825 107.409 13.8264 105.885 13.8264C104.329 13.8264 103.083 14.3825 102.147 15.4946C101.177 16.6075 100.727 17.9981 100.727 19.7357C100.727 21.5086 101.177 22.9333 102.147 24.0462C103.082 25.1579 104.328 25.6802 105.886 25.6802C107.409 25.6802 108.656 25.1579 109.626 24.0462ZM131.489 12.5747C132.805 13.8947 133.498 15.9816 133.498 18.8322V28.6343H129.724V19.0404C129.724 17.3722 129.343 16.0852 128.65 15.1828C127.924 14.3134 126.885 13.8605 125.5 13.8605C124.012 13.8605 122.834 14.3828 122.003 15.4252C121.173 16.4675 120.757 17.8581 120.757 19.6663V28.6343H117.018V10.8371H120.273L120.688 13.1653C122.003 11.4971 123.907 10.6277 126.366 10.6277C128.443 10.6277 130.174 11.2877 131.489 12.5747ZM152.72 10.8371V28.6343H149.43L149.015 25.9226C148.401 26.8128 147.581 27.5405 146.626 28.0437C145.657 28.6002 144.515 28.8425 143.233 28.8425C141.607 28.8425 140.153 28.4955 138.906 27.7649C137.617 27.0381 136.578 25.9348 135.929 24.6015C135.201 23.2121 134.855 21.6133 134.855 19.7357C134.855 17.9275 135.201 16.364 135.929 14.9734C136.61 13.6421 137.655 12.533 138.941 11.7759C140.187 11.01 141.641 10.6277 143.233 10.6277C144.549 10.6277 145.691 10.9065 146.661 11.3924C147.631 11.8783 148.392 12.5758 149.015 13.4441L149.465 10.8371H152.72ZM147.595 24.0462C148.53 22.9685 149.015 21.5427 149.015 19.8051C149.015 18.0675 148.53 16.6075 147.595 15.4946C146.626 14.3825 145.379 13.8264 143.856 13.8264C142.299 13.8264 141.053 14.3825 140.117 15.4946C139.148 16.6075 138.698 17.9981 138.698 19.7357C138.698 21.5086 139.148 22.9333 140.117 24.0462C141.052 25.1579 142.299 25.6802 143.856 25.6802C145.379 25.6802 146.626 25.1579 147.595 24.0462Z" fill="white"/>
</g>
<defs>
<clipPath id="clip0_25090_616">
<rect width="153" height="33" fill="white"/>
</clipPath>
</defs>
</svg>
