<svg width="517" height="180" viewBox="0 0 517 180" fill="none" xmlns="http://www.w3.org/2000/svg">
<g clip-path="url(#clip0_25240_141)">
<path d="M0 28.8C0 18.7191 0 13.6786 1.96188 9.82817C3.6876 6.44125 6.44125 3.6876 9.82817 1.96188C13.6786 0 18.7191 0 28.8 0H151.2C161.281 0 166.321 0 170.172 1.96188C173.559 3.6876 176.312 6.44125 178.038 9.82817C180 13.6786 180 18.7191 180 28.8V151.2C180 161.281 180 166.321 178.038 170.172C176.312 173.559 173.559 176.312 170.172 178.038C166.321 180 161.281 180 151.2 180H28.8C18.7191 180 13.6786 180 9.82817 178.038C6.44125 176.312 3.6876 173.559 1.96188 170.172C0 166.321 0 161.281 0 151.2V28.8Z" fill="black"/>
<path d="M42 110H62V140H42V110Z" fill="white"/>
<path d="M122 60H142V90H122V60Z" fill="white"/>
<path d="M62 90H122V110H62V90Z" fill="white"/>
<path d="M42 40H122V60H62V90L42 89.75V40Z" fill="white"/>
<path d="M269.487 80.8258C269.487 94.7957 260.737 102.85 245.471 102.85H233.552V119.992H220V60H245.471C260.737 60 269.487 67.5423 269.487 80.8258ZM256.622 81.254C256.622 74.5702 252.332 71.2284 244.786 71.2284H233.552V91.5399H244.786C252.332 91.5399 256.622 88.1099 256.622 81.254Z" fill="white"/>
<path d="M290.725 60V89.997H317.912V60H331.456V119.992H317.912V101.994H290.725V119.992H277.185V60H290.725Z" fill="white"/>
<path d="M383.478 107.993H355.966L351.112 120H337.131L363.203 60.0081H377.184L402.827 120H388.332L383.478 107.993ZM378.652 95.9864L369.8 74.142L360.874 95.9944L378.652 95.9864Z" fill="white"/>
<path d="M497.661 107.993H470.149L465.294 120H451.314L477.386 60.0081H491.366L517 120H502.505L497.661 107.993ZM492.836 95.9864L483.991 74.1341L475.065 95.9864H492.836Z" fill="white"/>
<path d="M422.572 60V108.165H448.301V119.992H409.02V60H422.572Z" fill="white"/>
</g>
<defs>
<clipPath id="clip0_25240_141">
<rect width="517" height="180" fill="white"/>
</clipPath>
</defs>
</svg>
