<svg xmlns="http://www.w3.org/2000/svg" width="97" height="29" viewBox="0 0 97 29" fill="none">
<g clip-path="url(#clip0_3590_13299)">
<path d="M95.0129 19.7885C95.1155 19.7885 95.2042 19.8305 95.2042 19.9518C95.2042 20.0685 95.1155 20.1198 95.0129 20.1198H94.7095V19.7885H95.0129ZM95.5869 19.9332C95.5869 19.6298 95.3675 19.4385 95.0362 19.4385H94.3315V21.0205H94.7142V20.4325H94.8402L95.1949 21.0205L95.6569 21.0112L95.2462 20.3998C95.4562 20.3392 95.5869 20.1712 95.5869 19.9332ZM94.9289 21.7485C95.7969 21.7485 96.4129 21.1092 96.4129 20.2412C96.4129 19.3732 95.7969 18.7432 94.9289 18.7432C94.0562 18.7432 93.4355 19.3732 93.4355 20.2412C93.4355 21.1092 94.0515 21.7485 94.9289 21.7485ZM94.9289 19.0325C95.6429 19.0325 96.1142 19.5318 96.1142 20.2458C96.1142 20.9598 95.6429 21.4592 94.9289 21.4592C94.2102 21.4592 93.7529 20.9598 93.7529 20.2458C93.7529 19.5318 94.2055 19.0325 94.9289 19.0325Z" fill="#9DA7B0"/>
<path fill-rule="evenodd" clip-rule="evenodd" d="M60.1114 11.7529C59.6681 11.9349 59.2574 12.2149 58.8794 12.5929C58.5014 12.9709 58.2214 13.3816 58.0348 13.8249C57.8481 14.2776 57.7501 14.7676 57.7408 15.3043C57.7314 15.8363 57.8108 16.3403 57.9834 16.8023C58.1514 17.2549 58.4128 17.6796 58.7721 18.0716C59.1268 18.4636 59.5188 18.7576 59.9481 18.9629C60.3821 19.1683 60.8581 19.2849 61.3668 19.3129C61.9128 19.3409 62.4168 19.2569 62.8694 19.0703C63.3268 18.8836 63.7514 18.5849 64.1341 18.1836C64.5308 17.7683 64.8201 17.3203 65.0114 16.8396C65.1981 16.3589 65.2868 15.8409 65.2774 15.2856C65.2681 14.7629 65.1654 14.2776 64.9788 13.8296C64.7921 13.3816 64.5121 12.9663 64.1528 12.5883C63.7981 12.2196 63.4061 11.9396 62.9814 11.7576C62.5521 11.5756 62.0854 11.4823 61.5768 11.4823C61.0448 11.4823 60.5594 11.5709 60.1114 11.7529ZM67.7741 15.3976V15.4769V21.0303V21.5296H67.2748H65.8188H65.3194V21.0303V20.4469C64.8994 20.7876 64.4514 21.0676 63.9801 21.2776C63.1634 21.6416 62.2721 21.8096 61.3108 21.7769C60.4661 21.7443 59.6868 21.5669 58.9681 21.2449C58.2494 20.9229 57.5961 20.4516 57.0081 19.8309C56.4248 19.2149 55.9814 18.5336 55.6828 17.7963C55.3841 17.0543 55.2348 16.2609 55.2348 15.4116C55.2348 14.5296 55.3934 13.7036 55.7154 12.9383C56.0328 12.1729 56.5088 11.4729 57.1341 10.8476C57.7641 10.2083 58.4594 9.73693 59.2248 9.4336C59.9901 9.13027 60.8161 8.99493 61.6981 9.0276C62.5521 9.06027 63.3408 9.2376 64.0688 9.56427C64.7968 9.89093 65.4641 10.3669 66.0568 10.9969C66.6541 11.6129 67.0974 12.2943 67.3868 13.0363C67.6714 13.7689 67.8021 14.5576 67.7741 15.3976ZM44.0534 13.3536C43.9274 13.5729 43.8201 13.8063 43.7361 14.0536H51.0441C50.9601 13.8156 50.8574 13.5916 50.7361 13.3816C50.5214 13.0083 50.2414 12.6769 49.9008 12.3876C49.5601 12.1029 49.1868 11.8836 48.7808 11.7343C48.3701 11.5849 47.9221 11.5056 47.4368 11.4963C46.9608 11.4869 46.5128 11.5569 46.0928 11.6969C45.6728 11.8416 45.2808 12.0609 44.9168 12.3503C44.5574 12.6396 44.2728 12.9756 44.0534 13.3536ZM34.4961 14.0163H37.0721V21.5249H34.4961V14.0163H37.0721C37.0721 12.6629 38.1688 11.5709 39.5174 11.5709H40.1754V8.99493H39.5174C36.7454 8.99493 34.4961 11.2443 34.4961 14.0163ZM70.4948 5.36426H71.9928H72.4921V5.8636V21.0303V21.5296H71.9928H70.4948H69.9954V21.0303V5.8636V5.36426H70.4948ZM81.9561 16.8256C82.1241 17.2783 82.3854 17.7029 82.7448 18.0949C83.1041 18.4916 83.4961 18.7856 83.9208 18.9863C84.3454 19.1869 84.8168 19.2943 85.3254 19.3129H85.3348C85.8854 19.3409 86.3848 19.2616 86.8421 19.0749C87.2994 18.8883 87.7194 18.5943 88.1021 18.1883L88.1068 18.1836C88.5034 17.7683 88.7928 17.3249 88.9841 16.8489C89.1708 16.3729 89.2594 15.8643 89.2501 15.3136C89.2314 14.7863 89.1288 14.3009 88.9374 13.8483C88.7461 13.4003 88.4708 12.9849 88.1068 12.6023C87.7521 12.2289 87.3601 11.9536 86.9401 11.7669C86.5201 11.5849 86.0581 11.4963 85.5541 11.4963H85.5448C85.0174 11.4869 84.5274 11.5803 84.0841 11.7669C83.6408 11.9536 83.2301 12.2383 82.8521 12.6163C82.4741 12.9943 82.1941 13.4049 82.0074 13.8483C81.8208 14.3009 81.7228 14.7909 81.7134 15.3276C81.7041 15.8596 81.7834 16.3589 81.9561 16.8256ZM91.2941 13.0316C91.5928 13.7736 91.7421 14.5669 91.7421 15.4163C91.7421 16.2889 91.5788 17.1056 91.2568 17.8709C90.9348 18.6316 90.4541 19.3316 89.8241 19.9663C89.1941 20.5963 88.4941 21.0676 87.7288 21.3709C86.9681 21.6743 86.1514 21.8143 85.2788 21.7816C84.4341 21.7583 83.6454 21.5856 82.9221 21.2636C82.1988 20.9416 81.5408 20.4703 80.9574 19.8543C80.3694 19.2336 79.9308 18.5569 79.6414 17.8196C79.3474 17.0823 79.2028 16.2843 79.2028 15.4349C79.2028 14.5529 79.3614 13.7269 79.6834 12.9616C80.0008 12.1963 80.4768 11.4963 81.1021 10.8709C81.7321 10.2316 82.4274 9.7556 83.1881 9.4476C83.9488 9.1396 84.7701 8.9996 85.6474 9.03227C86.4968 9.06493 87.2901 9.24227 88.0181 9.57827C88.7368 9.90493 89.3901 10.3809 89.9734 11.0063C90.5521 11.6176 90.9954 12.2943 91.2941 13.0316ZM75.3248 9.30293H76.8041H77.3034V9.80227V21.0303V21.5296H76.8041H75.3248H74.8254V21.0303V9.80227V9.30293H75.3248ZM75.3248 5.36426H76.8041H77.3034V5.8636V7.42227H74.8301V5.8636V5.36426H75.3248ZM49.5041 18.7576C49.8541 18.5336 50.1574 18.2349 50.4234 17.8616H53.2281C53.0228 18.3703 52.7614 18.8369 52.4441 19.2616C52.0568 19.7843 51.5948 20.2369 51.0488 20.6243C50.5074 21.0069 49.9334 21.2963 49.3314 21.4923C48.7341 21.6883 48.1041 21.7863 47.4414 21.8003C46.6061 21.8096 45.8174 21.6649 45.0754 21.3616C44.3334 21.0583 43.6474 20.6009 43.0128 19.9896L43.0081 19.9849C42.3734 19.3596 41.8881 18.6783 41.5614 17.9363C41.2348 17.1943 41.0621 16.3916 41.0481 15.5283C41.0248 14.6229 41.1788 13.7689 41.5008 12.9803C41.8228 12.1963 42.3128 11.4729 42.9708 10.8289C43.6381 10.1709 44.3661 9.6856 45.1501 9.3776C45.9388 9.0696 46.7881 8.93893 47.6981 8.99027C48.5101 9.0416 49.2708 9.2376 49.9754 9.56893C50.6801 9.90027 51.3288 10.3763 51.9214 10.9923C52.4954 11.5943 52.9248 12.2429 53.2141 12.9289C53.5081 13.6243 53.6528 14.3523 53.6528 15.1176V15.9249V16.4243H53.1534H49.2568H43.6521C43.7221 16.7183 43.8248 16.9983 43.9554 17.2549C44.1654 17.6609 44.4548 18.0296 44.8234 18.3469C45.2014 18.6736 45.6121 18.9209 46.0461 19.0796C46.4848 19.2429 46.9608 19.3223 47.4648 19.3129H47.4694C48.2814 19.3036 48.9534 19.1169 49.5041 18.7576Z" fill="#9DA7B0"/>
<path fill-rule="evenodd" clip-rule="evenodd" d="M27.9956 14.9265C27.9956 7.30586 21.8216 1.13184 14.2009 1.13184C6.58025 1.13184 0.40625 7.30586 0.40625 14.9265C0.40625 22.5472 6.58025 28.7212 14.2009 28.7212C21.8216 28.7212 27.9956 22.5425 27.9956 14.9265ZM19.8803 7.90786H13.8369C13.5756 7.90786 13.3609 8.12252 13.3609 8.38385V13.7459C13.3609 14.3805 12.7823 14.9219 12.1103 14.9219H7.49959C7.30359 14.9219 7.13559 15.0339 7.05625 15.2159C6.98159 15.3979 7.01892 15.5985 7.15892 15.7385L13.2209 21.8005C13.3143 21.8939 13.4263 21.9405 13.5569 21.9405H19.2223C19.4183 21.9405 19.5863 21.8285 19.6656 21.6465C19.7403 21.4645 19.7029 21.2639 19.5629 21.1239L13.6129 15.1785L13.5009 15.0665L13.3563 14.9265H13.3983C17.0663 14.9032 20.0903 12.0332 20.3563 8.42586C20.3656 8.29052 20.3236 8.16452 20.2303 8.06652C20.1369 7.95919 20.0203 7.90786 19.8803 7.90786ZM14.2009 2.3405C21.1543 2.3405 26.7869 7.97319 26.7869 14.9265C26.7869 21.8752 21.1543 27.5125 14.2009 27.5125C7.25225 27.5125 1.61492 21.8799 1.61492 14.9265C1.61492 7.97319 7.24759 2.3405 14.2009 2.3405Z" fill="#9DA7B0"/>
</g>
<defs>
<clipPath id="clip0_3590_13299">
<rect width="96.6" height="28" fill="white" transform="translate(0 0.986816)"/>
</clipPath>
</defs>
</svg>