<svg width="340" height="82" viewBox="0 0 340 82" fill="none" xmlns="http://www.w3.org/2000/svg">
<path d="M51.7444 40.7777C54.3942 36.803 55.7191 32.3131 55.7191 27.4551C55.7191 23.0388 54.615 18.9905 52.4805 15.2367C50.2723 11.4828 47.3281 8.5386 43.5743 6.33045C39.8204 4.19589 35.6985 3.0918 31.3558 3.0918H0V13.3965H31.3558C35.2569 13.3965 38.5691 14.795 41.3661 17.5184C44.0895 20.2418 45.488 23.5541 45.488 27.5287C45.488 31.5034 44.0895 34.7421 41.3661 37.5391C38.6427 40.2625 35.3305 41.661 31.3558 41.661H0V77.6539H10.3047V51.9657H31.3558C31.4294 51.9657 31.5766 51.9657 31.7238 51.9657C31.871 51.9657 32.0183 51.9657 32.0919 51.9657L45.488 77.7275H55.7927L41.2925 49.8311C45.6352 47.7702 49.0946 44.826 51.7444 40.7777Z" fill="white"/>
<path d="M66.7599 35.2573V45.562H119.24V35.2573H66.7599ZM66.7599 67.6436L61.3867 77.7275H119.314V67.6436H66.7599ZM61.3867 3.0918L66.7599 13.3965H119.24V3.0918H61.3867Z" fill="white"/>
<path d="M182.173 3.09141V56.8968L126.969 0V77.8007H137.273V24.7314L192.477 81.1866V3.09141H182.173Z" fill="white"/>
<path d="M221.108 50.1992L239.436 39.3792C244.147 36.5822 247.901 32.8283 250.624 28.044C253.348 23.2597 254.673 18.1073 254.673 12.5869V3.0918H201.088V13.3965H244.441V13.5437C244.441 17.0768 243.558 20.389 241.792 23.4805C240.025 26.5719 237.596 29.0008 234.578 30.7674L216.471 41.4401C211.687 44.2371 208.007 47.991 205.21 52.7753C202.486 57.5597 201.088 62.712 201.088 68.2324V77.6539H254.673V67.3492H211.319C211.319 63.8161 212.202 60.5039 213.969 57.4861C215.662 54.3947 218.091 51.9657 221.108 50.1992Z" fill="white"/>
<path d="M339.097 43.7207C339.097 43.7943 339.097 43.8679 339.097 43.9415C337.404 62.3428 322.83 76.6222 305.017 78.536C304.87 78.536 304.797 78.536 304.649 78.536L339.097 43.7207Z" fill="white"/>
<path d="M317.677 5.74042C316.72 5.29879 315.763 4.85717 314.733 4.41554C312.745 3.67949 310.758 3.01704 308.623 2.64902C306.121 2.13378 303.471 1.83936 300.821 1.83936C299.57 1.83936 298.245 1.91295 296.994 2.06016C288.161 2.94343 280.212 6.77089 274.103 12.6593C273.661 13.0273 273.293 13.469 272.925 13.837C267.11 19.9462 263.356 27.9692 262.547 36.8018C262.473 37.9059 262.399 39.0836 262.399 40.2613C262.399 43.1319 262.694 45.9289 263.283 48.6523C263.724 50.7132 264.313 52.7006 265.123 54.5407C265.564 55.5712 266.006 56.6016 266.521 57.6321C267.405 59.3986 268.435 61.018 269.539 62.6373L275.869 56.2336L316.573 15.1619L322.903 8.75824C321.21 7.58056 319.517 6.62369 317.677 5.74042ZM272.115 47.5482C272.042 47.2538 271.968 47.033 271.894 46.7386C271.453 44.6776 271.158 42.4694 271.158 40.2613C271.158 32.6799 274.029 25.4666 279.181 19.9463L280.212 18.8422C285.732 13.5426 293.019 10.5984 300.748 10.5984C302.809 10.5984 304.796 10.8192 306.783 11.1872C307.078 11.2608 307.372 11.3344 307.667 11.408L272.115 47.5482Z" fill="white"/>
<path d="M287.572 76.3277C286.615 75.9597 285.658 75.5917 284.775 75.15C282.861 74.2668 281.095 73.2363 279.328 72.0586L332.471 18.4004C333.649 20.0933 334.606 21.7862 335.489 23.6264C335.93 24.5832 336.372 25.5401 336.74 26.5706L287.572 76.3277Z" fill="white"/>
</svg>
