<svg width="115" height="26" viewBox="0 0 115 26" fill="none" xmlns="http://www.w3.org/2000/svg">
<path d="M101.622 25.4741H106.931V14.9948L114.924 0.738281H108.807L101.622 13.944V25.4741Z" fill="white"/>
<path d="M103.123 11.6152L97.1212 0.738281H91.0908L97.1212 11.6152H103.123Z" fill="white"/>
<path d="M82.6073 17.7769L86.6756 25.4731H92.4464L87.3681 16.3853C89.7053 14.7949 91.0902 12.239 91.0902 9.31384C91.0902 4.54274 88.0606 0.765625 81.5397 0.765625H71.0947V25.5015H76.6058V17.8337L82.6073 17.7769ZM76.6058 5.30953H81.5686C84.2519 5.30953 85.8389 6.7011 85.8389 9.22864C85.8389 11.7846 84.4251 13.0058 81.7417 13.0058H76.6058V5.30953Z" fill="white"/>
<path d="M29.1131 25.4741H34.6818V5.62298H42.7031V0.738281H21.0918V5.62298H29.1131V25.4741Z" fill="white"/>
<path d="M10.0699 8.57662V12.3537C7.24224 12.3537 5.19364 11.161 5.19364 8.66181C5.19364 6.16267 6.98256 4.6859 10.2142 4.6859C12.8687 4.6859 14.4845 5.76508 14.8596 7.18505H19.7647C19.4184 3.20913 15.6098 0 10.0987 0C4.29918 0 0.173121 3.54992 0.173121 8.77541C0.173121 14.0009 4.4723 17.068 10.0987 17.068V13.5181C13.0707 13.5181 15.1193 14.8245 15.1193 17.3804C15.1193 19.9364 13.0129 21.3563 10.1276 21.3563C7.50192 21.3563 5.68415 20.2204 5.13593 18.6584H0C0.721339 22.7763 4.55886 25.9854 10.0987 25.9854C15.6386 25.9854 20.1109 22.7195 20.1109 17.2668C20.0821 12.1549 16.1868 8.57662 10.0699 8.57662Z" fill="white"/>
<path d="M55.6584 20.9882C51.2149 20.9882 47.9833 17.353 47.9833 13.0079C47.9833 8.26523 50.8398 5.1413 55.6584 5.1413C60.1018 5.1413 63.5642 8.49243 63.5642 13.0079H68.5559C68.5559 5.96488 62.9872 0.0294084 55.6584 0.0294084C47.7813 0.00100906 42.7031 5.39689 42.7031 12.9795C42.7031 20.0226 48.3296 25.9581 55.6584 25.9581V20.9882Z" fill="white"/>
<path d="M55.5146 23.0038C61.1122 23.0038 65.3249 18.6587 65.3249 12.8652H60.766C60.766 15.9892 58.4577 18.2611 55.5435 18.2611V23.0038H55.5146Z" fill="white"/>
</svg>
