<svg width="152" height="45" viewBox="0 0 152 45" fill="none" xmlns="http://www.w3.org/2000/svg">
<path d="M70.6564 7.68699H54.1132V11.2724H60.4814V29.8988H64.2882V11.2724H70.6564V7.68699ZM75.3838 14.4305C71.3983 14.4305 68.7773 16.5562 68.7773 19.8086H71.8694C71.8694 18.2268 73.0607 17.3166 75.1997 17.3166C77.0462 17.3166 78.2321 18.138 78.2321 20.1749V20.5079L73.8296 20.8409C70.3477 21.1129 68.3875 22.8445 68.3875 25.6141C68.3875 28.3836 70.2936 30.2929 73.4181 30.2929C75.7087 30.2929 77.7014 29.2272 78.3296 27.6787L78.5949 29.8988H81.779V20.7799C81.779 16.6172 79.3368 14.4305 75.3838 14.4305ZM78.27 23.8214C78.27 26.1302 76.8404 27.4956 74.6094 27.4956C72.9741 27.4956 72.0806 26.8296 72.0806 25.4587C72.0806 24.2432 72.9416 23.4828 75.2051 23.2719L78.27 23.0277V23.8158V23.8214ZM92.5226 14.4305C90.2916 14.4305 88.3584 15.435 87.4649 17.1667L87.2266 14.8856H83.8638V36.8587H87.492V27.8952C88.4125 29.4159 90.3187 30.2929 92.5226 30.2929C96.898 30.2929 99.3944 26.8906 99.3944 22.2118C99.3944 17.533 96.6598 14.4305 92.5226 14.4305ZM91.6616 26.9517C89.1598 26.9517 87.5245 25.0979 87.5245 22.395C87.5245 19.692 89.1598 17.805 91.6616 17.805C94.1634 17.805 95.7392 19.7198 95.7392 22.395C95.7392 25.0701 94.223 26.9517 91.6616 26.9517ZM100.791 14.8856H104.42V29.8988H100.791V14.8856ZM102.606 7.40949C101.355 7.40949 100.375 8.38077 100.375 9.62956C100.375 10.8783 101.355 11.8774 102.606 11.8774C103.856 11.8774 104.777 10.8728 104.777 9.62956C104.777 8.38632 103.797 7.40949 102.606 7.40949ZM113.674 14.4638C109.12 14.4638 105.822 17.6829 105.822 22.3672C105.822 27.0516 109.125 30.2707 113.674 30.2707C118.223 30.2707 121.526 27.0516 121.526 22.3672C121.526 17.6829 118.223 14.4638 113.674 14.4638ZM113.674 26.9517C111.172 26.9517 109.45 25.0979 109.45 22.3617C109.45 19.6254 111.178 17.7717 113.674 17.7717C116.17 17.7717 117.898 19.6254 117.898 22.3617C117.898 25.0979 116.17 26.9517 113.674 26.9517ZM129.984 26.9517C127.661 26.9517 126.237 25.1867 126.237 22.3617C126.237 19.5366 127.786 17.7439 130.103 17.7439C131.831 17.7439 133.049 18.6264 133.466 20.3247H137.094C136.71 16.706 133.97 14.4305 129.952 14.4305C125.609 14.4305 122.604 17.7106 122.604 22.3617C122.604 27.0127 125.517 30.2929 129.984 30.2929C133.824 30.2929 136.677 27.8952 137.127 24.3986H133.466C133.082 26.0414 131.798 26.9517 129.984 26.9517ZM145.228 14.4305C141.242 14.4305 138.621 16.5562 138.621 19.8086H141.713C141.713 18.2268 142.905 17.3166 145.044 17.3166C146.89 17.3166 148.076 18.138 148.076 20.1749V20.5079L143.674 20.8409C140.192 21.1129 138.232 22.8445 138.232 25.6141C138.232 28.3836 140.138 30.2929 143.262 30.2929C145.553 30.2929 147.546 29.2272 148.174 27.6787L148.439 29.8988H151.623V20.7799C151.623 16.6172 149.181 14.4305 145.228 14.4305ZM148.114 23.8214C148.114 26.1302 146.685 27.4956 144.454 27.4956C142.818 27.4956 141.925 26.8296 141.925 25.4587C141.925 24.2432 142.786 23.4828 145.049 23.2719L148.114 23.0277V23.8158V23.8214ZM21.6713 0C9.70388 0 0 9.90707 0 22.1341C0 34.3611 9.70388 44.2682 21.6713 44.2682C33.6387 44.2682 43.3426 34.3556 43.3426 22.1341C43.3426 9.91262 33.6387 0 21.6713 0ZM21.6713 41.5597C10.5161 41.5597 1.47291 32.4408 1.47291 21.1906C1.47291 9.94037 10.5161 0.826976 21.6713 0.826976C32.8264 0.826976 41.8696 9.94592 41.8696 21.1961C41.8696 32.4463 32.8264 41.5653 21.6713 41.5653V41.5597Z" fill="white"/>
<path d="M21.6718 1.65234C11.3289 1.65234 2.94629 9.97761 2.94629 20.251C2.94629 30.5244 11.3289 38.8496 21.6718 38.8496C32.0146 38.8496 40.3972 30.5244 40.3972 20.251C40.3972 9.97761 32.0146 1.65234 21.6718 1.65234ZM21.6718 36.1411C12.1466 36.1411 4.4192 28.604 4.4192 19.313C4.4192 10.022 12.1466 2.47932 21.6718 2.47932C31.1969 2.47932 38.9243 10.0165 38.9243 19.3075C38.9243 28.5984 31.2023 36.1356 21.6718 36.1356V36.1411Z" fill="white"/>
<path d="M21.6712 3.3125C12.9583 3.3125 5.8916 10.056 5.8916 18.3757C5.8916 26.6954 12.9529 33.4389 21.6712 33.4389C30.3896 33.4389 37.4509 26.6954 37.4509 18.3757C37.4509 10.056 30.3842 3.3125 21.6712 3.3125ZM13.4728 28.316C15.1569 25.7463 18.1947 24.0313 21.6712 24.0313C25.1477 24.0313 28.1856 25.7463 29.8697 28.316C29.1712 28.7712 28.4293 29.1708 27.6495 29.5038C26.0791 28.1551 23.9781 27.3281 21.6712 27.3281C19.3644 27.3281 17.2633 28.1551 15.693 29.5038C14.9132 29.1708 14.1713 28.7712 13.4728 28.316ZM21.6712 20.729C17.1659 20.729 13.3374 23.3986 11.9078 27.1283C11.4836 26.7581 11.0821 26.3615 10.7056 25.9406C11.6425 21.1008 16.1966 17.4266 21.6712 17.4266C27.1459 17.4266 31.7 21.1008 32.6368 25.9406C32.2632 26.3568 31.8625 26.7564 31.4347 27.1283C30.0051 23.3986 26.1712 20.729 21.6712 20.729ZM21.6712 4.22828C29.5448 4.22828 35.9292 10.1614 35.9292 17.4766C35.9292 19.2138 35.5718 20.8677 34.9166 22.3885C35.0682 21.6336 35.1495 20.8511 35.1495 20.0518C35.1495 13.1308 29.117 7.52508 21.6712 7.52508C14.2255 7.52508 8.19302 13.1363 8.19302 20.0518C8.19302 20.8511 8.27425 21.6281 8.42587 22.3885C7.75703 20.8417 7.41207 19.1684 7.41325 17.4766C7.41325 10.1614 13.7977 4.22828 21.6712 4.22828ZM8.9728 22.6327C8.9728 16.1112 14.6587 10.8274 21.6712 10.8274C28.6838 10.8274 34.3697 16.1112 34.3697 22.6327C34.3697 22.949 34.3534 23.2654 34.3318 23.5762C34.1043 23.9814 33.8552 24.381 33.5845 24.7584C33.33 18.8474 28.0936 14.1298 21.6712 14.1298C15.2489 14.1298 10.0179 18.8474 9.75799 24.7584C9.48724 24.3754 9.23814 23.9814 9.01071 23.5762C8.98363 23.2654 8.9728 22.9546 8.9728 22.6327Z" fill="white"/>
</svg>
