<svg width="142" height="41" viewBox="0 0 142 41" fill="none" xmlns="http://www.w3.org/2000/svg">
<path d="M59.4023 26.4187C58.9127 26.4187 58.5963 26.6776 57.6752 26.6776C56.9558 26.6776 55.8046 26.6488 55.8046 24.9513V16.2625H59.0566C59.69 16.2625 60.179 15.7734 60.179 15.1404C60.179 14.5075 59.69 14.0184 59.0566 14.0184H55.8046V11.7167C55.8046 11.4002 55.5744 11.1413 55.2578 11.1413C55.0276 11.1413 54.8549 11.3139 54.7686 11.4002L50.8547 15.2268C50.682 15.3706 50.5957 15.5432 50.5957 15.7159C50.5957 16.0324 50.826 16.2625 51.1425 16.2625H53.1858V25.1815C53.1858 28.7492 56.0349 28.9793 57.3875 28.9793C58.3086 28.9793 59.0853 28.7779 59.776 28.4614C60.179 28.2601 60.4381 27.9435 60.4381 27.4545C60.4381 26.8503 59.9199 26.4187 59.4023 26.4187ZM74.5933 25.5268C75.1975 25.5268 75.7443 25.9871 75.7443 26.6488C75.7443 27.1092 75.3987 27.4832 74.9957 27.7134C73.7295 28.4326 72.4633 28.9793 69.9595 28.9793C65.2689 28.9793 62.506 26.1885 62.506 21.355C62.506 17.4709 64.6068 13.7307 69.384 13.7307C73.816 13.7307 76.2333 17.1544 76.2333 20.981C76.2333 21.7003 75.7157 22.2757 74.9097 22.2757H65.1537C65.4414 24.8651 67.082 26.5338 70.1899 26.5338C71.9164 26.5338 73.0101 26.1885 74.0751 25.6419C74.2477 25.5556 74.3915 25.5268 74.5933 25.5268ZM69.384 15.946C67.5423 15.946 65.3262 17.1544 65.1537 20.1466H73.6435C73.4704 17.1544 71.2257 15.946 69.384 15.946ZM81.3805 7.54492C80.6611 7.54492 80.0856 8.1203 80.0856 8.86839V27.5407C80.0856 28.2601 80.6611 28.8354 81.3805 28.8354C82.1291 28.8354 82.7046 28.2601 82.7046 27.5407V8.86839C82.7046 8.1203 82.1291 7.54492 81.3805 7.54492ZM98.4712 25.4405C98.2407 25.4405 98.0969 25.4692 97.8378 25.6131C96.8306 26.131 96.0247 26.5338 94.5286 26.5338C91.1903 26.5338 89.2333 24.4335 89.2333 21.355C89.2333 18.2765 91.1903 16.1762 94.5286 16.1762C96.0247 16.1762 96.8306 16.579 97.8378 17.0969C98.0969 17.2407 98.2407 17.2695 98.4712 17.2695C99.0753 17.2695 99.5649 16.6653 99.5649 16.1187C99.5649 15.6871 99.3344 15.3419 98.9894 15.1117C98.0109 14.4787 96.5715 13.7307 94.2982 13.7307C90.2118 13.7307 86.6143 16.5502 86.6143 21.355C86.6143 26.1598 90.2118 28.9793 94.2982 28.9793C96.5715 28.9793 98.0109 28.2313 98.9894 27.5983C99.3344 27.3681 99.5649 27.0229 99.5649 26.5913C99.5649 26.0447 99.0753 25.4405 98.4712 25.4405ZM109.432 13.7307C113.863 13.7307 116.799 16.8092 116.799 21.355C116.799 25.9008 113.863 28.9793 109.432 28.9793C104.971 28.9793 102.064 25.9008 102.064 21.355C102.064 16.8092 104.971 13.7307 109.432 13.7307ZM109.432 26.5913C111.619 26.5913 114.18 25.1528 114.18 21.3262C114.18 17.5285 111.619 16.1187 109.432 16.1187C107.216 16.1187 104.683 17.5285 104.683 21.3262C104.683 25.1528 107.216 26.5913 109.432 26.5913ZM121.946 13.8745C121.227 13.8745 120.651 14.45 120.651 15.198V27.5407C120.651 28.2601 121.227 28.8354 121.946 28.8354C122.695 28.8354 123.27 28.2601 123.27 27.5407V15.198C123.27 14.45 122.695 13.8745 121.946 13.8745ZM123.529 9.44377C123.529 8.63819 122.867 7.97649 122.061 7.97649H121.889C121.083 7.97649 120.421 8.63819 120.421 9.44377V9.55887C120.421 10.3645 121.083 11.0262 121.889 11.0262H122.061C122.867 11.0262 123.529 10.3645 123.529 9.55887V9.44377ZM135.986 13.7307C133.425 13.7307 131.842 15.0541 130.633 16.3776V15.198C130.633 14.45 130.029 13.8745 129.309 13.8745C128.59 13.8745 128.014 14.45 128.014 15.198V27.5407C128.014 28.2601 128.59 28.8354 129.309 28.8354C130.029 28.8354 130.633 28.2601 130.633 27.5407V18.9094C131.784 17.4709 133.281 16.1475 135.353 16.1475C137.598 16.1475 138.519 17.4709 138.519 19.6575V27.5407C138.519 28.2601 139.094 28.8354 139.814 28.8354C140.533 28.8354 141.138 28.2601 141.138 27.5407V19.3698C141.138 16.2913 139.267 13.7307 135.986 13.7307Z" fill="white"/>
<path d="M37.3699 11.0148C38.6093 12.0463 39.3912 14.1808 39.118 15.7543L36.4505 30.8822C36.1724 32.4591 34.7043 34.1927 33.191 34.7388L18.6611 39.978C17.1478 40.5241 14.897 40.1273 13.6617 39.0965L1.80004 29.2037C0.560642 28.1722 -0.221942 26.0418 0.0561129 24.4649L2.72356 9.33704C3.00161 7.76009 4.46975 6.02655 5.98307 5.48042L20.5123 0.245315C22.0256 -0.300819 24.2763 0.0960434 25.5116 1.12683L37.3699 11.0148ZM25.0097 17.8068L25.6016 14.7331L20.0536 14.7419L20.8436 10.6881H19.0467C19.0467 10.6881 17.3672 13.6921 13.6639 15.1627L13.1534 17.8135L15.5796 17.8184C15.5796 17.8184 14.7583 21.6281 14.4876 23.0335C13.7988 26.6108 15.5226 29.1491 18.1728 29.149C19.5025 29.1491 20.9957 29.1491 22.6524 29.1491L23.4379 25.7513C23.2469 25.7513 21.9979 25.7513 19.6909 25.7513C18.0256 25.7513 18.1132 24.8181 18.433 23.1572L19.4637 17.805L25.0097 17.8068Z" fill="white"/>
</svg>
