<svg width="160" height="37" viewBox="0 0 160 37" fill="none" xmlns="http://www.w3.org/2000/svg">
<g clip-path="url(#clip0_25090_354)">
<mask id="mask0_25090_354" style="mask-type:luminance" maskUnits="userSpaceOnUse" x="0" y="0" width="160" height="37">
<path d="M159.539 0H0V36.2588H159.539V0Z" fill="white"/>
</mask>
<g mask="url(#mask0_25090_354)">
<path fill-rule="evenodd" clip-rule="evenodd" d="M152.795 0V11.4651C151.204 9.53891 148.747 8.25482 145.326 8.25482C138.724 8.25482 133.858 12.9785 133.858 20.2701C133.858 27.7454 138.724 32.3773 145.375 32.3773C148.941 32.3773 151.349 30.8639 152.988 28.8461L153.661 32.1021H159.589V0H152.795ZM152.89 20.3619C152.89 24.3518 150.578 27.1034 146.868 27.1034C143.157 27.1034 140.797 24.3518 140.797 20.3161C140.797 16.2803 143.157 13.5288 146.868 13.5288C150.578 13.5288 152.89 16.3263 152.89 20.3619ZM91.8981 24.2601H85.4419C85.7309 29.3047 90.4047 32.3773 97.2949 32.3773C103.945 32.3773 108.571 29.3964 108.571 24.7186C108.571 19.3988 103.849 18.1606 98.1629 17.6103L97.8159 17.5703C94.4599 17.1838 92.477 16.9554 92.477 15.2256C92.477 13.7121 94.2114 12.795 96.8618 12.795C99.6083 12.795 101.487 13.9415 101.68 15.8218H108.186C107.848 11.0064 103.271 8.20895 96.6208 8.20895C90.2598 8.16314 85.9719 11.2357 85.9719 15.9135C85.9719 20.7746 90.4528 22.0129 96.2356 22.6549L96.6696 22.7095C100.357 23.1721 101.921 23.3682 101.921 25.2231C101.921 26.8741 100.186 27.7454 97.3438 27.7454C94.0184 27.7454 92.1391 26.3238 91.8981 24.2601ZM76.2848 8.53001V20.3161C76.2848 24.6727 74.3095 27.0116 70.936 27.0116C67.5631 27.0116 66.1175 24.9479 66.1175 20.7288V8.53001H59.3232V21.6001C59.3232 29.9468 64.0455 32.3773 69.1533 32.3773C72.6712 32.3773 74.8395 31.0932 76.429 29.2588L77.0559 32.1021H83.0789V8.53001H76.2848ZM109.318 24.2601H115.775C116.016 26.3238 117.895 27.7454 121.219 27.7454C124.063 27.7454 125.798 26.8741 125.798 25.2231C125.798 23.3682 124.234 23.1721 120.545 22.7095L120.111 22.6549C114.329 22.0129 109.848 20.7746 109.848 15.9135C109.848 11.2357 114.136 8.16314 120.497 8.20895C127.147 8.20895 131.724 11.0064 132.062 15.8218H125.556C125.364 13.9415 123.484 12.795 120.738 12.795C118.088 12.795 116.353 13.7121 116.353 15.2256C116.353 16.9554 118.336 17.1838 121.692 17.5703L122.039 17.6103C127.726 18.1606 132.448 19.3988 132.448 24.7186C132.448 29.3964 127.821 32.3773 121.171 32.3773C114.281 32.3773 109.607 29.3047 109.318 24.2601Z" fill="#FAFAFA"/>
<path fill-rule="evenodd" clip-rule="evenodd" d="M22.3357 34.5635C21.2158 35.6504 19.7165 36.2584 18.1559 36.2584C8.12865 36.2584 0 28.3693 0 18.6375V17.4312C0 7.80418 8.04111 0 17.9603 0V8.13272C12.6691 8.13272 8.37962 12.2957 8.37962 17.4312V18.6375C8.37962 23.8137 12.6503 28.0218 17.9586 28.1238L34.1866 12.3738V23.0617L22.3357 34.5635ZM30.0066 1.69488C31.1265 0.607963 32.6258 3.68844e-05 34.1864 3.68844e-05C44.2137 3.68844e-05 52.3423 7.88918 52.3423 17.6209V18.8273C52.3423 28.4542 44.3012 36.2585 34.382 36.2585V28.1257C39.6732 28.1257 43.9626 23.9626 43.9626 18.8273V17.6209C43.9626 12.4448 39.6919 8.23662 34.3838 8.13466L18.1556 23.8845V13.1966L30.0066 1.69488Z" fill="white"/>
</g>
</g>
<defs>
<clipPath id="clip0_25090_354">
<rect width="159.539" height="36.2588" fill="white"/>
</clipPath>
</defs>
</svg>
