<svg width="168" height="27" viewBox="0 0 168 27" fill="none" xmlns="http://www.w3.org/2000/svg">
<path d="M48.8648 25.3284C57.2663 25.3284 57.4509 18.8984 57.4509 14.1089V1.41325H53.6349V11.6157C53.6349 19.4233 53.204 21.6869 48.8648 21.6869C44.6181 21.6869 44.2487 19.4233 44.2487 11.6157V1.34766H40.4326V14.1089C40.4326 18.8984 40.6174 25.3284 48.8648 25.3284Z" fill="white"/>
<path d="M80.8339 18.2427C80.8339 13.65 67.9703 15.9463 67.9703 8.17147C67.9703 3.64426 71.3246 0.724609 76.0023 0.724609C81.4187 0.724609 84.7423 3.41465 84.9269 9.35232L81.0187 8.69636C81.0187 4.98928 78.5258 4.26758 76.0638 4.26758C73.7866 4.26758 72.0016 5.28454 72.0016 7.58083C72.0016 12.9938 84.7423 10.0085 84.7423 17.6193C84.7423 22.3106 81.6957 25.3287 76.3101 25.3287C71.6325 25.3287 67.7549 21.7857 67.7549 16.7008L71.7247 17.0617C71.7247 20.1453 73.9405 21.7857 76.3101 21.7857C78.9567 21.7857 80.8339 20.5719 80.8339 18.2427Z" fill="white"/>
<path d="M104.029 25.3284C112.43 25.3284 112.615 18.8984 112.615 14.1089V1.41325H108.799V11.6157C108.799 19.4233 108.368 21.6869 104.029 21.6869C99.7819 21.6869 99.4127 19.4233 99.4127 11.6157V1.34766H95.5967V14.1089C95.5967 18.8984 95.7813 25.3284 104.029 25.3284Z" fill="white"/>
<path d="M139.52 24.6707H143.613L135.796 1.37891H129.979L122.07 24.6707H126.163L128.225 18.0111H137.488L139.52 24.6707ZM129.302 14.5339L132.349 4.75784C132.626 3.54405 132.718 2.59269 132.718 2.59269H133.088C133.088 2.59269 133.149 3.54405 133.426 4.75784L136.411 14.5339H129.302Z" fill="white"/>
<path d="M157.106 21.1277V1.37891H153.29V24.6707H167.508V21.1277H157.106Z" fill="white"/>
<path fill-rule="evenodd" clip-rule="evenodd" d="M12.8479 26.0513C15.1444 26.0513 17.0839 24.4347 17.9088 22.2616C17.9837 22.064 18.0564 21.8652 18.1267 21.6653C21.0983 19.964 23.1047 16.7324 23.1047 13.0256C23.1047 9.31903 21.0983 6.08743 18.1267 4.38604C18.0564 4.18607 17.9837 3.98721 17.9086 3.78958C17.0839 1.61654 15.1444 0 12.8479 0C5.7523 0 0 5.83176 0 13.0256C0 20.2194 5.7523 26.0513 12.8479 26.0513ZM18.1267 4.38604C16.7084 3.57411 15.0699 3.11064 13.3249 3.11064C7.92371 3.11064 3.54514 7.54978 3.54514 13.0256C3.54514 18.5015 7.92371 22.9406 13.3249 22.9406C15.0699 22.9406 16.7084 22.4774 18.1267 21.6653C19.0762 18.9649 19.5932 16.0565 19.5932 13.0256C19.5932 9.99473 19.0762 7.08643 18.1267 4.38604Z" fill="white"/>
</svg>
