<svg width="135" height="28" viewBox="0 0 135 28" fill="none" xmlns="http://www.w3.org/2000/svg">
<g clip-path="url(#clip0_25090_269)">
<path fill-rule="evenodd" clip-rule="evenodd" d="M41.3799 13.6072C41.3799 6.09299 47.3629 0 54.7415 0C62.1201 0 68.1031 6.09299 68.1031 13.6072C68.1031 21.1213 62.1201 27.2143 54.7415 27.2143C47.3629 27.2143 41.3799 21.1213 41.3799 13.6072ZM47.5658 13.6072C47.5658 17.644 50.7775 20.9147 54.7415 20.9147C58.7054 20.9147 61.9172 17.644 61.9172 13.6072C61.9172 9.57037 58.7054 6.29962 54.7415 6.29962C50.7775 6.29962 47.5658 9.57037 47.5658 13.6072Z" fill="white"/>
<path fill-rule="evenodd" clip-rule="evenodd" d="M72.5566 13.6072C72.5566 6.09299 78.5396 0 85.9182 0C93.2968 0 99.2798 6.09299 99.2798 13.6072C99.2798 21.1213 93.2968 27.2143 85.9182 27.2143C78.5396 27.2143 72.5566 21.1213 72.5566 13.6072ZM78.7425 13.6072C78.7425 17.644 81.9543 20.9147 85.9182 20.9147C89.8822 20.9147 93.0939 17.644 93.0939 13.6072C93.0939 9.57037 89.8822 6.29962 85.9182 6.29962C81.9543 6.29962 78.7425 9.57037 78.7425 13.6072Z" fill="white"/>
<path d="M1.0127 0.503906H7.4807L12.5631 17.4272L16.0271 8.6934C16.4825 7.54939 17.5712 6.80352 18.7787 6.80352H21.2431C22.4556 6.80352 23.5443 7.54939 23.9946 8.6934L27.4588 17.4272L29.364 11.0873H35.832L31.784 24.5684C31.4029 25.8384 30.2499 26.7103 28.9433 26.7103H26.6768C25.4643 26.7103 24.3756 25.9644 23.9254 24.8205L20.0108 14.9577L16.0964 24.8205C15.6412 25.9644 14.5524 26.7103 13.3449 26.7103H11.0784C9.77196 26.7103 8.61891 25.8434 8.23785 24.5684L1.0127 0.503906Z" fill="white"/>
<path d="M30.6514 6.80352L32.5418 0.503906H39.0147L37.1193 6.80352H30.6514Z" fill="white"/>
<path fill-rule="evenodd" clip-rule="evenodd" d="M120.728 6.80351V0.503906H109.717C106.986 0.503906 104.769 2.76169 104.769 5.5436V26.9623H110.707V17.1349H120.728V11.0873H110.707V6.80351H120.728ZM132.605 0.503906H126.667V6.80351H132.605V0.503906ZM126.667 11.0873H132.605V26.9623H126.667V11.0873Z" fill="url(#paint0_linear_25090_269)"/>
</g>
<defs>
<linearGradient id="paint0_linear_25090_269" x1="104.175" y1="27.2145" x2="132.899" y2="0.0403625" gradientUnits="userSpaceOnUse">
<stop stop-color="white"/>
<stop offset="1" stop-color="white"/>
</linearGradient>
<clipPath id="clip0_25090_269">
<rect width="134.371" height="27.2143" fill="white"/>
</clipPath>
</defs>
</svg>
