<svg width="177" height="16" viewBox="0 0 177 16" fill="none" xmlns="http://www.w3.org/2000/svg">
<path d="M134.395 0H126.096C122.907 0 120.323 2.49392 120.323 5.57296V10.427C120.323 13.5061 122.907 16 126.096 16H134.592V15.9917C137.688 15.8913 140.168 13.442 140.168 10.427V5.57298C140.168 2.49392 137.585 0 134.395 0ZM133.5 13.3417H126.99V2.65832H133.5V13.3417ZM42.2072 0H33.9083C30.7187 0 28.1352 2.49392 28.1352 5.57296V10.427C28.1352 13.5061 30.7187 16 33.9083 16H42.4034V15.9917C45.5008 15.8913 47.9802 13.442 47.9802 10.427V5.57298C47.9802 2.49392 45.3968 0 42.2072 0ZM41.3123 13.3417H34.8031V2.65832H41.3123V13.3417ZM88.6547 2.78648H88.6576L83.837 10.845V0H80.4973C78.4334 0 76.5283 1.06165 75.4977 2.78648L68.5123 14.4647L65.4381 9.32637C67.6464 9.30128 69.4302 7.56531 69.4302 5.42805V3.90108C69.4302 1.74712 67.6204 0 65.389 0H49.5852V16H56.2531V9.32915H57.7426L61.7318 16H70.6744L77.1691 5.13827V16H83.837V15.9944L90.3029 5.18287V16H96.9708V0H93.6542C91.5903 0 89.6852 1.06165 88.6547 2.78648ZM62.7623 6.67083H56.2531V2.65832H62.7623V6.67083ZM112.009 0H118.677V16H112.009V9.32915H105.501V16H98.8326V0H105.501V6.67085H112.009V0ZM148.481 13.3417H157.089V16H147.586C144.397 16 141.813 13.5061 141.813 10.427V0H148.481V13.3417ZM165.471 2.6583V6.67083H174.596V9.32915H165.471V13.3417H177V16H158.803V0H177V2.65832L165.471 2.6583ZM29.3794 0L21.4759 13.2135C20.4455 14.9383 18.5403 16 16.4764 16H13.1367V5.155L8.31615 13.2135C7.28566 14.9383 5.38053 16 3.31664 16H0V0H6.67083V10.8171L13.1367 0.00556212V0H19.8046V10.8617L26.2994 0H29.3794Z" fill="white"/>
</svg>
