<svg width="269" height="58" viewBox="0 0 269 58" fill="none" xmlns="http://www.w3.org/2000/svg">
<path d="M246.282 46.5097C243.923 46.5097 241.858 45.9152 240.085 44.7262C238.311 43.5386 236.925 41.9222 235.928 39.877C234.947 37.8332 234.457 35.527 234.457 32.9584C234.457 30.3443 234.955 28.0222 235.953 25.9922C236.965 23.9484 238.382 22.3396 240.203 21.1658C242.024 19.9933 244.161 19.4071 246.616 19.4071C249.053 19.4071 251.103 20.0016 252.765 21.1906C254.428 22.3782 255.686 23.9946 256.542 26.0398C257.397 28.0836 257.825 30.3898 257.825 32.9584C257.825 35.527 257.389 37.8332 256.517 39.877C255.663 41.9208 254.381 43.5365 252.67 44.7241C250.961 45.9145 248.832 46.5097 246.282 46.5097ZM247.327 40.7553C248.768 40.7553 249.915 40.4307 250.771 39.7817C251.641 39.1313 252.267 38.2198 252.647 37.0474C253.027 35.875 253.216 34.512 253.216 32.9584C253.216 31.4048 253.027 30.0418 252.647 28.8694C252.268 27.697 251.658 26.7855 250.818 26.1351C249.995 25.4861 248.91 25.1615 247.565 25.1615C246.124 25.1615 244.936 25.5178 244.002 26.2304C243.083 26.9278 242.403 27.871 241.96 29.06C241.504 30.3085 241.279 31.6294 241.296 32.9584C241.296 34.4001 241.509 35.7155 241.937 36.9045C242.365 38.0783 243.021 39.0132 243.907 39.7092C244.795 40.4066 245.935 40.7553 247.327 40.7553ZM253.216 45.795V28.2045H252.409V11.5626H258.917V45.795H253.216ZM225.528 45.795V33.671C225.528 33.0855 225.496 32.3397 225.433 31.4338C225.364 30.4923 225.164 29.565 224.839 28.6788C224.517 27.7722 223.95 26.9731 223.2 26.3713C222.457 25.754 221.396 25.4453 220.02 25.4453C219.465 25.4453 218.871 25.5323 218.238 25.7063C217.571 25.8994 216.96 26.2496 216.456 26.7275C215.902 27.2205 215.443 27.9497 215.08 28.915C214.731 29.8816 214.557 31.1659 214.557 32.7678L210.853 31.0071C210.853 28.9771 211.264 27.0755 212.086 25.3024C212.892 23.5475 214.177 22.0561 215.792 21C217.453 19.9063 219.543 19.3595 222.062 19.3595C224.072 19.3595 225.71 19.6999 226.976 20.3807C228.243 21.0629 229.224 21.9267 229.921 22.972C230.634 24.0188 231.141 25.1125 231.442 26.2532C231.743 27.3773 231.925 28.4075 231.988 29.3438C232.052 30.2773 232.083 30.9588 232.083 31.3883V45.795H225.528ZM208.002 45.795V20.1197H213.75V28.6312H214.557V45.795H208.002ZM193.67 46.5076C191.044 46.5076 188.725 45.9456 186.713 44.8215C184.75 43.7163 183.124 42.0973 182.01 40.138C180.887 38.1411 180.326 35.8591 180.326 33.2919C180.326 30.4858 180.88 28.045 181.987 25.9694C183.095 23.8911 184.623 22.2823 186.571 21.143C188.517 19.9857 190.757 19.4071 193.291 19.4071C195.981 19.4071 198.269 20.041 200.153 21.3087C202.037 22.5764 203.431 24.3592 204.333 26.6571C205.236 28.955 205.554 31.6575 205.285 34.7647H198.895V32.3867C198.895 29.7725 198.476 27.8945 197.637 26.7524C196.813 25.5965 195.459 25.0186 193.575 25.0186C191.376 25.0186 189.754 25.6918 188.708 27.0383C187.678 28.3695 187.163 30.3429 187.164 32.9584C187.164 35.3502 187.679 37.2041 188.708 38.5202C189.752 39.8197 191.28 40.4694 193.291 40.4694C194.558 40.4694 195.642 40.1925 196.544 39.6388C197.446 39.0836 198.136 38.2827 198.611 37.2359L205.069 39.0919C204.104 41.4368 202.576 43.2596 200.486 44.5605C198.447 45.8479 196.081 46.5236 193.67 46.5076ZM185.17 34.7647V29.9631H202.173V34.7647H185.17ZM158.429 45.795V11.5626H164.887V39.7568H179.612V45.795H158.429ZM141.619 46.5076C139.036 46.5076 136.772 45.9297 134.825 44.7738C132.894 43.633 131.315 41.9789 130.265 39.995C129.189 37.9499 128.651 35.6043 128.651 32.9584C128.651 30.2794 129.205 27.9255 130.312 25.8969C131.367 23.9087 132.954 22.2539 134.896 21.1181C136.844 19.9775 139.084 19.4071 141.617 19.4071C144.196 19.4071 146.46 19.9857 148.408 21.143C150.356 22.2806 151.944 23.9447 152.991 25.9445C154.084 27.9745 154.63 30.3125 154.63 32.9584C154.63 35.6209 154.076 37.974 152.968 40.0178C151.915 42.0067 150.327 43.6617 148.385 44.7966C146.437 45.9373 144.182 46.5076 141.619 46.5076ZM141.619 40.4694C143.691 40.4694 145.234 39.772 146.247 38.3773C147.277 36.9687 147.791 35.1624 147.791 32.9584C147.791 30.6757 147.268 28.8528 146.223 27.4898C145.194 26.1268 143.658 25.4453 141.617 25.4453C140.208 25.4453 139.053 25.763 138.151 26.3982C137.247 27.0307 136.574 27.9096 136.131 29.0351C135.703 30.1606 135.49 31.4684 135.49 32.9584C135.49 35.2577 136.004 37.0875 137.033 38.4477C138.077 39.7955 139.607 40.4694 141.619 40.4694ZM112.867 45.795V20.1197H118.565V26.3961L117.949 25.5883C118.272 24.7199 118.72 23.9035 119.279 23.1647C119.831 22.4342 120.512 21.8314 121.322 21.3563C121.938 20.9766 122.611 20.6831 123.339 20.476C124.072 20.2528 124.829 20.1173 125.594 20.072C126.371 20.0085 127.147 20.0244 127.922 20.1197V26.1579C127.211 25.937 126.379 25.8658 125.429 25.9445C124.496 26.0081 123.649 26.2221 122.888 26.5867C122.159 26.9136 121.506 27.3889 120.97 27.9823C120.435 28.5757 120.029 29.2743 119.778 30.0335C119.509 30.811 119.374 31.6907 119.374 32.6725V45.795H112.867ZM97.7923 46.5076C95.163 46.5076 92.8434 45.9456 90.8335 44.8215C88.8704 43.7163 87.2445 42.0973 86.1301 40.138C85.0072 38.1411 84.4458 35.8591 84.4458 33.2919C84.4458 30.4858 84.9996 28.045 86.1074 25.9694C87.2151 23.8911 88.7429 22.2823 90.6907 21.143C92.6385 19.9857 94.8788 19.4071 97.4116 19.4071C100.102 19.4071 102.389 20.041 104.273 21.3087C106.158 22.5764 107.551 24.3592 108.453 26.6571C109.357 28.955 109.674 31.6575 109.405 34.7647H103.015V32.3867C103.015 29.7725 102.596 27.8945 101.757 26.7524C100.933 25.5965 99.5801 25.0186 97.6971 25.0186C95.4955 25.0186 93.8725 25.6918 92.8282 27.0383C91.7991 28.3695 91.2846 30.3429 91.2846 32.9584C91.2846 35.3502 91.7991 37.2041 92.8282 38.5202C93.8725 39.8197 95.4003 40.4694 97.4116 40.4694C98.6779 40.4694 99.7622 40.1925 100.664 39.6388C101.567 39.0836 102.256 38.2827 102.732 37.2359L109.19 39.0919C108.224 41.4368 106.696 43.2596 104.606 44.5605C102.567 45.8479 100.203 46.5236 97.7923 46.5076ZM89.2857 34.7647V29.9631H106.291V34.7647H89.2857ZM54.5371 45.795V44.9872L70.7806 17.6029H55.9628V11.5605H82.0848V12.3684L65.9365 39.7092H81.6109V45.795H54.5371Z" fill="white"/>
<path d="M37.2753 10.0724L37.277 10.0736C40.8708 12.5926 41.7442 17.5512 39.2278 21.1488L21.8652 45.9715C19.3488 49.5692 14.3955 50.4435 10.8017 47.9244L10.8 47.9232C7.20619 45.4041 6.33279 40.4456 8.84919 36.848L26.2118 12.0252C28.7282 8.42762 33.6815 7.55329 37.2753 10.0724Z" stroke="white" stroke-width="2.98"/>
</svg>
