<svg xmlns="http://www.w3.org/2000/svg" width="112" height="33" fill="none" data-sentry-element="ZivoeLogo" data-sentry-source-file="navigation.tsx" viewBox="0 0 112 33"><path fill="#F08F48" d="m21.554 27.167-3.08 5.333h-6.158l-3.079-5.333h6.159l3.079-5.333zM6.158 21.833h6.158l-3.079 5.333H3.08L0 21.833 3.08 16.5zm24.633 0-3.08 5.333h-6.157l3.079-5.333-3.08-5.333h6.159zM21.554 16.5l-3.08 5.333h-6.158L9.237 16.5l3.08-5.333h6.158zM6.158 11.165l3.08 5.333h-6.16L0 11.165l3.08-5.333h6.157zm24.632.001-3.08 5.332-3.077-5.332h-6.158l3.079-5.333h6.158zm-9.236-5.333h-6.158l-3.08 5.333-3.079-5.333L12.317.5h6.158z"/><path fill="#12131A" d="M103.731 27.616c-5.025 0-8.465-3.502-8.465-8.496 0-5.237 3.47-8.647 8.16-8.647 4.628 0 7.795 3.258 7.887 8.525v.975H99.346c.304 2.497 1.979 4.202 4.415 4.202 1.705 0 2.954-.792 3.471-2.192h4.02c-.883 3.562-3.654 5.633-7.521 5.633m-4.202-10.414h7.521c-.457-2.07-1.736-3.258-3.624-3.258s-3.349 1.218-3.897 3.258m-13.77 10.414c-5.268 0-8.435-3.654-8.435-8.678 0-5.238 3.532-8.465 8.435-8.465 5.237 0 8.434 3.623 8.434 8.465 0 5.359-3.502 8.678-8.434 8.678m0-3.502c2.649 0 4.263-2.131 4.263-5.177 0-3.014-1.675-4.993-4.264-4.993-2.588 0-4.262 1.979-4.262 4.993 0 3.228 1.735 5.177 4.263 5.177m-14.316 3.014h-4.294L60.42 10.99h4.477l4.385 11.266 4.384-11.266h4.507zM57.203 9.102c-1.431 0-2.558-1.126-2.558-2.588 0-1.43 1.127-2.497 2.558-2.497s2.527 1.066 2.527 2.497c0 1.462-1.096 2.588-2.527 2.588m2.07 18.027h-4.171V10.99h4.171zm-5.81 0H37.11V23.23L48.195 9.559H37.659V5.814h15.5V9.71L42.074 23.353h11.388z"/></svg>