<svg width="183" height="37" viewBox="0 0 183 37" fill="none" xmlns="http://www.w3.org/2000/svg">
<path d="M89.6332 26.896H75.8486V22.9212L83.74 14.0884H76.0518V10.1816H89.4978V13.9526L81.3692 22.9552H89.6332V26.896Z" fill="white" fill-opacity="0.9"/>
<path d="M108.445 10.1804L101.773 17.2127L108.581 26.8948H103.06L98.6574 20.508L96.7947 22.4784V26.8948H92.29V2.29883H96.7947V16.3974L102.552 10.1804H108.445Z" fill="white" fill-opacity="0.9"/>
<path d="M128.038 8.54971L123.838 9.84077C123.68 8.98006 123.251 8.19877 122.551 7.49662C121.852 6.79448 120.823 6.44354 119.469 6.44354C118.363 6.44354 117.46 6.74927 116.759 7.36073C116.06 7.94965 115.71 8.66306 115.71 9.50097C115.71 10.9731 116.579 11.8791 118.318 12.2187L121.67 12.8643C123.793 13.2719 125.441 14.1212 126.615 15.4122C127.79 16.7031 128.377 18.2205 128.377 19.9644C128.377 21.9575 127.586 23.7013 126.006 25.1962C124.448 26.6683 122.348 27.4043 119.706 27.4043C118.194 27.4043 116.827 27.1778 115.608 26.725C114.389 26.2719 113.407 25.6717 112.662 24.9244C111.916 24.1544 111.329 23.3503 110.9 22.5124C110.494 21.6517 110.246 20.7684 110.155 19.8625L114.491 18.7074C114.603 19.9984 115.101 21.0741 115.98 21.9348C116.883 22.7954 118.138 23.2258 119.74 23.2258C120.959 23.2258 121.908 22.954 122.585 22.4104C123.285 21.8668 123.635 21.1534 123.635 20.2702C123.635 19.568 123.375 18.968 122.855 18.4696C122.36 17.9487 121.648 17.5978 120.723 17.4165L117.369 16.737C115.427 16.3294 113.892 15.5254 112.763 14.325C111.634 13.1246 111.07 11.6299 111.07 9.84077C111.07 7.7118 111.883 5.92264 113.508 4.47314C115.157 3.02364 117.133 2.29883 119.435 2.29883C120.813 2.29883 122.044 2.49133 123.127 2.87635C124.21 3.26136 125.081 3.78227 125.734 4.43907C126.39 5.07333 126.897 5.73013 127.259 6.40947C127.62 7.08894 127.88 7.80235 128.038 8.54971Z" fill="white" fill-opacity="0.9"/>
<path d="M135.965 33.4865H131.19L135.118 24.7897L128.039 10.1816H133.086L137.523 19.9656L141.621 10.1816H146.43L135.965 33.4865Z" fill="white" fill-opacity="0.9"/>
<path d="M152.648 17.2801V26.8943H148.143V10.1799H152.512V12.2523C152.986 11.4369 153.663 10.814 154.544 10.3837C155.425 9.95346 156.35 9.73828 157.321 9.73828C159.285 9.73828 160.776 10.3611 161.793 11.6067C162.831 12.8298 163.351 14.415 163.351 16.3629V26.8943H158.846V17.1442C158.846 16.1477 158.586 15.3436 158.066 14.7322C157.569 14.1207 156.802 13.815 155.763 13.815C154.815 13.815 154.059 14.1434 153.495 14.8002C152.93 15.4569 152.648 16.2836 152.648 17.2801Z" fill="white" fill-opacity="0.9"/>
<path d="M174.39 13.8486C173.193 13.8486 172.188 14.2675 171.376 15.1056C170.563 15.9435 170.156 17.0872 170.156 18.5367C170.156 19.9862 170.563 21.1413 171.376 22.0018C172.212 22.8399 173.227 23.2588 174.424 23.2588C175.485 23.2588 176.332 22.987 176.965 22.4435C177.597 21.8773 178.026 21.2091 178.252 20.4391L182.214 21.7641C181.808 23.3042 180.927 24.629 179.572 25.7389C178.218 26.8486 176.502 27.4034 174.424 27.4034C171.94 27.4034 169.852 26.5655 168.158 24.8896C166.488 23.191 165.652 21.0733 165.652 18.5367C165.652 15.9774 166.476 13.8598 168.124 12.1839C169.796 10.508 171.85 9.66992 174.288 9.66992C176.411 9.66992 178.15 10.2249 179.505 11.3346C180.859 12.4217 181.728 13.7466 182.112 15.3093L178.082 16.6683C177.54 14.7884 176.31 13.8486 174.39 13.8486Z" fill="white" fill-opacity="0.9"/>
<path fill-rule="evenodd" clip-rule="evenodd" d="M61.4867 18.0397L44.0349 0.0273438V13.2111L26.7139 26.422H44.0349V36.0521L61.4867 18.0397Z" fill="white"/>
<path fill-rule="evenodd" clip-rule="evenodd" d="M0 18.0395L17.4518 36.0518V22.9495L34.7729 9.6301H17.4518V0L0 18.0395Z" fill="white"/>
</svg>
